<svg width="40" height="40" viewBox="0 0 40 40" fill="none" xmlns="http://www.w3.org/2000/svg">
<g id="Check 2" clip-path="url(#clip0_892_1083)">
<path id="Star 1" d="M18.365 2.32103C19.1616 1.19009 20.8384 1.19009 21.635 2.32103L22.9214 4.14704C23.4779 4.93701 24.5196 5.21614 25.3965 4.81025L27.4235 3.87204C28.6789 3.29096 30.131 4.12932 30.2555 5.50708L30.4565 7.73162C30.5434 8.694 31.306 9.45659 32.2684 9.54354L34.4929 9.74453C35.8707 9.86901 36.709 11.3211 36.128 12.5765L35.1898 14.6035C34.7839 15.4804 35.063 16.5221 35.853 17.0786L37.679 18.365C38.8099 19.1616 38.8099 20.8384 37.679 21.635L35.853 22.9214C35.063 23.4779 34.7839 24.5196 35.1898 25.3965L36.128 27.4235C36.709 28.6789 35.8707 30.131 34.4929 30.2555L32.2684 30.4565C31.306 30.5434 30.5434 31.306 30.4565 32.2684L30.2555 34.4929C30.131 35.8707 28.6789 36.709 27.4235 36.128L25.3965 35.1898C24.5196 34.7839 23.4779 35.063 22.9214 35.853L21.635 37.679C20.8384 38.8099 19.1616 38.8099 18.365 37.679L17.0786 35.853C16.5221 35.063 15.4804 34.7839 14.6035 35.1898L12.5765 36.128C11.3211 36.709 9.86901 35.8707 9.74453 34.4929L9.54354 32.2684C9.45659 31.306 8.694 30.5434 7.73162 30.4565L5.50708 30.2555C4.12932 30.131 3.29096 28.6789 3.87204 27.4235L4.81025 25.3965C5.21614 24.5196 4.93701 23.4779 4.14704 22.9214L2.32103 21.635C1.19009 20.8384 1.19009 19.1616 2.32103 18.365L4.14704 17.0786C4.93701 16.5221 5.21614 15.4804 4.81025 14.6035L3.87204 12.5765C3.29096 11.3211 4.12932 9.86901 5.50708 9.74453L7.73162 9.54354C8.694 9.45659 9.45659 8.694 9.54354 7.73162L9.74453 5.50708C9.86901 4.12932 11.3211 3.29096 12.5765 3.87204L14.6035 4.81025C15.4804 5.21614 16.5221 4.93701 17.0786 4.14704L18.365 2.32103Z" fill="#24A148"/>
<path id="check_circle" d="M16.2554 24.5992C17.0362 25.3741 18.2962 25.3731 19.0757 24.5969L26.5161 17.1878C27.1051 16.6012 27.1061 15.6478 26.5183 15.06C25.9324 14.4741 24.983 14.4728 24.3955 15.0571L17.6667 21.75L15.1886 19.3011C14.6002 18.7196 13.6526 18.7224 13.0676 19.3074C12.4786 19.8964 12.4804 20.8519 13.0715 21.4387L16.2554 24.5992Z" fill="white"/>
</g>
<defs>
<clipPath id="clip0_892_1083">
<rect width="40" height="40" fill="white"/>
</clipPath>
</defs>
</svg>
