<svg width="240" height="204" viewBox="0 0 240 204" fill="none" xmlns="http://www.w3.org/2000/svg">
<path d="M55.7123 33.7189L52.2088 37.1853L48.3745 33.7188" stroke="#93A7BE" stroke-width="1.5" stroke-linecap="round" stroke-linejoin="round"/>
<path d="M52.3349 36.2993C49.6363 17.5997 91.198 18.9623 118.159 18.9623" stroke="#93A7BE" stroke-width="1.5" stroke-linecap="round"/>
<path d="M126.28 119.076L126.28 138.216" stroke="#93A7BE" stroke-width="1.5" stroke-linecap="round"/>
<path d="M129.949 121.449L126.446 117.982L122.612 121.449" stroke="#93A7BE" stroke-width="1.5" stroke-linecap="round" stroke-linejoin="round"/>
<path d="M126.28 161.888L126.28 174.867" stroke="#93A7BE" stroke-width="1.5" stroke-linecap="round"/>
<path d="M129.949 164.261L126.446 160.795L122.612 164.261" stroke="#93A7BE" stroke-width="1.5" stroke-linecap="round" stroke-linejoin="round"/>
<path d="M158.868 32.1043C160.216 77.7515 126.998 51.0322 126.998 90.9438" stroke="#93A7BE" stroke-width="1.5" stroke-linecap="round"/>
<path d="M162.537 34.4803L159.034 31.0139L155.2 34.4804" stroke="#93A7BE" stroke-width="1.5" stroke-linecap="round" stroke-linejoin="round"/>
<path d="M52.5386 66.9681C45.933 93.4089 126.126 63.8546 126.126 89.8506" stroke="#93A7BE" stroke-width="1.5" stroke-linecap="round"/>
<path d="M48.6661 69.7938L52.1696 66.3274L56.0038 69.7939" stroke="#93A7BE" stroke-width="1.5" stroke-linecap="round" stroke-linejoin="round"/>
<rect x="102.258" y="138.216" width="44.414" height="21" rx="3.79325" fill="#EAEAEA"/>
<g clip-path="url(#clip0_1703_12942)">
<path fill-rule="evenodd" clip-rule="evenodd" d="M116.336 148.376C116.224 148.333 116.112 148.293 115.999 148.257C116.018 148.171 116.035 148.085 116.051 147.999C116.306 146.608 116.139 145.487 115.57 145.118C115.024 144.764 114.132 145.133 113.23 146.015C113.141 146.102 113.054 146.192 112.969 146.284C112.913 146.222 112.855 146.162 112.796 146.104C111.851 145.161 110.904 144.763 110.335 145.133C109.79 145.488 109.629 146.542 109.858 147.86C109.881 147.991 109.907 148.12 109.936 148.249C109.802 148.292 109.672 148.338 109.548 148.386C108.441 148.82 107.733 149.501 107.733 150.206C107.733 150.935 108.493 151.666 109.646 152.109C109.74 152.145 109.834 152.178 109.929 152.209C109.898 152.348 109.871 152.488 109.847 152.629C109.628 153.924 109.799 154.953 110.343 155.305C110.905 155.669 111.848 155.295 112.766 154.393C112.838 154.322 112.911 154.246 112.984 154.167C113.076 154.267 113.17 154.363 113.267 154.457C114.156 155.317 115.034 155.664 115.578 155.311C116.139 154.946 116.321 153.841 116.084 152.496C116.066 152.394 116.045 152.289 116.022 152.182C116.088 152.16 116.153 152.137 116.216 152.114C117.416 151.667 118.196 150.945 118.196 150.206C118.196 149.498 117.466 148.813 116.336 148.376ZM116.076 151.637C116.018 151.658 115.96 151.679 115.9 151.699C115.767 151.227 115.589 150.726 115.37 150.209C115.579 149.703 115.751 149.209 115.879 148.741C115.986 148.776 116.09 148.812 116.19 148.851C117.158 149.226 117.749 149.78 117.749 150.206C117.749 150.661 117.111 151.251 116.076 151.637H116.076ZM115.646 152.594C115.751 153.188 115.766 153.726 115.696 154.146C115.634 154.523 115.509 154.775 115.354 154.876C115.024 155.091 114.319 154.812 113.558 154.076C113.471 153.992 113.383 153.902 113.295 153.807C113.59 153.444 113.885 153.023 114.172 152.555C114.678 152.504 115.156 152.422 115.589 152.309C115.611 152.406 115.63 152.501 115.646 152.594ZM111.3 154.839C110.978 154.967 110.721 154.97 110.566 154.87C110.236 154.656 110.099 153.83 110.286 152.722C110.309 152.591 110.334 152.461 110.363 152.332C110.791 152.438 111.266 152.515 111.773 152.561C112.062 153.019 112.365 153.44 112.671 153.808C112.606 153.879 112.539 153.948 112.471 154.015C112.065 154.414 111.659 154.697 111.3 154.839H111.3ZM109.791 151.634C109.281 151.438 108.859 151.183 108.571 150.905C108.311 150.656 108.18 150.408 108.18 150.206C108.18 149.778 108.748 149.232 109.695 148.861C109.814 148.814 109.934 148.772 110.056 148.733C110.187 149.212 110.358 149.712 110.566 150.219C110.356 150.732 110.181 151.241 110.049 151.725C109.962 151.697 109.876 151.667 109.791 151.634ZM110.297 147.763C110.1 146.634 110.231 145.782 110.559 145.568C110.909 145.34 111.683 145.665 112.499 146.479C112.551 146.531 112.604 146.586 112.656 146.642C112.352 147.009 112.052 147.427 111.765 147.882C111.273 147.933 110.802 148.015 110.369 148.126C110.342 148.006 110.318 147.885 110.297 147.763V147.763ZM114.81 149.016C114.708 148.817 114.602 148.621 114.492 148.428C114.826 148.475 115.146 148.538 115.446 148.615C115.356 148.94 115.243 149.28 115.111 149.628C115.014 149.422 114.914 149.218 114.81 149.016ZM112.97 147.001C113.176 147.252 113.382 147.533 113.585 147.837C113.173 147.815 112.761 147.815 112.349 147.836C112.552 147.535 112.76 147.255 112.97 147.001ZM111.117 149.019C111.015 149.22 110.916 149.422 110.822 149.628C110.692 149.281 110.58 148.939 110.489 148.61C110.788 148.535 111.106 148.474 111.438 148.427C111.327 148.622 111.22 148.819 111.117 149.019ZM111.448 152.022C111.105 151.979 110.782 151.92 110.483 151.847C110.576 151.512 110.69 151.164 110.822 150.809C110.917 151.015 111.016 151.217 111.119 151.418C111.224 151.622 111.334 151.823 111.448 152.022ZM112.982 153.447C112.77 153.19 112.559 152.906 112.352 152.6C112.553 152.609 112.757 152.614 112.965 152.614C113.178 152.614 113.389 152.608 113.596 152.598C113.392 152.909 113.187 153.194 112.982 153.447ZM115.115 150.791C115.255 151.149 115.373 151.496 115.467 151.826C115.163 151.903 114.836 151.966 114.491 152.013C114.601 151.815 114.708 151.616 114.812 151.414C114.917 151.209 115.018 151.001 115.115 150.791ZM114.425 151.163C114.266 151.473 114.099 151.776 113.923 152.073C113.612 152.098 113.291 152.111 112.965 152.111C112.639 152.111 112.322 152.1 112.017 152.078C111.837 151.781 111.666 151.477 111.506 151.166C111.347 150.857 111.198 150.54 111.06 150.218C111.197 149.896 111.346 149.58 111.505 149.27V149.27C111.663 148.961 111.833 148.658 112.012 148.363C112.323 148.336 112.642 148.322 112.965 148.322C113.289 148.322 113.608 148.336 113.919 148.363C114.097 148.658 114.265 148.96 114.423 149.268C114.583 149.577 114.733 149.891 114.874 150.211C114.735 150.534 114.585 150.852 114.425 151.163H114.425ZM115.347 145.553C115.697 145.78 115.833 146.696 115.613 147.897C115.599 147.975 115.583 148.053 115.566 148.131C115.132 148.018 114.661 147.935 114.167 147.883C113.88 147.422 113.582 147.004 113.283 146.642C113.361 146.557 113.441 146.474 113.523 146.394C114.296 145.638 115.018 145.34 115.347 145.553ZM113.969 150.129C113.969 149.549 113.551 149.079 113.035 149.079C112.519 149.079 112.1 149.549 112.1 150.129C112.1 150.709 112.519 151.179 113.035 151.179C113.551 151.179 113.969 150.709 113.969 150.129Z" fill="#00D8FF"/>
</g>
<g clip-path="url(#clip1_1703_12942)">
<path d="M122.483 153.216H121.284V146.692H122.483V153.216ZM125.759 152.261C126.344 152.261 126.885 151.838 126.885 151C126.885 150.162 126.344 149.738 125.759 149.738C125.173 149.738 124.632 150.162 124.632 151C124.632 151.829 125.173 152.261 125.759 152.261ZM125.759 148.648C127.083 148.648 128.084 149.63 128.084 151C128.084 152.36 127.083 153.351 125.759 153.351C124.434 153.351 123.434 152.36 123.434 151C123.434 149.63 124.434 148.648 125.759 148.648ZM128.776 153.46L129.857 153.171C129.938 153.658 130.325 154.009 130.893 154.009C131.65 154.009 132.074 153.631 132.074 152.775V152.45C131.893 152.739 131.479 153.018 130.839 153.018C129.659 153.018 128.776 152.108 128.776 150.864C128.776 149.693 129.623 148.702 130.839 148.702C131.542 148.702 131.947 149.008 132.101 149.306V148.783H133.254V152.739C133.254 153.955 132.596 155.064 130.929 155.064C129.713 155.064 128.902 154.307 128.776 153.46ZM131.046 151.991C131.659 151.991 132.092 151.549 132.092 150.864C132.092 150.18 131.623 149.747 131.046 149.747C130.452 149.747 129.983 150.18 129.983 150.864C129.983 151.558 130.425 151.991 131.046 151.991ZM135.673 153.216H134.475V148.783H135.673V153.216ZM134.331 147.332C134.331 146.918 134.664 146.584 135.07 146.584C135.484 146.584 135.809 146.918 135.809 147.332C135.809 147.729 135.484 148.062 135.07 148.062C134.664 148.062 134.331 147.729 134.331 147.332ZM138.093 150.666V153.216H136.895V148.783H138.057V149.333C138.328 148.873 138.859 148.666 139.337 148.666C140.436 148.666 140.941 149.45 140.941 150.423V153.216H139.742V150.63C139.742 150.135 139.499 149.747 138.922 149.747C138.4 149.747 138.093 150.153 138.093 150.666Z" fill="#2B2B2B"/>
</g>
<rect x="111.641" y="131.711" width="26.0267" height="12.5054" rx="4.50543" fill="#EB587D"/>
<path d="M123.655 141.411C122.465 141.411 121.511 140.678 121.511 139.306V135.695H122.599V139.227C122.599 139.96 123.009 140.346 123.655 140.346C124.318 140.346 124.72 139.96 124.72 139.227V135.695H125.808V139.306C125.808 140.678 124.854 141.411 123.655 141.411ZM128.175 141.285H127.071V135.695H128.175V141.285Z" fill="white"/>
<rect x="91.2576" y="94.5884" width="63.41" height="21" rx="3.79325" fill="#EAEAEA"/>
<g clip-path="url(#clip2_1703_12942)">
<path fill-rule="evenodd" clip-rule="evenodd" d="M104.192 104.383C104.093 104.345 103.993 104.309 103.892 104.277C103.909 104.2 103.924 104.124 103.939 104.046C104.166 102.806 104.017 101.807 103.51 101.478C103.023 101.162 102.227 101.491 101.423 102.277C101.344 102.355 101.266 102.435 101.19 102.517C101.14 102.463 101.088 102.409 101.036 102.357C100.193 101.516 99.3487 101.161 98.8415 101.491C98.3553 101.808 98.2112 102.747 98.4159 103.923C98.4363 104.039 98.4593 104.155 98.4849 104.27C98.3654 104.308 98.25 104.349 98.1395 104.392C97.1517 104.779 96.5208 105.386 96.5208 106.015C96.5208 106.665 97.198 107.317 98.227 107.712C98.3104 107.744 98.3946 107.774 98.4793 107.801C98.4518 107.925 98.4273 108.05 98.406 108.176C98.2109 109.331 98.3633 110.248 98.8483 110.562C99.3492 110.887 100.19 110.553 101.009 109.749C101.073 109.685 101.138 109.618 101.203 109.547C101.285 109.636 101.369 109.722 101.456 109.806C102.249 110.573 103.032 110.883 103.516 110.567C104.017 110.242 104.179 109.256 103.968 108.057C103.952 107.966 103.933 107.872 103.912 107.777C103.971 107.758 104.029 107.737 104.086 107.716C105.156 107.318 105.851 106.674 105.851 106.015C105.851 105.384 105.2 104.773 104.192 104.383ZM103.96 107.291C103.909 107.31 103.857 107.328 103.804 107.346C103.686 106.926 103.526 106.479 103.331 106.018C103.517 105.567 103.671 105.126 103.785 104.708C103.881 104.739 103.973 104.772 104.063 104.807C104.926 105.141 105.453 105.635 105.453 106.015C105.453 106.421 104.884 106.947 103.961 107.291H103.96ZM103.577 108.145C103.671 108.675 103.684 109.154 103.622 109.529C103.567 109.865 103.455 110.09 103.317 110.18C103.023 110.371 102.394 110.122 101.716 109.466C101.638 109.391 101.559 109.311 101.481 109.226C101.744 108.903 102.007 108.527 102.263 108.11C102.714 108.065 103.14 107.991 103.527 107.891C103.546 107.977 103.563 108.062 103.577 108.145ZM99.7018 110.147C99.4145 110.261 99.1857 110.264 99.0474 110.174C98.7531 109.984 98.6308 109.247 98.7976 108.259C98.8175 108.142 98.8402 108.026 98.8658 107.911C99.248 108.006 99.671 108.074 100.123 108.115C100.381 108.524 100.652 108.899 100.924 109.228C100.866 109.291 100.807 109.352 100.746 109.412C100.384 109.767 100.022 110.02 99.7019 110.147H99.7018ZM98.3559 107.289C97.9009 107.114 97.5252 106.887 97.2677 106.639C97.0363 106.416 96.9194 106.195 96.9194 106.015C96.9194 105.633 97.4259 105.146 98.2708 104.815C98.3768 104.774 98.4839 104.736 98.5919 104.702C98.7087 105.129 98.8619 105.575 99.0467 106.026C98.8595 106.484 98.7041 106.938 98.5863 107.37C98.5089 107.345 98.4321 107.318 98.3559 107.289ZM98.8071 103.837C98.6317 102.83 98.7482 102.07 99.0412 101.879C99.3534 101.676 100.044 101.966 100.771 102.692C100.818 102.738 100.864 102.787 100.911 102.837C100.64 103.164 100.372 103.536 100.116 103.942C99.6775 103.988 99.2574 104.062 98.8712 104.16C98.8474 104.053 98.8261 103.945 98.8071 103.837V103.837ZM102.832 104.954C102.741 104.777 102.646 104.602 102.548 104.429C102.846 104.472 103.131 104.528 103.399 104.596C103.319 104.886 103.218 105.189 103.1 105.5C103.014 105.316 102.925 105.134 102.832 104.954ZM101.191 103.157C101.374 103.381 101.559 103.631 101.74 103.902C101.372 103.883 101.004 103.882 100.637 103.902C100.818 103.633 101.004 103.383 101.191 103.157ZM99.5387 104.957C99.4472 105.135 99.3594 105.316 99.2754 105.499C99.1593 105.19 99.06 104.886 98.9789 104.592C99.2451 104.525 99.529 104.47 99.8248 104.429C99.7258 104.602 99.6304 104.778 99.5387 104.957ZM99.8333 107.634C99.5277 107.596 99.2395 107.544 98.9734 107.479C99.0558 107.18 99.1573 106.869 99.2758 106.553C99.3602 106.736 99.4484 106.917 99.5404 107.096C99.6342 107.278 99.7319 107.457 99.8333 107.634ZM101.202 108.905C101.013 108.676 100.824 108.423 100.64 108.15C100.819 108.158 101.001 108.162 101.186 108.162C101.376 108.162 101.564 108.157 101.749 108.148C101.568 108.426 101.384 108.679 101.202 108.905ZM103.104 106.537C103.229 106.856 103.334 107.165 103.417 107.459C103.147 107.529 102.855 107.585 102.547 107.626C102.646 107.45 102.741 107.272 102.834 107.092C102.927 106.909 103.018 106.724 103.104 106.537ZM102.488 106.869C102.347 107.145 102.198 107.415 102.041 107.68C101.764 107.703 101.478 107.714 101.186 107.714C100.896 107.714 100.613 107.704 100.341 107.684C100.18 107.42 100.028 107.148 99.8853 106.871C99.7432 106.595 99.6104 106.313 99.4873 106.026C99.6101 105.739 99.7425 105.457 99.8841 105.181V105.181C100.026 104.905 100.177 104.635 100.337 104.371C100.614 104.348 100.899 104.335 101.186 104.335C101.475 104.335 101.76 104.348 102.037 104.371C102.196 104.634 102.346 104.903 102.487 105.178C102.629 105.454 102.763 105.734 102.889 106.02C102.765 106.308 102.631 106.591 102.488 106.869H102.488ZM103.31 101.866C103.623 102.068 103.744 102.885 103.548 103.956C103.535 104.026 103.521 104.095 103.506 104.165C103.119 104.064 102.699 103.989 102.259 103.943C102.002 103.533 101.737 103.16 101.47 102.837C101.54 102.761 101.611 102.687 101.684 102.615C102.373 101.942 103.017 101.676 103.31 101.866ZM102.082 105.946C102.082 105.429 101.709 105.01 101.249 105.01C100.788 105.01 100.415 105.429 100.415 105.946C100.415 106.464 100.788 106.883 101.249 106.883C101.709 106.883 102.082 106.464 102.082 105.946Z" fill="#00D8FF"/>
<path fill-rule="evenodd" clip-rule="evenodd" d="M105.684 109.137C104.588 109.137 103.7 108.249 103.7 107.154C103.7 106.058 104.588 105.163 105.684 105.163C106.779 105.163 107.668 106.051 107.668 107.147C107.668 108.242 106.779 109.131 105.684 109.131V109.137Z" fill="white"/>
<path fill-rule="evenodd" clip-rule="evenodd" d="M104.863 112.293C103.727 112.293 102.799 111.372 102.799 110.229V108.775C102.799 108.347 103.15 107.996 103.578 107.996C103.773 107.996 103.961 108.068 104.11 108.204L104.649 108.71V108.308H106.921V110.229C106.921 111.365 105.999 112.293 104.857 112.293H104.863Z" fill="white"/>
<path fill-rule="evenodd" clip-rule="evenodd" d="M105.687 107.565C105.946 107.565 106.157 107.354 106.157 107.095C106.157 106.835 105.946 106.624 105.687 106.624C105.427 106.624 105.216 106.835 105.216 107.095C105.216 107.354 105.427 107.565 105.687 107.565ZM105.687 108.376C106.394 108.376 106.968 107.802 106.968 107.095C106.968 106.387 106.394 105.813 105.687 105.813C104.979 105.813 104.405 106.387 104.405 107.095C104.405 107.802 104.979 108.376 105.687 108.376Z" fill="#00859D"/>
<path fill-rule="evenodd" clip-rule="evenodd" d="M105.252 110.246V108.257H106.226V110.246C106.226 111.026 105.594 111.658 104.813 111.658C104.033 111.658 103.401 111.026 103.401 110.246L103.401 108.79C103.401 108.676 103.536 108.618 103.619 108.695L104.771 109.768C104.857 109.849 104.8 109.993 104.682 109.993H104.374V110.246C104.374 110.488 104.571 110.685 104.813 110.685C105.056 110.685 105.252 110.488 105.252 110.246Z" fill="#00859D"/>
</g>
<g clip-path="url(#clip3_1703_12942)">
<path d="M113.182 109.588C113.164 109.498 113.146 109.291 113.146 109.111C112.902 109.525 112.389 109.706 111.92 109.706C110.848 109.706 110.235 108.922 110.235 107.957V105.155H111.434V107.714C111.434 108.21 111.686 108.606 112.245 108.606C112.776 108.606 113.083 108.246 113.083 107.732V105.155H114.281V108.786C114.281 109.129 114.308 109.435 114.326 109.588H113.182ZM115.21 108.354L116.237 108.129C116.264 108.48 116.526 108.804 117.048 108.804C117.445 108.804 117.634 108.597 117.634 108.363C117.634 108.165 117.499 108.002 117.156 107.93L116.571 107.795C115.715 107.606 115.327 107.092 115.327 106.471C115.327 105.678 116.03 105.02 116.985 105.02C118.247 105.02 118.67 105.822 118.724 106.299L117.724 106.525C117.688 106.263 117.499 105.93 116.994 105.93C116.679 105.93 116.426 106.119 116.426 106.371C116.426 106.588 116.589 106.723 116.832 106.768L117.463 106.903C118.337 107.083 118.778 107.615 118.778 108.264C118.778 108.985 118.22 109.724 117.057 109.724C115.724 109.724 115.264 108.858 115.21 108.354ZM120.695 106.867H122.677C122.659 106.426 122.371 105.993 121.686 105.993C121.064 105.993 120.722 106.462 120.695 106.867ZM122.794 108.02L123.795 108.318C123.569 109.084 122.867 109.724 121.776 109.724C120.56 109.724 119.487 108.849 119.487 107.354C119.487 105.939 120.533 105.02 121.668 105.02C123.038 105.02 123.858 105.894 123.858 107.318C123.858 107.489 123.84 107.669 123.84 107.687H120.668C120.695 108.273 121.191 108.696 121.785 108.696C122.344 108.696 122.65 108.417 122.794 108.02ZM127.385 107.444H124.772V106.381H127.385V107.444ZM129.756 109.588H128.557V103.065H129.756V109.588ZM133.032 108.633C133.617 108.633 134.158 108.21 134.158 107.372C134.158 106.534 133.617 106.11 133.032 106.11C132.446 106.11 131.905 106.534 131.905 107.372C131.905 108.201 132.446 108.633 133.032 108.633ZM133.032 105.02C134.356 105.02 135.356 106.002 135.356 107.372C135.356 108.732 134.356 109.724 133.032 109.724C131.707 109.724 130.707 108.732 130.707 107.372C130.707 106.002 131.707 105.02 133.032 105.02ZM136.048 109.832L137.13 109.543C137.211 110.03 137.598 110.381 138.166 110.381C138.923 110.381 139.346 110.003 139.346 109.147V108.822C139.166 109.111 138.752 109.39 138.112 109.39C136.932 109.39 136.048 108.48 136.048 107.237C136.048 106.065 136.895 105.074 138.112 105.074C138.815 105.074 139.22 105.38 139.373 105.678V105.155H140.527V109.111C140.527 110.327 139.869 111.436 138.202 111.436C136.986 111.436 136.175 110.679 136.048 109.832ZM138.319 108.363C138.932 108.363 139.364 107.921 139.364 107.237C139.364 106.552 138.896 106.119 138.319 106.119C137.724 106.119 137.256 106.552 137.256 107.237C137.256 107.93 137.697 108.363 138.319 108.363ZM142.946 109.588H141.748V105.155H142.946V109.588ZM141.604 103.704C141.604 103.29 141.937 102.956 142.343 102.956C142.757 102.956 143.082 103.29 143.082 103.704C143.082 104.101 142.757 104.434 142.343 104.434C141.937 104.434 141.604 104.101 141.604 103.704ZM145.366 107.038V109.588H144.168V105.155H145.33V105.705C145.601 105.245 146.132 105.038 146.61 105.038C147.709 105.038 148.214 105.822 148.214 106.795V109.588H147.015V107.002C147.015 106.507 146.772 106.119 146.195 106.119C145.673 106.119 145.366 106.525 145.366 107.038Z" fill="#2B2B2B"/>
</g>
<rect x="108.935" y="88.083" width="29.4379" height="12.5054" rx="4.50543" fill="#9A9637"/>
<path d="M117.071 97.6567H115.975V95.3387H113.538V97.6567H112.45V92.0666H113.538V94.3137H115.975V92.0666H117.071V97.6567ZM119.176 94.8577C119.176 96.1193 120.059 96.7185 120.918 96.7185C121.785 96.7185 122.668 96.1193 122.668 94.8577C122.668 93.5962 121.785 92.997 120.918 92.997C120.059 92.997 119.176 93.5962 119.176 94.8577ZM118.048 94.8656C118.048 93.0601 119.404 91.9484 120.918 91.9484C122.44 91.9484 123.796 93.0601 123.796 94.8656C123.796 96.6633 122.44 97.775 120.918 97.775C119.404 97.775 118.048 96.6633 118.048 94.8656ZM125.566 94.8577C125.566 96.1193 126.449 96.7185 127.309 96.7185C128.176 96.7185 129.059 96.1193 129.059 94.8577C129.059 93.5962 128.176 92.997 127.309 92.997C126.449 92.997 125.566 93.5962 125.566 94.8577ZM124.439 94.8656C124.439 93.0601 125.795 91.9484 127.309 91.9484C128.83 91.9484 130.187 93.0601 130.187 94.8656C130.187 96.6633 128.83 97.775 127.309 97.775C125.795 97.775 124.439 96.6633 124.439 94.8656ZM134.567 97.6567L132.943 95.3387L132.249 96.1035V97.6567H131.161V92.0666H132.249V94.5975L134.488 92.0666H135.915L133.7 94.5029L135.931 97.6567H134.567Z" fill="white"/>
<rect x="92.1151" y="179.295" width="65.41" height="21" rx="3.79325" fill="#EAEAEA"/>
<g clip-path="url(#clip4_1703_12942)">
<path fill-rule="evenodd" clip-rule="evenodd" d="M105.05 189.09C104.951 189.052 104.851 189.016 104.75 188.984C104.766 188.907 104.782 188.831 104.796 188.754C105.023 187.513 104.875 186.514 104.367 186.185C103.88 185.869 103.084 186.198 102.28 186.984C102.201 187.062 102.124 187.142 102.048 187.224C101.997 187.17 101.946 187.116 101.893 187.064C101.051 186.223 100.206 185.868 99.6991 186.198C99.2128 186.515 99.0688 187.454 99.2735 188.63C99.2938 188.746 99.3168 188.862 99.3424 188.977C99.2229 189.015 99.1075 189.056 98.9971 189.099C98.0092 189.486 97.3784 190.093 97.3784 190.722C97.3784 191.372 98.0556 192.024 99.0845 192.419C99.168 192.451 99.2521 192.481 99.3368 192.508C99.3093 192.632 99.2849 192.757 99.2636 192.883C99.0684 194.038 99.2208 194.955 99.7058 195.269C100.207 195.594 101.047 195.26 101.866 194.456C101.931 194.392 101.996 194.325 102.061 194.254C102.143 194.343 102.227 194.429 102.313 194.513C103.106 195.28 103.889 195.59 104.374 195.274C104.874 194.949 105.037 193.963 104.826 192.765C104.81 192.673 104.791 192.579 104.77 192.484C104.829 192.465 104.887 192.444 104.943 192.423C106.013 192.025 106.709 191.381 106.709 190.722C106.709 190.091 106.058 189.48 105.05 189.09ZM104.818 191.998C104.767 192.017 104.715 192.035 104.661 192.053C104.543 191.633 104.384 191.186 104.189 190.725C104.375 190.274 104.528 189.833 104.643 189.415C104.738 189.446 104.831 189.479 104.92 189.514C105.784 189.848 106.31 190.342 106.31 190.722C106.31 191.128 105.742 191.654 104.818 191.998H104.818ZM104.435 192.852C104.528 193.382 104.541 193.861 104.48 194.236C104.424 194.572 104.312 194.797 104.174 194.887C103.88 195.078 103.251 194.829 102.573 194.173C102.495 194.098 102.417 194.018 102.338 193.933C102.601 193.61 102.864 193.234 103.121 192.817C103.572 192.772 103.998 192.698 104.384 192.598C104.403 192.684 104.42 192.769 104.435 192.852ZM100.559 194.854C100.272 194.968 100.043 194.971 99.905 194.881C99.6106 194.691 99.4883 193.954 99.6552 192.966C99.675 192.849 99.6978 192.733 99.7233 192.618C100.105 192.713 100.529 192.781 100.981 192.822C101.239 193.231 101.509 193.606 101.782 193.935C101.724 193.998 101.664 194.059 101.604 194.119C101.242 194.474 100.879 194.727 100.559 194.854H100.559ZM99.2135 191.996C98.7585 191.821 98.3828 191.594 98.1252 191.346C97.8938 191.123 97.7769 190.902 97.7769 190.722C97.7769 190.341 98.2835 189.853 99.1283 189.522C99.2344 189.481 99.3415 189.443 99.4495 189.409C99.5662 189.836 99.7194 190.282 99.9042 190.733C99.717 191.191 99.5617 191.645 99.4438 192.077C99.3664 192.052 99.2896 192.025 99.2135 191.996ZM99.6646 188.544C99.4893 187.537 99.6057 186.777 99.8988 186.586C100.211 186.383 100.901 186.673 101.629 187.399C101.675 187.445 101.722 187.494 101.769 187.544C101.498 187.871 101.23 188.244 100.974 188.649C100.535 188.695 100.115 188.769 99.7288 188.867C99.705 188.76 99.6836 188.652 99.6646 188.544V188.544ZM103.689 189.661C103.598 189.484 103.504 189.309 103.406 189.136C103.703 189.179 103.989 189.235 104.256 189.304C104.176 189.593 104.076 189.896 103.958 190.207C103.872 190.023 103.782 189.841 103.689 189.661ZM102.048 187.864C102.232 188.088 102.416 188.338 102.597 188.609C102.23 188.59 101.862 188.589 101.494 188.609C101.676 188.34 101.861 188.09 102.048 187.864ZM100.396 189.664C100.305 189.842 100.217 190.023 100.133 190.206C100.017 189.897 99.9175 189.593 99.8364 189.299C100.103 189.232 100.387 189.177 100.682 189.136C100.583 189.309 100.488 189.485 100.396 189.664ZM100.691 192.341C100.385 192.303 100.097 192.251 99.8309 192.186C99.9133 191.887 100.015 191.576 100.133 191.26C100.218 191.443 100.306 191.624 100.398 191.803C100.492 191.985 100.589 192.164 100.691 192.341ZM102.059 193.612C101.87 193.383 101.682 193.13 101.498 192.857C101.676 192.865 101.859 192.869 102.044 192.869C102.234 192.869 102.422 192.864 102.607 192.855C102.425 193.133 102.242 193.386 102.059 193.612ZM103.962 191.244C104.086 191.563 104.191 191.872 104.275 192.166C104.004 192.236 103.712 192.292 103.405 192.333C103.503 192.157 103.599 191.979 103.691 191.799C103.785 191.617 103.875 191.431 103.962 191.244ZM103.346 191.576C103.204 191.852 103.055 192.122 102.898 192.387C102.621 192.41 102.335 192.421 102.044 192.421C101.753 192.421 101.471 192.411 101.199 192.391C101.038 192.127 100.886 191.855 100.743 191.578C100.601 191.302 100.468 191.02 100.345 190.733C100.468 190.446 100.6 190.164 100.742 189.888V189.888C100.883 189.612 101.034 189.342 101.194 189.078C101.472 189.055 101.756 189.042 102.044 189.042C102.333 189.042 102.617 189.055 102.895 189.079C103.053 189.341 103.203 189.611 103.344 189.885C103.487 190.161 103.621 190.441 103.747 190.727C103.622 191.015 103.488 191.298 103.346 191.576H103.346ZM104.168 186.573C104.48 186.775 104.602 187.592 104.406 188.663C104.393 188.733 104.379 188.802 104.364 188.872C103.977 188.771 103.556 188.696 103.116 188.65C102.86 188.24 102.594 187.867 102.327 187.544C102.397 187.468 102.469 187.394 102.542 187.322C103.231 186.649 103.875 186.383 104.168 186.573ZM102.939 190.654C102.939 190.136 102.566 189.717 102.106 189.717C101.646 189.717 101.273 190.136 101.273 190.654C101.273 191.171 101.646 191.59 102.106 191.59C102.566 191.59 102.939 191.171 102.939 190.654Z" fill="#00D8FF"/>
<rect x="102.2" y="191.28" width="6.16499" height="5.705" rx="0.950833" fill="white"/>
<path fill-rule="evenodd" clip-rule="evenodd" d="M102.802 192.323C102.802 192.061 103.014 191.848 103.277 191.848H107.441C107.704 191.848 107.917 192.061 107.917 192.323V193.364H102.802V192.323ZM102.802 193.84H107.917V195.943C107.917 196.205 107.704 196.418 107.441 196.418H103.277C103.014 196.418 102.802 196.205 102.802 195.943V193.84ZM103.535 192.964C103.742 192.964 103.911 192.796 103.911 192.588C103.911 192.38 103.742 192.212 103.535 192.212C103.327 192.212 103.159 192.38 103.159 192.588C103.159 192.796 103.327 192.964 103.535 192.964ZM104.895 192.588C104.895 192.795 104.726 192.964 104.518 192.964C104.311 192.964 104.142 192.795 104.142 192.588C104.142 192.38 104.311 192.212 104.518 192.212C104.726 192.212 104.895 192.38 104.895 192.588ZM105.502 192.964C105.71 192.964 105.878 192.795 105.878 192.588C105.878 192.38 105.71 192.212 105.502 192.212C105.295 192.212 105.126 192.38 105.126 192.588C105.126 192.795 105.295 192.964 105.502 192.964Z" fill="#00859D"/>
</g>
<g clip-path="url(#clip5_1703_12942)">
<path d="M110.84 193.061L111.868 192.836C111.895 193.187 112.156 193.511 112.679 193.511C113.075 193.511 113.264 193.304 113.264 193.07C113.264 192.872 113.129 192.709 112.787 192.637L112.201 192.502C111.345 192.313 110.958 191.799 110.958 191.178C110.958 190.385 111.66 189.727 112.616 189.727C113.877 189.727 114.301 190.529 114.355 191.006L113.355 191.232C113.318 190.97 113.129 190.637 112.625 190.637C112.309 190.637 112.057 190.826 112.057 191.079C112.057 191.295 112.219 191.43 112.462 191.475L113.093 191.61C113.967 191.79 114.409 192.322 114.409 192.971C114.409 193.692 113.85 194.431 112.688 194.431C111.354 194.431 110.895 193.566 110.84 193.061ZM116.938 188.537V189.862H117.83V190.925H116.938V192.782C116.938 193.169 117.118 193.295 117.461 193.295C117.605 193.295 117.767 193.277 117.83 193.259V194.25C117.722 194.295 117.506 194.358 117.154 194.358C116.289 194.358 115.749 193.845 115.749 192.989V190.925H114.947V189.862H115.172C115.641 189.862 115.857 189.556 115.857 189.159V188.537H116.938ZM120.804 193.34C121.39 193.34 121.93 192.917 121.93 192.079C121.93 191.241 121.39 190.817 120.804 190.817C120.218 190.817 119.678 191.241 119.678 192.079C119.678 192.908 120.218 193.34 120.804 193.34ZM120.804 189.727C122.129 189.727 123.129 190.709 123.129 192.079C123.129 193.439 122.129 194.431 120.804 194.431C119.479 194.431 118.479 193.439 118.479 192.079C118.479 190.709 119.479 189.727 120.804 189.727ZM126.785 189.844V191.051C126.65 191.024 126.533 191.015 126.425 191.015C125.812 191.015 125.281 191.313 125.281 192.268V194.295H124.082V189.862H125.245V190.52C125.515 189.934 126.128 189.826 126.506 189.826C126.605 189.826 126.695 189.835 126.785 189.844ZM128.469 191.574H130.451C130.433 191.133 130.145 190.7 129.46 190.7C128.838 190.7 128.496 191.169 128.469 191.574ZM130.569 192.728L131.569 193.025C131.343 193.791 130.641 194.431 129.55 194.431C128.334 194.431 127.262 193.557 127.262 192.061C127.262 190.646 128.307 189.727 129.442 189.727C130.812 189.727 131.632 190.601 131.632 192.025C131.632 192.196 131.614 192.376 131.614 192.394H128.442C128.469 192.98 128.965 193.403 129.559 193.403C130.118 193.403 130.424 193.124 130.569 192.728ZM135.159 192.151H132.546V191.088H135.159V192.151ZM136.07 193.088C136.07 192.295 136.656 191.853 137.395 191.745L138.485 191.583C138.737 191.547 138.818 191.421 138.818 191.268C138.818 190.952 138.575 190.691 138.07 190.691C137.548 190.691 137.259 191.024 137.223 191.412L136.16 191.187C136.232 190.493 136.872 189.727 138.061 189.727C139.467 189.727 139.99 190.52 139.99 191.412V193.593C139.99 193.827 140.017 194.142 140.044 194.295H138.944C138.917 194.178 138.899 193.935 138.899 193.764C138.674 194.115 138.251 194.422 137.593 194.422C136.647 194.422 136.07 193.782 136.07 193.088ZM137.845 193.529C138.35 193.529 138.818 193.286 138.818 192.502V192.304L137.818 192.457C137.512 192.502 137.268 192.673 137.268 193.016C137.268 193.277 137.458 193.529 137.845 193.529ZM142.378 196.007H141.18V189.862H142.342V190.403C142.541 190.06 143.036 189.763 143.703 189.763C145.001 189.763 145.748 190.754 145.748 192.07C145.748 193.412 144.91 194.404 143.658 194.404C143.045 194.404 142.595 194.16 142.378 193.863V196.007ZM144.568 192.079C144.568 191.295 144.081 190.835 143.469 190.835C142.856 190.835 142.36 191.295 142.36 192.079C142.36 192.863 142.856 193.331 143.469 193.331C144.081 193.331 144.568 192.872 144.568 192.079ZM147.913 196.007H146.715V189.862H147.877V190.403C148.076 190.06 148.571 189.763 149.238 189.763C150.536 189.763 151.283 190.754 151.283 192.07C151.283 193.412 150.445 194.404 149.193 194.404C148.58 194.404 148.13 194.16 147.913 193.863V196.007ZM150.103 192.079C150.103 191.295 149.616 190.835 149.004 190.835C148.391 190.835 147.895 191.295 147.895 192.079C147.895 192.863 148.391 193.331 149.004 193.331C149.616 193.331 150.103 192.872 150.103 192.079Z" fill="#2B2B2B"/>
</g>
<rect x="115.498" y="172.79" width="20.0267" height="12.5054" rx="4.50543" fill="#6F5EEC"/>
<path d="M122.531 182.364L122.066 181.086H119.795L119.33 182.364H118.179L120.323 176.774H121.585L123.714 182.364H122.531ZM120.93 177.98L120.158 180.093H121.703L120.93 177.98ZM125.541 179.32H126.4C126.944 179.32 127.275 179.005 127.275 178.524C127.275 178.027 126.944 177.72 126.4 177.72H125.541V179.32ZM126.534 180.259H125.533V182.364H124.445V176.774H126.534C127.638 176.774 128.371 177.507 128.371 178.516C128.371 179.533 127.638 180.259 126.534 180.259ZM130.314 179.32H131.174C131.718 179.32 132.049 179.005 132.049 178.524C132.049 178.027 131.718 177.72 131.174 177.72H130.314V179.32ZM131.308 180.259H130.307V182.364H129.218V176.774H131.308C132.412 176.774 133.145 177.507 133.145 178.516C133.145 179.533 132.412 180.259 131.308 180.259Z" fill="white"/>
<rect x="117.154" y="8.61914" width="76.41" height="20" rx="3.79325" fill="#EAEAEA"/>
<g clip-path="url(#clip6_1703_12942)">
<path fill-rule="evenodd" clip-rule="evenodd" d="M122.154 18.5253V22.2983C122.154 22.7613 122.529 23.1367 122.993 23.1367H126.766H130.538C131.002 23.1367 131.377 22.7613 131.377 22.2983V18.5253V14.7524C131.377 14.2893 131.002 13.9139 130.538 13.9139L126.766 13.9139H122.993C122.529 13.9139 122.154 14.2893 122.154 14.7524V18.5253Z" fill="#007ACC"/>
<path fill-rule="evenodd" clip-rule="evenodd" d="M124.194 18.5565L124.191 18.9342H124.791H125.391V20.6397V22.3452H125.816H126.24V20.6397V18.9342H126.84H127.441V18.5639C127.441 18.3589 127.436 18.1876 127.43 18.1832C127.426 18.1774 126.695 18.1745 125.81 18.1759L124.198 18.1803L124.194 18.5565Z" fill="white"/>
<path fill-rule="evenodd" clip-rule="evenodd" d="M129.596 18.1696C129.83 18.2282 130.009 18.3321 130.173 18.5019C130.258 18.5927 130.384 18.7581 130.394 18.7977C130.397 18.8094 129.996 19.0787 129.753 19.2295C129.744 19.2354 129.709 19.1973 129.669 19.1388C129.551 18.966 129.426 18.8914 129.236 18.8782C128.956 18.8591 128.776 19.0055 128.778 19.25C128.778 19.3218 128.788 19.3642 128.817 19.4228C128.879 19.5501 128.993 19.6262 129.351 19.7814C130.012 20.0654 130.294 20.2528 130.47 20.5193C130.666 20.8164 130.71 21.2907 130.577 21.6436C130.43 22.0271 130.067 22.2877 129.556 22.3741C129.398 22.4019 129.024 22.3975 128.854 22.3667C128.483 22.3009 128.132 22.1179 127.915 21.8778C127.83 21.7841 127.665 21.5396 127.675 21.522C127.68 21.5162 127.718 21.4928 127.76 21.4679C127.801 21.4445 127.956 21.3552 128.103 21.2703L128.368 21.1165L128.423 21.1985C128.501 21.3171 128.671 21.4796 128.773 21.5338C129.067 21.6889 129.471 21.667 129.671 21.4884C129.755 21.4108 129.791 21.3303 129.791 21.2117C129.791 21.1048 129.777 21.058 129.722 20.9775C129.65 20.875 129.504 20.7886 129.088 20.6086C128.612 20.4036 128.407 20.2762 128.22 20.0742C128.111 19.9571 128.009 19.7697 127.967 19.6131C127.931 19.4828 127.923 19.1563 127.95 19.0246C128.049 18.5649 128.395 18.2443 128.896 18.1491C129.059 18.1184 129.436 18.1301 129.596 18.1696Z" fill="white"/>
<rect x="127.427" y="19.6191" width="6.16499" height="5.705" rx="0.950833" fill="white"/>
<path fill-rule="evenodd" clip-rule="evenodd" d="M128.029 20.6619C128.029 20.3994 128.242 20.1865 128.504 20.1865H132.669C132.931 20.1865 133.144 20.3994 133.144 20.6619V21.703H128.029V20.6619ZM128.029 22.1784H133.144V24.2814C133.144 24.544 132.931 24.7568 132.669 24.7568H128.504C128.242 24.7568 128.029 24.544 128.029 24.2814V22.1784ZM128.762 21.3025C128.97 21.3025 129.138 21.1341 129.138 20.9264C129.138 20.7188 128.97 20.5504 128.762 20.5504C128.554 20.5504 128.386 20.7188 128.386 20.9264C128.386 21.1341 128.554 21.3025 128.762 21.3025ZM130.122 20.9265C130.122 21.1342 129.953 21.3026 129.746 21.3026C129.538 21.3026 129.37 21.1342 129.37 20.9265C129.37 20.7189 129.538 20.5505 129.746 20.5505C129.953 20.5505 130.122 20.7189 130.122 20.9265ZM130.73 21.3026C130.937 21.3026 131.106 21.1342 131.106 20.9265C131.106 20.7189 130.937 20.5505 130.73 20.5505C130.522 20.5505 130.354 20.7189 130.354 20.9265C130.354 21.1342 130.522 21.3026 130.73 21.3026Z" fill="#00538B"/>
</g>
<g clip-path="url(#clip7_1703_12942)">
<path d="M139.078 22.6191C139.06 22.529 139.042 22.3218 139.042 22.1416C138.799 22.5561 138.285 22.7363 137.817 22.7363C136.745 22.7363 136.132 21.9523 136.132 20.9882V18.1858H137.33V20.7449C137.33 21.2405 137.583 21.637 138.141 21.637C138.673 21.637 138.979 21.2765 138.979 20.7629V18.1858H140.178V21.8172C140.178 22.1596 140.205 22.466 140.223 22.6191H139.078ZM141.107 21.3847L142.134 21.1594C142.161 21.5108 142.422 21.8352 142.945 21.8352C143.341 21.8352 143.53 21.6279 143.53 21.3937C143.53 21.1954 143.395 21.0332 143.053 20.9611L142.467 20.826C141.611 20.6367 141.224 20.1231 141.224 19.5014C141.224 18.7084 141.926 18.0506 142.882 18.0506C144.143 18.0506 144.567 18.8526 144.621 19.3302L143.621 19.5554C143.584 19.2941 143.395 18.9607 142.891 18.9607C142.575 18.9607 142.323 19.15 142.323 19.4023C142.323 19.6185 142.485 19.7537 142.728 19.7987L143.359 19.9339C144.233 20.1141 144.675 20.6458 144.675 21.2945C144.675 22.0154 144.116 22.7543 142.954 22.7543C141.62 22.7543 141.161 21.8893 141.107 21.3847ZM146.591 19.8979H148.574C148.556 19.4563 148.267 19.0238 147.583 19.0238C146.961 19.0238 146.618 19.4924 146.591 19.8979ZM148.691 21.0512L149.691 21.3486C149.466 22.1145 148.763 22.7543 147.673 22.7543C146.456 22.7543 145.384 21.8802 145.384 20.3844C145.384 18.9697 146.429 18.0506 147.565 18.0506C148.934 18.0506 149.754 18.9247 149.754 20.3484C149.754 20.5196 149.736 20.6998 149.736 20.7178H146.564C146.591 21.3036 147.087 21.7271 147.682 21.7271C148.24 21.7271 148.547 21.4477 148.691 21.0512ZM153.426 18.1678V19.3752C153.291 19.3482 153.174 19.3392 153.066 19.3392C152.453 19.3392 151.921 19.6365 151.921 20.5917V22.6191H150.723V18.1858H151.885V18.8436C152.155 18.2579 152.768 18.1497 153.147 18.1497C153.246 18.1497 153.336 18.1588 153.426 18.1678ZM156.775 20.4746H154.162V19.4113H156.775V20.4746ZM157.65 21.3847L158.677 21.1594C158.704 21.5108 158.965 21.8352 159.488 21.8352C159.885 21.8352 160.074 21.6279 160.074 21.3937C160.074 21.1954 159.939 21.0332 159.596 20.9611L159.011 20.826C158.155 20.6367 157.767 20.1231 157.767 19.5014C157.767 18.7084 158.47 18.0506 159.425 18.0506C160.687 18.0506 161.11 18.8526 161.164 19.3302L160.164 19.5554C160.128 19.2941 159.939 18.9607 159.434 18.9607C159.119 18.9607 158.866 19.15 158.866 19.4023C158.866 19.6185 159.029 19.7537 159.272 19.7987L159.903 19.9339C160.777 20.1141 161.218 20.6458 161.218 21.2945C161.218 22.0154 160.66 22.7543 159.497 22.7543C158.164 22.7543 157.704 21.8893 157.65 21.3847ZM163.135 19.8979H165.117C165.099 19.4563 164.811 19.0238 164.126 19.0238C163.504 19.0238 163.162 19.4924 163.135 19.8979ZM165.234 21.0512L166.235 21.3486C166.009 22.1145 165.306 22.7543 164.216 22.7543C163 22.7543 161.927 21.8802 161.927 20.3844C161.927 18.9697 162.973 18.0506 164.108 18.0506C165.478 18.0506 166.298 18.9247 166.298 20.3484C166.298 20.5196 166.28 20.6998 166.28 20.7178H163.108C163.135 21.3036 163.63 21.7271 164.225 21.7271C164.784 21.7271 165.09 21.4477 165.234 21.0512ZM169.969 18.1678V19.3752C169.834 19.3482 169.717 19.3392 169.609 19.3392C168.996 19.3392 168.465 19.6365 168.465 20.5917V22.6191H167.266V18.1858H168.429V18.8436C168.699 18.2579 169.312 18.1497 169.69 18.1497C169.789 18.1497 169.879 18.1588 169.969 18.1678ZM174.986 18.1858L173.265 22.6191H172.066L170.255 18.1858H171.571L172.67 21.1594L173.724 18.1858H174.986ZM176.947 22.6191H175.749V18.1858H176.947V22.6191ZM175.605 16.735C175.605 16.3205 175.938 15.9871 176.344 15.9871C176.758 15.9871 177.083 16.3205 177.083 16.735C177.083 17.1315 176.758 17.4649 176.344 17.4649C175.938 17.4649 175.605 17.1315 175.605 16.735ZM180.223 19.159C179.611 19.159 179.097 19.6005 179.097 20.4025C179.097 21.2044 179.62 21.655 180.232 21.655C180.845 21.655 181.152 21.2495 181.251 20.9071L182.305 21.2585C182.107 21.9974 181.413 22.7543 180.232 22.7543C178.926 22.7543 177.899 21.7631 177.899 20.4025C177.899 19.0328 178.908 18.0506 180.196 18.0506C181.404 18.0506 182.089 18.7985 182.278 19.5464L181.206 19.9069C181.097 19.5374 180.818 19.159 180.223 19.159ZM184.122 19.8979H186.104C186.086 19.4563 185.798 19.0238 185.113 19.0238C184.492 19.0238 184.149 19.4924 184.122 19.8979ZM186.222 21.0512L187.222 21.3486C186.997 22.1145 186.294 22.7543 185.203 22.7543C183.987 22.7543 182.915 21.8802 182.915 20.3844C182.915 18.9697 183.96 18.0506 185.095 18.0506C186.465 18.0506 187.285 18.9247 187.285 20.3484C187.285 20.5196 187.267 20.6998 187.267 20.7178H184.095C184.122 21.3036 184.618 21.7271 185.212 21.7271C185.771 21.7271 186.077 21.4477 186.222 21.0512Z" fill="#2B2B2B"/>
</g>
<rect x="145.348" y="1.11377" width="20.0267" height="12.5054" rx="4.50543" fill="#6F5EEC"/>
<path d="M151.996 10.6875L151.53 9.41021H149.26L148.794 10.6875H147.643L149.788 5.09738H151.049L153.178 10.6875H151.996ZM150.395 6.30371L149.622 8.41676H151.168L150.395 6.30371ZM155.005 7.64408H155.865C156.409 7.64408 156.74 7.3287 156.74 6.84774C156.74 6.35102 156.409 6.04352 155.865 6.04352H155.005V7.64408ZM155.999 8.58234H154.997V10.6875H153.909V5.09738H155.999C157.102 5.09738 157.836 5.83064 157.836 6.83986C157.836 7.85696 157.102 8.58234 155.999 8.58234ZM159.779 7.64408H160.638C161.182 7.64408 161.514 7.3287 161.514 6.84774C161.514 6.35102 161.182 6.04352 160.638 6.04352H159.779V7.64408ZM160.772 8.58234H159.771V10.6875H158.683V5.09738H160.772C161.876 5.09738 162.61 5.83064 162.61 6.83986C162.61 7.85696 161.876 8.58234 160.772 8.58234Z" fill="white"/>
<rect x="28.2576" y="44.5977" width="42.41" height="21" rx="3.79325" fill="#EAEAEA"/>
<g clip-path="url(#clip8_1703_12942)">
<path fill-rule="evenodd" clip-rule="evenodd" d="M33.2576 55.5038V59.2768C33.2576 59.7399 33.6329 60.1152 34.096 60.1152H37.869H41.6419C42.105 60.1152 42.4804 59.7399 42.4804 59.2768V55.5038V51.7309C42.4804 51.2678 42.105 50.8924 41.6419 50.8924H37.869H34.096C33.6329 50.8924 33.2576 51.2678 33.2576 51.7309V55.5038Z" fill="#007ACC"/>
<path fill-rule="evenodd" clip-rule="evenodd" d="M35.2971 55.5351L35.2941 55.9128H35.8943H36.4946V57.6182V59.3237H36.9191H37.3436V57.6182V55.9128H37.9439H38.5441V55.5424C38.5441 55.3374 38.5397 55.1661 38.5338 55.1618C38.5294 55.1559 37.7989 55.153 36.9132 55.1544L35.3014 55.1588L35.2971 55.5351Z" fill="white"/>
<path fill-rule="evenodd" clip-rule="evenodd" d="M40.6994 55.1481C40.9336 55.2067 41.1122 55.3106 41.2762 55.4805C41.3611 55.5712 41.487 55.7367 41.4972 55.7762C41.5002 55.7879 41.0991 56.0573 40.856 56.208C40.8473 56.2139 40.8121 56.1758 40.7726 56.1173C40.654 55.9445 40.5296 55.8699 40.3393 55.8567C40.0597 55.8377 39.8796 55.9841 39.8811 56.2285C39.8811 56.3003 39.8913 56.3427 39.9206 56.4013C39.9821 56.5286 40.0963 56.6048 40.4549 56.7599C41.1152 57.0439 41.3977 57.2313 41.5734 57.4978C41.7695 57.7949 41.8135 58.2693 41.6802 58.6221C41.5338 59.0056 41.1708 59.2662 40.6599 59.3526C40.5018 59.3804 40.127 59.376 39.9572 59.3453C39.5868 59.2794 39.2355 59.0964 39.0188 58.8563C38.9339 58.7626 38.7685 58.5181 38.7787 58.5006C38.7831 58.4947 38.8212 58.4713 38.8636 58.4464C38.9046 58.423 39.0598 58.3337 39.2062 58.2488L39.4712 58.0951L39.5268 58.177C39.6044 58.2956 39.7742 58.4581 39.8767 58.5123C40.1709 58.6675 40.575 58.6455 40.7741 58.4669C40.859 58.3893 40.8941 58.3088 40.8941 58.1902C40.8941 58.0833 40.8809 58.0365 40.8253 57.956C40.7536 57.8535 40.6072 57.7671 40.1914 57.5871C39.7156 57.3821 39.5107 57.2548 39.3233 57.0527C39.215 56.9356 39.1125 56.7482 39.07 56.5916C39.0349 56.4613 39.0261 56.1348 39.0539 56.0031C39.152 55.5434 39.499 55.2228 39.9996 55.1277C40.1621 55.0969 40.5398 55.1086 40.6994 55.1481Z" fill="white"/>
<path d="M38.697 60.154C37.9765 59.4335 37.9765 58.2652 38.697 57.5446L40.1817 56.0599C40.9023 55.3394 42.0705 55.3394 42.7911 56.06L44.2968 57.5657C45.0174 58.2862 45.0174 59.4545 44.2968 60.175L42.8121 61.6597C42.0916 62.3803 40.9233 62.3803 40.2028 61.6597L38.697 60.154Z" fill="white"/>
<rect x="38.3937" y="58.8521" width="4.37761" height="4.40009" rx="0.950833" transform="rotate(-45 38.3937 58.8521)" fill="#00538B"/>
<path d="M40.3624 58.7632H42.6314" stroke="white" stroke-width="0.475417" stroke-linecap="round"/>
<path d="M40.3624 59.752H42.6314" stroke="white" stroke-width="0.475417" stroke-linecap="round"/>
<path d="M40.3624 57.8286H42.5829" stroke="white" stroke-width="0.475417" stroke-linecap="round"/>
</g>
<g clip-path="url(#clip9_1703_12942)">
<path d="M50.1818 59.5977C50.1638 59.5075 50.1457 59.3003 50.1457 59.1201C49.9024 59.5346 49.3888 59.7148 48.9203 59.7148C47.848 59.7148 47.2352 58.9309 47.2352 57.9667V55.1643H48.4337V57.7234C48.4337 58.219 48.686 58.6155 49.2446 58.6155C49.7763 58.6155 50.0827 58.255 50.0827 57.7414V55.1643H51.2811V58.7957C51.2811 59.1381 51.3081 59.4445 51.3262 59.5977H50.1818ZM52.2099 58.3632L53.2372 58.1379C53.2642 58.4893 53.5255 58.8137 54.0481 58.8137C54.4446 58.8137 54.6339 58.6065 54.6339 58.3722C54.6339 58.1739 54.4987 58.0117 54.1563 57.9397L53.5706 57.8045C52.7145 57.6153 52.3271 57.1016 52.3271 56.4799C52.3271 55.6869 53.0299 55.0291 53.9851 55.0291C55.2466 55.0291 55.6701 55.8311 55.7242 56.3087L54.724 56.534C54.6879 56.2726 54.4987 55.9392 53.9941 55.9392C53.6787 55.9392 53.4264 56.1285 53.4264 56.3808C53.4264 56.597 53.5886 56.7322 53.8319 56.7773L54.4626 56.9124C55.3367 57.0926 55.7782 57.6243 55.7782 58.2731C55.7782 58.9939 55.2196 59.7328 54.0572 59.7328C52.7235 59.7328 52.264 58.8678 52.2099 58.3632ZM57.6949 56.8764H59.6773C59.6592 56.4348 59.3709 56.0023 58.6861 56.0023C58.0643 56.0023 57.7219 56.4709 57.6949 56.8764ZM59.7944 58.0298L60.7946 58.3271C60.5693 59.093 59.8665 59.7328 58.7762 59.7328C57.5597 59.7328 56.4874 58.8588 56.4874 57.363C56.4874 55.9483 57.5327 55.0291 58.668 55.0291C60.0377 55.0291 60.8577 55.9032 60.8577 57.3269C60.8577 57.4981 60.8397 57.6783 60.8397 57.6964H57.6678C57.6949 58.2821 58.1905 58.7056 58.7852 58.7056C59.3439 58.7056 59.6502 58.4262 59.7944 58.0298ZM64.5294 55.1463V56.3537C64.3942 56.3267 64.2771 56.3177 64.169 56.3177C63.5562 56.3177 63.0246 56.6151 63.0246 57.5702V59.5977H61.8261V55.1643H62.9885V55.8221C63.2589 55.2364 63.8716 55.1283 64.2501 55.1283C64.3492 55.1283 64.4393 55.1373 64.5294 55.1463Z" fill="#2B2B2B"/>
</g>
<rect x="34.0239" y="38.0923" width="33.0267" height="12.5054" rx="4.50543" fill="#6FB01F"/>
<path d="M40.4036 47.666H36.9029V42.0759H40.4036V43.1009H37.991V44.3782H40.175V45.348H37.991V46.641H40.4036V47.666ZM46.2389 47.666H45.0957L42.5569 43.7001V47.666H41.4688V42.0759H42.825L45.1509 45.7737V42.0759H46.2389V47.666ZM51.6515 43.1088H49.8854V47.666H48.7895V43.1088H47.0233V42.0759H51.6515V43.1088ZM53.537 47.666H52.4332V42.0759H53.537V47.666ZM58.9432 43.1088H57.177V47.666H56.0811V43.1088H54.315V42.0759H58.9432V43.1088ZM61.1204 45.3164L59.1729 42.0759H60.4502L61.7039 44.2914L62.9575 42.0759H64.1796L62.2085 45.3164V47.666H61.1204V45.3164Z" fill="white"/>
<defs>
<clipPath id="clip0_1703_12942">
<rect width="11.414" height="11.414" fill="white" transform="translate(107.258 144.509)"/>
</clipPath>
<clipPath id="clip1_1703_12942">
<rect width="21" height="12" fill="white" transform="translate(120.672 144.216)"/>
</clipPath>
<clipPath id="clip2_1703_12942">
<rect width="11.41" height="11.41" fill="white" transform="translate(96.2576 100.883)"/>
</clipPath>
<clipPath id="clip3_1703_12942">
<rect width="40" height="12" fill="white" transform="translate(109.668 100.588)"/>
</clipPath>
<clipPath id="clip4_1703_12942">
<rect width="11.41" height="11.41" fill="white" transform="translate(97.1151 185.59)"/>
</clipPath>
<clipPath id="clip5_1703_12942">
<rect width="42" height="12" fill="white" transform="translate(110.525 185.295)"/>
</clipPath>
<clipPath id="clip6_1703_12942">
<rect width="11.41" height="11.41" fill="white" transform="translate(122.154 13.9141)"/>
</clipPath>
<clipPath id="clip7_1703_12942">
<rect width="53" height="12" fill="white" transform="translate(135.564 13.6191)"/>
</clipPath>
<clipPath id="clip8_1703_12942">
<rect width="11.41" height="11.41" fill="white" transform="translate(33.2576 50.8926)"/>
</clipPath>
<clipPath id="clip9_1703_12942">
<rect width="19" height="12" fill="white" transform="translate(46.6675 50.5977)"/>
</clipPath>
</defs>
</svg>
