<svg width="30" height="30" viewBox="0 0 30 30" fill="none" xmlns="http://www.w3.org/2000/svg">
<path fill-rule="evenodd" clip-rule="evenodd" d="M1.69922 28.4905V26.8481H2.46651V24.8573C2.46651 24.8573 3.32537 24.2627 3.93547 23.9354C4.54556 23.608 5.17185 23.3618 5.17185 23.3618V24.8573H5.97255V26.8481H7.83822V24.8573H8.70004V22.2287C8.70004 22.2287 9.14815 22.153 9.57989 22.153C10.0116 22.153 10.4973 22.153 10.4973 22.153V24.8573H11.4806V26.8481H13.2642V24.8573H14.1844V23.0004C14.1844 23.0004 14.7145 23.1944 15.1301 23.3618C15.5458 23.5291 16.0016 23.7322 16.0016 23.7322V24.8573H16.7811V26.9315H18.6824V24.8573H19.5495V23.6516C19.5495 23.6516 19.9834 23.5567 20.428 23.4595C20.8727 23.3622 21.3174 23.265 21.3174 23.265V24.8573H22.2556V26.9315H23.1283V28.4905H1.69922Z" fill="#5D3DE2"/>
<path fill-rule="evenodd" clip-rule="evenodd" d="M14.0968 6.41931C13.3498 6.41931 12.742 7.02718 12.742 7.77416H13.3002L23.5807 12.9144V15.4516H22.6775V17.2581H21.7743V24.4839H22.6775V26.2903H23.5807V29H1V26.2903H1.90323V24.4839H2.80646V17.2581H1.90323V15.4516H1V12.9144L11.2806 7.77416H11.8387C11.8387 6.52905 12.8517 5.51608 14.0968 5.51608H16.3549V6.41931H14.0968ZM5.51666 25.3871H2.80697V26.2903H5.51666V25.3871ZM8.22586 17.2581V24.4839H7.32264V26.2903H6.41941V24.4839H5.51618V17.2581H6.41941V15.4516H7.32264V17.2581H8.22586ZM13.6458 24.4839V17.258H12.7425V15.4516H11.8393V17.258H10.9361V24.4839H11.8393V26.2903H12.7425V24.4839H13.6458ZM19.0646 17.2581V24.4839H18.1614V26.2903H17.2582V24.4839H16.3549V17.2581H17.2582V15.4516H18.1614V17.2581H19.0646ZM21.7737 26.2903V25.3871H19.064V26.2903H21.7737ZM19.9677 24.4839V17.2581H20.871V24.4839H19.9677ZM13.6452 16.3548H16.3548V15.4516H13.6452V16.3548ZM15.4521 17.2581V24.4839H14.5489V17.2581H15.4521ZM16.3548 26.2903V25.3871H13.6452V26.2903H16.3548ZM10.9355 16.3548H8.22578V15.4516H10.9355V16.3548ZM10.0322 24.4839V17.2581H9.12898V24.4839H10.0322ZM10.9355 25.3871V26.2903H8.22578V25.3871H10.9355ZM2.80697 16.3548H5.51666V15.4516H2.80697V16.3548ZM4.61255 17.2581V24.4839H3.70932V17.2581H4.61255ZM22.6778 28.0968V27.1936H1.90349V28.0968H22.6778ZM21.7737 16.3548H19.064V15.4516H21.7737V16.3548ZM18.1616 14.5483H22.6778V13.4726L13.0873 8.67736H12.7422V11.8387H11.839V8.67736H11.494L1.90349 13.4726V14.5483H6.41963H7.32286H11.839H12.7422H17.2584H18.1616Z" fill="black"/>
<path d="M12.742 7.77416H12.6253V7.89082H12.742V7.77416ZM13.3002 7.77416L13.3523 7.66981L13.3277 7.65749H13.3002V7.77416ZM23.5807 12.9144H23.6974V12.8423L23.6329 12.8101L23.5807 12.9144ZM23.5807 15.4516V15.5683H23.6974V15.4516H23.5807ZM22.6775 15.4516V15.3349H22.5608V15.4516H22.6775ZM22.6775 17.2581V17.3747H22.7942V17.2581H22.6775ZM21.7743 17.2581V17.1414H21.6576V17.2581H21.7743ZM21.7743 24.4839H21.6576V24.6006H21.7743V24.4839ZM22.6775 24.4839H22.7942V24.3672H22.6775V24.4839ZM22.6775 26.2903H22.5608V26.407H22.6775V26.2903ZM23.5807 26.2903H23.6974V26.1737H23.5807V26.2903ZM23.5807 29V29.1167H23.6974V29H23.5807ZM1 29H0.883333V29.1167H1V29ZM1 26.2903V26.1737H0.883333V26.2903H1ZM1.90323 26.2903V26.407H2.0199V26.2903H1.90323ZM1.90323 24.4839V24.3672H1.78656V24.4839H1.90323ZM2.80646 24.4839V24.6006H2.92312V24.4839H2.80646ZM2.80646 17.2581H2.92312V17.1414H2.80646V17.2581ZM1.90323 17.2581H1.78656V17.3747H1.90323V17.2581ZM1.90323 15.4516H2.0199V15.3349H1.90323V15.4516ZM1 15.4516H0.883333V15.5683H1V15.4516ZM1 12.9144L0.947825 12.8101L0.883333 12.8423V12.9144H1ZM11.2806 7.77416V7.65749H11.253L11.2284 7.66981L11.2806 7.77416ZM11.8387 7.77416V7.89082H11.9554V7.77416H11.8387ZM16.3549 5.51608H16.4716V5.39942H16.3549V5.51608ZM16.3549 6.41931V6.53598H16.4716V6.41931H16.3549ZM2.80697 25.3871V25.2704H2.69031V25.3871H2.80697ZM5.51666 25.3871H5.63333V25.2704H5.51666V25.3871ZM2.80697 26.2903H2.69031V26.407H2.80697V26.2903ZM5.51666 26.2903V26.407H5.63333V26.2903H5.51666ZM8.22586 24.4839V24.6006H8.34253V24.4839H8.22586ZM8.22586 17.2581H8.34253V17.1414H8.22586V17.2581ZM7.32264 24.4839V24.3672H7.20597V24.4839H7.32264ZM7.32264 26.2903V26.407H7.4393V26.2903H7.32264ZM6.41941 26.2903H6.30274V26.407H6.41941V26.2903ZM6.41941 24.4839H6.53607V24.3672H6.41941V24.4839ZM5.51618 24.4839H5.39951V24.6006H5.51618V24.4839ZM5.51618 17.2581V17.1414H5.39951V17.2581H5.51618ZM6.41941 17.2581V17.3747H6.53607V17.2581H6.41941ZM6.41941 15.4516V15.3349H6.30274V15.4516H6.41941ZM7.32264 15.4516H7.4393V15.3349H7.32264V15.4516ZM7.32264 17.2581H7.20597V17.3747H7.32264V17.2581ZM13.6458 17.258H13.7624V17.1414H13.6458V17.258ZM13.6458 24.4839V24.6005H13.7624V24.4839H13.6458ZM12.7425 17.258H12.6259V17.3747H12.7425V17.258ZM12.7425 15.4516H12.8592V15.3349H12.7425V15.4516ZM11.8393 15.4516V15.3349H11.7226V15.4516H11.8393ZM11.8393 17.258V17.3747H11.956V17.258H11.8393ZM10.9361 17.258V17.1414H10.8194V17.258H10.9361ZM10.9361 24.4839H10.8194V24.6005H10.9361V24.4839ZM11.8393 24.4839H11.956V24.3672H11.8393V24.4839ZM11.8393 26.2903H11.7226V26.407H11.8393V26.2903ZM12.7425 26.2903V26.407H12.8592V26.2903H12.7425ZM12.7425 24.4839V24.3672H12.6259V24.4839H12.7425ZM19.0646 24.4839V24.6006H19.1813V24.4839H19.0646ZM19.0646 17.2581H19.1813V17.1414H19.0646V17.2581ZM18.1614 24.4839V24.3672H18.0447V24.4839H18.1614ZM18.1614 26.2903V26.407H18.2781V26.2903H18.1614ZM17.2582 26.2903H17.1415V26.407H17.2582V26.2903ZM17.2582 24.4839H17.3748V24.3672H17.2582V24.4839ZM16.3549 24.4839H16.2383V24.6006H16.3549V24.4839ZM16.3549 17.2581V17.1414H16.2383V17.2581H16.3549ZM17.2582 17.2581V17.3747H17.3748V17.2581H17.2582ZM17.2582 15.4516V15.3349H17.1415V15.4516H17.2582ZM18.1614 15.4516H18.2781V15.3349H18.1614V15.4516ZM18.1614 17.2581H18.0447V17.3747H18.1614V17.2581ZM21.7737 25.3871H21.8904V25.2704H21.7737V25.3871ZM21.7737 26.2903V26.407H21.8904V26.2903H21.7737ZM19.064 25.3871V25.2704H18.9474V25.3871H19.064ZM19.064 26.2903H18.9474V26.407H19.064V26.2903ZM19.9677 17.2581V17.1414H19.8511V17.2581H19.9677ZM19.9677 24.4839H19.8511V24.6006H19.9677V24.4839ZM20.871 17.2581H20.9876V17.1414H20.871V17.2581ZM20.871 24.4839V24.6006H20.9876V24.4839H20.871ZM16.3548 16.3548V16.4715H16.4715V16.3548H16.3548ZM13.6452 16.3548H13.5285V16.4715H13.6452V16.3548ZM16.3548 15.4516H16.4715V15.3349H16.3548V15.4516ZM13.6452 15.4516V15.3349H13.5285V15.4516H13.6452ZM15.4521 24.4839V24.6006H15.5688V24.4839H15.4521ZM15.4521 17.2581H15.5688V17.1414H15.4521V17.2581ZM14.5489 24.4839H14.4322V24.6006H14.5489V24.4839ZM14.5489 17.2581V17.1414H14.4322V17.2581H14.5489ZM16.3548 25.3871H16.4715V25.2704H16.3548V25.3871ZM16.3548 26.2903V26.407H16.4715V26.2903H16.3548ZM13.6452 25.3871V25.2704H13.5285V25.3871H13.6452ZM13.6452 26.2903H13.5285V26.407H13.6452V26.2903ZM8.22578 16.3548H8.10911V16.4715H8.22578V16.3548ZM10.9355 16.3548V16.4715H11.0521V16.3548H10.9355ZM8.22578 15.4516V15.3349H8.10911V15.4516H8.22578ZM10.9355 15.4516H11.0521V15.3349H10.9355V15.4516ZM10.0322 17.2581H10.1489V17.1414H10.0322V17.2581ZM10.0322 24.4839V24.6006H10.1489V24.4839H10.0322ZM9.12898 17.2581V17.1414H9.01232V17.2581H9.12898ZM9.12898 24.4839H9.01232V24.6006H9.12898V24.4839ZM10.9355 26.2903V26.407H11.0521V26.2903H10.9355ZM10.9355 25.3871H11.0521V25.2704H10.9355V25.3871ZM8.22578 26.2903H8.10911V26.407H8.22578V26.2903ZM8.22578 25.3871V25.2704H8.10911V25.3871H8.22578ZM5.51666 16.3548V16.4715H5.63333V16.3548H5.51666ZM2.80697 16.3548H2.69031V16.4715H2.80697V16.3548ZM5.51666 15.4516H5.63333V15.3349H5.51666V15.4516ZM2.80697 15.4516V15.3349H2.69031V15.4516H2.80697ZM4.61255 24.4839V24.6006H4.72921V24.4839H4.61255ZM4.61255 17.2581H4.72921V17.1414H4.61255V17.2581ZM3.70932 24.4839H3.59265V24.6006H3.70932V24.4839ZM3.70932 17.2581V17.1414H3.59265V17.2581H3.70932ZM22.6778 27.1936H22.7944V27.0769H22.6778V27.1936ZM22.6778 28.0968V28.2135H22.7944V28.0968H22.6778ZM1.90349 27.1936V27.0769H1.78682V27.1936H1.90349ZM1.90349 28.0968H1.78682V28.2135H1.90349V28.0968ZM19.064 16.3548H18.9474V16.4715H19.064V16.3548ZM21.7737 16.3548V16.4715H21.8904V16.3548H21.7737ZM19.064 15.4516V15.3349H18.9474V15.4516H19.064ZM21.7737 15.4516H21.8904V15.3349H21.7737V15.4516ZM22.6778 14.5483V14.665H22.7944V14.5483H22.6778ZM22.6778 13.4726H22.7944V13.4005L22.7299 13.3683L22.6778 13.4726ZM13.0873 8.67736L13.1394 8.57301L13.1148 8.56069H13.0873V8.67736ZM12.7422 8.67736V8.56069H12.6256V8.67736H12.7422ZM12.7422 11.8387V11.9553H12.8589V11.8387H12.7422ZM11.839 11.8387H11.7223V11.9553H11.839V11.8387ZM11.839 8.67736H11.9557V8.56069H11.839V8.67736ZM11.494 8.67736V8.56069H11.4664L11.4418 8.57301L11.494 8.67736ZM1.90349 13.4726L1.85131 13.3683L1.78682 13.4005V13.4726H1.90349ZM1.90349 14.5483H1.78682V14.665H1.90349V14.5483ZM12.8586 7.77416C12.8586 7.09162 13.4143 6.53598 14.0968 6.53598V6.30264C13.2854 6.30264 12.6253 6.96275 12.6253 7.77416H12.8586ZM13.3002 7.65749H12.742V7.89082H13.3002V7.65749ZM23.6329 12.8101L13.3523 7.66981L13.248 7.87851L23.5285 13.0188L23.6329 12.8101ZM23.6974 15.4516V12.9144H23.4641V15.4516H23.6974ZM22.6775 15.5683H23.5807V15.3349H22.6775V15.5683ZM22.7942 17.2581V15.4516H22.5608V17.2581H22.7942ZM21.7743 17.3747H22.6775V17.1414H21.7743V17.3747ZM21.8909 24.4839V17.2581H21.6576V24.4839H21.8909ZM22.6775 24.3672H21.7743V24.6006H22.6775V24.3672ZM22.7942 26.2903V24.4839H22.5608V26.2903H22.7942ZM23.5807 26.1737H22.6775V26.407H23.5807V26.1737ZM23.6974 29V26.2903H23.4641V29H23.6974ZM1 29.1167H23.5807V28.8834H1V29.1167ZM0.883333 26.2903V29H1.11667V26.2903H0.883333ZM1.90323 26.1737H1V26.407H1.90323V26.1737ZM1.78656 24.4839V26.2903H2.0199V24.4839H1.78656ZM2.80646 24.3672H1.90323V24.6006H2.80646V24.3672ZM2.68979 17.2581V24.4839H2.92312V17.2581H2.68979ZM1.90323 17.3747H2.80646V17.1414H1.90323V17.3747ZM1.78656 15.4516V17.2581H2.0199V15.4516H1.78656ZM1 15.5683H1.90323V15.3349H1V15.5683ZM0.883333 12.9144V15.4516H1.11667V12.9144H0.883333ZM11.2284 7.66981L0.947825 12.8101L1.05218 13.0188L11.3327 7.87851L11.2284 7.66981ZM11.8387 7.65749H11.2806V7.89082H11.8387V7.65749ZM14.0968 5.39942C12.7873 5.39942 11.7221 6.46462 11.7221 7.77416H11.9554C11.9554 6.59349 12.9162 5.63275 14.0968 5.63275V5.39942ZM16.3549 5.39942H14.0968V5.63275H16.3549V5.39942ZM16.4716 6.41931V5.51608H16.2382V6.41931H16.4716ZM14.0968 6.53598H16.3549V6.30264H14.0968V6.53598ZM2.80697 25.5038H5.51666V25.2704H2.80697V25.5038ZM2.92364 26.2903V25.3871H2.69031V26.2903H2.92364ZM5.51666 26.1736H2.80697V26.407H5.51666V26.1736ZM5.39999 25.3871V26.2903H5.63333V25.3871H5.39999ZM8.34253 24.4839V17.2581H8.1092V24.4839H8.34253ZM7.32264 24.6006H8.22586V24.3672H7.32264V24.6006ZM7.4393 26.2903V24.4839H7.20597V26.2903H7.4393ZM6.41941 26.407H7.32264V26.1737H6.41941V26.407ZM6.30274 24.4839V26.2903H6.53607V24.4839H6.30274ZM5.51618 24.6006H6.41941V24.3672H5.51618V24.6006ZM5.39951 17.2581V24.4839H5.63284V17.2581H5.39951ZM6.41941 17.1414H5.51618V17.3747H6.41941V17.1414ZM6.30274 15.4516V17.2581H6.53607V15.4516H6.30274ZM7.32264 15.3349H6.41941V15.5683H7.32264V15.3349ZM7.4393 17.2581V15.4516H7.20597V17.2581H7.4393ZM8.22586 17.1414H7.32264V17.3747H8.22586V17.1414ZM13.5291 17.258V24.4839H13.7624V17.258H13.5291ZM12.7425 17.3747H13.6458V17.1414H12.7425V17.3747ZM12.6259 15.4516V17.258H12.8592V15.4516H12.6259ZM11.8393 15.5683H12.7425V15.3349H11.8393V15.5683ZM11.956 17.258V15.4516H11.7226V17.258H11.956ZM10.9361 17.3747H11.8393V17.1414H10.9361V17.3747ZM11.0527 24.4839V17.258H10.8194V24.4839H11.0527ZM11.8393 24.3672H10.9361V24.6005H11.8393V24.3672ZM11.956 26.2903V24.4839H11.7226V26.2903H11.956ZM12.7425 26.1737H11.8393V26.407H12.7425V26.1737ZM12.6259 24.4839V26.2903H12.8592V24.4839H12.6259ZM13.6458 24.3672H12.7425V24.6005H13.6458V24.3672ZM19.1813 24.4839V17.2581H18.948V24.4839H19.1813ZM18.1614 24.6006H19.0646V24.3672H18.1614V24.6006ZM18.2781 26.2903V24.4839H18.0447V26.2903H18.2781ZM17.2582 26.407H18.1614V26.1737H17.2582V26.407ZM17.1415 24.4839V26.2903H17.3748V24.4839H17.1415ZM16.3549 24.6006H17.2582V24.3672H16.3549V24.6006ZM16.2383 17.2581V24.4839H16.4716V17.2581H16.2383ZM17.2582 17.1414H16.3549V17.3747H17.2582V17.1414ZM17.1415 15.4516V17.2581H17.3748V15.4516H17.1415ZM18.1614 15.3349H17.2582V15.5683H18.1614V15.3349ZM18.2781 17.2581V15.4516H18.0447V17.2581H18.2781ZM19.0646 17.1414H18.1614V17.3747H19.0646V17.1414ZM21.657 25.3871V26.2903H21.8904V25.3871H21.657ZM19.064 25.5038H21.7737V25.2704H19.064V25.5038ZM19.1807 26.2903V25.3871H18.9474V26.2903H19.1807ZM21.7737 26.1736H19.064V26.407H21.7737V26.1736ZM19.8511 17.2581V24.4839H20.0844V17.2581H19.8511ZM20.871 17.1414H19.9677V17.3747H20.871V17.1414ZM20.9876 24.4839V17.2581H20.7543V24.4839H20.9876ZM19.9677 24.6006H20.871V24.3672H19.9677V24.6006ZM16.3548 16.2382H13.6452V16.4715H16.3548V16.2382ZM16.2382 15.4516V16.3548H16.4715V15.4516H16.2382ZM13.6452 15.5683H16.3548V15.3349H13.6452V15.5683ZM13.7618 16.3548V15.4516H13.5285V16.3548H13.7618ZM15.5688 24.4839V17.2581H15.3354V24.4839H15.5688ZM14.5489 24.6006H15.4521V24.3672H14.5489V24.6006ZM14.4322 17.2581V24.4839H14.6655V17.2581H14.4322ZM15.4521 17.1414H14.5489V17.3747H15.4521V17.1414ZM16.2382 25.3871V26.2903H16.4715V25.3871H16.2382ZM13.6452 25.5038H16.3548V25.2704H13.6452V25.5038ZM13.7618 26.2903V25.3871H13.5285V26.2903H13.7618ZM16.3548 26.1737H13.6452V26.407H16.3548V26.1737ZM8.22578 16.4715H10.9355V16.2382H8.22578V16.4715ZM8.10911 15.4516V16.3548H8.34245V15.4516H8.10911ZM10.9355 15.3349H8.22578V15.5683H10.9355V15.3349ZM11.0521 16.3548V15.4516H10.8188V16.3548H11.0521ZM9.91554 17.2581V24.4839H10.1489V17.2581H9.91554ZM9.12898 17.3747H10.0322V17.1414H9.12898V17.3747ZM9.24565 24.4839V17.2581H9.01232V24.4839H9.24565ZM10.0322 24.3672H9.12898V24.6006H10.0322V24.3672ZM11.0521 26.2903V25.3871H10.8188V26.2903H11.0521ZM8.22578 26.407H10.9355V26.1737H8.22578V26.407ZM8.10911 25.3871V26.2903H8.34245V25.3871H8.10911ZM10.9355 25.2704H8.22578V25.5038H10.9355V25.2704ZM5.51666 16.2381H2.80697V16.4715H5.51666V16.2381ZM5.39999 15.4516V16.3548H5.63333V15.4516H5.39999ZM2.80697 15.5683H5.51666V15.3349H2.80697V15.5683ZM2.92364 16.3548V15.4516H2.69031V16.3548H2.92364ZM4.72921 24.4839V17.2581H4.49588V24.4839H4.72921ZM3.70932 24.6006H4.61255V24.3672H3.70932V24.6006ZM3.59265 17.2581V24.4839H3.82599V17.2581H3.59265ZM4.61255 17.1414H3.70932V17.3747H4.61255V17.1414ZM22.5611 27.1936V28.0968H22.7944V27.1936H22.5611ZM1.90349 27.3102H22.6778V27.0769H1.90349V27.3102ZM2.02015 28.0968V27.1936H1.78682V28.0968H2.02015ZM22.6778 27.9801H1.90349V28.2135H22.6778V27.9801ZM19.064 16.4715H21.7737V16.2381H19.064V16.4715ZM18.9474 15.4516V16.3548H19.1807V15.4516H18.9474ZM21.7737 15.3349H19.064V15.5683H21.7737V15.3349ZM21.8904 16.3548V15.4516H21.657V16.3548H21.8904ZM22.6778 14.4317H18.1616V14.665H22.6778V14.4317ZM22.5611 13.4726V14.5483H22.7944V13.4726H22.5611ZM13.0351 8.78171L22.6256 13.577L22.7299 13.3683L13.1394 8.57301L13.0351 8.78171ZM12.7422 8.79403H13.0873V8.56069H12.7422V8.79403ZM12.8589 11.8387V8.67736H12.6256V11.8387H12.8589ZM11.839 11.9553H12.7422V11.722H11.839V11.9553ZM11.7223 8.67736V11.8387H11.9557V8.67736H11.7223ZM11.494 8.79403H11.839V8.56069H11.494V8.79403ZM1.95566 13.577L11.5461 8.78171L11.4418 8.57301L1.85131 13.3683L1.95566 13.577ZM2.02015 14.5483V13.4726H1.78682V14.5483H2.02015ZM6.41963 14.4317H1.90349V14.665H6.41963V14.4317ZM7.32286 14.4317H6.41963V14.665H7.32286V14.4317ZM11.839 14.4317H7.32286V14.665H11.839V14.4317ZM12.7422 14.4317H11.839V14.665H12.7422V14.4317ZM17.2584 14.4317H12.7422V14.665H17.2584V14.4317ZM18.1616 14.4317H17.2584V14.665H18.1616V14.4317Z" fill="black"/>
<rect x="4.61328" y="12.7419" width="15.3549" height="0.903229" fill="black" stroke="black" stroke-width="0.116667"/>
<path fill-rule="evenodd" clip-rule="evenodd" d="M19.0635 5.9677C19.0635 3.22866 21.2922 0.999939 24.0312 0.999939C26.7703 0.999939 28.999 3.22866 28.999 5.9677C28.999 8.70674 26.7703 10.9355 24.0312 10.9355C21.2922 10.9355 19.0635 8.70674 19.0635 5.9677ZM19.967 5.96771C19.967 8.20907 21.7901 10.0322 24.0315 10.0322C26.2729 10.0322 28.096 8.20907 28.096 5.96771C28.096 3.72634 26.2729 1.90318 24.0315 1.90318C21.7901 1.90318 19.967 3.72634 19.967 5.96771Z" fill="black"/>
<path d="M24.0312 0.941605C21.26 0.941605 19.0051 3.19644 19.0051 5.9677H19.1218C19.1218 3.26087 21.3244 1.05827 24.0312 1.05827V0.941605ZM29.0573 5.9677C29.0573 3.19644 26.8025 0.941605 24.0312 0.941605V1.05827C26.7381 1.05827 28.9407 3.26087 28.9407 5.9677H29.0573ZM24.0312 10.9938C26.8025 10.9938 29.0573 8.73896 29.0573 5.9677H28.9407C28.9407 8.67452 26.7381 10.8771 24.0312 10.8771V10.9938ZM19.0051 5.9677C19.0051 8.73896 21.26 10.9938 24.0312 10.9938V10.8771C21.3244 10.8771 19.1218 8.67452 19.1218 5.9677H19.0051ZM24.0315 9.9739C21.8223 9.9739 20.0253 8.17685 20.0253 5.96771H19.9086C19.9086 8.24128 21.7579 10.0906 24.0315 10.0906V9.9739ZM28.0377 5.96771C28.0377 8.17685 26.2406 9.9739 24.0315 9.9739V10.0906C26.3051 10.0906 28.1544 8.24128 28.1544 5.96771H28.0377ZM24.0315 1.96151C26.2406 1.96151 28.0377 3.75856 28.0377 5.96771H28.1544C28.1544 3.69413 26.3051 1.84484 24.0315 1.84484V1.96151ZM20.0253 5.96771C20.0253 3.75856 21.8223 1.96151 24.0315 1.96151V1.84484C21.7579 1.84484 19.9086 3.69413 19.9086 5.96771H20.0253Z" fill="black"/>
<path d="M25.7241 4.50867C25.7014 4.48481 25.6722 4.4729 25.6369 4.4729H24.9878C24.9447 4.25289 24.8638 4.06192 24.7448 3.90018H25.6292C25.6647 3.90018 25.6937 3.88826 25.7166 3.86445C25.7392 3.8406 25.7506 3.81008 25.7506 3.77297V3.3672C25.7506 3.33006 25.7392 3.29959 25.7166 3.27572C25.6937 3.2519 25.6647 3.23993 25.6292 3.23993H22.4711C22.4356 3.23993 22.4065 3.2519 22.3838 3.2757C22.361 3.29958 22.3496 3.33005 22.3496 3.36719V3.89616C22.3496 3.93062 22.3616 3.96045 22.3857 3.98563C22.4097 4.01082 22.4382 4.02341 22.4711 4.02341H23.0215C23.5554 4.02341 23.8945 4.17318 24.0387 4.47283H22.4711C22.4356 4.47283 22.4065 4.48474 22.3838 4.5086C22.361 4.53249 22.3496 4.56295 22.3496 4.60009V5.0058C22.3496 5.04291 22.361 5.07342 22.3838 5.09723C22.4065 5.12112 22.4357 5.133 22.4711 5.133H24.0919C24.0363 5.35049 23.9066 5.51618 23.7028 5.6302C23.4991 5.74423 23.2303 5.80125 22.8962 5.80125H22.4711C22.4382 5.80125 22.4097 5.81386 22.3857 5.83903C22.3616 5.86423 22.3496 5.89407 22.3496 5.92851V6.43367C22.3496 6.46819 22.361 6.49735 22.3838 6.52119C22.8696 7.06208 23.4997 7.81903 24.2741 8.79222C24.2969 8.82407 24.3285 8.83995 24.369 8.83995H25.1092C25.1624 8.83995 25.1991 8.81615 25.2193 8.76833C25.2446 8.7206 25.2396 8.67553 25.2041 8.63309C24.4652 7.68382 23.8844 6.97322 23.4618 6.50126C23.892 6.44825 24.2412 6.30238 24.5095 6.06379C24.7777 5.82517 24.9409 5.51488 24.9991 5.13307H25.6369C25.6722 5.13307 25.7014 5.12117 25.7241 5.0973C25.7469 5.07349 25.7583 5.04298 25.7583 5.00587V4.6002C25.7583 4.56302 25.7469 4.53255 25.7241 4.50867Z" fill="black"/>
<rect x="17.2578" y="5.51608" width="0.903229" height="0.903229" fill="black"/>
<path d="M26.2899 18.6129C26.2899 19.3599 25.682 19.9678 24.935 19.9678H24.4834V20.871H24.935C26.1801 20.871 27.1931 19.858 27.1931 18.6129V11.3871H26.2899V18.6129Z" fill="black"/>
<rect x="22.6777" y="19.9677" width="0.903229" height="0.903229" fill="black"/>
</svg>
