<svg width="21" height="20" viewBox="0 0 21 20" fill="none" xmlns="http://www.w3.org/2000/svg">
<g id="Lucide Icon">
<path id="Vector" d="M8.83301 10.8333C9.19088 11.3118 9.64747 11.7076 10.1718 11.9941C10.6961 12.2806 11.2759 12.4509 11.8719 12.4936C12.4678 12.5363 13.066 12.4503 13.6258 12.2415C14.1856 12.0327 14.6939 11.7059 15.1163 11.2833L17.6163 8.78333C18.3753 7.99749 18.7953 6.94498 18.7858 5.85249C18.7763 4.76 18.3381 3.71495 17.5656 2.94242C16.7931 2.16989 15.748 1.73168 14.6555 1.72219C13.563 1.71269 12.5105 2.13267 11.7247 2.89166L10.2913 4.31666" stroke="#035E5D" stroke-width="1.67" stroke-linecap="round" stroke-linejoin="round"/>
<path id="Vector_2" d="M12.1668 9.16667C11.809 8.68823 11.3524 8.29235 10.828 8.00588C10.3037 7.71942 9.72391 7.54907 9.12796 7.50639C8.53201 7.46371 7.93384 7.54969 7.37405 7.75851C6.81425 7.96734 6.3059 8.29411 5.8835 8.71667L3.3835 11.2167C2.62451 12.0025 2.20453 13.055 2.21402 14.1475C2.22352 15.24 2.66172 16.285 3.43426 17.0576C4.20679 17.8301 5.25184 18.2683 6.34433 18.2778C7.43681 18.2873 8.48932 17.8673 9.27517 17.1083L10.7002 15.6833" stroke="#035E5D" stroke-width="1.67" stroke-linecap="round" stroke-linejoin="round"/>
</g>
</svg>
