<svg width="20" height="20" viewBox="0 0 20 20" fill="none" xmlns="http://www.w3.org/2000/svg">
<g id="Lucide Icon">
<g id="Vector">
<mask id="path-1-inside-1_993_794" fill="white">
<path d="M14.1666 2.5C14.3789 2.2492 14.6414 2.04505 14.9375 1.90057C15.2336 1.75609 15.5567 1.67445 15.8863 1.66085C16.216 1.64725 16.5448 1.70198 16.8519 1.82157C17.1591 1.94116 17.4378 2.12298 17.6702 2.35544C17.9027 2.58789 18.0838 2.86589 18.2021 3.1717C18.3203 3.47752 18.3732 3.80445 18.3571 4.13165C18.3411 4.45885 18.2566 4.77916 18.109 5.07214C17.9615 5.36512 17.754 5.62436 17.5 5.83333L6.24996 17.0833L1.66663 18.3333L2.91663 13.75L14.1666 2.5Z"/>
</mask>
<path d="M14.1666 2.5L15.3475 3.68087C15.3802 3.64815 15.4116 3.61409 15.4414 3.57876L14.1666 2.5ZM17.5 5.83333L16.4391 4.54357C16.3974 4.5779 16.3573 4.61425 16.3191 4.65247L17.5 5.83333ZM6.24996 17.0833L6.68937 18.6945C6.96975 18.618 7.22533 18.4697 7.43083 18.2642L6.24996 17.0833ZM1.66663 18.3333L0.0554705 17.8939C-0.102213 18.4721 0.061995 19.0904 0.485758 19.5142C0.90952 19.938 1.52786 20.1022 2.10603 19.9445L1.66663 18.3333ZM2.91663 13.75L1.73576 12.5691C1.53025 12.7746 1.38194 13.0302 1.30547 13.3106L2.91663 13.75ZM15.4414 3.57876C15.5037 3.50525 15.5813 3.44463 15.6698 3.40142L14.2051 0.399721C13.7015 0.645472 13.2541 0.993146 12.8918 1.42124L15.4414 3.57876ZM15.6698 3.40142C15.7584 3.3582 15.8556 3.33354 15.9552 3.32943L15.8175 -0.00773311C15.2578 0.0153604 14.7087 0.153984 14.2051 0.399721L15.6698 3.40142ZM15.9552 3.32943C16.0547 3.32532 16.1538 3.34188 16.246 3.37777L17.4579 0.265378C16.9358 0.062088 16.3772 -0.0308264 15.8175 -0.00773311L15.9552 3.32943ZM16.246 3.37777C16.3382 3.41365 16.4209 3.46787 16.4893 3.5363L18.8511 1.17457C18.4546 0.778091 17.98 0.468679 17.4579 0.265378L16.246 3.37777ZM16.4893 3.5363C16.5578 3.60471 16.6104 3.6858 16.6445 3.77407L19.7597 2.56934C19.5573 2.04597 19.2476 1.57107 18.8511 1.17457L16.4893 3.5363ZM16.6445 3.77407C16.6786 3.8623 16.6937 3.95622 16.6891 4.05L20.0251 4.21331C20.0526 3.65267 19.9621 3.09274 19.7597 2.56934L16.6445 3.77407ZM16.6891 4.05C16.6845 4.14377 16.6603 4.236 16.6176 4.32086L19.6005 5.82342C19.8529 5.32232 19.9977 4.77394 20.0251 4.21331L16.6891 4.05ZM16.6176 4.32086C16.5748 4.40575 16.5143 4.48176 16.4391 4.54357L18.5608 7.1231C18.9938 6.76697 19.3481 6.3245 19.6005 5.82342L16.6176 4.32086ZM16.3191 4.65247L5.06909 15.9025L7.43083 18.2642L18.6808 7.0142L16.3191 4.65247ZM5.81055 15.4722L1.22722 16.7222L2.10603 19.9445L6.68937 18.6945L5.81055 15.4722ZM3.27778 18.7727L4.52778 14.1894L1.30547 13.3106L0.0554705 17.8939L3.27778 18.7727ZM4.09749 14.9309L15.3475 3.68087L12.9858 1.31913L1.73576 12.5691L4.09749 14.9309Z" fill="#035E5D" mask="url(#path-1-inside-1_993_794)"/>
</g>
<path id="Vector_2" d="M12.5 4.16669L15.8333 7.50002" stroke="#035E5D" stroke-width="1.67" stroke-linejoin="round"/>
</g>
</svg>
