<svg width="20" height="20" viewBox="0 0 20 20" fill="none" xmlns="http://www.w3.org/2000/svg">
<g id="visibility">
<mask id="mask0_21_21253" style="mask-type:alpha" maskUnits="userSpaceOnUse" x="0" y="0" width="20" height="20">
<rect id="Bounding box" width="20" height="20" fill="#D9D9D9"/>
</mask>
<g mask="url(#mask0_21_21253)">
<path id="visibility_2" d="M10 13.5C10.9722 13.5 11.7986 13.1597 12.4792 12.4792C13.1597 11.7986 13.5 10.9722 13.5 10C13.5 9.02778 13.1597 8.20139 12.4792 7.52083C11.7986 6.84028 10.9722 6.5 10 6.5C9.02778 6.5 8.20139 6.84028 7.52083 7.52083C6.84028 8.20139 6.5 9.02778 6.5 10C6.5 10.9722 6.84028 11.7986 7.52083 12.4792C8.20139 13.1597 9.02778 13.5 10 13.5ZM10 12C9.44444 12 8.97222 11.8056 8.58333 11.4167C8.19444 11.0278 8 10.5556 8 10C8 9.44444 8.19444 8.97222 8.58333 8.58333C8.97222 8.19444 9.44444 8 10 8C10.5556 8 11.0278 8.19444 11.4167 8.58333C11.8056 8.97222 12 9.44444 12 10C12 10.5556 11.8056 11.0278 11.4167 11.4167C11.0278 11.8056 10.5556 12 10 12ZM10 16C8.0195 16 6.21535 15.4549 4.58754 14.3646C2.95974 13.2743 1.76389 11.8194 1 10C1.76389 8.18056 2.95974 6.72569 4.58754 5.63542C6.21535 4.54514 8.0195 4 10 4C11.9805 4 13.7847 4.54514 15.4125 5.63542C17.0403 6.72569 18.2361 8.18056 19 10C18.2361 11.8194 17.0403 13.2743 15.4125 14.3646C13.7847 15.4549 11.9805 16 10 16ZM10 14.5C11.5556 14.5 12.9931 14.0972 14.3125 13.2917C15.6319 12.4861 16.6458 11.3889 17.3542 10C16.6458 8.61111 15.6319 7.51389 14.3125 6.70833C12.9931 5.90278 11.5556 5.5 10 5.5C8.44444 5.5 7.00694 5.90278 5.6875 6.70833C4.36806 7.51389 3.35417 8.61111 2.64583 10C3.35417 11.3889 4.36806 12.4861 5.6875 13.2917C7.00694 14.0972 8.44444 14.5 10 14.5Z" fill="#393939"/>
</g>
</g>
</svg>
