<svg width="28" height="29" viewBox="0 0 28 29" fill="none" xmlns="http://www.w3.org/2000/svg">
<ellipse cx="14.068" cy="27.1579" rx="10.6842" ry="1.84211" fill="#1D1939"/>
<path fill-rule="evenodd" clip-rule="evenodd" d="M5.6582 20.1579C5.6582 20.1579 8.68982 18.2855 12.79 20.1579C14.7872 21.0699 18.1709 19.9802 20.331 16.8421C21.1273 15.6853 21.4479 12.5229 21.4479 12.5229C21.4479 12.5229 24.3324 19.9835 20.8019 23.5707C17.2715 27.1579 9.10179 24.3973 9.10179 24.3973C9.10179 24.3973 7.26448 23.078 6.60832 22.2702C5.95216 21.4624 5.6582 20.1579 5.6582 20.1579Z" fill="#00C5B3"/>
<path fill-rule="evenodd" clip-rule="evenodd" d="M18.0726 6.25296C18.0726 6.55319 17.9857 6.83119 17.8439 7.07202C20.9671 9.15584 23.2785 13.7037 23.2785 17.8903C23.2785 22.9251 19.7493 26.0527 14.068 26.0527C8.38667 26.0527 4.85742 22.9251 4.85742 17.8903C4.85742 13.7041 7.16887 9.15584 10.2921 7.07242C10.1503 6.83119 10.0634 6.55319 10.0634 6.25296C10.0634 5.62018 10.4286 5.0771 10.9548 4.81202L9.55961 3.12258C9.36819 2.89064 9.26247 2.59647 9.26247 2.29423C9.26247 1.58063 9.83793 0.999969 10.5447 0.999969H10.8359C11.4454 0.999969 12.0208 1.22746 12.4661 1.64326C12.9123 1.22706 13.4841 0.999969 14.068 0.999969C14.6603 0.999969 15.2405 1.23353 15.6702 1.64285C16.1159 1.22706 16.691 0.999969 17.3001 0.999969H17.3405C18.1855 0.999969 18.8735 1.69377 18.8735 2.54718C18.8735 2.96014 18.7141 3.34846 18.4246 3.64061L17.2348 4.84112C17.7314 5.11589 18.0726 5.6424 18.0726 6.25296ZM10.5444 1.80811C10.2789 1.80811 10.063 2.02631 10.063 2.29421C10.063 2.40735 10.1027 2.51807 10.1751 2.60535L11.8527 4.63664H12.2747L11.6933 3.17025L12.4369 2.87002L13.1373 4.63664H13.6671V2.61626H14.4681V4.63664H14.9979L15.6979 2.87042L16.4415 3.17065L15.8605 4.63664H16.3046L17.8579 3.06963C17.9961 2.93023 18.0722 2.74435 18.0722 2.54716C18.0722 2.13945 17.7438 1.80811 17.3401 1.80811H17.2997C16.872 1.80811 16.4695 1.9762 16.1668 2.28128C15.9025 2.54918 15.4368 2.54959 15.1717 2.28088C14.5606 1.66547 13.5546 1.68527 12.9836 2.26108C12.6784 2.56939 12.2331 2.54959 11.968 2.28088C11.6656 1.9762 11.2632 1.80811 10.8355 1.80811H10.5444ZM11.6651 5.44481H16.4706C16.9124 5.44481 17.2716 5.80726 17.2716 6.25296C17.2716 6.69865 16.9124 7.06111 16.4706 7.06111H11.6651C11.2234 7.06111 10.8642 6.69865 10.8642 6.25296C10.8642 5.80726 11.2234 5.44481 11.6651 5.44481ZM5.65828 17.8904C5.65828 22.4952 8.80228 25.2445 14.0679 25.2445C19.3336 25.2445 22.4776 22.4952 22.4776 17.8904C22.4776 13.888 20.247 9.54497 17.2576 7.65187C17.0241 7.78643 16.7582 7.86926 16.4707 7.86926H16.2612L16.8427 9.33566L16.099 9.63589L15.3986 7.86926H14.4684V9.48557H13.6675V7.86926H12.7372L12.0372 9.63548L11.2935 9.33525L11.8746 7.86926H11.6652C11.3776 7.86926 11.1113 7.78643 10.8779 7.65187C7.88884 9.54497 5.65828 13.8884 5.65828 17.8904Z" fill="black"/>
<path d="M17.8439 7.07202L17.6931 6.98325L17.6092 7.12579L17.7468 7.21759L17.8439 7.07202ZM10.2921 7.07242L10.3892 7.21801L10.5267 7.12627L10.4429 6.98376L10.2921 7.07242ZM10.9548 4.81202L11.0335 4.96831L11.2294 4.86966L11.0897 4.70059L10.9548 4.81202ZM9.55961 3.12258L9.42464 3.23397L9.42468 3.23402L9.55961 3.12258ZM12.4661 1.64326L12.3467 1.77117L12.4661 1.88264L12.5855 1.77122L12.4661 1.64326ZM15.6702 1.64285L15.5495 1.76956L15.669 1.88335L15.7896 1.77082L15.6702 1.64285ZM18.4246 3.64061L18.5489 3.76379L18.4246 3.64061ZM17.2348 4.84112L17.1105 4.71793L16.9477 4.88224L17.1501 4.99424L17.2348 4.84112ZM10.1751 2.60535L10.3101 2.49392L10.3098 2.49355L10.1751 2.60535ZM11.8527 4.63664L11.7177 4.74808L11.7702 4.81164H11.8527V4.63664ZM12.2747 4.63664V4.81164H12.5324L12.4374 4.57213L12.2747 4.63664ZM11.6933 3.17025L11.6278 3.00797L11.4665 3.07308L11.5306 3.23476L11.6933 3.17025ZM12.4369 2.87002L12.5996 2.80552L12.5347 2.64182L12.3714 2.70775L12.4369 2.87002ZM13.1373 4.63664L12.9746 4.70114L13.0185 4.81164H13.1373V4.63664ZM13.6671 4.63664V4.81164H13.8421V4.63664H13.6671ZM13.6671 2.61626V2.44126H13.4921V2.61626H13.6671ZM14.4681 2.61626H14.6431V2.44126H14.4681V2.61626ZM14.4681 4.63664H14.2931V4.81164H14.4681V4.63664ZM14.9979 4.63664V4.81164H15.1167L15.1606 4.70112L14.9979 4.63664ZM15.6979 2.87042L15.7634 2.70815L15.6001 2.64222L15.5352 2.80595L15.6979 2.87042ZM16.4415 3.17065L16.6042 3.23514L16.6683 3.07348L16.507 3.00838L16.4415 3.17065ZM15.8605 4.63664L15.6978 4.57216L15.6028 4.81164H15.8605V4.63664ZM16.3046 4.63664V4.81164H16.3775L16.4288 4.75984L16.3046 4.63664ZM17.8579 3.06963L17.9822 3.19284L17.9822 3.19282L17.8579 3.06963ZM16.1668 2.28128L16.0426 2.15801L16.0422 2.15838L16.1668 2.28128ZM15.1717 2.28088L15.2962 2.15797L15.2958 2.15757L15.1717 2.28088ZM12.9836 2.26108L12.8593 2.13785L12.8592 2.13797L12.9836 2.26108ZM11.968 2.28088L12.0926 2.15797L12.0922 2.15761L11.968 2.28088ZM17.2576 7.65187L17.3512 7.50402L17.2618 7.44743L17.1702 7.50025L17.2576 7.65187ZM16.2612 7.86926V7.69426H16.0036L16.0986 7.93377L16.2612 7.86926ZM16.8427 9.33566L16.9082 9.49793L17.0695 9.43282L17.0054 9.27115L16.8427 9.33566ZM16.099 9.63589L15.9364 9.70038L16.0013 9.86409L16.1646 9.79816L16.099 9.63589ZM15.3986 7.86926L15.5613 7.80477L15.5175 7.69426H15.3986V7.86926ZM14.4684 7.86926V7.69426H14.2934V7.86926H14.4684ZM14.4684 9.48557V9.66057H14.6434V9.48557H14.4684ZM13.6675 9.48557H13.4925V9.66057H13.6675V9.48557ZM13.6675 7.86926H13.8425V7.69426H13.6675V7.86926ZM12.7372 7.86926V7.69426H12.6183L12.5745 7.80479L12.7372 7.86926ZM12.0372 9.63548L11.9717 9.79776L12.135 9.86369L12.1999 9.69996L12.0372 9.63548ZM11.2935 9.33525L11.1309 9.27077L11.0668 9.43243L11.228 9.49753L11.2935 9.33525ZM11.8746 7.86926L12.0373 7.93375L12.1322 7.69426H11.8746V7.86926ZM10.8779 7.65187L10.9652 7.50025L10.8736 7.44743L10.7842 7.50403L10.8779 7.65187ZM17.9947 7.1608C18.1505 6.89607 18.2476 6.58772 18.2476 6.25296H17.8976C17.8976 6.51865 17.8208 6.76631 17.6931 6.98325L17.9947 7.1608ZM23.4535 17.8903C23.4535 13.6518 21.1181 9.04622 17.941 6.92645L17.7468 7.21759C20.8161 9.26547 23.1035 13.7556 23.1035 17.8903H23.4535ZM14.068 26.2277C16.9396 26.2277 19.2875 25.4371 20.9198 23.9905C22.5546 22.5418 23.4535 20.451 23.4535 17.8903H23.1035C23.1035 20.3645 22.2379 22.3548 20.6877 23.7286C19.1351 25.1045 16.8776 25.8777 14.068 25.8777V26.2277ZM4.68242 17.8903C4.68242 20.451 5.58136 22.5418 7.21614 23.9905C8.84846 25.4371 11.1963 26.2277 14.068 26.2277V25.8777C11.2583 25.8777 9.00091 25.1045 7.44828 23.7286C5.8981 22.3548 5.03242 20.3645 5.03242 17.8903H4.68242ZM10.1949 6.92684C7.01786 9.04621 4.68242 13.6522 4.68242 17.8903H5.03242C5.03242 13.756 7.31988 9.26547 10.3892 7.21801L10.1949 6.92684ZM9.88839 6.25296C9.88839 6.58774 9.98542 6.89604 10.1412 7.16109L10.4429 6.98376C10.3152 6.76634 10.2384 6.51864 10.2384 6.25296H9.88839ZM10.8761 4.65573C10.2939 4.94898 9.88839 5.55068 9.88839 6.25296H10.2384C10.2384 5.68967 10.5633 5.20521 11.0335 4.96831L10.8761 4.65573ZM9.42468 3.23402L10.8199 4.92346L11.0897 4.70059L9.69455 3.01115L9.42468 3.23402ZM9.08747 2.29423C9.08747 2.63702 9.20728 2.9706 9.42464 3.23397L9.69458 3.01119C9.52911 2.81068 9.43747 2.55592 9.43747 2.29423H9.08747ZM10.5447 0.824969C9.73977 0.824969 9.08747 1.4855 9.08747 2.29423H9.43747C9.43747 1.67575 9.9361 1.17497 10.5447 1.17497V0.824969ZM10.8359 0.824969H10.5447V1.17497H10.8359V0.824969ZM12.5856 1.51535C12.1079 1.06937 11.4898 0.824969 10.8359 0.824969V1.17497C11.4009 1.17497 11.9337 1.38556 12.3467 1.77117L12.5856 1.51535ZM14.068 0.824969C13.4384 0.824969 12.8243 1.06982 12.3468 1.5153L12.5855 1.77122C13.0002 1.3843 13.5298 1.17497 14.068 1.17497V0.824969ZM15.7909 1.51614C15.3289 1.07604 14.7055 0.824969 14.068 0.824969V1.17497C14.615 1.17497 15.1521 1.39101 15.5495 1.76956L15.7909 1.51614ZM17.3001 0.824969C16.6466 0.824969 16.0289 1.06895 15.5508 1.51489L15.7896 1.77082C16.203 1.38517 16.7354 1.17497 17.3001 1.17497V0.824969ZM17.3405 0.824969H17.3001V1.17497H17.3405V0.824969ZM19.0485 2.54718C19.0485 1.5986 18.2836 0.824969 17.3405 0.824969V1.17497C18.0874 1.17497 18.6985 1.78893 18.6985 2.54718H19.0485ZM18.5489 3.76379C18.871 3.43871 19.0485 3.00605 19.0485 2.54718H18.6985C18.6985 2.91423 18.5572 3.25821 18.3003 3.51742L18.5489 3.76379ZM17.3591 4.9643L18.5489 3.76379L18.3003 3.51742L17.1105 4.71793L17.3591 4.9643ZM18.2476 6.25296C18.2476 5.57506 17.8685 4.99177 17.3195 4.68799L17.1501 4.99424C17.5942 5.24001 17.8976 5.70974 17.8976 6.25296H18.2476ZM10.238 2.29421C10.238 2.12128 10.3772 1.98311 10.5444 1.98311V1.63311C10.1805 1.63311 9.88801 1.93134 9.88801 2.29421H10.238ZM10.3098 2.49355C10.2636 2.4379 10.238 2.3668 10.238 2.29421H9.88801C9.88801 2.4479 9.94175 2.59824 10.0405 2.71715L10.3098 2.49355ZM11.9876 4.52521L10.3101 2.49392L10.0402 2.71679L11.7177 4.74808L11.9876 4.52521ZM12.2747 4.46164H11.8527V4.81164H12.2747V4.46164ZM11.5306 3.23476L12.1121 4.70115L12.4374 4.57213L11.856 3.10574L11.5306 3.23476ZM12.3714 2.70775L11.6278 3.00797L11.7588 3.33252L12.5024 3.0323L12.3714 2.70775ZM13.3 4.57214L12.5996 2.80552L12.2742 2.93452L12.9746 4.70114L13.3 4.57214ZM13.6671 4.46164H13.1373V4.81164H13.6671V4.46164ZM13.4921 2.61626V4.63664H13.8421V2.61626H13.4921ZM14.4681 2.44126H13.6671V2.79126H14.4681V2.44126ZM14.6431 4.63664V2.61626H14.2931V4.63664H14.6431ZM14.9979 4.46164H14.4681V4.81164H14.9979V4.46164ZM15.5352 2.80595L14.8352 4.57216L15.1606 4.70112L15.8606 2.9349L15.5352 2.80595ZM16.507 3.00838L15.7634 2.70815L15.6324 3.0327L16.376 3.33293L16.507 3.00838ZM16.0231 4.70112L16.6042 3.23514L16.2788 3.10617L15.6978 4.57216L16.0231 4.70112ZM16.3046 4.46164H15.8605V4.81164H16.3046V4.46164ZM17.7337 2.94643L16.1803 4.51344L16.4288 4.75984L17.9822 3.19284L17.7337 2.94643ZM17.8972 2.54716C17.8972 2.69858 17.8391 2.84008 17.7336 2.94645L17.9822 3.19282C18.1531 3.02038 18.2472 2.79012 18.2472 2.54716H17.8972ZM17.3401 1.98311C17.6456 1.98311 17.8972 2.23455 17.8972 2.54716H18.2472C18.2472 2.04435 17.842 1.63311 17.3401 1.63311V1.98311ZM17.2997 1.98311H17.3401V1.63311H17.2997V1.98311ZM16.291 2.40455C16.5611 2.1324 16.9189 1.98311 17.2997 1.98311V1.63311C16.8251 1.63311 16.378 1.82001 16.0426 2.15801L16.291 2.40455ZM15.0471 2.40378C15.3807 2.74195 15.9585 2.74155 16.2914 2.40419L16.0422 2.15838C15.8464 2.35682 15.4928 2.35722 15.2962 2.15797L15.0471 2.40378ZM13.1078 2.38431C13.6104 1.87757 14.5048 1.85766 15.0475 2.40419L15.2958 2.15757C14.6163 1.47328 13.4989 1.49297 12.8593 2.13785L13.1078 2.38431ZM11.8434 2.40378C12.1772 2.74206 12.7344 2.76158 13.1079 2.38418L12.8592 2.13797C12.6224 2.3772 12.289 2.35711 12.0926 2.15797L11.8434 2.40378ZM10.8355 1.98311C11.2163 1.98311 11.5741 2.13242 11.8438 2.40415L12.0922 2.15761C11.7572 1.81999 11.3101 1.63311 10.8355 1.63311V1.98311ZM10.5444 1.98311H10.8355V1.63311H10.5444V1.98311ZM16.4706 5.26981H11.6651V5.61981H16.4706V5.26981ZM17.4466 6.25296C17.4466 5.7121 17.0105 5.26981 16.4706 5.26981V5.61981C16.8142 5.61981 17.0966 5.90243 17.0966 6.25296H17.4466ZM16.4706 7.23611C17.0105 7.23611 17.4466 6.79382 17.4466 6.25296H17.0966C17.0966 6.60349 16.8142 6.88611 16.4706 6.88611V7.23611ZM11.6651 7.23611H16.4706V6.88611H11.6651V7.23611ZM10.6892 6.25296C10.6892 6.79382 11.1253 7.23611 11.6651 7.23611V6.88611C11.3216 6.88611 11.0392 6.60349 11.0392 6.25296H10.6892ZM11.6651 5.26981C11.1253 5.26981 10.6892 5.7121 10.6892 6.25296H11.0392C11.0392 5.90243 11.3216 5.61981 11.6651 5.61981V5.26981ZM14.0679 25.0695C11.4639 25.0695 9.40709 24.3898 8.00368 23.1625C6.60335 21.938 5.83328 20.1507 5.83328 17.8904H5.48328C5.48328 20.2349 6.28521 22.1247 7.77328 23.426C9.25829 24.7246 11.4063 25.4195 14.0679 25.4195V25.0695ZM22.3026 17.8904C22.3026 20.1507 21.5325 21.938 20.1322 23.1625C18.7287 24.3898 16.6719 25.0695 14.0679 25.0695V25.4195C16.7296 25.4195 18.8775 24.7246 20.3626 23.426C21.8506 22.1247 22.6526 20.2349 22.6526 17.8904H22.3026ZM17.1639 7.79972C20.096 9.65647 22.3026 13.9395 22.3026 17.8904H22.6526C22.6526 13.8364 20.398 9.43346 17.3512 7.50402L17.1639 7.79972ZM16.4707 8.04426C16.7927 8.04426 17.0884 7.95133 17.345 7.80349L17.1702 7.50025C16.9598 7.62153 16.7237 7.69426 16.4707 7.69426V8.04426ZM16.2612 8.04426H16.4707V7.69426H16.2612V8.04426ZM17.0054 9.27115L16.4239 7.80476L16.0986 7.93377L16.68 9.40016L17.0054 9.27115ZM16.1646 9.79816L16.9082 9.49793L16.7772 9.17338L16.0335 9.47361L16.1646 9.79816ZM15.236 7.93376L15.9364 9.70038L16.2617 9.57139L15.5613 7.80477L15.236 7.93376ZM14.4684 8.04426H15.3986V7.69426H14.4684V8.04426ZM14.6434 9.48557V7.86926H14.2934V9.48557H14.6434ZM13.6675 9.66057H14.4684V9.31057H13.6675V9.66057ZM13.4925 7.86926V9.48557H13.8425V7.86926H13.4925ZM12.7372 8.04426H13.6675V7.69426H12.7372V8.04426ZM12.1999 9.69996L12.8999 7.93374L12.5745 7.80479L11.8745 9.571L12.1999 9.69996ZM11.228 9.49753L11.9717 9.79776L12.1027 9.47321L11.3591 9.17298L11.228 9.49753ZM11.7119 7.80478L11.1309 9.27077L11.4562 9.39974L12.0373 7.93375L11.7119 7.80478ZM11.6652 8.04426H11.8746V7.69426H11.6652V8.04426ZM10.7905 7.80349C11.047 7.95136 11.3432 8.04426 11.6652 8.04426V7.69426C11.4121 7.69426 11.1756 7.6215 10.9652 7.50025L10.7905 7.80349ZM5.83328 17.8904C5.83328 13.9399 8.03986 9.65646 10.9715 7.79971L10.7842 7.50403C7.73781 9.43347 5.48328 13.8368 5.48328 17.8904H5.83328Z" fill="black"/>
<path fill-rule="evenodd" clip-rule="evenodd" d="M7.80371 16.8421C7.80371 13.3886 10.6134 10.5789 14.0669 10.5789C17.5204 10.5789 20.3301 13.3886 20.3301 16.8421C20.3301 20.2956 17.5204 23.1053 14.0669 23.1053C10.6134 23.1053 7.80371 20.2956 7.80371 16.8421ZM8.63869 16.8421C8.63869 19.8351 11.0738 22.2702 14.0668 22.2702C17.0597 22.2702 19.4949 19.8351 19.4949 16.8421C19.4949 13.8492 17.0597 11.414 14.0668 11.414C11.0738 11.414 8.63869 13.8492 8.63869 16.8421Z" fill="black"/>
<path d="M14.0669 10.4039C10.5167 10.4039 7.62871 13.292 7.62871 16.8421H7.97871C7.97871 13.4853 10.71 10.7539 14.0669 10.7539V10.4039ZM20.5051 16.8421C20.5051 13.292 17.6171 10.4039 14.0669 10.4039V10.7539C17.4238 10.7539 20.1551 13.4853 20.1551 16.8421H20.5051ZM14.0669 23.2803C17.6171 23.2803 20.5051 20.3923 20.5051 16.8421H20.1551C20.1551 20.199 17.4238 22.9303 14.0669 22.9303V23.2803ZM7.62871 16.8421C7.62871 20.3923 10.5167 23.2803 14.0669 23.2803V22.9303C10.71 22.9303 7.97871 20.199 7.97871 16.8421H7.62871ZM14.0668 22.0952C11.1705 22.0952 8.81369 19.7384 8.81369 16.8421H8.46369C8.46369 19.9317 10.9772 22.4452 14.0668 22.4452V22.0952ZM19.3199 16.8421C19.3199 19.7384 16.9631 22.0952 14.0668 22.0952V22.4452C17.1564 22.4452 19.6699 19.9317 19.6699 16.8421H19.3199ZM14.0668 11.589C16.9631 11.589 19.3199 13.9458 19.3199 16.8421H19.6699C19.6699 13.7525 17.1564 11.239 14.0668 11.239V11.589ZM8.81369 16.8421C8.81369 13.9458 11.1705 11.589 14.0668 11.589V11.239C10.9772 11.239 8.46369 13.7525 8.46369 16.8421H8.81369Z" fill="black"/>
<path d="M15.8728 15.5986C15.8482 15.5735 15.8168 15.561 15.7785 15.561H15.077C15.0305 15.3294 14.9429 15.1284 14.8144 14.9581H15.7703C15.8086 14.9581 15.84 14.9456 15.8647 14.9205C15.8892 14.8954 15.9015 14.8633 15.9015 14.8242V14.3971C15.9015 14.358 15.8892 14.3259 15.8647 14.3008C15.84 14.2757 15.8086 14.2631 15.7703 14.2631H12.3569C12.3185 14.2631 12.2871 14.2757 12.2625 14.3008C12.2379 14.3259 12.2256 14.358 12.2256 14.3971V14.9539C12.2256 14.9902 12.2386 15.0216 12.2646 15.0481C12.2905 15.0746 12.3213 15.0878 12.3569 15.0878H12.9517C13.5288 15.0878 13.8953 15.2455 14.0512 15.5609H12.3569C12.3185 15.5609 12.2871 15.5734 12.2625 15.5986C12.2379 15.6237 12.2256 15.6558 12.2256 15.6949V16.1219C12.2256 16.161 12.2379 16.1931 12.2625 16.2182C12.2871 16.2433 12.3186 16.2558 12.3569 16.2558H14.1087C14.0486 16.4848 13.9084 16.6592 13.6882 16.7792C13.468 16.8992 13.1774 16.9593 12.8164 16.9593H12.3569C12.3213 16.9593 12.2905 16.9725 12.2646 16.999C12.2386 17.0255 12.2256 17.057 12.2256 17.0932V17.625C12.2256 17.6613 12.2379 17.692 12.2625 17.7171C12.7876 18.2864 13.4687 19.0832 14.3056 20.1076C14.3303 20.1412 14.3644 20.1579 14.4082 20.1579H15.2082C15.2657 20.1579 15.3054 20.1328 15.3272 20.0825C15.3545 20.0323 15.3492 19.9848 15.3108 19.9401C14.5122 18.9409 13.8844 18.1929 13.4277 17.6961C13.8927 17.6403 14.2701 17.4868 14.56 17.2356C14.8499 16.9844 15.0263 16.6578 15.0893 16.2559H15.7785C15.8168 16.2559 15.8483 16.2434 15.8728 16.2182C15.8975 16.1932 15.9098 16.1611 15.9098 16.122V15.695C15.9098 15.6558 15.8975 15.6238 15.8728 15.5986Z" fill="black"/>
</svg>
