<svg width="20" height="21" viewBox="0 0 20 21" fill="none" xmlns="http://www.w3.org/2000/svg">
<g id="instagram" clip-path="url(#clip0_2074_4860)">
<path id="Vector" d="M10 2.18784C12.6719 2.18784 12.9883 2.19955 14.0391 2.24643C15.0156 2.2894 15.543 2.45346 15.8945 2.59018C16.3594 2.76987 16.6953 2.98862 17.043 3.33627C17.3945 3.68784 17.6094 4.01987 17.7891 4.48471C17.9258 4.83627 18.0898 5.36752 18.1328 6.34018C18.1797 7.39487 18.1914 7.71127 18.1914 10.3792C18.1914 13.0511 18.1797 13.3675 18.1328 14.4183C18.0898 15.3949 17.9258 15.9222 17.7891 16.2738C17.6094 16.7386 17.3906 17.0746 17.043 17.4222C16.6914 17.7738 16.3594 17.9886 15.8945 18.1683C15.543 18.305 15.0117 18.4691 14.0391 18.5121C12.9844 18.5589 12.668 18.5706 10 18.5706C7.32813 18.5706 7.01172 18.5589 5.96094 18.5121C4.98438 18.4691 4.45703 18.305 4.10547 18.1683C3.64063 17.9886 3.30469 17.7699 2.95703 17.4222C2.60547 17.0707 2.39063 16.7386 2.21094 16.2738C2.07422 15.9222 1.91016 15.391 1.86719 14.4183C1.82031 13.3636 1.80859 13.0472 1.80859 10.3792C1.80859 7.70737 1.82031 7.39096 1.86719 6.34018C1.91016 5.36362 2.07422 4.83627 2.21094 4.48471C2.39063 4.01987 2.60938 3.68393 2.95703 3.33627C3.30859 2.98471 3.64063 2.76987 4.10547 2.59018C4.45703 2.45346 4.98828 2.2894 5.96094 2.24643C7.01172 2.19955 7.32813 2.18784 10 2.18784ZM10 0.387054C7.28516 0.387054 6.94531 0.398773 5.87891 0.445648C4.81641 0.492523 4.08594 0.664398 3.45313 0.910492C2.79297 1.1683 2.23438 1.50815 1.67969 2.06674C1.12109 2.62143 0.78125 3.18002 0.523438 3.83627C0.277344 4.47299 0.105469 5.19955 0.0585938 6.26205C0.0117188 7.33237 0 7.67221 0 10.3871C0 13.1019 0.0117188 13.4417 0.0585938 14.5081C0.105469 15.5706 0.277344 16.3011 0.523438 16.9339C0.78125 17.5941 1.12109 18.1527 1.67969 18.7074C2.23438 19.2621 2.79297 19.6058 3.44922 19.8597C4.08594 20.1058 4.8125 20.2777 5.875 20.3246C6.94141 20.3714 7.28125 20.3831 9.99609 20.3831C12.7109 20.3831 13.0508 20.3714 14.1172 20.3246C15.1797 20.2777 15.9102 20.1058 16.543 19.8597C17.1992 19.6058 17.7578 19.2621 18.3125 18.7074C18.8672 18.1527 19.2109 17.5941 19.4648 16.9378C19.7109 16.3011 19.8828 15.5746 19.9297 14.5121C19.9766 13.4456 19.9883 13.1058 19.9883 10.391C19.9883 7.67612 19.9766 7.33627 19.9297 6.26987C19.8828 5.20737 19.7109 4.4769 19.4648 3.84409C19.2188 3.18002 18.8789 2.62143 18.3203 2.06674C17.7656 1.51205 17.207 1.1683 16.5508 0.914398C15.9141 0.668304 15.1875 0.496429 14.125 0.449554C13.0547 0.398773 12.7148 0.387054 10 0.387054Z" fill="#035E5D"/>
<path id="Vector_2" d="M10 5.25034C7.16406 5.25034 4.86328 7.55112 4.86328 10.3871C4.86328 13.223 7.16406 15.5238 10 15.5238C12.8359 15.5238 15.1367 13.223 15.1367 10.3871C15.1367 7.55112 12.8359 5.25034 10 5.25034ZM10 13.7191C8.16016 13.7191 6.66797 12.2269 6.66797 10.3871C6.66797 8.54721 8.16016 7.05502 10 7.05502C11.8398 7.05502 13.332 8.54721 13.332 10.3871C13.332 12.2269 11.8398 13.7191 10 13.7191Z" fill="#035E5D"/>
<path id="Vector_3" d="M16.5391 5.04718C16.5391 5.71124 16 6.2464 15.3398 6.2464C14.6758 6.2464 14.1406 5.70734 14.1406 5.04718C14.1406 4.38312 14.6797 3.84796 15.3398 3.84796C16 3.84796 16.5391 4.38702 16.5391 5.04718Z" fill="#035E5D"/>
</g>
<defs>
<clipPath id="clip0_2074_4860">
<rect width="20" height="20" fill="white" transform="translate(0 0.387054)"/>
</clipPath>
</defs>
</svg>
