<svg width="28" height="29" viewBox="0 0 28 29" fill="none" xmlns="http://www.w3.org/2000/svg">
<ellipse cx="14.447" cy="26.4917" rx="12.9695" ry="2.23612" fill="#1D1939"/>
<path fill-rule="evenodd" clip-rule="evenodd" d="M4.59277 18.8889C4.59277 18.8889 7.04461 11.3285 12.4113 15.7583C17.778 20.1882 19.8414 10.7349 19.8414 10.7349V25.2097C19.8414 25.2097 19.7095 25.8271 19.4752 26.0445C19.241 26.2619 18.473 26.4798 18.473 26.4798C18.473 26.4798 17.5477 26.4215 17.1313 26.0445C16.7148 25.6675 16.5194 24.7115 16.5194 24.7115V23.7366H4.59277V18.8889Z" fill="#00C5B3"/>
<path d="M18.472 26.0445H2.3719C1.38392 26.0445 0.583008 25.2436 0.583008 24.2556V23.3611H16.6831V24.2556C16.6831 25.2436 17.484 26.0445 18.472 26.0445Z" fill="#BFF5FF"/>
<path d="M23.8385 4.57772H20.2607V3.68327C20.2607 2.69529 21.0617 1.89438 22.0496 1.89438C23.0376 1.89438 23.8385 2.69529 23.8385 3.68327V4.57772Z" fill="#8BE6E0"/>
<path d="M13.4443 5.22351C13.8503 4.58056 13.1033 3.83333 12.4603 4.23951C12.2926 3.49788 11.2359 3.49788 11.0685 4.23951C10.4256 3.83356 9.67837 4.58084 10.0845 5.22351C9.34291 5.39124 9.34291 6.44791 10.0845 6.61531C9.67859 7.25826 10.4256 8.00548 11.0685 7.5993C11.2363 8.34093 12.2929 8.34093 12.4603 7.5993C13.1033 8.00526 13.8505 7.25826 13.4443 6.61531C14.186 6.4478 14.186 5.39101 13.4443 5.22351Z" fill="#287CF1"/>
<path d="M23.3915 7.26108C22.6505 7.26108 22.0498 7.81028 22.0498 8.48775V21.5722H24.7331V8.48775C24.7331 7.81028 24.1325 7.26108 23.3915 7.26108Z" fill="#25CDEB"/>
<path d="M22.0498 21.5722L23.3915 24.2556L24.7331 21.5722H22.0498Z" fill="#44F4C7"/>
<path fill-rule="evenodd" clip-rule="evenodd" d="M23.408 4.45847C23.6458 4.45847 23.8386 4.26491 23.8386 4.02615V3.16152C23.8373 1.96827 22.874 1.00128 21.6853 0.999939H6.18159C4.99291 1.00128 4.02962 1.96827 4.02829 3.16152V23.4804H1.01367C0.775821 23.4804 0.583008 23.6739 0.583008 23.9127V24.7773C0.584343 25.9706 1.54763 26.9376 2.73631 26.9389H18.2401C19.4287 26.9376 20.392 25.9706 20.3934 24.7773V4.45847H23.408ZM4.88961 3.16152V23.4804H16.5174C16.7553 23.4804 16.9481 23.6739 16.9481 23.9127V24.7773C16.9481 25.4936 17.5265 26.0743 18.2401 26.0743C18.9536 26.0743 19.532 25.4936 19.532 24.7773V3.16152C19.5315 2.69357 19.6831 2.23822 19.9637 1.86457H6.18159C5.46839 1.86541 4.89044 2.44558 4.88961 3.16152ZM2.73612 26.0743C2.02292 26.0735 1.44495 25.4933 1.44414 24.7773V24.345H16.0866V24.7773C16.0861 25.2453 16.2376 25.7006 16.5183 26.0743H2.73612ZM22.9773 3.16152C22.9765 2.44558 22.3986 1.8654 21.6854 1.86457C20.9722 1.8654 20.3942 2.44558 20.3934 3.16152V3.59383H22.9773V3.16152Z" fill="black"/>
<path d="M23.8386 3.16152H24.072V3.16126L23.8386 3.16152ZM21.6853 0.999939L21.6856 0.766605H21.6853V0.999939ZM6.18159 0.999939V0.766605L6.18132 0.766605L6.18159 0.999939ZM4.02829 3.16152L3.79495 3.16126V3.16152H4.02829ZM4.02829 23.4804V23.7137H4.26162V23.4804H4.02829ZM0.583008 24.7773H0.349674L0.349674 24.7776L0.583008 24.7773ZM2.73631 26.9389L2.73604 27.1722H2.73631V26.9389ZM18.2401 26.9389V27.1722H18.2403L18.2401 26.9389ZM20.3934 24.7773L20.6267 24.7776V24.7773H20.3934ZM20.3934 4.45847V4.22513H20.16V4.45847H20.3934ZM4.88961 23.4804H4.65627V23.7137H4.88961V23.4804ZM4.88961 3.16152L4.65627 3.16125V3.16152H4.88961ZM19.532 3.16152H19.7654V3.16126L19.532 3.16152ZM19.9637 1.86457L20.1503 2.0047L20.4308 1.63124H19.9637V1.86457ZM6.18159 1.86457V1.63124L6.18131 1.63124L6.18159 1.86457ZM1.44414 24.7773H1.21081L1.21081 24.7776L1.44414 24.7773ZM2.73612 26.0743L2.73586 26.3076H2.73612V26.0743ZM1.44414 24.345V24.1117H1.21081V24.345H1.44414ZM16.0866 24.345H16.3199V24.1117H16.0866V24.345ZM16.0866 24.7773L16.3199 24.7776V24.7773H16.0866ZM16.5183 26.0743V26.3076H16.9853L16.7048 25.9342L16.5183 26.0743ZM21.6854 1.86457L21.6856 1.63123L21.6851 1.63123L21.6854 1.86457ZM22.9773 3.16152H23.2107V3.16124L22.9773 3.16152ZM20.3934 3.16152L20.1601 3.16125V3.16152H20.3934ZM20.3934 3.59383H20.1601V3.82717H20.3934V3.59383ZM22.9773 3.59383V3.82717H23.2107V3.59383H22.9773ZM23.6053 4.02615C23.6053 4.13689 23.5161 4.22513 23.408 4.22513V4.6918C23.7755 4.6918 24.072 4.39294 24.072 4.02615H23.6053ZM23.6053 3.16152V4.02615H24.072V3.16152H23.6053ZM21.6851 1.23327C22.7443 1.23447 23.6041 2.09635 23.6053 3.16178L24.072 3.16126C24.0705 1.84019 23.0038 0.768091 21.6856 0.766605L21.6851 1.23327ZM6.18159 1.23327H21.6853V0.766605H6.18159V1.23327ZM4.26162 3.16178C4.26281 2.09635 5.12267 1.23447 6.18185 1.23327L6.18132 0.766605C4.86314 0.768091 3.79643 1.84019 3.79495 3.16126L4.26162 3.16178ZM4.26162 23.4804V3.16152H3.79495V23.4804H4.26162ZM1.01367 23.7137H4.02829V23.2471H1.01367V23.7137ZM0.816342 23.9127C0.816342 23.802 0.905531 23.7137 1.01367 23.7137V23.2471C0.646111 23.2471 0.349674 23.5459 0.349674 23.9127H0.816342ZM0.816342 24.7773V23.9127H0.349674V24.7773H0.816342ZM2.73657 26.7056C1.67739 26.7044 0.817534 25.8425 0.816342 24.7771L0.349674 24.7776C0.351152 26.0987 1.41786 27.1708 2.73604 27.1722L2.73657 26.7056ZM18.2401 26.7056H2.73631V27.1722H18.2401V26.7056ZM20.16 24.7771C20.1588 25.8425 19.299 26.7044 18.2398 26.7056L18.2403 27.1722C19.5585 27.1708 20.6252 26.0987 20.6267 24.7776L20.16 24.7771ZM20.16 4.45847V24.7773H20.6267V4.45847H20.16ZM23.408 4.22513H20.3934V4.6918H23.408V4.22513ZM5.12294 23.4804V3.16152H4.65627V23.4804H5.12294ZM16.5174 23.2471H4.88961V23.7137H16.5174V23.2471ZM17.1814 23.9127C17.1814 23.5459 16.885 23.2471 16.5174 23.2471V23.7137C16.6256 23.7137 16.7148 23.802 16.7148 23.9127H17.1814ZM17.1814 24.7773V23.9127H16.7148V24.7773H17.1814ZM18.2401 25.8409C17.6562 25.8409 17.1814 25.3656 17.1814 24.7773H16.7148C16.7148 25.6216 17.3968 26.3076 18.2401 26.3076V25.8409ZM19.2987 24.7773C19.2987 25.3656 18.8239 25.8409 18.2401 25.8409V26.3076C19.0833 26.3076 19.7654 25.6216 19.7654 24.7773H19.2987ZM19.2987 3.16152V24.7773H19.7654V3.16152H19.2987ZM19.7772 1.72444C19.4661 2.13863 19.2981 2.64327 19.2987 3.16178L19.7654 3.16126C19.7649 2.74387 19.9001 2.33781 20.1503 2.0047L19.7772 1.72444ZM6.18159 2.09791H19.9637V1.63124H6.18159V2.09791ZM5.12294 3.16179C5.12362 2.57366 5.59816 2.09859 6.18186 2.09791L6.18131 1.63124C5.33862 1.63222 4.65725 2.3175 4.65627 3.16125L5.12294 3.16179ZM1.21081 24.7776C1.21175 25.6214 1.89315 26.3067 2.73586 26.3076L2.73639 25.8409C2.15268 25.8403 1.67814 25.3652 1.67748 24.7771L1.21081 24.7776ZM1.21081 24.345V24.7773H1.67748V24.345H1.21081ZM16.0866 24.1117H1.44414V24.5784H16.0866V24.1117ZM16.3199 24.7773V24.345H15.8532V24.7773H16.3199ZM16.7048 25.9342C16.4546 25.601 16.3195 25.195 16.3199 24.7776L15.8532 24.7771C15.8527 25.2956 16.0206 25.8002 16.3317 26.2144L16.7048 25.9342ZM2.73612 26.3076H16.5183V25.8409H2.73612V26.3076ZM21.6851 2.0979C22.2688 2.09858 22.7433 2.57366 22.744 3.16179L23.2107 3.16124C23.2097 2.31749 22.5283 1.63222 21.6856 1.63123L21.6851 2.0979ZM20.6267 3.16179C20.6274 2.57366 21.1019 2.09858 21.6856 2.0979L21.6851 1.63123C20.8424 1.63222 20.161 2.31749 20.1601 3.16125L20.6267 3.16179ZM20.6267 3.59383V3.16152H20.1601V3.59383H20.6267ZM22.9773 3.3605H20.3934V3.82717H22.9773V3.3605ZM22.744 3.16152V3.59383H23.2107V3.16152H22.744Z" fill="black"/>
<path fill-rule="evenodd" clip-rule="evenodd" d="M9.90472 6.68975C9.6641 6.50727 9.52444 6.22137 9.5284 5.91941C9.52444 5.61745 9.6641 5.33154 9.90472 5.14906C9.86766 4.85029 9.97047 4.55112 10.1833 4.33824C10.3962 4.12536 10.6954 4.02255 10.9942 4.05961C11.1792 3.82214 11.4634 3.68329 11.7645 3.68329C12.0655 3.68329 12.3498 3.82214 12.5348 4.05961C12.8336 4.02255 13.1327 4.12536 13.3456 4.33824C13.5585 4.55112 13.6613 4.85029 13.6242 5.14906C13.8617 5.33412 14.0006 5.61835 14.0006 5.91941C14.0006 6.22047 13.8617 6.5047 13.6242 6.68975C13.6613 6.98852 13.5585 7.28769 13.3456 7.50057C13.1327 7.71346 12.8336 7.81626 12.5348 7.77921C12.3498 8.01668 12.0655 8.15553 11.7645 8.15553C11.4634 8.15553 11.1792 8.01668 10.9942 7.77921C10.6954 7.81624 10.3962 7.71343 10.1834 7.50055C9.97049 7.28767 9.86768 6.98852 9.90472 6.68975ZM10.7085 5.48214C10.6622 5.59399 10.5644 5.67638 10.4464 5.70307C10.3453 5.72591 10.2734 5.81575 10.2734 5.91942C10.2734 6.02308 10.3453 6.11292 10.4464 6.13576C10.5644 6.16246 10.6622 6.24484 10.7085 6.3567C10.7548 6.46855 10.7439 6.59593 10.6793 6.69829C10.6239 6.78595 10.6367 6.90028 10.71 6.97359C10.7833 7.0469 10.8977 7.05962 10.9853 7.00422C11.0877 6.93959 11.215 6.9287 11.3269 6.97502C11.4387 7.02133 11.5211 7.11908 11.5478 7.23715C11.5706 7.33826 11.6605 7.41007 11.7641 7.41007C11.8678 7.41007 11.9576 7.33826 11.9805 7.23715C12.0072 7.11908 12.0895 7.02133 12.2014 6.97502C12.3132 6.9287 12.4406 6.93959 12.5429 7.00422C12.6306 7.05962 12.7449 7.0469 12.8182 6.97359C12.8916 6.90028 12.9043 6.78595 12.8489 6.69829C12.7843 6.59593 12.7734 6.46855 12.8197 6.3567C12.866 6.24484 12.9638 6.16246 13.0819 6.13576C13.183 6.11292 13.2548 6.02308 13.2548 5.91942C13.2548 5.81575 13.183 5.72591 13.0819 5.70307C12.9638 5.67638 12.866 5.59399 12.8197 5.48214C12.7734 5.37029 12.7843 5.24291 12.8489 5.14055C12.9043 5.05289 12.8915 4.9386 12.8182 4.86531C12.7449 4.79202 12.6306 4.77927 12.543 4.83462C12.4406 4.89927 12.3132 4.91017 12.2014 4.86385C12.0895 4.81753 12.0072 4.71977 11.9805 4.60169C11.9576 4.50057 11.8678 4.42876 11.7641 4.42876C11.6605 4.42876 11.5706 4.50057 11.5478 4.60169C11.5211 4.71977 11.4387 4.81753 11.3268 4.86385C11.215 4.91017 11.0876 4.89927 10.9853 4.83462C10.8976 4.77927 10.7833 4.79202 10.71 4.86531C10.6367 4.9386 10.624 5.05289 10.6793 5.14055C10.7439 5.24291 10.7548 5.37029 10.7085 5.48214Z" fill="black"/>
<path d="M9.52832 10.8388H14.0006V11.7333H9.52832V10.8388Z" fill="black"/>
<path d="M11.3164 9.04996H15.7886V9.9444H11.3164V9.04996Z" fill="black"/>
<path d="M8.63379 9.04996H10.4227V9.9444H8.63379V9.04996Z" fill="black"/>
<path d="M7.73926 13.5222H18.4726V14.4167H7.73926V13.5222Z" fill="black"/>
<path d="M5.9502 13.5222H6.84464V14.4167H5.9502V13.5222Z" fill="black"/>
<path d="M7.73926 16.2055H18.4726V17.1H7.73926V16.2055Z" fill="black"/>
<path d="M5.9502 16.2055H6.84464V17.1H5.9502V16.2055Z" fill="black"/>
<path d="M7.73926 18.8889H10.4226V19.7834H7.73926V18.8889Z" fill="black"/>
<path d="M11.3164 18.8889H18.472V19.7833H11.3164V18.8889Z" fill="black"/>
<path d="M7.73926 20.6778H14.8948V21.5722H7.73926V20.6778Z" fill="black"/>
<path d="M5.9502 20.6778H6.84464V21.5722H5.9502V20.6778Z" fill="black"/>
<path d="M15.7891 20.6778H18.4724V21.5722H15.7891V20.6778Z" fill="black"/>
<path fill-rule="evenodd" clip-rule="evenodd" d="M25.0323 8.11395H25.405C26.0221 8.11479 26.5223 8.70102 26.523 9.42443V14.2295H25.7776V9.42443C25.7774 9.18329 25.6107 8.98787 25.405 8.9876H25.0323V22.0924C25.0322 22.1602 25.0187 22.2271 24.9926 22.2876H24.9929L23.8748 24.9086C23.8117 25.0566 23.6827 25.15 23.5415 25.15C23.4004 25.15 23.2713 25.0566 23.2082 24.9086L22.0901 22.2876H22.0904C22.0644 22.2271 22.0508 22.1602 22.0508 22.0924V8.11395C22.0508 7.14894 22.7182 6.36664 23.5415 6.36664C24.3648 6.36664 25.0323 7.14894 25.0323 8.11395ZM24.2866 8.11394C24.2862 7.63167 23.9527 7.24086 23.5413 7.24029C23.1298 7.24086 22.7964 7.63167 22.7959 8.11394H24.2866ZM22.7959 21.6556V15.1032H24.2866V21.6556H22.7959ZM22.7959 13.3559V14.2295H24.2866V13.3559H22.7959ZM23.5411 23.7366L23.026 22.5293H24.0562L23.5411 23.7366ZM22.7959 8.98759V12.4822H24.2866V8.98759H22.7959Z" fill="black"/>
<path d="M25.405 8.11395L25.405 8.05562H25.405V8.11395ZM25.0323 8.11395H24.9739V8.17228H25.0323V8.11395ZM26.523 9.42443H26.5814V9.42437L26.523 9.42443ZM26.523 14.2295V14.2879H26.5814V14.2295H26.523ZM25.7776 14.2295H25.7193V14.2879H25.7776V14.2295ZM25.7776 9.42443H25.836L25.836 9.42438L25.7776 9.42443ZM25.405 8.9876L25.405 8.92927H25.405V8.9876ZM25.0323 8.9876V8.92927H24.9739V8.9876H25.0323ZM25.0323 22.0924L25.0906 22.0925V22.0924H25.0323ZM24.9926 22.2876L24.939 22.2646L24.904 22.346H24.9926V22.2876ZM24.9929 22.2876L25.0466 22.3105L25.0812 22.2293H24.9929V22.2876ZM23.8748 24.9086L23.9285 24.9315L23.9285 24.9315L23.8748 24.9086ZM23.2082 24.9086L23.1546 24.9315L23.1546 24.9315L23.2082 24.9086ZM22.0901 22.2876V22.2293H22.0018L22.0365 22.3105L22.0901 22.2876ZM22.0904 22.2876V22.346H22.179L22.144 22.2646L22.0904 22.2876ZM22.0508 22.0924H21.9924L21.9924 22.0925L22.0508 22.0924ZM23.5413 7.24029L23.5414 7.18196L23.5412 7.18196L23.5413 7.24029ZM24.2866 8.11394V8.17228H24.345L24.345 8.11389L24.2866 8.11394ZM22.7959 8.11394L22.7376 8.11389L22.7375 8.17228H22.7959V8.11394ZM22.7959 15.1032V15.0449H22.7376V15.1032H22.7959ZM22.7959 21.6556H22.7376V21.714H22.7959V21.6556ZM24.2866 15.1032H24.345V15.0449H24.2866V15.1032ZM24.2866 21.6556V21.714H24.345V21.6556H24.2866ZM22.7959 14.2295H22.7376V14.2879H22.7959V14.2295ZM22.7959 13.3559V13.2975H22.7376V13.3559H22.7959ZM24.2866 14.2295V14.2879H24.345V14.2295H24.2866ZM24.2866 13.3559H24.345V13.2975H24.2866V13.3559ZM23.026 22.5293V22.4709H22.9377L22.9724 22.5522L23.026 22.5293ZM23.5411 23.7366L23.4874 23.7595L23.5411 23.8853L23.5948 23.7595L23.5411 23.7366ZM24.0562 22.5293L24.1098 22.5522L24.1445 22.4709H24.0562V22.5293ZM22.7959 12.4822H22.7376V12.5405H22.7959V12.4822ZM22.7959 8.98759V8.92926H22.7376V8.98759H22.7959ZM24.2866 12.4822V12.5405H24.345V12.4822H24.2866ZM24.2866 8.98759H24.345V8.92926H24.2866V8.98759ZM25.405 8.05562H25.0323V8.17228H25.405V8.05562ZM26.5814 9.42437C26.5806 8.6778 26.0627 8.05651 25.405 8.05562L25.4049 8.17228C25.9816 8.17307 26.464 8.72424 26.4647 9.42449L26.5814 9.42437ZM26.5814 14.2295V9.42443H26.4647V14.2295H26.5814ZM25.7776 14.2879H26.523V14.1712H25.7776V14.2879ZM25.7193 9.42443V14.2295H25.836V9.42443H25.7193ZM25.4049 9.04594C25.5701 9.04616 25.7191 9.20651 25.7193 9.42449L25.836 9.42438C25.8357 9.16007 25.6513 8.92959 25.405 8.92927L25.4049 9.04594ZM25.0323 9.04594H25.405V8.92927H25.0323V9.04594ZM25.0906 22.0924V8.9876H24.9739V22.0924H25.0906ZM25.0462 22.3107C25.0755 22.2427 25.0906 22.1679 25.0906 22.0925L24.9739 22.0924C24.9739 22.1525 24.9619 22.2115 24.939 22.2646L25.0462 22.3107ZM24.9929 22.2293H24.9926V22.346H24.9929V22.2293ZM23.9285 24.9315L25.0466 22.3105L24.9393 22.2648L23.8212 24.8857L23.9285 24.9315ZM23.5415 25.2084C23.7099 25.2084 23.8578 25.0971 23.9285 24.9315L23.8212 24.8857C23.7656 25.016 23.6554 25.0917 23.5415 25.0917V25.2084ZM23.1546 24.9315C23.2252 25.0971 23.3731 25.2084 23.5415 25.2084V25.0917C23.4276 25.0917 23.3175 25.016 23.2619 24.8857L23.1546 24.9315ZM22.0365 22.3105L23.1546 24.9315L23.2619 24.8857L22.1438 22.2648L22.0365 22.3105ZM22.0904 22.2293H22.0901V22.346H22.0904V22.2293ZM21.9924 22.0925C21.9925 22.1679 22.0076 22.2427 22.0368 22.3107L22.144 22.2646C22.1212 22.2115 22.1091 22.1525 22.1091 22.0924L21.9924 22.0925ZM21.9924 8.11395V22.0924H22.1091V8.11395H21.9924ZM23.5415 6.3083C22.6776 6.3083 21.9924 7.12575 21.9924 8.11395H22.1091C22.1091 7.17212 22.7588 6.42497 23.5415 6.42497V6.3083ZM25.0906 8.11395C25.0906 7.12575 24.4054 6.3083 23.5415 6.3083V6.42497C24.3243 6.42497 24.9739 7.17212 24.9739 8.11395H25.0906ZM23.5412 7.29862C23.9122 7.29914 24.2278 7.6549 24.2283 8.114L24.345 8.11389C24.3445 7.60845 23.9933 7.18258 23.5414 7.18196L23.5412 7.29862ZM22.8542 8.114C22.8547 7.6549 23.1704 7.29914 23.5414 7.29862L23.5412 7.18196C23.0893 7.18258 22.7381 7.60845 22.7376 8.11389L22.8542 8.114ZM24.2866 8.05561H22.7959V8.17228H24.2866V8.05561ZM22.7376 15.1032V21.6556H22.8542V15.1032H22.7376ZM24.2866 15.0449H22.7959V15.1615H24.2866V15.0449ZM24.345 21.6556V15.1032H24.2283V21.6556H24.345ZM22.7959 21.714H24.2866V21.5973H22.7959V21.714ZM22.8542 14.2295V13.3559H22.7376V14.2295H22.8542ZM24.2866 14.1712H22.7959V14.2879H24.2866V14.1712ZM24.2283 13.3559V14.2295H24.345V13.3559H24.2283ZM22.7959 13.4142H24.2866V13.2975H22.7959V13.4142ZM22.9724 22.5522L23.4874 23.7595L23.5948 23.7137L23.0797 22.5064L22.9724 22.5522ZM24.0562 22.4709H23.026V22.5876H24.0562V22.4709ZM23.5948 23.7595L24.1098 22.5522L24.0025 22.5064L23.4874 23.7137L23.5948 23.7595ZM22.8542 12.4822V8.98759H22.7376V12.4822H22.8542ZM24.2866 12.4239H22.7959V12.5405H24.2866V12.4239ZM24.2283 8.98759V12.4822H24.345V8.98759H24.2283ZM22.7959 9.04592H24.2866V8.92926H22.7959V9.04592Z" fill="black"/>
</svg>
