<svg width="24" height="24" viewBox="0 0 24 24" fill="none" xmlns="http://www.w3.org/2000/svg">
<g id="Lucide Icon">
<path id="Vector" d="M20 8H4C3.44772 8 3 8.44772 3 9V11C3 11.5523 3.44772 12 4 12H20C20.5523 12 21 11.5523 21 11V9C21 8.44772 20.5523 8 20 8Z" stroke="#697077" stroke-width="2" stroke-linecap="round" stroke-linejoin="round"/>
<path id="Vector_2" d="M12 8V21" stroke="#697077" stroke-width="2" stroke-linejoin="round"/>
<path id="Vector_3" d="M19 12V19C19 19.5304 18.7893 20.0391 18.4142 20.4142C18.0391 20.7893 17.5304 21 17 21H7C6.46957 21 5.96086 20.7893 5.58579 20.4142C5.21071 20.0391 5 19.5304 5 19V12" stroke="#697077" stroke-width="2" stroke-linecap="round" stroke-linejoin="round"/>
<path id="Vector_4" d="M7.5 8C6.83696 8 6.20107 7.73661 5.73223 7.26777C5.26339 6.79892 5 6.16304 5 5.5C5 4.83696 5.26339 4.20107 5.73223 3.73223C6.20107 3.26339 6.83696 3 7.5 3C8.46469 2.98319 9.41003 3.45126 10.2127 4.34316C11.0154 5.23506 11.6383 6.5094 12 8C12.3617 6.5094 12.9846 5.23506 13.7873 4.34316C14.59 3.45126 15.5353 2.98319 16.5 3C17.163 3 17.7989 3.26339 18.2678 3.73223C18.7366 4.20107 19 4.83696 19 5.5C19 6.16304 18.7366 6.79892 18.2678 7.26777C17.7989 7.73661 17.163 8 16.5 8" stroke="#697077" stroke-width="2" stroke-linecap="round" stroke-linejoin="round"/>
</g>
</svg>
