<svg width="20" height="21" viewBox="0 0 20 21" fill="none" xmlns="http://www.w3.org/2000/svg">
<g id="linkedin" clip-path="url(#clip0_2074_4849)">
<path id="Vector" d="M18.5195 0.387054H1.47656C0.660156 0.387054 0 1.03159 0 1.82846V18.9417C0 19.7386 0.660156 20.3871 1.47656 20.3871H18.5195C19.3359 20.3871 20 19.7386 20 18.9456V1.82846C20 1.03159 19.3359 0.387054 18.5195 0.387054ZM5.93359 17.43H2.96484V7.88315H5.93359V17.43ZM4.44922 6.58237C3.49609 6.58237 2.72656 5.81284 2.72656 4.86362C2.72656 3.9144 3.49609 3.14487 4.44922 3.14487C5.39844 3.14487 6.16797 3.9144 6.16797 4.86362C6.16797 5.80893 5.39844 6.58237 4.44922 6.58237ZM17.043 17.43H14.0781V12.7894C14.0781 11.6839 14.0586 10.2581 12.5352 10.2581C10.9922 10.2581 10.7578 11.4652 10.7578 12.7113V17.43H7.79688V7.88315H10.6406V9.18784H10.6797C11.0742 8.43784 12.043 7.64487 13.4844 7.64487C16.4883 7.64487 17.043 9.62143 17.043 12.1917V17.43Z" fill="#035E5D"/>
</g>
<defs>
<clipPath id="clip0_2074_4849">
<rect width="20" height="20" fill="white" transform="translate(0 0.387054)"/>
</clipPath>
</defs>
</svg>
