<svg width="24" height="24" viewBox="0 0 24 24" fill="none" xmlns="http://www.w3.org/2000/svg">
<path d="M12 17C12.5523 17 13 16.5523 13 16C13 15.4477 12.5523 15 12 15C11.4477 15 11 15.4477 11 16C11 16.5523 11.4477 17 12 17Z" stroke="#393939" stroke-width="2" stroke-linecap="round" stroke-linejoin="round"/>
<path d="M19 10H5C3.89543 10 3 10.8954 3 12V20C3 21.1046 3.89543 22 5 22H19C20.1046 22 21 21.1046 21 20V12C21 10.8954 20.1046 10 19 10Z" stroke="#393939" stroke-width="2" stroke-linecap="round" stroke-linejoin="round"/>
<path d="M7 10V7C7 5.67392 7.52678 4.40215 8.46447 3.46447C9.40215 2.52678 10.6739 2 12 2C13.3261 2 14.5979 2.52678 15.5355 3.46447C16.4732 4.40215 17 5.67392 17 7V10" stroke="#393939" stroke-width="2" stroke-linecap="round" stroke-linejoin="round"/>
</svg>
