<svg width="184" height="38" viewBox="0 0 184 38" fill="none" xmlns="http://www.w3.org/2000/svg">
<g clip-path="url(#clip0_1586_7084)">
<g clip-path="url(#clip1_1586_7084)">
<path fill-rule="evenodd" clip-rule="evenodd" d="M6.63326 28.5545C7.17823 29.2202 7.18513 30.2021 6.57678 30.8104C5.96843 31.4188 4.97649 31.4227 4.42088 30.7658C3.94451 30.2026 3.5032 29.6133 3.09866 29.0012C1.54396 26.649 0.532249 23.9612 0.159983 21.1336C-0.377144 17.0537 0.446972 12.9106 2.50451 9.3468C4.56206 5.78303 7.73804 2.99776 11.5399 1.42298C14.1748 0.331554 17.0083 -0.13615 19.8228 0.0341381C20.5556 0.0784768 21.2871 0.166068 22.0135 0.297164C22.8594 0.449828 23.3515 1.31005 23.129 2.14031C22.9066 2.97021 22.0543 3.45472 21.2062 3.31719C20.3882 3.18454 19.5489 3.11559 18.6935 3.11559C16.2994 3.11559 14.0314 3.65568 12.0047 4.62066C11.3837 4.91635 11.1828 5.6846 11.5267 6.28028C11.8708 6.87634 12.6319 7.07624 13.258 6.79034C13.9168 6.48951 14.6019 6.24278 15.3067 6.05393C16.5069 5.73232 17.7416 5.58469 18.9734 5.61105C19.5024 5.62237 20.0308 5.66577 20.5558 5.74126C21.407 5.86365 21.8998 6.72729 21.6772 7.55792C21.4547 8.38818 20.6007 8.86821 19.7459 8.77853C19.4 8.74224 19.0489 8.72364 18.6935 8.72364C15.9404 8.72364 13.4479 9.83956 11.6437 11.6438C11.5552 11.7322 11.4686 11.8221 11.3838 11.9136C9.73295 13.6926 8.7236 16.0752 8.7236 18.6935C8.7236 19.049 8.74221 19.4002 8.7785 19.7461C8.86819 20.6009 8.3882 21.4548 7.55799 21.6773C6.72732 21.8998 5.8637 21.4069 5.74128 20.5557C5.66576 20.0306 5.62227 19.502 5.61096 18.9735C5.5846 17.7417 5.73223 16.507 6.05384 15.3068C6.54053 13.4904 7.41161 11.8051 8.60267 10.3625C9.04086 9.83175 9.0461 9.04615 8.55942 8.55947C8.07275 8.0728 7.27942 8.06977 6.83294 8.59357C4.51479 11.3132 3.11554 14.84 3.11554 18.6935C3.11554 22.4352 4.43468 25.8687 6.63326 28.5545ZM27.2617 3.85316C26.832 4.59745 27.092 5.5431 27.7893 6.04546C30.252 7.81963 32.1757 10.2953 33.2675 13.1798C33.5718 13.9836 34.4176 14.4803 35.2477 14.2579C36.0775 14.0356 36.5761 13.1798 36.2856 12.3714C36.0357 11.6758 35.7456 10.9982 35.4178 10.3418C34.3492 8.20217 32.8795 6.28674 31.0894 4.70086C30.5408 4.21492 29.9618 3.75966 29.355 3.33842C28.6486 2.84793 27.6917 3.10832 27.2617 3.85316ZM35.8293 18.6936C36.6896 18.6936 37.3939 19.3922 37.3223 20.2496C37.2609 20.9839 37.1563 21.7127 37.0094 22.4323C36.6086 24.396 35.8929 26.2905 34.8827 28.0404C33.242 30.8821 30.8821 33.242 28.0404 34.8827C25.1986 36.5234 21.975 37.3871 18.6936 37.3871C16.6731 37.3871 14.6745 37.0596 12.7735 36.4249C12.0763 36.1922 11.3922 35.9181 10.725 35.6036C9.94771 35.2374 9.69509 34.2794 10.1247 33.5353C10.5546 32.7907 11.5044 32.5439 12.288 32.8978C13.8832 33.6183 15.6214 34.078 17.4484 34.2224C18.1345 34.2767 18.6935 33.7135 18.6934 33.0252C18.6934 32.337 18.1342 31.7852 17.4491 31.7197C15.5868 31.5418 13.7792 30.9661 12.1507 30.0259C11.0746 29.4046 10.0972 28.6359 9.24477 27.7463C8.87889 27.3644 8.53604 26.9602 8.2183 26.5358C7.70271 25.8471 7.96506 24.8876 8.7101 24.4574C9.45465 24.0275 10.3982 24.2919 10.9389 24.9603C12.7491 27.1974 15.5077 28.6355 18.6031 28.663L18.6518 28.6633L18.6935 28.6634C21.8256 28.6634 24.6204 27.2191 26.4482 24.9601C26.9888 24.2919 27.9322 24.0275 28.6766 24.4573C29.4217 24.8875 29.6839 25.8471 29.1683 26.5358C28.8504 26.9604 28.5075 27.3649 28.1421 27.7463C27.2897 28.6359 26.3123 29.4046 25.2362 30.0259C24.6043 30.3907 23.9454 30.7007 23.2668 30.9538C22.622 31.1943 22.2253 31.8743 22.4034 32.5391C22.5815 33.2037 23.2673 33.6052 23.9155 33.3747C29.4826 31.3944 33.591 26.3373 34.1947 20.2495C34.2796 19.3934 34.9689 18.6936 35.8293 18.6936ZM28.6634 18.6935C28.6634 17.4309 28.4287 16.2232 28.0005 15.1115C27.6914 14.3089 27.9333 13.3589 28.6781 12.9289C29.4224 12.4992 30.3836 12.7515 30.7221 13.5415C30.9314 14.0303 31.1101 14.5298 31.2577 15.0371C31.6296 16.3151 31.8044 17.6428 31.7759 18.9735C31.7647 19.5015 31.7214 20.0299 31.6457 20.5559C31.5233 21.4071 30.6597 21.8999 29.8291 21.6773C28.9988 21.4548 28.5188 20.6009 28.6085 19.746C28.6448 19.4001 28.6634 19.049 28.6634 18.6935ZM24.3315 8.92814C23.9712 9.55225 24.1928 10.3451 24.7642 10.7844C25.3359 11.2239 26.1566 11.2304 26.6665 10.7204L26.9501 10.4369C27.4914 9.8956 27.4675 9.01096 26.8979 8.49961C26.8292 8.44433 26.76 8.38975 26.6902 8.33587C26.6045 8.26968 26.5179 8.20456 26.4306 8.14051C25.7817 7.71715 24.9105 7.92532 24.5231 8.59628L24.3315 8.92814ZM26.171 18.6935C26.171 22.8232 22.8232 26.1709 18.6936 26.1709C14.5639 26.1709 11.2161 22.8232 11.2161 18.6935C11.2161 14.5639 14.5639 11.2161 18.6936 11.2161C22.8232 11.2161 26.171 14.5639 26.171 18.6935ZM20.9114 16.819C21.0737 16.819 21.1918 16.9732 21.1494 17.1299L21.0423 17.5262C21.0036 17.6695 20.8735 17.7691 20.725 17.7691H20.208C20.1735 18.0028 20.1131 18.2185 20.0266 18.4162C19.8862 18.7415 19.6585 19.0068 19.3435 19.2122C19.0285 19.4176 18.6143 19.5546 18.1007 19.6231L19.2485 20.9917L19.8224 21.676L20.1094 22.0182L20.2528 22.1893C20.3334 22.2856 20.2649 22.4322 20.1392 22.4322H18.9823C18.8857 22.4322 18.794 22.3897 18.7315 22.316L16.4524 19.6254C16.3527 19.5078 16.2976 19.3588 16.2966 19.2047L16.2951 18.9524C16.2939 18.77 16.4414 18.6216 16.6237 18.6216H17.5153C17.8131 18.6216 18.0579 18.5668 18.2496 18.4573C18.4448 18.3443 18.5903 18.1919 18.6862 18.0002C18.7242 17.9267 18.755 17.8497 18.7785 17.7691H16.5807C16.3636 17.7691 16.2062 17.5624 16.2639 17.3531L16.3446 17.0604C16.3839 16.9178 16.5136 16.819 16.6614 16.819H18.7531C18.738 16.7749 18.7208 16.7321 18.7016 16.6906C18.6126 16.4955 18.4705 16.3431 18.2753 16.2336C18.0802 16.124 17.8217 16.0692 17.4998 16.0692H16.5805C16.365 16.0692 16.2079 15.8654 16.2626 15.6571L16.3827 15.2C16.4206 15.0555 16.5512 14.9548 16.7005 14.9548H17.2687H20.807C21.0241 14.9548 21.1816 15.1616 21.1239 15.3708L21.0432 15.6636C21.0039 15.8061 20.8742 15.9049 20.7263 15.9049H19.8562C19.8837 15.9448 19.9096 15.9858 19.9341 16.0282C20.0716 16.2596 20.1631 16.5232 20.2085 16.819H20.9114Z" fill="#035E5D"/>
<path d="M20.9114 16.819C21.0737 16.819 21.1918 16.9732 21.1494 17.1299L21.0423 17.5262C21.0035 17.6696 20.8735 17.7691 20.725 17.7691H20.208C20.1735 18.0028 20.1131 18.2185 20.0266 18.4162C19.8862 18.7415 19.6585 19.0068 19.3435 19.2122C19.0285 19.4176 18.6143 19.5546 18.1007 19.6231L19.2485 20.9917L19.8224 21.676L20.1094 22.0182L20.2528 22.1893V22.1893C20.3334 22.2856 20.2649 22.4322 20.1392 22.4322H18.9823C18.8857 22.4322 18.7939 22.3897 18.7315 22.316L16.4524 19.6254C16.3527 19.5078 16.2976 19.3588 16.2966 19.2047L16.295 18.9524C16.2939 18.77 16.4414 18.6216 16.6237 18.6216H17.5153C17.8131 18.6216 18.0579 18.5668 18.2496 18.4573C18.4448 18.3443 18.5903 18.1919 18.6862 18.0002C18.7242 17.9267 18.755 17.8497 18.7785 17.7691H16.5807C16.3636 17.7691 16.2062 17.5624 16.2639 17.3531L16.3446 17.0604C16.3839 16.9178 16.5135 16.819 16.6614 16.819H18.753C18.738 16.7749 18.7208 16.7321 18.7016 16.6906C18.6126 16.4955 18.4705 16.3431 18.2753 16.2336C18.0802 16.124 17.8217 16.0692 17.4998 16.0692H16.5805C16.365 16.0692 16.2079 15.8654 16.2626 15.6571L16.3826 15.2C16.4206 15.0555 16.5512 14.9548 16.7005 14.9548H17.2687H20.807C21.0241 14.9548 21.1816 15.1616 21.1239 15.3708L21.0432 15.6636C21.0039 15.8061 20.8742 15.9049 20.7263 15.9049H19.8562C19.8836 15.9448 19.9096 15.9858 19.9341 16.0282C20.0716 16.2596 20.1631 16.5232 20.2085 16.819H20.9114Z" fill="#FFF000"/>
</g>
<path d="M53.8986 28.0403C48.3303 28.0403 44.3971 24.2618 44.3971 18.6935V11.0799C44.3971 10.3668 44.9752 9.78873 45.6883 9.78873H47.9009C48.614 9.78873 49.192 10.3668 49.192 11.0799V18.6935C49.192 21.4335 51.247 23.5768 53.9869 23.5768C56.8153 23.5768 58.7818 21.4335 58.7818 18.6935V11.0799C58.7818 10.3668 59.3599 9.78873 60.073 9.78873H62.2856C62.9987 9.78873 63.5768 10.3668 63.5768 11.0799V18.6935C63.5768 24.2618 58.7818 28.0403 53.8986 28.0403Z" fill="#035E5D"/>
<path d="M67.0775 27.5983C66.3644 27.5983 65.7864 27.0203 65.7864 26.3072V18.6935C65.7864 13.1252 70.5813 9.34677 75.4646 9.34677C81.0328 9.34677 84.966 13.1252 84.966 18.6935V26.3072C84.966 27.0203 84.3879 27.5983 83.6749 27.5983H81.4622C80.7492 27.5983 80.1711 27.0203 80.1711 26.3072V18.6935C80.1711 15.8652 78.2045 13.8102 75.3762 13.8102C72.6362 13.8102 70.5813 15.8652 70.5813 18.6935V26.3072C70.5813 27.0203 70.0032 27.5983 69.2901 27.5983H67.0775Z" fill="#035E5D"/>
<path d="M88.4666 27.5983C87.7535 27.5983 87.1755 27.0203 87.1755 26.3072V18.6935C87.1755 13.1252 91.9704 9.34677 96.8537 9.34677C99.9472 9.34677 102.422 10.4516 104.145 12.3519C105.935 10.4737 108.609 9.34677 111.26 9.34677C116.829 9.34677 120.762 13.1252 120.762 18.6935V26.3072C120.762 27.0203 120.184 27.5983 119.471 27.5983H117.258C116.545 27.5983 115.967 27.0203 115.967 26.3072V18.6935C115.967 15.8652 113.912 13.8102 111.172 13.8102C108.344 13.8102 106.377 15.8652 106.377 18.6935V26.3072C106.377 27.0203 105.799 27.5983 105.086 27.5983H102.873C102.16 27.5983 101.582 27.0203 101.582 26.3072V18.6935C101.582 15.8652 99.6157 13.8102 96.7874 13.8102C94.0474 13.8102 91.9925 15.8652 91.9925 18.6935V26.3072C91.9925 27.0203 91.4144 27.5983 90.7013 27.5983H88.4666Z" fill="#035E5D"/>
<path d="M132.142 28.0403C126.75 28.0403 122.972 24.2618 122.972 18.6935C122.972 13.5451 127.435 9.34677 132.561 9.34677C138.13 9.34677 142.151 13.1252 142.151 18.6935V26.3072C142.151 27.0203 141.573 27.5983 140.86 27.5983H138.736C138.023 27.5983 137.445 27.0203 137.445 26.3072V26.0516C136.34 27.2669 134.373 28.0403 132.142 28.0403ZM132.584 23.5768C135.412 23.5768 137.378 21.4335 137.378 18.6935C137.378 15.8652 135.412 13.8102 132.584 13.8102C129.844 13.8102 127.789 15.8652 127.789 18.6935C127.789 21.4335 129.844 23.5768 132.584 23.5768Z" fill="#035E5D"/>
<path d="M145.65 27.5984C144.937 27.5984 144.359 27.0203 144.359 26.3072V24.264C144.359 23.8842 144.526 23.5237 144.816 23.2784L156.004 13.8102H145.893C145.18 13.8102 144.602 13.2322 144.602 12.5191V11.0799C144.602 10.3668 145.18 9.78871 145.893 9.78871H160.878C161.591 9.78871 162.169 10.3668 162.169 11.0799V13.0382C162.169 13.4159 162.003 13.7747 161.716 14.02L150.524 23.5768H161.32C162.033 23.5768 162.611 24.1549 162.611 24.868V26.3072C162.611 27.0203 162.033 27.5984 161.32 27.5984H145.65Z" fill="#035E5D"/>
<path d="M174.41 28.0403C168.842 28.0403 164.82 24.2618 164.82 18.6935C164.82 13.5451 169.284 9.34677 174.41 9.34677C179.978 9.34677 183.669 12.8601 184 18.6935V19.0375C184 19.7506 183.422 20.3286 182.709 20.3286H169.527C170.123 22.472 172.002 23.9304 174.41 23.9304C175.536 23.9304 176.299 23.7078 177.125 23.1179C177.701 22.7069 178.497 22.7035 178.989 23.211L180.125 24.3816C180.619 24.8903 180.615 25.71 180.05 26.1378C178.466 27.3362 176.521 28.0403 174.41 28.0403ZM169.615 16.6386H179.293C178.608 14.5836 176.885 13.2136 174.41 13.2136C172.002 13.2136 170.3 14.672 169.615 16.6386Z" fill="#035E5D"/>
</g>
<defs>
<clipPath id="clip0_1586_7084">
<rect width="184" height="37.3871" fill="white"/>
</clipPath>
<clipPath id="clip1_1586_7084">
<rect width="37.3871" height="37.3871" fill="white"/>
</clipPath>
</defs>
</svg>
