<svg width="20" height="20" viewBox="0 0 20 20" fill="none" xmlns="http://www.w3.org/2000/svg">
<g id="Lucide Icon">
<path id="Vector" d="M1.66669 2.5H6.66669C7.55074 2.5 8.39859 2.85119 9.02371 3.47631C9.64883 4.10143 10 4.94928 10 5.83333V17.5C10 16.837 9.73663 16.2011 9.26779 15.7322C8.79895 15.2634 8.16306 15 7.50002 15H1.66669V2.5Z" stroke="currentColor" stroke-width="1.34" stroke-linecap="round" stroke-linejoin="round"/>
<path id="Vector_2" d="M18.3333 2.5H13.3333C12.4493 2.5 11.6014 2.85119 10.9763 3.47631C10.3512 4.10143 10 4.94928 10 5.83333V17.5C10 16.837 10.2634 16.2011 10.7322 15.7322C11.2011 15.2634 11.837 15 12.5 15H18.3333V2.5Z" stroke="currentColor" stroke-width="1.34" stroke-linecap="round" stroke-linejoin="round"/>
<path id="Vector_3" d="M5 6.66667H6.66667" stroke="currentColor" stroke-width="1.34" stroke-linecap="round" stroke-linejoin="round"/>
<path id="Vector_4" d="M5 10H6.66667" stroke="currentColor" stroke-width="1.34" stroke-linecap="round" stroke-linejoin="round"/>
<path id="Vector_5" d="M13.3333 6.66667H15" stroke="currentColor" stroke-width="1.34" stroke-linecap="round" stroke-linejoin="round"/>
<path id="Vector_6" d="M13.3333 10H15" stroke="currentColor" stroke-width="1.34" stroke-linecap="round" stroke-linejoin="round"/>
</g>
</svg>
