<svg width="28" height="29" viewBox="0 0 28 29" fill="none" xmlns="http://www.w3.org/2000/svg">
<ellipse cx="13.7229" cy="27.1017" rx="11.3899" ry="1.89831" fill="#1D1939"/>
<path d="M2.33301 22.3851C2.33301 19.502 4.67024 17.1356 7.55336 17.1356C10.4365 17.1356 12.7737 19.502 12.7737 22.3851C12.7737 24.7149 10.885 26.6271 8.55525 26.6271H6.55148C4.22168 26.6271 2.33301 24.7149 2.33301 22.3851Z" fill="#EAFCFF"/>
<rect x="11.0645" y="1.37958" width="6.45426" height="1.89831" rx="0.949156" fill="#287CF1"/>
<path d="M10.0693 21.6306H10.9289V22.4903H10.0693V21.6306Z" fill="black"/>
<path fill-rule="evenodd" clip-rule="evenodd" d="M12.0466 18.1177C12.082 16.9868 13.3383 16.7233 14.2917 17.3326C17.0691 19.1073 17.9486 13.7357 19.8652 13.7423C20.9384 13.746 21.2654 15.1674 21.305 16.2398L21.5082 21.7496C21.6088 24.4776 19.3567 26.7091 16.6297 26.5834L11.7881 26.3601L12.0466 18.1177Z" fill="#00C5B3"/>
<path d="M4.05176 21.6306H4.91137V22.4903H4.05176V21.6306Z" fill="black"/>
<path d="M7.0609 20.771H7.92052C8.15789 20.771 8.35032 20.9635 8.35032 21.2009H9.20994C9.20994 20.4887 8.63264 19.9114 7.92052 19.9114V19.4816H7.0609V19.9114C6.34878 19.9114 5.77148 20.4887 5.77148 21.2009C5.77148 21.913 6.34878 22.4903 7.0609 22.4903H7.92052C8.15789 22.4903 8.35032 22.6827 8.35032 22.9201C8.35032 23.1575 8.15789 23.3499 7.92052 23.3499H7.0609C6.82353 23.3499 6.6311 23.1575 6.6311 22.9201H5.77148C5.77148 23.6322 6.34878 24.2095 7.0609 24.2095V24.6393H7.92052V24.2095C8.63264 24.2095 9.20994 23.6322 9.20994 22.9201C9.20994 22.208 8.63264 21.6307 7.92052 21.6307H7.0609C6.82353 21.6307 6.6311 21.4382 6.6311 21.2009C6.6311 20.9635 6.82353 20.771 7.0609 20.771Z" fill="black"/>
<path d="M19.5257 8.30666H20.3854C20.6227 8.30666 20.8152 8.49909 20.8152 8.73647H21.6748C21.6748 8.02434 21.0975 7.44705 20.3854 7.44705V7.01724H19.5257V7.44705C18.8136 7.44705 18.2363 8.02434 18.2363 8.73647C18.2363 9.44859 18.8136 10.0259 19.5257 10.0259H20.3854C20.6227 10.0259 20.8152 10.2183 20.8152 10.4557C20.8152 10.6931 20.6227 10.8855 20.3854 10.8855H19.5257C19.2884 10.8855 19.0959 10.6931 19.0959 10.4557H18.2363C18.2363 11.1678 18.8136 11.7451 19.5257 11.7451V12.1749H20.3854V11.7451C21.0975 11.7451 21.6748 11.1678 21.6748 10.4557C21.6748 9.74357 21.0975 9.16627 20.3854 9.16627H19.5257C19.2884 9.16627 19.0959 8.97384 19.0959 8.73647C19.0959 8.49909 19.2884 8.30666 19.5257 8.30666Z" fill="black"/>
<path fill-rule="evenodd" clip-rule="evenodd" d="M4.91211 14.2138L6.22766 17.3326H9.21017L10.0698 14.2138L9.21017 13.5724H8.34996L7.49095 14.2138H6.79648L6.52631 13.5724H5.4859L4.91211 14.2138Z" fill="#25CDEB"/>
<path fill-rule="evenodd" clip-rule="evenodd" d="M22.1041 4.91333C23.9348 5.75339 25.1096 7.58178 25.1127 9.59607C25.1104 11.6111 23.9356 13.4406 22.1041 14.281V24.6393C22.1027 25.8256 21.1414 26.7869 19.9551 26.7883H5.34165C3.68081 26.7864 2.3349 25.4405 2.33301 23.7797V21.6306C2.33551 19.7905 3.31822 18.0911 4.91185 17.171V16.473H5.41945L4.50912 14.045C4.45962 13.913 4.47804 13.765 4.5584 13.6492C4.63876 13.5333 4.77084 13.4642 4.91185 13.4643C5.06715 13.4531 5.21613 13.3983 5.34165 13.3062C5.59689 13.1365 5.89486 13.0423 6.20127 13.0345C6.35114 13.0349 6.49867 13.0717 6.63107 13.142V3.14897C6.63249 1.96268 7.59381 1.00136 8.7801 0.999939H19.9551C21.1414 1.00136 22.1027 1.96268 22.1041 3.14897V4.91333ZM16.946 1.85956H11.7883V2.28937C11.7883 2.52674 11.9807 2.71917 12.2181 2.71917H16.5162C16.7535 2.71917 16.946 2.52674 16.946 2.28937V1.85956ZM5.48566 14.2006C5.58362 14.1565 5.67904 14.107 5.77148 14.0523C5.897 13.9602 6.04598 13.9053 6.20129 13.8941C6.27189 13.8941 6.40514 14.0448 6.50963 14.163L6.52235 14.1774C6.74223 14.5051 7.09775 14.7168 7.49071 14.7537C7.88366 14.7168 8.23919 14.5051 8.45906 14.1774L8.47178 14.163C8.57627 14.0448 8.70953 13.8941 8.78013 13.8941C8.93543 13.9053 9.08441 13.9602 9.20993 14.0523C9.30181 14.107 9.39666 14.1565 9.49403 14.2006L8.64388 16.473H6.33754L5.48566 14.2006ZM3.19206 23.7797C3.19348 24.966 4.1548 25.9273 5.34109 25.9287H9.63916C10.8254 25.9273 11.7868 24.966 11.7882 23.7797V21.6306C11.786 19.8872 10.732 18.3173 9.11909 17.6554C9.17744 17.8284 9.2079 18.0096 9.20935 18.1922V18.622H8.34974V18.1922C8.34974 17.7174 7.96487 17.3326 7.49012 17.3326C7.01537 17.3326 6.63051 17.7174 6.63051 18.1922V18.622H5.7709V18.1922C5.77234 18.0096 5.80281 17.8284 5.86116 17.6554C4.24824 18.3173 3.19421 19.8872 3.19206 21.6306V23.7797ZM21.2445 24.6393C21.2445 25.3514 20.6672 25.9287 19.9551 25.9287H11.741C12.3213 25.3643 12.6485 24.5892 12.6484 23.7797V21.6306C12.6459 19.7905 11.6631 18.0911 10.0695 17.171V16.473H9.56192L10.4722 14.045C10.5217 13.913 10.5033 13.765 10.423 13.6492C10.3426 13.5333 10.2105 13.4642 10.0695 13.4643C9.91422 13.4531 9.76523 13.3983 9.63971 13.3062C9.38448 13.1365 9.0865 13.0423 8.7801 13.0345C8.38715 13.0715 8.03162 13.2831 7.81175 13.6109L7.79903 13.6253C7.69454 13.7434 7.56128 13.8941 7.49068 13.8941V3.14897C7.49068 2.43684 8.06797 1.85955 8.7801 1.85955H10.9291V2.28936C10.9291 3.00148 11.5064 3.57878 12.2186 3.57878H16.5166C17.2287 3.57878 17.806 3.00148 17.806 2.28936V1.85955H19.9551C20.6672 1.85955 21.2445 2.43684 21.2445 3.14897V4.61031C19.152 4.05608 16.9361 4.86743 15.6962 6.6418C14.4563 8.41617 14.4563 10.776 15.6962 12.5503C16.9361 14.3247 19.152 15.1361 21.2445 14.5818V24.6393ZM15.6574 9.59608C15.6574 11.9698 17.5817 13.8941 19.9555 13.8941C22.3282 13.8915 24.251 11.9688 24.2536 9.59608C24.2536 7.22232 22.3293 5.29801 19.9555 5.29801C17.5817 5.29801 15.6574 7.22232 15.6574 9.59608Z" fill="black"/>
<path d="M25.1127 9.59607L25.2877 9.59627V9.59579L25.1127 9.59607ZM22.1041 4.91333H21.9291V5.02557L22.0311 5.07238L22.1041 4.91333ZM22.1041 14.281L22.0311 14.1219L21.9291 14.1687V14.281H22.1041ZM22.1041 24.6393L22.2791 24.6395V24.6393H22.1041ZM19.9551 26.7883V26.9633H19.9553L19.9551 26.7883ZM5.34165 26.7883L5.34145 26.9633H5.34165V26.7883ZM2.33301 23.7797H2.15801L2.15801 23.7799L2.33301 23.7797ZM2.33301 21.6306L2.15801 21.6304V21.6306H2.33301ZM4.91185 17.171L4.99935 17.3225L5.08685 17.272V17.171H4.91185ZM4.91185 16.473V16.298H4.73685V16.473H4.91185ZM5.41945 16.473V16.648H5.67196L5.58331 16.4115L5.41945 16.473ZM4.50912 14.045L4.34525 14.1064L4.34526 14.1064L4.50912 14.045ZM4.5584 13.6492L4.4146 13.5494L4.4146 13.5494L4.5584 13.6492ZM4.91185 13.4643L4.91174 13.6398L4.92444 13.6389L4.91185 13.4643ZM5.34165 13.3062L5.24466 13.1603L5.2381 13.1651L5.34165 13.3062ZM6.20127 13.0345L6.20167 12.8595L6.19682 12.8596L6.20127 13.0345ZM6.63107 13.142L6.54908 13.2966L6.80607 13.4329V13.142H6.63107ZM6.63107 3.14897L6.45607 3.14876V3.14897H6.63107ZM8.7801 0.999939V0.824938L8.77989 0.824938L8.7801 0.999939ZM19.9551 0.999939L19.9553 0.824938H19.9551V0.999939ZM22.1041 3.14897H22.2791V3.14876L22.1041 3.14897ZM11.7883 1.85956V1.68456H11.6133V1.85956H11.7883ZM16.946 1.85956H17.121V1.68456H16.946V1.85956ZM5.77148 14.0523L5.86061 14.2029L5.86806 14.1985L5.87503 14.1934L5.77148 14.0523ZM5.48566 14.2006L5.41386 14.041L5.26418 14.1083L5.3218 14.262L5.48566 14.2006ZM6.20129 13.8941V13.7187L6.18869 13.7196L6.20129 13.8941ZM6.50963 14.163L6.37853 14.2789L6.37856 14.2789L6.50963 14.163ZM6.52235 14.1774L6.66768 14.0799L6.66117 14.0702L6.65343 14.0614L6.52235 14.1774ZM7.49071 14.7537L7.47431 14.928L7.49071 14.9295L7.5071 14.928L7.49071 14.7537ZM8.45906 14.1774L8.32798 14.0614L8.32024 14.0702L8.31373 14.0799L8.45906 14.1774ZM8.47178 14.163L8.60286 14.2789L8.60288 14.2789L8.47178 14.163ZM8.78013 13.8941L8.79276 13.7191H8.78013V13.8941ZM9.20993 14.0523L9.10638 14.1934L9.1132 14.1984L9.12047 14.2027L9.20993 14.0523ZM9.49403 14.2006L9.65794 14.2619L9.71526 14.1087L9.56627 14.0412L9.49403 14.2006ZM8.64388 16.473V16.648H8.76525L8.80778 16.5343L8.64388 16.473ZM6.33754 16.473L6.17367 16.5344L6.21625 16.648H6.33754V16.473ZM5.34109 25.9287L5.34088 26.1037H5.34109V25.9287ZM3.19206 23.7797H3.01706L3.01706 23.7799L3.19206 23.7797ZM9.63916 25.9287V26.1037H9.63937L9.63916 25.9287ZM11.7882 23.7797L11.9632 23.7799V23.7797H11.7882ZM11.7882 21.6306H11.9632L11.9632 21.6304L11.7882 21.6306ZM9.11909 17.6554L9.18553 17.4935L8.83071 17.3478L8.95326 17.7113L9.11909 17.6554ZM9.20935 18.1922H9.38436L9.38434 18.1908L9.20935 18.1922ZM9.20935 18.622V18.797H9.38435V18.622H9.20935ZM8.34974 18.622H8.17474V18.797H8.34974V18.622ZM6.63051 18.622V18.797H6.80551V18.622H6.63051ZM5.7709 18.622H5.5959V18.797H5.7709V18.622ZM5.7709 18.1922L5.5959 18.1908V18.1922H5.7709ZM5.86116 17.6554L6.02698 17.7113L6.14954 17.3478L5.79471 17.4935L5.86116 17.6554ZM3.19206 21.6306L3.01706 21.6304V21.6306H3.19206ZM11.741 25.9287L11.619 25.8033L11.3101 26.1037H11.741V25.9287ZM12.6484 23.7797H12.4734V23.7797L12.6484 23.7797ZM12.6484 21.6306H12.8234L12.8234 21.6304L12.6484 21.6306ZM10.0695 17.171H9.89452V17.272L9.98202 17.3225L10.0695 17.171ZM10.0695 16.473H10.2445V16.298H10.0695V16.473ZM9.56192 16.473L9.39806 16.4115L9.30941 16.648H9.56192V16.473ZM10.4722 14.045L10.6361 14.1064L10.6361 14.1064L10.4722 14.045ZM10.0695 13.4643L10.0569 13.6393L10.0696 13.6393L10.0695 13.4643ZM9.63971 13.3062L9.74338 13.1649L9.7366 13.1604L9.63971 13.3062ZM8.7801 13.0345L8.78454 12.8596L8.7741 12.8593L8.7637 12.8603L8.7801 13.0345ZM7.81175 13.6109L7.94282 13.7268L7.95057 13.7181L7.95708 13.7084L7.81175 13.6109ZM7.79903 13.6253L7.66795 13.5093L7.66793 13.5093L7.79903 13.6253ZM7.49068 13.8941H7.31568V14.0691H7.49068V13.8941ZM10.9291 1.85955H11.1041V1.68455H10.9291V1.85955ZM17.806 1.85955V1.68455H17.631V1.85955H17.806ZM21.2445 4.61031L21.1997 4.77948L21.4195 4.8377V4.61031H21.2445ZM15.6962 6.6418L15.5527 6.54156H15.5527L15.6962 6.6418ZM15.6962 12.5503L15.5527 12.6506L15.6962 12.5503ZM21.2445 14.5818H21.4195V14.3544L21.1997 14.4127L21.2445 14.5818ZM19.9555 13.8941V14.0691L19.9557 14.0691L19.9555 13.8941ZM24.2536 9.59608L24.4286 9.59627V9.59608H24.2536ZM25.2877 9.59579C25.2845 7.51321 24.0699 5.62282 22.1771 4.75427L22.0311 5.07238C23.7998 5.88396 24.9347 7.65036 24.9377 9.59634L25.2877 9.59579ZM22.1771 14.44C24.0706 13.5711 25.2853 11.6797 25.2877 9.59627L24.9377 9.59586C24.9355 11.5426 23.8005 13.31 22.0311 14.1219L22.1771 14.44ZM22.2791 24.6393V14.281H21.9291V24.6393H22.2791ZM19.9553 26.9633C21.2381 26.9618 22.2776 25.9223 22.2791 24.6395L21.9291 24.6391C21.9278 25.7289 21.0447 26.612 19.9549 26.6133L19.9553 26.9633ZM5.34165 26.9633H19.9551V26.6133H5.34165V26.9633ZM2.15801 23.7799C2.16001 25.5372 3.58412 26.9613 5.34145 26.9633L5.34185 26.6133C3.7775 26.6115 2.50979 25.3438 2.50801 23.7795L2.15801 23.7799ZM2.15801 21.6306V23.7797H2.50801V21.6306H2.15801ZM4.82435 17.0194C3.17665 17.9707 2.16059 19.7278 2.15801 21.6304L2.50801 21.6309C2.51042 19.8532 3.45979 18.2114 4.99935 17.3225L4.82435 17.0194ZM4.73685 16.473V17.171H5.08685V16.473H4.73685ZM5.41945 16.298H4.91185V16.648H5.41945V16.298ZM4.34526 14.1064L5.25559 16.5344L5.58331 16.4115L4.67298 13.9836L4.34526 14.1064ZM4.4146 13.5494C4.30152 13.7125 4.27561 13.9206 4.34525 14.1064L4.67298 13.9836C4.64364 13.9053 4.65456 13.8176 4.7022 13.7489L4.4146 13.5494ZM4.91196 13.2893C4.71354 13.2892 4.52768 13.3864 4.4146 13.5494L4.7022 13.7489C4.74984 13.6802 4.82814 13.6393 4.91174 13.6393L4.91196 13.2893ZM5.2381 13.1651C5.13914 13.2377 5.02169 13.2809 4.89925 13.2898L4.92444 13.6389C5.11261 13.6253 5.29312 13.5589 5.4452 13.4472L5.2381 13.1651ZM6.19682 12.8596C5.85747 12.8682 5.52745 12.9725 5.24476 13.1604L5.43854 13.4519C5.66633 13.3004 5.93226 13.2164 6.20571 13.2095L6.19682 12.8596ZM6.71306 12.9874C6.55553 12.9038 6.37999 12.8599 6.20167 12.8595L6.20086 13.2095C6.32228 13.2098 6.44181 13.2397 6.54908 13.2966L6.71306 12.9874ZM6.45607 3.14897V13.142H6.80607V3.14897H6.45607ZM8.77989 0.824938C7.49712 0.826475 6.45761 1.86599 6.45607 3.14876L6.80607 3.14918C6.80738 2.05938 7.69051 1.17624 8.78031 1.17494L8.77989 0.824938ZM19.9551 0.824938H8.7801V1.17494H19.9551V0.824938ZM22.2791 3.14876C22.2776 1.86599 21.2381 0.826475 19.9553 0.824938L19.9549 1.17494C21.0447 1.17624 21.9278 2.05938 21.9291 3.14918L22.2791 3.14876ZM22.2791 4.91333V3.14897H21.9291V4.91333H22.2791ZM11.7883 2.03456H16.946V1.68456H11.7883V2.03456ZM11.9633 2.28937V1.85956H11.6133V2.28937H11.9633ZM12.2181 2.54417C12.0774 2.54417 11.9633 2.43009 11.9633 2.28937H11.6133C11.6133 2.62339 11.8841 2.89417 12.2181 2.89417V2.54417ZM16.5162 2.54417H12.2181V2.89417H16.5162V2.54417ZM16.771 2.28937C16.771 2.43009 16.6569 2.54417 16.5162 2.54417V2.89417C16.8502 2.89417 17.121 2.62339 17.121 2.28937H16.771ZM16.771 1.85956V2.28937H17.121V1.85956H16.771ZM5.68235 13.9017C5.59552 13.9531 5.50588 13.9996 5.41386 14.041L5.55746 14.3602C5.66136 14.3134 5.76257 14.2609 5.86061 14.2029L5.68235 13.9017ZM6.18869 13.7196C6.00052 13.7332 5.82001 13.7996 5.66793 13.9112L5.87503 14.1934C5.97399 14.1207 6.09145 14.0775 6.21388 14.0687L6.18869 13.7196ZM6.64073 14.0471C6.58979 13.9895 6.52508 13.9161 6.46329 13.8574C6.43246 13.8281 6.39755 13.7978 6.36137 13.7737C6.33126 13.7537 6.27307 13.7191 6.20129 13.7191V14.0691C6.1648 14.0691 6.14975 14.0534 6.16774 14.0653C6.17966 14.0732 6.19784 14.088 6.22221 14.1111C6.27082 14.1573 6.32499 14.2184 6.37853 14.2789L6.64073 14.0471ZM6.65343 14.0614L6.64071 14.047L6.37856 14.2789L6.39128 14.2933L6.65343 14.0614ZM7.5071 14.5795C7.16647 14.5475 6.85828 14.364 6.66768 14.0799L6.37702 14.2749C6.62617 14.6463 7.02904 14.8861 7.47431 14.928L7.5071 14.5795ZM8.31373 14.0799C8.12313 14.364 7.81494 14.5475 7.47431 14.5795L7.5071 14.928C7.95238 14.8861 8.35524 14.6463 8.60439 14.2749L8.31373 14.0799ZM8.3407 14.047L8.32798 14.0614L8.59014 14.2933L8.60286 14.2789L8.3407 14.047ZM8.78013 13.7191C8.70834 13.7191 8.65016 13.7537 8.62004 13.7737C8.58386 13.7978 8.54895 13.8281 8.51813 13.8574C8.45633 13.9161 8.39163 13.9895 8.34068 14.0471L8.60288 14.2789C8.65643 14.2184 8.7106 14.1573 8.7592 14.1111C8.78358 14.088 8.80175 14.0732 8.81367 14.0653C8.83167 14.0534 8.81661 14.0691 8.78013 14.0691V13.7191ZM9.31348 13.9112C9.1614 13.7996 8.98089 13.7332 8.79272 13.7196L8.76753 14.0687C8.88997 14.0775 9.00742 14.1207 9.10638 14.1934L9.31348 13.9112ZM9.56627 14.0412C9.4748 13.9997 9.3857 13.9532 9.29939 13.9019L9.12047 14.2027C9.21792 14.2607 9.31852 14.3132 9.4218 14.36L9.56627 14.0412ZM8.80778 16.5343L9.65794 14.2619L9.33013 14.1393L8.47997 16.4116L8.80778 16.5343ZM6.33754 16.648H8.64388V16.298H6.33754V16.648ZM5.3218 14.262L6.17367 16.5344L6.5014 16.4115L5.64952 14.1392L5.3218 14.262ZM5.3413 25.7537C4.2515 25.7524 3.36837 24.8693 3.36706 23.7795L3.01706 23.7799C3.0186 25.0627 4.05811 26.1022 5.34088 26.1037L5.3413 25.7537ZM9.63916 25.7537H5.34109V26.1037H9.63916V25.7537ZM11.6132 23.7795C11.6119 24.8693 10.7287 25.7524 9.63895 25.7537L9.63937 26.1037C10.9221 26.1022 11.9617 25.0627 11.9632 23.7799L11.6132 23.7795ZM11.6132 21.6306V23.7797H11.9632V21.6306H11.6132ZM9.05265 17.8173C10.6 18.4523 11.6111 19.9583 11.6132 21.6309L11.9632 21.6304C11.9609 19.816 10.864 18.1824 9.18553 17.4935L9.05265 17.8173ZM9.38434 18.1908C9.38275 17.9897 9.34919 17.7901 9.28492 17.5994L8.95326 17.7113C9.00568 17.8667 9.03306 18.0295 9.03435 18.1936L9.38434 18.1908ZM9.38435 18.622V18.1922H9.03435V18.622H9.38435ZM8.34974 18.797H9.20935V18.447H8.34974V18.797ZM8.17474 18.1922V18.622H8.52474V18.1922H8.17474ZM7.49012 17.5076C7.86822 17.5076 8.17474 17.8141 8.17474 18.1922H8.52474C8.52474 17.6208 8.06152 17.1576 7.49012 17.1576V17.5076ZM6.80551 18.1922C6.80551 17.8141 7.11202 17.5076 7.49012 17.5076V17.1576C6.91872 17.1576 6.45551 17.6208 6.45551 18.1922H6.80551ZM6.80551 18.622V18.1922H6.45551V18.622H6.80551ZM5.7709 18.797H6.63051V18.447H5.7709V18.797ZM5.5959 18.1922V18.622H5.9459V18.1922H5.5959ZM5.69533 17.5994C5.63106 17.7901 5.59749 17.9897 5.5959 18.1908L5.94589 18.1936C5.94719 18.0295 5.97456 17.8667 6.02698 17.7113L5.69533 17.5994ZM3.36706 21.6309C3.36912 19.9583 4.38029 18.4523 5.9276 17.8173L5.79471 17.4935C4.1162 18.1824 3.0193 19.816 3.01706 21.6304L3.36706 21.6309ZM3.36706 23.7797V21.6306H3.01706V23.7797H3.36706ZM19.9551 26.1037C20.7638 26.1037 21.4195 25.4481 21.4195 24.6393H21.0695C21.0695 25.2548 20.5705 25.7537 19.9551 25.7537V26.1037ZM11.741 26.1037H19.9551V25.7537H11.741V26.1037ZM12.4734 23.7797C12.4735 24.5419 12.1654 25.2718 11.619 25.8033L11.8631 26.0542C12.4772 25.4568 12.8236 24.6364 12.8234 23.7796L12.4734 23.7797ZM12.4734 21.6306V23.7797H12.8234V21.6306H12.4734ZM9.98202 17.3225C11.5216 18.2114 12.4709 19.8532 12.4734 21.6309L12.8234 21.6304C12.8208 19.7278 11.8047 17.9707 10.157 17.0194L9.98202 17.3225ZM9.89452 16.473V17.171H10.2445V16.473H9.89452ZM9.56192 16.648H10.0695V16.298H9.56192V16.648ZM10.3084 13.9836L9.39806 16.4115L9.72578 16.5344L10.6361 14.1064L10.3084 13.9836ZM10.2792 13.7489C10.3268 13.8176 10.3377 13.9053 10.3084 13.9836L10.6361 14.1064C10.7058 13.9206 10.6798 13.7125 10.5668 13.5494L10.2792 13.7489ZM10.0696 13.6393C10.1532 13.6393 10.2315 13.6802 10.2792 13.7489L10.5668 13.5494C10.4537 13.3864 10.2678 13.2892 10.0694 13.2893L10.0696 13.6393ZM9.53616 13.4472C9.68825 13.5589 9.86876 13.6253 10.0569 13.6389L10.0821 13.2898C9.95968 13.2809 9.84222 13.2377 9.74327 13.1651L9.53616 13.4472ZM8.77566 13.2095C9.04911 13.2164 9.31504 13.3004 9.54282 13.4519L9.7366 13.1604C9.45392 12.9725 9.1239 12.8682 8.78454 12.8596L8.77566 13.2095ZM7.95708 13.7084C8.14768 13.4242 8.45587 13.2408 8.7965 13.2087L8.7637 12.8603C8.31843 12.9022 7.91556 13.142 7.66642 13.5134L7.95708 13.7084ZM7.9301 13.7412L7.94282 13.7268L7.68067 13.4949L7.66795 13.5093L7.9301 13.7412ZM7.49068 14.0691C7.56246 14.0691 7.62065 14.0345 7.65077 14.0145C7.68695 13.9905 7.72186 13.9602 7.75268 13.9309C7.81448 13.8722 7.87918 13.7988 7.93012 13.7412L7.66793 13.5093C7.61438 13.5699 7.56021 13.631 7.51161 13.6771C7.48723 13.7003 7.46906 13.715 7.45714 13.723C7.43914 13.7349 7.4542 13.7191 7.49068 13.7191V14.0691ZM7.31568 3.14897V13.8941H7.66568V3.14897H7.31568ZM8.7801 1.68455C7.97132 1.68455 7.31568 2.34019 7.31568 3.14897H7.66568C7.66568 2.53349 8.16462 2.03455 8.7801 2.03455V1.68455ZM10.9291 1.68455H8.7801V2.03455H10.9291V1.68455ZM11.1041 2.28936V1.85955H10.7541V2.28936H11.1041ZM12.2186 3.40378C11.6031 3.40378 11.1041 2.90483 11.1041 2.28936H10.7541C10.7541 3.09813 11.4098 3.75378 12.2186 3.75378V3.40378ZM16.5166 3.40378H12.2186V3.75378H16.5166V3.40378ZM17.631 2.28936C17.631 2.90483 17.1321 3.40378 16.5166 3.40378V3.75378C17.3254 3.75378 17.981 3.09813 17.981 2.28936H17.631ZM17.631 1.85955V2.28936H17.981V1.85955H17.631ZM19.9551 1.68455H17.806V2.03455H19.9551V1.68455ZM21.4195 3.14897C21.4195 2.34019 20.7638 1.68455 19.9551 1.68455V2.03455C20.5705 2.03455 21.0695 2.53349 21.0695 3.14897H21.4195ZM21.4195 4.61031V3.14897H21.0695V4.61031H21.4195ZM15.8396 6.74204C17.0374 5.02787 19.1782 4.24405 21.1997 4.77948L21.2893 4.44115C19.1258 3.86811 16.8347 4.70699 15.5527 6.54156L15.8396 6.74204ZM15.8396 12.4501C14.6418 10.7359 14.6418 8.4562 15.8396 6.74204L15.5527 6.54156C14.2708 8.37614 14.2708 10.816 15.5527 12.6506L15.8396 12.4501ZM21.1997 14.4127C19.1782 14.9481 17.0374 14.1643 15.8396 12.4501L15.5527 12.6506C16.8347 14.4851 19.1258 15.324 21.2893 14.751L21.1997 14.4127ZM21.4195 24.6393V14.5818H21.0695V24.6393H21.4195ZM19.9555 13.7191C17.6784 13.7191 15.8324 11.8732 15.8324 9.59608H15.4824C15.4824 12.0665 17.4851 14.0691 19.9555 14.0691V13.7191ZM24.0786 9.59589C24.0761 11.8721 22.2315 13.7166 19.9553 13.7191L19.9557 14.0691C22.4249 14.0664 24.4259 12.0654 24.4286 9.59627L24.0786 9.59589ZM19.9555 5.47301C22.2326 5.47301 24.0786 7.31897 24.0786 9.59608H24.4286C24.4286 7.12567 22.4259 5.12301 19.9555 5.12301V5.47301ZM15.8324 9.59608C15.8324 7.31897 17.6784 5.47301 19.9555 5.47301V5.12301C17.4851 5.12301 15.4824 7.12567 15.4824 9.59608H15.8324Z" fill="black"/>
<path d="M17.9004 15.7745L16.1812 17.9235C16.0779 18.0526 16.0577 18.2294 16.1293 18.3784C16.2009 18.5273 16.3516 18.622 16.5169 18.622H16.9467V21.6306H17.8063V18.1922C17.807 17.9673 17.6342 17.7799 17.41 17.7624L18.2361 16.7308L19.0622 17.7624C18.838 17.7799 18.6652 17.9673 18.6659 18.1922V22.4902H19.5255V18.622H19.9553C20.1206 18.622 20.2713 18.5273 20.3429 18.3784C20.4145 18.2294 20.3943 18.0526 20.291 17.9235L18.5718 15.7745C18.4872 15.6775 18.3648 15.6218 18.2361 15.6218C18.1074 15.6218 17.985 15.6775 17.9004 15.7745Z" fill="black"/>
<path d="M14.273 12.3361C14.1884 12.2391 14.066 12.1834 13.9373 12.1834C13.8086 12.1834 13.6862 12.2391 13.6016 12.3361L11.8824 14.4851C11.7791 14.6141 11.7589 14.791 11.8305 14.9399C11.9021 15.0889 12.0528 15.1836 12.2181 15.1836H12.6479V18.1922H13.5075V14.7538C13.5082 14.5289 13.3354 14.3415 13.1112 14.324L13.9373 13.2924L14.7634 14.324C14.5392 14.3415 14.3664 14.5289 14.3671 14.7538V19.0518H15.2267V15.1836H15.6565C15.8218 15.1836 15.9725 15.0889 16.0441 14.9399C16.1157 14.791 16.0955 14.6141 15.9922 14.4851L14.273 12.3361Z" fill="black"/>
<path d="M12.6053 8.49275C12.6769 8.34386 12.6569 8.16708 12.5537 8.03801L10.8345 5.88898C10.7499 5.79196 10.6275 5.73627 10.4988 5.73627C10.3701 5.73627 10.2477 5.79196 10.1631 5.88898L8.4439 8.03801C8.34055 8.1671 8.32042 8.34402 8.39213 8.49302C8.46383 8.64202 8.61465 8.73668 8.78001 8.73645H9.20982V11.7451H10.0694V8.30664C10.0701 8.08177 9.89734 7.89438 9.67315 7.87684L10.4992 6.8453L11.3253 7.87684C11.1011 7.89438 10.9284 8.08177 10.929 8.30664V12.6047H11.7887V8.73645H12.2185C12.3835 8.73622 12.5338 8.64151 12.6053 8.49275Z" fill="black"/>
<path d="M14.3672 19.9114H15.2268V20.771H14.3672V19.9114Z" fill="black"/>
<path d="M14.3672 21.6306H15.2268V22.4903H14.3672V21.6306Z" fill="black"/>
<path d="M18.665 23.3499H19.5247V24.2095H18.665V23.3499Z" fill="black"/>
<path d="M16.9463 22.4903H17.8059V23.3499H16.9463V22.4903Z" fill="black"/>
</svg>
