<svg width="30" height="29" viewBox="0 0 30 29" fill="none" xmlns="http://www.w3.org/2000/svg">
<path fill-rule="evenodd" clip-rule="evenodd" d="M18.8184 6.93936C18.8158 6.97983 18.8094 7.01996 18.7993 7.05921C19.7784 8.10876 20.327 9.48819 20.3361 10.9235C20.3568 14.0582 17.8225 16.697 14.6878 16.697H14.6512C11.533 16.697 8.98705 14.1192 8.9669 10.9973C8.95631 9.2096 9.77428 7.51785 11.182 6.41595V3.96965C11.182 3.73535 11.3719 3.54541 11.6062 3.54541C11.8405 3.54541 12.0305 3.73535 12.0305 3.96965V5.87027C12.8284 5.45467 13.7155 5.23919 14.6152 5.24239H14.6523C15.8424 5.23656 17.0038 5.60786 17.9699 6.303V4.3939C17.9699 4.15959 18.1598 3.96965 18.3941 3.96965C18.6284 3.96965 18.8184 4.15959 18.8184 4.3939V6.93936ZM14.6506 15.8485H14.6819C17.3494 15.8485 19.5045 13.6053 19.4875 10.9389C19.4706 8.28262 17.3032 6.09087 14.6517 6.09087H14.6204C11.954 6.09087 9.79781 8.33459 9.81478 11.001C9.83175 13.6573 11.9991 15.8485 14.6506 15.8485Z" fill="black"/>
<path d="M18.7993 7.05921L18.6299 7.01533L18.6058 7.10834L18.6713 7.17859L18.7993 7.05921ZM18.8184 6.93936L18.9934 6.95031V6.93936H18.8184ZM20.3361 10.9235L20.1611 10.9246L20.1611 10.9247L20.3361 10.9235ZM8.9669 10.9973L8.7919 10.9983L8.7919 10.9984L8.9669 10.9973ZM11.182 6.41595L11.2898 6.55375L11.357 6.5012V6.41595H11.182ZM12.0305 5.87027H11.8555V6.15872L12.1113 6.02548L12.0305 5.87027ZM14.6152 5.24239L14.6146 5.41739H14.6152V5.24239ZM14.6523 5.24239V5.41739L14.6532 5.41738L14.6523 5.24239ZM17.9699 6.303L17.8677 6.44504L18.1449 6.64452V6.303H17.9699ZM19.4875 10.9389L19.6625 10.9378V10.9378L19.4875 10.9389ZM9.81478 11.001L9.63979 11.0021L9.63979 11.0021L9.81478 11.001ZM18.9687 7.10309C18.9817 7.05305 18.9898 7.00188 18.993 6.95029L18.6437 6.92844C18.6419 6.95777 18.6372 6.98687 18.6299 7.01533L18.9687 7.10309ZM20.5111 10.9224C20.5018 9.44316 19.9364 8.0215 18.9272 6.93983L18.6713 7.17859C19.6205 8.19601 20.1523 9.53323 20.1611 10.9246L20.5111 10.9224ZM14.6878 16.872C17.923 16.872 20.5324 14.1506 20.5111 10.9224L20.1611 10.9247C20.1812 13.9657 17.7219 16.522 14.6878 16.522V16.872ZM14.6512 16.872H14.6878V16.522H14.6512V16.872ZM8.7919 10.9984C8.81266 14.2145 11.4348 16.872 14.6512 16.872V16.522C11.6312 16.522 9.16144 14.0238 9.1419 10.9961L8.7919 10.9984ZM11.0741 6.27815C9.62375 7.41344 8.78099 9.15647 8.7919 10.9983L9.1419 10.9962C9.13163 9.26274 9.92481 7.62226 11.2898 6.55375L11.0741 6.27815ZM11.007 3.96965V6.41595H11.357V3.96965H11.007ZM11.6062 3.37041C11.2753 3.37041 11.007 3.6387 11.007 3.96965H11.357C11.357 3.832 11.4686 3.72041 11.6062 3.72041V3.37041ZM12.2055 3.96965C12.2055 3.6387 11.9372 3.37041 11.6062 3.37041V3.72041C11.7439 3.72041 11.8555 3.832 11.8555 3.96965H12.2055ZM12.2055 5.87027V3.96965H11.8555V5.87027H12.2055ZM14.6158 5.06739C13.6877 5.06409 12.7728 5.28636 11.9496 5.71506L12.1113 6.02548C12.8841 5.62297 13.7432 5.41429 14.6146 5.41739L14.6158 5.06739ZM14.6523 5.06739H14.6152V5.41739H14.6523V5.06739ZM18.0721 6.16095C17.076 5.44421 15.8786 5.06139 14.6514 5.06739L14.6532 5.41738C15.8063 5.41174 16.9316 5.7715 17.8677 6.44504L18.0721 6.16095ZM17.7949 4.3939V6.303H18.1449V4.3939H17.7949ZM18.3941 3.79465C18.0632 3.79465 17.7949 4.06294 17.7949 4.3939H18.1449C18.1449 4.25625 18.2565 4.14465 18.3941 4.14465V3.79465ZM18.9934 4.3939C18.9934 4.06294 18.7251 3.79465 18.3941 3.79465V4.14465C18.5318 4.14465 18.6434 4.25624 18.6434 4.3939H18.9934ZM18.9934 6.93936V4.3939H18.6434V6.93936H18.9934ZM14.6819 15.6735H14.6506V16.0235H14.6819V15.6735ZM19.3125 10.94C19.3289 13.5128 17.2488 15.6735 14.6819 15.6735V16.0235C17.4499 16.0235 19.6801 13.6978 19.6625 10.9378L19.3125 10.94ZM14.6517 6.26587C17.2051 6.26587 19.2962 8.37804 19.3125 10.94L19.6625 10.9378C19.645 8.1872 17.4013 5.91587 14.6517 5.91587V6.26587ZM14.6204 6.26587H14.6517V5.91587H14.6204V6.26587ZM9.98978 10.9998C9.97341 8.42709 12.0545 6.26587 14.6204 6.26587V5.91587C11.8535 5.91587 9.62222 8.24209 9.63979 11.0021L9.98978 10.9998ZM14.6506 15.6735C12.0972 15.6735 10.0061 13.5618 9.98978 10.9998L9.63979 11.0021C9.65736 13.7527 11.901 16.0235 14.6506 16.0235V15.6735Z" fill="black"/>
<path fill-rule="evenodd" clip-rule="evenodd" d="M6.88164 11.4868C6.88013 11.5106 6.87631 11.5343 6.87024 11.5575C7.45483 12.1765 7.78235 12.9902 7.78777 13.8369C7.80012 15.6859 6.28706 17.2424 4.4156 17.2424H4.39376C2.53211 17.2424 1.01209 15.7219 1.00006 13.8804C0.993738 12.8259 1.48209 11.828 2.32252 11.178V9.73505C2.32252 9.59684 2.43592 9.4848 2.57581 9.4848C2.71569 9.4848 2.82909 9.59684 2.82909 9.73505V10.8561C3.3055 10.611 3.83507 10.4839 4.37223 10.4858H4.39439C5.10493 10.4823 5.79832 10.7014 6.37507 11.1114V9.98529C6.37507 9.84709 6.48847 9.73505 6.62836 9.73505C6.76824 9.73505 6.88164 9.84709 6.88164 9.98529V11.4868ZM4.39301 16.7419H4.41169C6.00421 16.7419 7.2909 15.4187 7.28077 13.8459C7.27064 12.2791 5.97667 10.9863 4.39364 10.9863H4.37496C2.78307 10.9863 1.49575 12.3097 1.50588 13.8825C1.51601 15.4494 2.80998 16.7419 4.39301 16.7419Z" fill="black"/>
<path d="M6.87024 11.5575L6.64454 11.4983L6.6117 11.6235L6.70059 11.7177L6.87024 11.5575ZM6.88164 11.4868L7.11451 11.5015L7.11498 11.4941V11.4868H6.88164ZM7.78777 13.8369L7.55444 13.8384L7.55444 13.8384L7.78777 13.8369ZM1.00006 13.8804L0.766731 13.8818L0.766731 13.8819L1.00006 13.8804ZM2.32252 11.178L2.46527 11.3626L2.55586 11.2925V11.178H2.32252ZM2.82909 10.8561H2.59576V11.2386L2.93585 11.0636L2.82909 10.8561ZM4.37223 10.4858L4.37141 10.7191H4.37223V10.4858ZM4.39439 10.4858V10.7191L4.39552 10.7191L4.39439 10.4858ZM6.37507 11.1114L6.23987 11.3016L6.60841 11.5636V11.1114H6.37507ZM7.28077 13.8459L7.5141 13.8444V13.8444L7.28077 13.8459ZM1.50588 13.8825L1.27255 13.884L1.27255 13.884L1.50588 13.8825ZM7.09595 11.6166C7.10583 11.5789 7.11205 11.5404 7.11451 11.5015L6.64877 11.472C6.64821 11.4809 6.6468 11.4897 6.64454 11.4983L7.09595 11.6166ZM8.0211 13.8354C8.0153 12.9293 7.66477 12.059 7.0399 11.3973L6.70059 11.7177C7.24489 12.2941 7.54941 13.0511 7.55444 13.8384L8.0211 13.8354ZM4.4156 17.4757C6.4185 17.4757 8.0343 15.8118 8.0211 13.8353L7.55444 13.8384C7.56593 15.5599 6.15562 17.0091 4.4156 17.0091V17.4757ZM4.39376 17.4757H4.4156V17.0091H4.39376V17.4757ZM0.766731 13.8819C0.7796 15.8516 2.4038 17.4757 4.39376 17.4757V17.0091C2.66043 17.0091 1.24458 15.5921 1.23339 13.8788L0.766731 13.8819ZM2.17978 10.9934C1.28233 11.6875 0.759968 12.7539 0.766731 13.8818L1.23339 13.879C1.22751 12.8979 1.68185 11.9685 2.46527 11.3626L2.17978 10.9934ZM2.08919 9.73505V11.178H2.55586V9.73505H2.08919ZM2.57581 9.25147C2.30972 9.25147 2.08919 9.46533 2.08919 9.73505H2.55586C2.55586 9.72836 2.56212 9.71814 2.57581 9.71814V9.25147ZM3.06243 9.73505C3.06243 9.46533 2.8419 9.25147 2.57581 9.25147V9.71814C2.58949 9.71814 2.59576 9.72836 2.59576 9.73505H3.06243ZM3.06243 10.8561V9.73505H2.59576V10.8561H3.06243ZM4.37305 10.2525C3.79858 10.2504 3.2321 10.3864 2.72233 10.6487L2.93585 11.0636C3.37891 10.8356 3.87157 10.7174 4.37141 10.7191L4.37305 10.2525ZM4.39439 10.2524H4.37223V10.7191H4.39439V10.2524ZM6.51027 10.9212C5.89354 10.4828 5.15243 10.2488 4.39326 10.2525L4.39552 10.7191C5.05744 10.7159 5.7031 10.92 6.23987 11.3016L6.51027 10.9212ZM6.14174 9.98529V11.1114H6.60841V9.98529H6.14174ZM6.62836 9.50171C6.36227 9.50171 6.14174 9.71557 6.14174 9.98529H6.60841C6.60841 9.9786 6.61468 9.96838 6.62836 9.96838V9.50171ZM7.11498 9.98529C7.11498 9.71557 6.89445 9.50171 6.62836 9.50171V9.96838C6.64204 9.96838 6.64831 9.9786 6.64831 9.98529H7.11498ZM7.11498 11.4868V9.98529H6.64831V11.4868H7.11498ZM4.41169 16.5086H4.39301V16.9752H4.41169V16.5086ZM7.04744 13.8474C7.05675 15.2927 5.87285 16.5086 4.41169 16.5086V16.9752C6.13558 16.9752 7.52505 15.5448 7.5141 13.8444L7.04744 13.8474ZM4.39364 11.2196C5.84848 11.2196 7.03814 12.409 7.04744 13.8474L7.5141 13.8444C7.50314 12.1492 6.10486 10.7529 4.39364 10.7529V11.2196ZM4.37496 11.2196H4.39364V10.7529H4.37496V11.2196ZM1.73921 13.881C1.7299 12.4358 2.91444 11.2196 4.37496 11.2196V10.7529C2.6517 10.7529 1.2616 12.1837 1.27255 13.884L1.73921 13.881ZM4.39301 16.5086C2.93814 16.5086 1.74851 15.3195 1.73921 13.881L1.27255 13.884C1.28352 15.5793 2.68182 16.9752 4.39301 16.9752V16.5086Z" fill="black"/>
<path fill-rule="evenodd" clip-rule="evenodd" d="M28.0936 9.7898C28.092 9.81367 28.0882 9.83735 28.0822 9.8605C28.6667 10.4796 28.9943 11.2933 28.9997 12.1399C29.012 13.9889 27.499 15.5454 25.6275 15.5454H25.6057C23.744 15.5454 22.224 14.0249 22.212 12.1834C22.2057 11.1289 22.694 10.131 23.5344 9.48106V8.03809C23.5344 7.89988 23.6478 7.78784 23.7877 7.78784C23.9276 7.78784 24.041 7.89988 24.041 8.03809V9.15919C24.5174 8.91404 25.047 8.78694 25.5841 8.78882H25.6063C26.3168 8.78539 27.0102 9.0044 27.587 9.41444V8.28833C27.587 8.15013 27.7004 8.03809 27.8403 8.03809C27.9802 8.03809 28.0936 8.15013 28.0936 8.28833V9.7898ZM25.6048 15.0449H25.6235C27.216 15.0449 28.5027 13.7218 28.4925 12.149C28.4824 10.5821 27.1884 9.2893 25.6054 9.2893H25.5867C23.9948 9.2893 22.7075 10.6128 22.7177 12.1856C22.7278 13.7524 24.0218 15.0449 25.6048 15.0449Z" fill="black"/>
<path d="M28.0822 9.8605L27.8565 9.80132L27.8236 9.92656L27.9125 10.0207L28.0822 9.8605ZM28.0936 9.7898L28.3264 9.80455L28.3269 9.79718V9.7898H28.0936ZM28.9997 12.1399L28.7664 12.1414L28.7664 12.1415L28.9997 12.1399ZM22.212 12.1834L21.9786 12.1848L21.9786 12.1849L22.212 12.1834ZM23.5344 9.48106L23.6772 9.66564L23.7678 9.59558V9.48106H23.5344ZM24.041 9.15919H23.8077V9.54167L24.1478 9.36666L24.041 9.15919ZM25.5841 8.78882L25.5833 9.02216H25.5841V8.78882ZM25.6063 8.78882V9.02216L25.6074 9.02215L25.6063 8.78882ZM27.587 9.41444L27.4518 9.60461L27.8203 9.86661V9.41444H27.587ZM28.4925 12.149L28.7259 12.1475V12.1475L28.4925 12.149ZM22.7177 12.1856L22.4843 12.1871L22.4843 12.1871L22.7177 12.1856ZM28.3079 9.91967C28.3177 9.88198 28.324 9.84343 28.3264 9.80455L27.8607 9.77506C27.8601 9.78392 27.8587 9.79271 27.8565 9.80132L28.3079 9.91967ZM29.233 12.1384C29.2272 11.2323 28.8767 10.3621 28.2518 9.7003L27.9125 10.0207C28.4568 10.5971 28.7613 11.3542 28.7664 12.1414L29.233 12.1384ZM25.6275 15.7788C27.6304 15.7788 29.2462 14.1149 29.233 12.1384L28.7664 12.1415C28.7778 13.863 27.3675 15.3121 25.6275 15.3121V15.7788ZM25.6057 15.7788H25.6275V15.3121H25.6057V15.7788ZM21.9786 12.1849C21.9915 14.1546 23.6157 15.7788 25.6057 15.7788V15.3121C23.8723 15.3121 22.4565 13.8951 22.4453 12.1819L21.9786 12.1849ZM23.3917 9.29649C22.4942 9.99055 21.9719 11.057 21.9786 12.1848L22.4453 12.182C22.4394 11.2009 22.8938 10.2715 23.6772 9.66564L23.3917 9.29649ZM23.3011 8.03809V9.48106H23.7678V8.03809H23.3011ZM23.7877 7.55451C23.5216 7.55451 23.3011 7.76837 23.3011 8.03809H23.7678C23.7678 8.03139 23.774 8.02118 23.7877 8.02118V7.55451ZM24.2743 8.03809C24.2743 7.76837 24.0538 7.55451 23.7877 7.55451V8.02118C23.8014 8.02118 23.8077 8.03139 23.8077 8.03809H24.2743ZM24.2743 9.15919V8.03809H23.8077V9.15919H24.2743ZM25.585 8.55549C25.0105 8.55347 24.444 8.6894 23.9342 8.95171L24.1478 9.36666C24.5908 9.13868 25.0835 9.0204 25.5833 9.02216L25.585 8.55549ZM25.6063 8.55549H25.5841V9.02216H25.6063V8.55549ZM27.7222 9.22426C27.1055 8.7858 26.3643 8.55182 25.6052 8.55549L25.6074 9.02215C26.2693 9.01896 26.915 9.223 27.4518 9.60461L27.7222 9.22426ZM27.3537 8.28833V9.41444H27.8203V8.28833H27.3537ZM27.8403 7.80475C27.5742 7.80475 27.3537 8.01861 27.3537 8.28833H27.8203C27.8203 8.28164 27.8266 8.27142 27.8403 8.27142V7.80475ZM28.3269 8.28833C28.3269 8.01861 28.1064 7.80475 27.8403 7.80475V8.27142C27.854 8.27142 27.8602 8.28164 27.8602 8.28833H28.3269ZM28.3269 9.7898V8.28833H27.8602V9.7898H28.3269ZM25.6235 14.8116H25.6048V15.2783H25.6235V14.8116ZM28.2592 12.1505C28.2685 13.5957 27.0846 14.8116 25.6235 14.8116V15.2783C27.3474 15.2783 28.7368 13.8478 28.7259 12.1475L28.2592 12.1505ZM25.6054 9.52263C27.0603 9.52263 28.2499 10.712 28.2592 12.1505L28.7259 12.1475C28.7149 10.4523 27.3166 9.05596 25.6054 9.05596V9.52263ZM25.5867 9.52263H25.6054V9.05596H25.5867V9.52263ZM22.951 12.1841C22.9417 10.7388 24.1262 9.52263 25.5867 9.52263V9.05596C23.8635 9.05596 22.4734 10.4868 22.4843 12.1871L22.951 12.1841ZM25.6048 14.8116C24.1499 14.8116 22.9603 13.6225 22.951 12.1841L22.4843 12.1871C22.4953 13.8823 23.8936 15.2783 25.6048 15.2783V14.8116Z" fill="black"/>
<path d="M16.9692 9.32571C16.9416 9.29679 16.9063 9.28235 16.8634 9.28235H16.0767C16.0245 9.01568 15.9264 8.78419 15.7822 8.58815H16.8542C16.8972 8.58815 16.9324 8.5737 16.9601 8.54484C16.9875 8.51593 17.0013 8.47893 17.0013 8.43395V7.94211C17.0013 7.89709 16.9875 7.86016 16.9601 7.83122C16.9324 7.80235 16.8972 7.78784 16.8542 7.78784H13.0261C12.9832 7.78784 12.9479 7.80235 12.9203 7.8312C12.8927 7.86015 12.8789 7.89707 12.8789 7.94209V8.58327C12.8789 8.62505 12.8935 8.6612 12.9226 8.69173C12.9517 8.72226 12.9863 8.73752 13.0261 8.73752H13.6933C14.3405 8.73752 14.7515 8.91906 14.9263 9.28227H13.0261C12.9832 9.28227 12.9479 9.2967 12.9203 9.32563C12.8927 9.35459 12.8789 9.3915 12.8789 9.43652V9.92829C12.8789 9.97328 12.8927 10.0103 12.9203 10.0391C12.9479 10.0681 12.9832 10.0825 13.0261 10.0825H14.9908C14.9233 10.3461 14.7661 10.5469 14.5192 10.6851C14.2722 10.8234 13.9464 10.8925 13.5414 10.8925H13.0261C12.9863 10.8925 12.9517 10.9078 12.9226 10.9383C12.8935 10.9688 12.8789 11.005 12.8789 11.0467V11.659C12.8789 11.7009 12.8927 11.7362 12.9203 11.7651C13.5092 12.4208 14.273 13.3383 15.2116 14.5179C15.2392 14.5565 15.2776 14.5757 15.3267 14.5757H16.2238C16.2883 14.5757 16.3328 14.5469 16.3573 14.4889C16.3879 14.4311 16.3819 14.3764 16.3389 14.325C15.4433 13.1744 14.7393 12.313 14.227 11.741C14.7485 11.6767 15.1718 11.4999 15.4969 11.2107C15.8221 10.9215 16.0199 10.5454 16.0905 10.0826H16.8634C16.9063 10.0826 16.9417 10.0681 16.9692 10.0392C16.9968 10.0103 17.0107 9.97336 17.0107 9.92838V9.43665C17.0107 9.39158 16.9968 9.35465 16.9692 9.32571Z" fill="black"/>
<path d="M11.6069 0.999939C11.3726 0.999939 11.1826 1.18988 11.1826 1.42418V2.27267C11.1826 2.50697 11.3726 2.69691 11.6069 2.69691C11.8412 2.69691 12.0311 2.50697 12.0311 2.27267V1.42418C12.0311 1.18988 11.8412 0.999939 11.6069 0.999939Z" fill="black" stroke="black" stroke-width="0.350001"/>
<path d="M18.3949 1.42419C18.1606 1.42419 17.9707 1.61413 17.9707 1.84844V2.69693C17.9707 2.93123 18.1606 3.12117 18.3949 3.12117C18.6293 3.12117 18.8192 2.93123 18.8192 2.69693V1.84844C18.8192 1.61413 18.6293 1.42419 18.3949 1.42419Z" fill="black" stroke="black" stroke-width="0.350001"/>
<path d="M23.8246 4.39389C23.5903 4.39389 23.4004 4.58383 23.4004 4.81813V5.66662C23.4004 5.90093 23.5903 6.09087 23.8246 6.09087C24.0589 6.09087 24.2489 5.90093 24.2489 5.66662V4.81813C24.2489 4.58383 24.0589 4.39389 23.8246 4.39389Z" fill="black" stroke="black" stroke-width="0.350001"/>
<circle cx="11.6069" cy="11.1818" r="0.424244" fill="black"/>
<circle cx="17.5453" cy="11.1818" r="0.424244" fill="black"/>
<path fill-rule="evenodd" clip-rule="evenodd" d="M3.58984 21.7879L7.364 24.3333L14.5639 25.9935L18.8186 24.7576V23.0551C18.8186 23.0551 17.8688 23.9247 14.6514 23.5109C11.4341 23.097 11.6064 22.5314 8.6751 21.4447C5.74377 20.3581 3.58984 21.7879 3.58984 21.7879Z" fill="#00C5B3"/>
<path fill-rule="evenodd" clip-rule="evenodd" d="M22.2123 17.5454H26.879C27.1133 17.5454 27.3033 17.7354 27.3033 17.9697V26.0303C27.3033 26.2646 27.1133 26.4546 26.879 26.4546H22.2123C21.6748 26.452 21.1968 26.112 21.0181 25.605H18.8942C18.7603 25.6036 18.6353 25.5377 18.5585 25.4279L14.8655 26.2764C14.6749 26.3195 14.477 26.3195 14.2864 26.2764L7.26941 24.6738C7.22102 24.6627 7.17491 24.6433 7.13312 24.6165L2.4203 21.5667C2.06476 21.3396 1.84932 20.9471 1.84863 20.5252V19.6051C1.84833 19.2136 2.03391 18.8452 2.34871 18.6124C2.67448 18.3683 3.09655 18.2928 3.48675 18.4088L9.97396 20.3115C10.1081 19.8843 10.429 19.5411 10.8463 19.3787L14.1681 18.0609C14.4112 17.9644 14.6778 17.9437 14.9328 18.0015L18.4721 18.8049C18.4792 18.5768 18.6655 18.3952 18.8937 18.3939H21.0176C21.1967 17.8872 21.6749 17.5476 22.2123 17.5454ZM14.676 25.4512L18.3679 24.6027L18.3945 19.6571L14.747 18.8298C14.6586 18.8096 14.5661 18.8168 14.4819 18.8505L11.16 20.1694C10.9205 20.26 10.7609 20.4881 10.7581 20.7442C10.7581 21.0852 11.0513 21.3636 11.4114 21.3636H14.5763C14.8106 21.3636 15.0005 21.5536 15.0005 21.7879C15.0005 22.0222 14.8106 22.2121 14.5763 22.2121H11.4114C10.7679 22.2155 10.1934 21.8096 9.9817 21.2019L3.24683 19.2233C3.1132 19.1824 2.96805 19.208 2.85652 19.2923C2.75635 19.3647 2.69715 19.481 2.69743 19.6046V20.5247C2.69741 20.6587 2.76553 20.7836 2.87827 20.8561L7.52904 23.8656L14.476 25.4512C14.5418 25.4666 14.6102 25.4666 14.676 25.4512ZM20.9395 24.7576H19.2426V19.2424H20.9395V24.7576ZM22.2123 25.6061H26.4548V18.3939H22.2123C21.978 18.3939 21.7881 18.5839 21.7881 18.8182V25.1818C21.7881 25.4161 21.978 25.6061 22.2123 25.6061Z" fill="black"/>
<path d="M22.2123 17.5454V17.3704L22.2116 17.3704L22.2123 17.5454ZM22.2123 26.4546L22.2115 26.6296H22.2123V26.4546ZM21.0181 25.605L21.1831 25.5468L21.142 25.43H21.0181V25.605ZM18.8942 25.605L18.8924 25.78H18.8942V25.605ZM18.5585 25.4279L18.702 25.3276L18.6344 25.2309L18.5194 25.2573L18.5585 25.4279ZM14.8655 26.2764L14.9041 26.4471L14.9047 26.4469L14.8655 26.2764ZM14.2864 26.2764L14.2474 26.447L14.2478 26.4471L14.2864 26.2764ZM7.26941 24.6738L7.23031 24.8444L7.23045 24.8444L7.26941 24.6738ZM7.13312 24.6165L7.03804 24.7634L7.03864 24.7638L7.13312 24.6165ZM2.4203 21.5667L2.51538 21.4198L2.51451 21.4193L2.4203 21.5667ZM1.84863 20.5252H1.67363L1.67363 20.5255L1.84863 20.5252ZM1.84863 19.6051H2.02363L2.02363 19.605L1.84863 19.6051ZM2.34871 18.6124L2.45277 18.7531L2.45365 18.7525L2.34871 18.6124ZM3.48675 18.4088L3.43688 18.5765L3.43749 18.5767L3.48675 18.4088ZM9.97396 20.3115L9.92471 20.4794L10.0895 20.5278L10.1409 20.3639L9.97396 20.3115ZM10.8463 19.3787L10.9098 19.5418L10.9108 19.5414L10.8463 19.3787ZM14.1681 18.0609L14.2327 18.2236L14.2327 18.2235L14.1681 18.0609ZM14.9328 18.0015L14.9716 17.8308L14.9715 17.8308L14.9328 18.0015ZM18.4721 18.8049L18.4334 18.9756L18.6404 19.0226L18.647 18.8104L18.4721 18.8049ZM18.8937 18.3939V18.2189L18.8927 18.2189L18.8937 18.3939ZM21.0176 18.3939V18.5689H21.1413L21.1826 18.4523L21.0176 18.3939ZM18.3679 24.6027L18.4071 24.7733L18.5422 24.7423L18.5429 24.6037L18.3679 24.6027ZM14.676 25.4512L14.6368 25.2807L14.6361 25.2808L14.676 25.4512ZM18.3945 19.6571L18.5695 19.6581L18.5702 19.5175L18.4332 19.4864L18.3945 19.6571ZM14.747 18.8298L14.708 19.0004L14.7083 19.0005L14.747 18.8298ZM14.4819 18.8505L14.5464 19.0132L14.5469 19.013L14.4819 18.8505ZM11.16 20.1694L11.2219 20.3331L11.2246 20.332L11.16 20.1694ZM10.7581 20.7442L10.5831 20.7423V20.7442H10.7581ZM11.4114 22.2121V22.0371L11.4105 22.0371L11.4114 22.2121ZM9.9817 21.2019L10.147 21.1443L10.1174 21.0593L10.031 21.034L9.9817 21.2019ZM3.24683 19.2233L3.19559 19.3907L3.1975 19.3912L3.24683 19.2233ZM2.85652 19.2923L2.95913 19.4341L2.96198 19.4319L2.85652 19.2923ZM2.69743 19.6046H2.87243L2.87243 19.6042L2.69743 19.6046ZM2.69743 20.5247L2.87243 20.5247V20.5247H2.69743ZM2.87827 20.8561L2.97334 20.7092L2.97295 20.709L2.87827 20.8561ZM7.52904 23.8656L7.43397 24.0125L7.45994 24.0293L7.4901 24.0362L7.52904 23.8656ZM14.476 25.4512L14.5159 25.2808L14.515 25.2806L14.476 25.4512ZM19.2426 24.7576H19.0676V24.9326H19.2426V24.7576ZM20.9395 24.7576V24.9326H21.1145V24.7576H20.9395ZM19.2426 19.2424V19.0674H19.0676V19.2424H19.2426ZM20.9395 19.2424H21.1145V19.0674H20.9395V19.2424ZM26.4548 25.6061V25.7811H26.6298V25.6061H26.4548ZM26.4548 18.3939H26.6298V18.2189H26.4548V18.3939ZM26.879 17.3704H22.2123V17.7204H26.879V17.3704ZM27.4783 17.9697C27.4783 17.6387 27.21 17.3704 26.879 17.3704V17.7204C27.0167 17.7204 27.1283 17.832 27.1283 17.9697H27.4783ZM27.4783 26.0303V17.9697H27.1283V26.0303H27.4783ZM26.879 26.6296C27.21 26.6296 27.4783 26.3613 27.4783 26.0303H27.1283C27.1283 26.168 27.0167 26.2796 26.879 26.2796V26.6296ZM22.2123 26.6296H26.879V26.2796H22.2123V26.6296ZM20.853 25.6632C21.0564 26.2399 21.6 26.6266 22.2115 26.6296L22.2132 26.2796C21.7495 26.2774 21.3373 25.9841 21.1831 25.5468L20.853 25.6632ZM18.8942 25.78H21.0181V25.43H18.8942V25.78ZM18.4151 25.5281C18.5242 25.6843 18.702 25.7781 18.8924 25.78L18.896 25.43C18.8186 25.4292 18.7463 25.3911 18.702 25.3276L18.4151 25.5281ZM14.9047 26.4469L18.5977 25.5984L18.5194 25.2573L14.8263 26.1058L14.9047 26.4469ZM14.2478 26.4471C14.4638 26.496 14.6881 26.496 14.9041 26.4471L14.8269 26.1057C14.6617 26.1431 14.4902 26.1431 14.325 26.1057L14.2478 26.4471ZM7.23045 24.8444L14.2474 26.447L14.3254 26.1058L7.30837 24.5032L7.23045 24.8444ZM7.03864 24.7638C7.09741 24.8015 7.16225 24.8288 7.23031 24.8444L7.30851 24.5032C7.27978 24.4966 7.25241 24.4851 7.22761 24.4692L7.03864 24.7638ZM2.32523 21.7137L7.03805 24.7634L7.2282 24.4696L2.51538 21.4198L2.32523 21.7137ZM1.67363 20.5255C1.67441 21.007 1.9203 21.455 2.32609 21.7142L2.51451 21.4193C2.20922 21.2242 2.02422 20.8872 2.02363 20.5249L1.67363 20.5255ZM1.67363 19.6051V20.5252H2.02363V19.6051H1.67363ZM2.24466 18.4717C1.8852 18.7375 1.67328 19.1582 1.67363 19.6053L2.02363 19.605C2.02337 19.269 2.18263 18.9529 2.45276 18.7531L2.24466 18.4717ZM3.53661 18.241C3.09333 18.1093 2.61385 18.1951 2.24377 18.4724L2.45365 18.7525C2.7351 18.5416 3.09976 18.4763 3.43688 18.5765L3.53661 18.241ZM10.0232 20.1436L3.536 18.2409L3.43749 18.5767L9.92471 20.4794L10.0232 20.1436ZM10.7828 19.2156C10.3161 19.3973 9.95707 19.7812 9.807 20.2591L10.1409 20.3639C10.2592 19.9874 10.542 19.685 10.9098 19.5418L10.7828 19.2156ZM14.1036 17.8982L10.7818 19.216L10.9108 19.5414L14.2327 18.2236L14.1036 17.8982ZM14.9715 17.8308C14.682 17.7652 14.3795 17.7887 14.1036 17.8982L14.2327 18.2235C14.443 18.1401 14.6735 18.1222 14.8942 18.1722L14.9715 17.8308ZM18.5108 18.6343L14.9716 17.8308L14.8941 18.1722L18.4334 18.9756L18.5108 18.6343ZM18.8927 18.2189C18.5704 18.2208 18.3073 18.4773 18.2972 18.7994L18.647 18.8104C18.6512 18.6764 18.7606 18.5697 18.8947 18.5689L18.8927 18.2189ZM21.0176 18.2189H18.8937V18.5689H21.0176V18.2189ZM22.2116 17.3704C21.6003 17.3729 21.0564 17.7592 20.8526 18.3356L21.1826 18.4523C21.3371 18.0152 21.7495 17.7223 22.2131 17.7204L22.2116 17.3704ZM18.3287 24.4322L14.6368 25.2807L14.7152 25.6218L18.4071 24.7733L18.3287 24.4322ZM18.2195 19.6562L18.1929 24.6018L18.5429 24.6037L18.5695 19.6581L18.2195 19.6562ZM14.7083 19.0005L18.3557 19.8278L18.4332 19.4864L14.7857 18.6592L14.7083 19.0005ZM14.5469 19.013C14.5981 18.9925 14.6543 18.9881 14.708 19.0004L14.7861 18.6592C14.6629 18.6311 14.5341 18.6411 14.4169 18.688L14.5469 19.013ZM11.2246 20.332L14.5464 19.0132L14.4173 18.6879L11.0955 20.0067L11.2246 20.332ZM10.9331 20.7462C10.9351 20.5622 11.0498 20.3982 11.2219 20.3331L11.0981 20.0057C10.7912 20.1218 10.5868 20.4141 10.5831 20.7423L10.9331 20.7462ZM11.4114 21.1886C11.1391 21.1886 10.9331 20.98 10.9331 20.7442H10.5831C10.5831 21.1905 10.9635 21.5386 11.4114 21.5386V21.1886ZM14.5763 21.1886H11.4114V21.5386H14.5763V21.1886ZM15.1755 21.7879C15.1755 21.4569 14.9072 21.1886 14.5763 21.1886V21.5386C14.7139 21.5386 14.8255 21.6502 14.8255 21.7879H15.1755ZM14.5763 22.3871C14.9072 22.3871 15.1755 22.1188 15.1755 21.7879H14.8255C14.8255 21.9255 14.7139 22.0371 14.5763 22.0371V22.3871ZM11.4114 22.3871H14.5763V22.0371H11.4114V22.3871ZM9.81644 21.2595C10.0527 21.9378 10.694 22.3909 11.4123 22.3871L11.4105 22.0371C10.8418 22.0401 10.334 21.6814 10.147 21.1443L9.81644 21.2595ZM3.1975 19.3912L9.93237 21.3698L10.031 21.034L3.29616 19.0554L3.1975 19.3912ZM2.96198 19.4319C3.02874 19.3815 3.11561 19.3662 3.19559 19.3907L3.29806 19.056C3.11078 18.9987 2.90737 19.0346 2.75107 19.1526L2.96198 19.4319ZM2.87243 19.6042C2.87228 19.5369 2.90453 19.4735 2.95911 19.434L2.75394 19.1505C2.60817 19.256 2.52203 19.4251 2.52243 19.605L2.87243 19.6042ZM2.87243 20.5247V19.6046H2.52243V20.5247H2.87243ZM2.97295 20.709C2.91029 20.6686 2.87242 20.5992 2.87243 20.5247L2.52243 20.5247C2.52239 20.7182 2.62078 20.8986 2.78358 21.0033L2.97295 20.709ZM7.62411 23.7187L2.97334 20.7092L2.78319 21.0031L7.43397 24.0125L7.62411 23.7187ZM14.515 25.2806L7.56798 23.695L7.4901 24.0362L14.4371 25.6218L14.515 25.2806ZM14.6361 25.2808C14.5966 25.2901 14.5554 25.2901 14.5159 25.2808L14.4362 25.6216C14.5282 25.6431 14.6238 25.6431 14.7158 25.6216L14.6361 25.2808ZM19.2426 24.9326H20.9395V24.5826H19.2426V24.9326ZM19.0676 19.2424V24.7576H19.4176V19.2424H19.0676ZM20.9395 19.0674H19.2426V19.4174H20.9395V19.0674ZM21.1145 24.7576V19.2424H20.7645V24.7576H21.1145ZM26.4548 25.4311H22.2123V25.7811H26.4548V25.4311ZM26.2798 18.3939V25.6061H26.6298V18.3939H26.2798ZM22.2123 18.5689H26.4548V18.2189H22.2123V18.5689ZM21.9631 18.8182C21.9631 18.6805 22.0747 18.5689 22.2123 18.5689V18.2189C21.8814 18.2189 21.6131 18.4872 21.6131 18.8182H21.9631ZM21.9631 25.1818V18.8182H21.6131V25.1818H21.9631ZM22.2123 25.4311C22.0747 25.4311 21.9631 25.3195 21.9631 25.1818H21.6131C21.6131 25.5128 21.8814 25.7811 22.2123 25.7811V25.4311Z" fill="black"/>
<ellipse cx="14.5765" cy="27.3031" rx="9.33337" ry="1.69698" fill="#1D1939"/>
<path d="M24.8337 23.9091H23.561C23.3267 23.9091 23.1367 24.099 23.1367 24.3333C23.1367 24.5676 23.3267 24.7576 23.561 24.7576H24.8337C25.068 24.7576 25.2579 24.5676 25.2579 24.3333C25.2579 24.099 25.068 23.9091 24.8337 23.9091Z" fill="black"/>
<path d="M5.22584 12.7992C5.21452 12.7847 5.20002 12.7775 5.1824 12.7775H4.85927C4.83784 12.6442 4.79753 12.5284 4.73832 12.4304H5.17861C5.19627 12.4304 5.21073 12.4232 5.22209 12.4088C5.23337 12.3943 5.23904 12.3758 5.23904 12.3533V12.1074C5.23904 12.0849 5.23338 12.0664 5.22209 12.052C5.21071 12.0375 5.19626 12.0303 5.17859 12.0303H3.60636C3.58872 12.0303 3.57424 12.0375 3.5629 12.052C3.55158 12.0664 3.5459 12.0849 3.5459 12.1074V12.428C3.5459 12.4489 3.55188 12.467 3.56385 12.4822C3.57582 12.4975 3.58999 12.5051 3.60636 12.5051H3.88037C4.14618 12.5051 4.315 12.5959 4.3868 12.7775H3.60636C3.58872 12.7775 3.57422 12.7847 3.5629 12.7992C3.55158 12.8136 3.5459 12.8321 3.5459 12.8546V13.1005C3.5459 13.123 3.55156 13.1415 3.5629 13.1559C3.57424 13.1704 3.58874 13.1776 3.60636 13.1776H4.41329C4.38557 13.3094 4.321 13.4098 4.21957 13.4789C4.11814 13.548 3.98431 13.5826 3.81801 13.5826H3.60636C3.58999 13.5826 3.57582 13.5902 3.56385 13.6055C3.55188 13.6208 3.5459 13.6388 3.5459 13.6597V13.9659C3.5459 13.9868 3.55156 14.0045 3.5629 14.0189C3.80477 14.3467 4.11847 14.8055 4.50397 15.3953C4.51532 15.4146 4.53106 15.4242 4.55122 15.4242H4.9197C4.94619 15.4242 4.96447 15.4098 4.97451 15.3808C4.98711 15.3519 4.98464 15.3246 4.96695 15.2989C4.59913 14.7235 4.30998 14.2929 4.09959 14.0068C4.31376 13.9747 4.48762 13.8863 4.62116 13.7417C4.75469 13.5971 4.83594 13.409 4.86493 13.1776H5.1824C5.20002 13.1776 5.21453 13.1704 5.22584 13.156C5.2372 13.1415 5.24287 13.123 5.24287 13.1005V12.8547C5.24287 12.8321 5.2372 12.8137 5.22584 12.7992Z" fill="black" stroke="black" stroke-width="0.116667"/>
<path d="M26.4368 11.1022C26.4255 11.0878 26.411 11.0806 26.3933 11.0806H26.0702C26.0488 10.9472 26.0085 10.8315 25.9493 10.7335H26.3895C26.4072 10.7335 26.4217 10.7262 26.433 10.7118C26.4443 10.6974 26.45 10.6789 26.45 10.6564V10.4104C26.45 10.3879 26.4443 10.3695 26.433 10.355C26.4217 10.3406 26.4072 10.3333 26.3895 10.3333H24.8173C24.7997 10.3333 24.7852 10.3406 24.7738 10.355C24.7625 10.3695 24.7568 10.3879 24.7568 10.4104V10.731C24.7568 10.7519 24.7628 10.77 24.7748 10.7853C24.7868 10.8005 24.8009 10.8082 24.8173 10.8082H25.0913C25.3571 10.8082 25.5259 10.8989 25.5977 11.0805H24.8173C24.7997 11.0805 24.7852 11.0877 24.7738 11.1022C24.7625 11.1167 24.7568 11.1351 24.7568 11.1577V11.4035C24.7568 11.426 24.7625 11.4445 24.7738 11.4589C24.7852 11.4734 24.7997 11.4806 24.8173 11.4806H25.6242C25.5965 11.6124 25.5319 11.7129 25.4305 11.782C25.3291 11.8511 25.1953 11.8856 25.0289 11.8856H24.8173C24.8009 11.8856 24.7868 11.8933 24.7748 11.9085C24.7628 11.9238 24.7568 11.9419 24.7568 11.9628V12.2689C24.7568 12.2898 24.7625 12.3075 24.7738 12.322C25.0157 12.6498 25.3294 13.1085 25.7149 13.6983C25.7263 13.7176 25.742 13.7273 25.7622 13.7273H26.1306C26.1571 13.7273 26.1754 13.7128 26.1855 13.6839C26.198 13.6549 26.1956 13.6276 26.1779 13.6019C25.8101 13.0266 25.5209 12.5959 25.3105 12.3099C25.5247 12.2777 25.6986 12.1893 25.8321 12.0447C25.9656 11.9001 26.0469 11.7121 26.0759 11.4807H26.3933C26.411 11.4807 26.4255 11.4735 26.4368 11.459C26.4481 11.4446 26.4538 11.4261 26.4538 11.4036V11.1577C26.4538 11.1352 26.4481 11.1167 26.4368 11.1022Z" fill="#1E1F24" stroke="black" stroke-width="0.116667"/>
</svg>
