<svg width="28" height="28" viewBox="0 0 28 28" fill="none" xmlns="http://www.w3.org/2000/svg">
<path d="M6.89057 11.6967L5.63005 12.9961C5.38634 13.2474 5.3924 13.6486 5.64368 13.8924C5.76682 14.0119 5.92594 14.0713 6.08496 14.0713C6.2504 14.0713 6.41571 14.0069 6.53997 13.8788L7.80048 12.5794C8.04419 12.3282 8.03813 11.9269 7.78686 11.6831C7.53559 11.4394 7.13431 11.4455 6.89057 11.6967Z" fill="#FFC322" stroke="#FFC322" stroke-width="0.350001"/>
<path d="M11.3028 12.1062C10.9528 12.1062 10.6689 12.39 10.6689 12.7401V18.3179C10.6689 18.668 10.9527 18.9518 11.3028 18.9518H11.3028C11.6528 18.9518 11.9367 18.668 11.9367 18.3179L11.9366 12.74C11.9366 12.39 11.6528 12.1062 11.3028 12.1062Z" fill="#1E1F24" stroke="#1E1F24" stroke-width="0.350001"/>
<path d="M19.8076 2.72543H17.906C17.556 2.72543 17.2722 3.00922 17.2722 3.35928C17.2722 3.70934 17.556 3.99312 17.906 3.99312H19.5766L14.9224 8.64634C14.7975 8.77123 14.6341 8.84227 14.4725 8.84227C14.4691 8.84227 14.4657 8.84223 14.4623 8.84217C14.3067 8.83925 14.1476 8.7679 14.026 8.64631L13.2808 7.9011C12.916 7.53628 12.4317 7.3248 11.952 7.32086C11.9473 7.32083 11.9427 7.32083 11.9381 7.32083C11.4415 7.32083 10.9457 7.53787 10.5752 7.91778L9.21688 9.28222C8.9699 9.53031 8.97079 9.93162 9.21888 10.1786C9.34253 10.3017 9.50429 10.3633 9.66604 10.3633C9.82872 10.3633 9.9914 10.301 10.1152 10.1766L11.476 8.80969C11.4779 8.80784 11.4797 8.80597 11.4816 8.8041C11.6139 8.66778 11.7864 8.58693 11.9416 8.58849C12.0893 8.58969 12.2549 8.66781 12.3845 8.79746L13.1297 9.54267C13.4862 9.89917 13.9511 10.1005 14.4387 10.1096C14.9458 10.1191 15.4492 9.91244 15.8189 9.54273L20.4414 4.92111V6.49681C20.4414 6.84687 20.7252 7.13065 21.0752 7.13065C21.4253 7.13065 21.7091 6.84687 21.7091 6.49681V4.62697C21.7091 3.57848 20.8561 2.72543 19.8076 2.72543Z" fill="#00C5B3" stroke="#00C5B3" stroke-width="0.350001"/>
<path d="M7.32253 14.9587C6.97164 14.9575 6.68652 15.2416 6.68652 15.5926V18.3181C6.68652 18.6681 6.97031 18.9519 7.32037 18.9519H7.3204C7.67046 18.9519 7.95424 18.6681 7.95424 18.3181V15.5926C7.95421 15.2433 7.67179 14.9599 7.32253 14.9587Z" fill="#1E1F24" stroke="#1E1F24" stroke-width="0.350001"/>
<path d="M19.7754 8.14481C19.4254 8.14481 19.1416 8.42859 19.1416 8.77865V18.318C19.1416 18.6681 19.4254 18.9519 19.7754 18.9519H19.7755C20.1255 18.9519 20.4093 18.6681 20.4093 18.318V8.77865C20.4093 8.42856 20.1255 8.14481 19.7754 8.14481Z" fill="#1E1F24" stroke="#1E1F24" stroke-width="0.350001"/>
<path d="M15.5079 11.5042C15.1578 11.5042 14.874 11.788 14.874 12.1381V18.318C14.874 18.6681 15.1578 18.9519 15.5079 18.9519H15.5079C15.8579 18.9519 16.1417 18.6681 16.1417 18.318V12.1381C16.1417 11.788 15.858 11.5042 15.5079 11.5042Z" fill="#1E1F24" stroke="#1E1F24" stroke-width="0.350001"/>
<path d="M21.7079 22.6089H20.9418L20.8406 23.368L20.8406 23.3681L20.8405 23.3682L20.8405 23.3682L20.8403 23.3697L20.8393 23.3775L20.8345 23.4114C20.8302 23.4418 20.8236 23.4874 20.8146 23.5461C20.7967 23.6636 20.7697 23.8328 20.7335 24.0364C20.6607 24.4456 20.5528 24.9841 20.4108 25.5165C20.2658 26.0601 20.0981 26.5481 19.9197 26.8826C19.8805 26.9561 19.8453 27.0135 19.8151 27.0577C19.814 27.057 19.8129 27.0563 19.8118 27.0557C19.6695 26.9703 19.4859 26.8318 19.2666 26.6383C18.8299 26.2529 18.3325 25.7223 17.8529 25.1689C17.3771 24.6199 16.9357 24.0683 16.6122 23.6523C16.4508 23.4448 16.3196 23.2722 16.2291 23.1519C16.1839 23.0917 16.1489 23.0448 16.1254 23.0131L16.099 22.9774L16.0926 22.9688L16.0911 22.9668L16.0909 22.9664L16.0908 22.9664L16.0908 22.9664L15.8287 22.6089H15.3853H5.60028C3.50619 22.6089 1.8086 20.9113 1.8086 18.8172V4.66662C1.8086 2.57254 3.50619 0.874942 5.60028 0.874942H22.4606C24.5546 0.874942 26.2522 2.57253 26.2522 4.66662V18.8172C26.2522 20.9113 24.5546 22.6089 22.4605 22.6089H21.7079Z" stroke="#1E1F24" stroke-width="1.75001"/>
</svg>
