<svg width="24" height="24" viewBox="0 0 24 24" fill="none" xmlns="http://www.w3.org/2000/svg">
<g id="Logo" clip-path="url(#clip0_1723_3936)">
<path id="Union" fill-rule="evenodd" clip-rule="evenodd" d="M4.25809 18.3301C4.60793 18.7574 4.61235 19.3877 4.22183 19.7782C3.83131 20.1687 3.19455 20.1713 2.83789 19.7496C2.53209 19.3881 2.2488 19.0097 1.98911 18.6168C0.991101 17.1069 0.341649 15.3815 0.102679 13.5663C-0.242121 10.9473 0.286907 8.28772 1.60771 6.00001C2.92852 3.71231 4.96729 1.92435 7.40781 0.913451C9.09927 0.212826 10.9182 -0.0874087 12.7249 0.0219046C13.1953 0.0503671 13.6649 0.106595 14.1312 0.19075C14.6742 0.28875 14.9901 0.840955 14.8473 1.37393C14.7045 1.90666 14.1574 2.21769 13.6129 2.1294C13.0879 2.04425 12.5491 1.99999 12 1.99999C10.4631 1.99999 9.00718 2.34669 7.7062 2.96614C7.30755 3.15596 7.17857 3.64913 7.39934 4.03151C7.62025 4.41414 8.10884 4.54246 8.51074 4.35894C8.93365 4.16582 9.37341 4.00744 9.82584 3.88621C10.5963 3.67976 11.3889 3.58499 12.1796 3.60191C12.5192 3.60918 12.8584 3.63704 13.1954 3.6855C13.7418 3.76406 14.0582 4.31846 13.9153 4.85167C13.7725 5.38464 13.2243 5.69279 12.6755 5.63522C12.4535 5.61193 12.2281 5.59999 12 5.59999C10.2326 5.59999 8.63261 6.31633 7.47443 7.4745C7.41768 7.53126 7.36206 7.58902 7.3076 7.64773C6.24788 8.78972 5.59995 10.3192 5.59995 12C5.59995 12.2282 5.6119 12.4536 5.63519 12.6756C5.69277 13.2244 5.38464 13.7725 4.85171 13.9153C4.31847 14.0582 3.76408 13.7418 3.6855 13.1954C3.63702 12.8583 3.6091 12.519 3.60184 12.1797C3.58492 11.389 3.67969 10.5964 3.88614 9.82591C4.19856 8.65994 4.75774 7.5781 5.52232 6.65203C5.80361 6.31132 5.80697 5.80702 5.49456 5.4946C5.18215 5.18219 4.67288 5.18024 4.38627 5.51649C2.89818 7.26229 1.99995 9.52625 1.99995 12C1.99995 14.4019 2.84675 16.606 4.25809 18.3301ZM17.5002 2.47346C17.2243 2.95125 17.3913 3.55829 17.8389 3.88077C19.4198 5.01967 20.6546 6.6089 21.3555 8.46056C21.5508 8.97652 22.0938 9.2954 22.6267 9.15261C23.1593 9.00989 23.4794 8.46054 23.2929 7.94158C23.1325 7.49505 22.9463 7.06011 22.7358 6.63871C22.0499 5.26524 21.1064 4.03566 19.9573 3.01763C19.6052 2.70569 19.2334 2.41344 18.844 2.14303C18.3904 1.82817 17.7762 1.99533 17.5002 2.47346ZM23 12C23.5523 12 24.0043 12.4485 23.9584 12.9989C23.919 13.4703 23.8519 13.9381 23.7576 14.4C23.5003 15.6606 23.0408 16.8768 22.3923 18C21.3391 19.8243 19.8242 21.3391 18 22.3923C16.1758 23.4456 14.1065 24 12 24C10.703 24 9.42003 23.7898 8.1997 23.3824C7.75214 23.2329 7.313 23.057 6.88469 22.8551C6.38575 22.62 6.22358 22.0051 6.49937 21.5274C6.77533 21.0494 7.38503 20.891 7.88803 21.1182C8.91204 21.5807 10.0279 21.8758 11.2007 21.9685C11.6411 22.0033 11.9999 21.6418 11.9999 21.2C11.9999 20.7582 11.6409 20.4039 11.2011 20.3619C10.0057 20.2477 8.84529 19.8782 7.79992 19.2746C7.10911 18.8758 6.48168 18.3824 5.93451 17.8113C5.69963 17.5661 5.47955 17.3066 5.27558 17.0342C4.94461 16.5921 5.11302 15.9761 5.59129 15.7C6.06924 15.4241 6.6749 15.5938 7.02206 16.0228C8.18405 17.4589 9.95488 18.3821 11.9419 18.3997L11.9732 18.3999L12 18.4C14.0106 18.4 15.8046 17.4728 16.9779 16.0227C17.325 15.5938 17.9306 15.4241 18.4085 15.7C18.8867 15.9761 19.055 16.5921 18.7241 17.0342C18.52 17.3068 18.2999 17.5664 18.0653 17.8113C17.5182 18.3824 16.8907 18.8758 16.1999 19.2746C15.7943 19.5088 15.3713 19.7078 14.9357 19.8702C14.5218 20.0247 14.2671 20.4612 14.3815 20.8879C14.4958 21.3145 14.936 21.5723 15.3521 21.4243C18.9258 20.1531 21.5631 16.9068 21.9507 12.9988C22.0052 12.4493 22.4477 12 23 12ZM18.4 12C18.4 11.1895 18.2493 10.4142 17.9745 9.70055C17.776 9.18535 17.9313 8.57553 18.4094 8.29948C18.8872 8.02362 19.5043 8.1856 19.7215 8.69275C19.8559 9.0065 19.9706 9.32715 20.0653 9.65281C20.3041 10.4732 20.4163 11.3255 20.398 12.1797C20.3908 12.5186 20.363 12.8579 20.3144 13.1955C20.2359 13.7419 19.6814 14.0582 19.1482 13.9154C18.6153 13.7726 18.3071 13.2244 18.3647 12.6756C18.388 12.4536 18.4 12.2282 18.4 12ZM15.6192 5.73126C15.3879 6.1319 15.5302 6.64088 15.8969 6.92283C16.264 7.20495 16.7908 7.20913 17.1181 6.88179L17.3001 6.69976C17.6476 6.3523 17.6323 5.78442 17.2666 5.45617C17.2226 5.42069 17.1781 5.38565 17.1333 5.35106C17.0783 5.30857 17.0227 5.26677 16.9667 5.22566C16.5501 4.95388 15.9908 5.08752 15.7422 5.51823L15.6192 5.73126ZM16.7999 12C16.7999 14.651 14.6509 16.8 11.9999 16.8C9.34898 16.8 7.19995 14.651 7.19995 12C7.19995 9.34902 9.34898 7.19999 11.9999 7.19999C14.6509 7.19999 16.7999 9.34902 16.7999 12ZM13.4237 10.7967C13.5279 10.7967 13.6036 10.8956 13.5764 10.9962L13.5077 11.2506C13.4828 11.3427 13.3993 11.4066 13.304 11.4066H12.9721C12.95 11.5566 12.9112 11.695 12.8556 11.822C12.7655 12.0308 12.6194 12.2011 12.4172 12.333C12.215 12.4648 11.9491 12.5527 11.6194 12.5967L12.3562 13.4753L12.7246 13.9146L12.9088 14.1342L13.0009 14.244C13.0526 14.3059 13.0086 14.4 12.928 14.4H12.1853C12.1233 14.4 12.0644 14.3727 12.0243 14.3254L10.5613 12.5982C10.4973 12.5227 10.4619 12.4271 10.4613 12.3281L10.4603 12.1661C10.4595 12.0491 10.5542 11.9538 10.6713 11.9538H11.2436C11.4348 11.9538 11.5919 11.9187 11.715 11.8483C11.8403 11.7758 11.9337 11.678 11.9952 11.5549C12.0196 11.5077 12.0394 11.4583 12.0545 11.4066H10.6437C10.5043 11.4066 10.4032 11.2739 10.4403 11.1395L10.4921 10.9516C10.5173 10.8601 10.6005 10.7967 10.6955 10.7967H12.0381C12.0285 10.7683 12.0175 10.7409 12.0051 10.7143C11.948 10.589 11.8567 10.4912 11.7315 10.4209C11.6062 10.3505 11.4403 10.3154 11.2337 10.3154H10.6435C10.5052 10.3154 10.4043 10.1845 10.4394 10.0508L10.5165 9.75738C10.5409 9.66464 10.6247 9.59999 10.7206 9.59999H11.0853H13.3566C13.496 9.59999 13.5971 9.7327 13.56 9.86705L13.5082 10.055C13.483 10.1465 13.3998 10.2099 13.3048 10.2099H12.7463C12.7639 10.2355 12.7806 10.2618 12.7963 10.289C12.8846 10.4376 12.9433 10.6068 12.9725 10.7967H13.4237Z" fill="white"/>
</g>
<defs>
<clipPath id="clip0_1723_3936">
<rect width="24" height="24" fill="white"/>
</clipPath>
</defs>
</svg>
