<svg width="20" height="20" viewBox="0 0 20 20" fill="none" xmlns="http://www.w3.org/2000/svg">
<g id="Lucide Icon" clip-path="url(#clip0_1167_2799)">
<path id="Vector" d="M2.46112 5.29299C2.31713 5.78628 2.26605 6.30035 2.30873 6.80926C1.91692 7.13862 1.58786 7.53841 1.33945 7.9896C1.00039 8.60543 0.822593 9.297 0.822593 10C0.822593 10.703 1.00039 11.3946 1.33945 12.0104C1.58786 12.4616 1.91692 12.8614 2.30873 13.1907C2.26605 13.6996 2.31713 14.2137 2.46112 14.707L3.24881 14.4771L2.46112 14.707C2.65776 15.3807 3.02133 15.9939 3.51811 16.4896C4.0149 16.9854 4.62881 17.3476 5.30293 17.5429C5.79657 17.6858 6.31078 17.7358 6.81964 17.6921C7.14889 18.0819 7.54799 18.4093 7.99806 18.6564C8.61284 18.9939 9.30286 19.1709 10.0042 19.1709C10.7056 19.1709 11.3956 18.9939 12.0103 18.6564C12.4608 18.4091 12.8601 18.0814 13.1895 17.6912C13.6988 17.7341 14.2133 17.683 14.707 17.5389C15.3808 17.3423 15.9939 16.9787 16.4897 16.4819C16.9854 15.9851 17.3477 15.3712 17.5429 14.6971C17.686 14.2031 17.736 13.6884 17.692 13.1791C18.0803 12.8499 18.4062 12.4512 18.6522 12.0019C18.9882 11.3882 19.1644 10.6997 19.1644 10C19.1644 9.30029 18.9882 8.61184 18.6522 7.99811C18.4062 7.54891 18.0804 7.15031 17.6923 6.82109C17.7366 6.31081 17.6866 5.79507 17.5431 5.30004C17.3474 4.62484 16.9841 4.01011 16.487 3.51303C15.9899 3.01594 15.3752 2.65265 14.7 2.45694C14.205 2.31345 13.6892 2.26347 13.1789 2.30778C12.8497 1.91962 12.4511 1.5938 12.0019 1.34784C11.3882 1.01179 10.6997 0.835654 10 0.835654C9.30033 0.835654 8.61188 1.01179 7.99815 1.34784C7.54885 1.59385 7.15018 1.91976 6.82092 2.30803C6.31164 2.26407 5.79698 2.31404 5.30293 2.45712C4.62881 2.65235 4.0149 3.01464 3.51811 3.51038C3.02133 4.00613 2.65776 4.61928 2.46112 5.29299Z" stroke="#393939" stroke-width="1.67" stroke-linecap="round" stroke-linejoin="round"/>
<path id="Vector_2" d="M7.57495 7.5C7.77087 6.94306 8.15758 6.47342 8.66658 6.17428C9.17558 5.87513 9.77403 5.76578 10.3559 5.86559C10.9378 5.9654 11.4656 6.26794 11.8458 6.71961C12.2261 7.17128 12.4342 7.74293 12.4333 8.33333C12.4333 10 9.93328 10.8333 9.93328 10.8333" stroke="#393939" stroke-width="1.67" stroke-linecap="round" stroke-linejoin="round"/>
<path id="Vector_3" d="M10 14.1667H10.0083" stroke="#393939" stroke-width="1.67" stroke-linecap="round" stroke-linejoin="round"/>
</g>
<defs>
<clipPath id="clip0_1167_2799">
<rect width="20" height="20" fill="white"/>
</clipPath>
</defs>
</svg>
