<svg width="14" height="14" viewBox="0 0 14 14" fill="none" xmlns="http://www.w3.org/2000/svg">
<g id="whatsapp">
<path id="Vector" d="M0.333313 13.6666L1.27054 10.2427C0.692202 9.24047 0.388313 8.10436 0.388869 6.93936C0.390535 3.29714 3.35442 0.333252 6.99609 0.333252C8.76331 0.333808 10.4222 1.02214 11.67 2.27103C12.9172 3.51992 13.6039 5.17992 13.6033 6.94547C13.6016 10.5883 10.6378 13.5521 6.99609 13.5521C5.89054 13.5516 4.80109 13.2744 3.83609 12.7477L0.333313 13.6666ZM3.99831 11.5516C4.92942 12.1044 5.81831 12.4355 6.99387 12.436C10.0205 12.436 12.4861 9.9727 12.4878 6.94436C12.4889 3.90992 10.035 1.44992 6.99831 1.44881C3.96942 1.44881 1.50554 3.91214 1.50442 6.93992C1.50387 8.17603 1.86609 9.10158 2.47442 10.0699L1.91942 12.0966L3.99831 11.5516ZM10.3244 8.51603C10.2833 8.44714 10.1733 8.40603 10.0078 8.32325C9.84276 8.24047 9.03109 7.84103 8.87942 7.78603C8.72831 7.73103 8.61831 7.70325 8.50776 7.86881C8.39776 8.03381 8.08109 8.40603 7.98498 8.51603C7.88887 8.62603 7.7922 8.63992 7.6272 8.55714C7.4622 8.47436 6.92998 8.30047 6.29942 7.7377C5.80887 7.29992 5.4772 6.75936 5.38109 6.59381C5.28498 6.42881 5.37109 6.33936 5.45331 6.25714C5.52776 6.18325 5.61831 6.06436 5.70109 5.9677C5.78498 5.87214 5.8122 5.80325 5.86776 5.6927C5.92276 5.5827 5.89554 5.48603 5.85387 5.40325C5.8122 5.32103 5.4822 4.50825 5.34498 4.1777C5.21054 3.85603 5.07442 3.89936 4.97331 3.89436L4.65665 3.88881C4.54665 3.88881 4.36776 3.92992 4.21665 4.09547C4.06554 4.26103 3.63887 4.65992 3.63887 5.4727C3.63887 6.28547 4.23054 7.07047 4.31276 7.18047C4.39553 7.29047 5.47665 8.95825 7.13276 9.67325C7.52665 9.84325 7.83442 9.94492 8.07387 10.021C8.46942 10.1466 8.82942 10.1288 9.11387 10.0866C9.43109 10.0394 10.0905 9.68714 10.2283 9.30158C10.3661 8.91547 10.3661 8.58492 10.3244 8.51603Z" fill="#C6C6C6"/>
</g>
</svg>
