<svg width="14" height="14" viewBox="0 0 14 14" fill="none" xmlns="http://www.w3.org/2000/svg">
<g id="whatsapp">
<path id="Vector" d="M0.333374 13.6666L1.2706 10.2427C0.692263 9.24047 0.388374 8.10436 0.38893 6.93936C0.390596 3.29714 3.35449 0.333252 6.99615 0.333252C8.76337 0.333808 10.4223 1.02214 11.67 2.27103C12.9173 3.51992 13.6039 5.17992 13.6034 6.94547C13.6017 10.5883 10.6378 13.5521 6.99615 13.5521C5.8906 13.5516 4.80115 13.2744 3.83615 12.7477L0.333374 13.6666ZM3.99837 11.5516C4.92949 12.1044 5.81837 12.4355 6.99393 12.436C10.0206 12.436 12.4862 9.9727 12.4878 6.94436C12.4889 3.90992 10.035 1.44992 6.99837 1.44881C3.96949 1.44881 1.5056 3.91214 1.50449 6.93992C1.50393 8.17603 1.86615 9.10158 2.47449 10.0699L1.91949 12.0966L3.99837 11.5516ZM10.3245 8.51603C10.2834 8.44714 10.1734 8.40603 10.0078 8.32325C9.84282 8.24047 9.03115 7.84103 8.87949 7.78603C8.72837 7.73103 8.61837 7.70325 8.50782 7.86881C8.39782 8.03381 8.08115 8.40603 7.98504 8.51603C7.88893 8.62603 7.79226 8.63992 7.62726 8.55714C7.46226 8.47436 6.93004 8.30047 6.29949 7.7377C5.80893 7.29992 5.47726 6.75936 5.38115 6.59381C5.28504 6.42881 5.37115 6.33936 5.45337 6.25714C5.52782 6.18325 5.61837 6.06436 5.70115 5.9677C5.78504 5.87214 5.81226 5.80325 5.86782 5.6927C5.92282 5.5827 5.8956 5.48603 5.85393 5.40325C5.81226 5.32103 5.48226 4.50825 5.34504 4.1777C5.2106 3.85603 5.07449 3.89936 4.97337 3.89436L4.65671 3.88881C4.54671 3.88881 4.36782 3.92992 4.21671 4.09547C4.0656 4.26103 3.63893 4.65992 3.63893 5.4727C3.63893 6.28547 4.2306 7.07047 4.31282 7.18047C4.3956 7.29047 5.47671 8.95825 7.13282 9.67325C7.52671 9.84325 7.83449 9.94492 8.07393 10.021C8.46949 10.1466 8.82949 10.1288 9.11393 10.0866C9.43115 10.0394 10.0906 9.68714 10.2284 9.30158C10.3662 8.91547 10.3662 8.58492 10.3245 8.51603Z" fill="#393939"/>
</g>
</svg>
