<svg width="20" height="20" viewBox="0 0 20 20" fill="none" xmlns="http://www.w3.org/2000/svg">
<path fill-rule="evenodd" clip-rule="evenodd" d="M4.91311 10.3958H7.01785L5.96448 7.8913L4.91311 10.3958Z" fill="#F47920"/>
<path fill-rule="evenodd" clip-rule="evenodd" d="M16.9498 10.2658C16.9498 12.5645 15.6586 13.6918 13.6218 13.6918C11.585 13.6918 10.3358 12.5525 10.3358 10.3198V6.75195C10.3358 6.28623 10.7056 5.91645 11.1713 5.91645C11.637 5.91645 12.0048 6.28623 12.0048 6.75195V10.2758C12.0048 11.5131 12.6224 12.1527 13.6418 12.1527C14.6612 12.1527 15.2788 11.5351 15.2788 10.3298V6.75195C15.2788 6.28623 15.6466 5.91645 16.1143 5.91645C16.5821 5.91645 16.9498 6.28623 16.9498 6.75195V10.2658ZM8.94863 13.6378C8.55887 13.6378 8.29702 13.41 8.14511 13.0622L7.63542 11.8689H4.29542L3.76374 13.1161C3.62183 13.4419 3.34 13.6358 2.9942 13.6358C2.56046 13.6358 2.22467 13.288 2.22467 12.8543C2.22467 12.7364 2.26864 12.6164 2.32261 12.4965L4.96702 6.52209C5.15091 6.10834 5.48671 5.86048 5.94244 5.86048H6.04038C6.4961 5.86048 6.82191 6.11033 7.0058 6.52209L9.65221 12.4965C9.70618 12.6164 9.74016 12.7244 9.74016 12.8323C9.74016 13.278 9.39237 13.6358 8.94863 13.6358V13.6378ZM10 0C4.47731 0 0 4.47731 0 10C0 15.5227 4.47731 20 10 20C15.5227 20 20 15.5227 20 10C20 4.47731 15.5207 0 9.998 0H10Z" fill="#F47920"/>
</svg>
