<svg width="20" height="20" viewBox="0 0 20 20" fill="none" xmlns="http://www.w3.org/2000/svg">
<path fill-rule="evenodd" clip-rule="evenodd" d="M10 3.12466e-05C15.5225 3.12466e-05 20 4.47691 20 10C20 15.5226 15.5225 20 10 20C4.47688 20 0 15.5226 0 10C0 4.47691 4.47688 3.12466e-05 10 3.12466e-05Z" fill="white"/>
<path fill-rule="evenodd" clip-rule="evenodd" d="M17.8088 3.78034C19.1867 5.47639 20 7.66696 20 9.99881C20 12.3663 19.1867 14.5224 17.8088 16.2179V15.759C19.0104 14.1336 19.7168 12.1549 19.7168 9.99881C19.7168 7.84386 19.0104 5.86523 17.8088 4.23982V3.78034ZM17.8088 13.4972L17.9151 13.5678L18.2333 13.3921L17.8088 13.2152V13.4972ZM17.8088 12.6494C18.0914 12.6845 18.4802 12.4019 18.5153 11.978L18.2683 12.0131C18.162 12.2606 18.0208 12.4375 17.8088 12.3663V12.6494ZM17.8088 11.7655L17.8444 11.7305L17.9151 11.8362L18.162 11.6242C17.8088 11.0941 17.8444 10.6352 18.0558 10.6002C18.3039 10.5645 18.4802 10.9534 18.4446 11.3416L18.7278 11.1653C18.6215 10.7058 18.3746 10.4233 18.0208 10.4233C17.9501 10.4233 17.8795 10.4583 17.8088 10.4945V11.7655ZM17.8088 9.99881H18.6215L18.7984 9.71681H17.8088V9.99881ZM17.8088 8.83347H18.3389L18.4802 8.51527L17.8088 8.5503V8.83347ZM17.8088 8.16147H18.3389L18.4802 7.87889H17.8088V8.16147ZM16.1834 2.15493C16.7842 2.64944 17.3143 3.17957 17.8088 3.78034V4.23982C17.3493 3.60343 16.7842 3.03828 16.1834 2.54318V2.15493ZM17.8088 16.2179C17.3143 16.8186 16.7842 17.3844 16.1834 17.8439V17.4901C16.7842 16.9599 17.3493 16.3948 17.8088 15.759V16.2179ZM17.8088 7.87889V8.16147H17.1724L17.3493 7.87889H17.8088ZM17.8088 8.5503V8.83347H17.1374L17.3493 8.5503H17.8088ZM17.8088 9.71681V9.99881H17.4556C17.4556 10.282 17.42 10.5645 17.385 10.8121H17.6319C17.6319 10.6708 17.7026 10.5646 17.8088 10.4945V11.7655C17.6319 12.0487 17.5969 12.2606 17.7732 12.3663H17.8088V12.6494C17.6675 12.6138 17.5613 12.5432 17.4912 12.3663C17.3493 12.0487 17.4912 11.6949 17.7382 11.3773L17.6675 11.0941H17.3493C17.2787 11.6949 17.1024 12.2606 16.8904 12.8263L17.8088 13.2152V13.4972L16.7842 13.0739C16.7141 13.2152 16.6429 13.3921 16.5366 13.5328C16.9961 13.4265 17.7026 13.6385 17.5262 14.4161C17.4556 14.7694 17.0311 15.0525 16.7492 14.9112C16.3247 14.7343 16.3603 14.2748 16.7842 13.9917C16.8192 14.0629 16.8554 14.1336 16.9249 14.2042C16.6429 14.4161 16.6073 14.7343 16.8904 14.6631C17.1024 14.6281 17.4556 14.2042 17.0311 13.8154C16.8904 13.6741 16.6073 13.7091 16.3953 13.7803C16.3247 13.9216 16.2541 14.0273 16.1834 14.1336V13.851C16.8904 12.7201 17.2787 11.4123 17.2437 9.99881C17.2437 9.82249 17.2437 9.64617 17.2081 9.43365H17.42C17.42 9.53991 17.42 9.64617 17.42 9.71681H17.8088ZM16.1834 16.8186H16.3597V16.5711H16.1834V16.8186ZM16.1834 15.5815V15.1582C16.2897 15.1582 16.3953 15.2288 16.3953 15.3695C16.3953 15.4758 16.2897 15.5815 16.1834 15.5815ZM16.1834 12.1549C16.431 11.4835 16.5366 10.7409 16.5366 9.99881C16.5366 9.25733 16.431 8.51527 16.1834 7.84386V9.0454C16.2184 9.36359 16.2541 9.6812 16.2541 9.99881C16.2541 10.317 16.2184 10.6708 16.1834 10.9534V12.1549ZM16.1834 7.31373V7.03115C16.2184 7.24309 16.431 7.31373 16.8192 7.31373V7.45502C16.5366 7.49064 16.3247 7.41999 16.1834 7.31373ZM16.1834 6.9249V6.14781L16.9605 4.80497L16.1834 4.94626V4.76994L17.5969 4.5224L16.3247 6.57167C16.2541 6.71355 16.1834 6.81922 16.1834 6.9249ZM16.1834 3.49717L16.3953 3.07331C16.3247 3.10892 16.2541 3.14395 16.1834 3.14395V3.49717ZM13.9578 0.812098C14.7343 1.16532 15.5126 1.6248 16.1834 2.15493V2.54318C15.5126 1.97802 14.7343 1.51913 13.9578 1.13029V0.812098ZM16.1834 17.8439C15.5126 18.3734 14.7343 18.8329 13.9578 19.1861V18.8685C14.7343 18.5147 15.5126 18.0202 16.1834 17.4901V17.8439ZM16.1834 3.14395V3.49717L15.5126 4.87562L16.1834 4.76994V4.94626L15.0175 5.12258L15.7946 3.46214C15.2645 3.74472 14.558 4.0273 13.9578 4.06291V3.88601C14.6643 3.85098 15.477 3.46214 16.1834 3.14395ZM16.1834 6.14781V6.9249C16.1834 6.96051 16.1834 6.99554 16.1834 7.03115V7.31373C15.9014 7.1018 15.8302 6.74799 16.0071 6.43038L16.1834 6.14781ZM16.1834 7.84386C15.7595 6.60729 14.9468 5.54703 13.9578 4.80497V5.1582C15.1237 6.11219 15.9359 7.49064 16.1834 9.0454V7.84386ZM16.1834 10.9534V12.1549C15.7595 13.3921 14.9468 14.4512 13.9578 15.2288V14.84C15.1237 13.886 15.9359 12.5076 16.1834 10.9534ZM16.1834 13.851C15.6183 14.7343 14.8406 15.5114 13.9578 16.0766V16.2885C14.3811 16.0415 14.7705 15.7239 15.1237 15.4052L15.3001 15.6527C14.7705 15.8652 14.4874 16.2885 14.7705 16.5361C14.9112 16.6423 15.3357 16.4654 15.5126 16.2885C15.6889 16.0766 15.9014 16.1828 15.7595 16.3948C15.6183 16.6073 15.4063 16.713 15.1237 16.7836V16.9243L15.5126 16.8543L15.4063 17.1018L15.6183 17.1368L15.7239 16.8893L16.1834 16.8186V16.5711H15.9359C16.1484 16.3241 16.2184 16.0415 15.9709 15.8997C15.7239 15.7239 15.5126 15.9709 15.3001 16.1828C15.0531 16.4298 14.9112 16.1472 15.0881 16.0415C15.2645 15.8997 15.477 15.759 15.6539 15.6177L15.3357 15.1932C15.6539 14.8756 15.9359 14.5224 16.1834 14.1336V13.851ZM16.1834 15.1582C16.0421 15.1582 15.9709 15.2288 15.9709 15.3695C15.9709 15.4758 16.0421 15.5815 16.1834 15.5815V15.1582ZM13.9578 17.2069L14.1698 17.667H14.4874L13.9578 16.6073V17.2069ZM13.9578 13.4972V13.2502H14.523V7.03115H13.9578V6.74799H14.7705V13.4972H13.9578ZM13.9578 12.7201C14.0635 12.6138 14.1341 12.4731 14.1341 12.3312C14.1341 12.1894 14.0635 12.0487 13.9578 11.978V12.7201ZM13.9578 11.8718C13.9923 11.8362 14.0635 11.7305 14.0635 11.5892C14.0635 11.4835 14.0285 11.3773 13.9578 11.2716V11.8718ZM13.9578 10.317V8.26831H14.0635L14.2398 8.62095H13.9923V10.3526L13.9578 10.317ZM13.9578 8.05579V7.59631C14.0635 7.59631 14.1698 7.70257 14.1698 7.84386C14.1698 7.94953 14.0635 8.05579 13.9578 8.05579ZM13.357 0.600165C13.534 0.670809 13.7453 0.741453 13.9578 0.812098V1.13029C13.7453 1.05964 13.534 0.988418 13.357 0.883327V0.600165ZM13.9578 19.1861C13.7453 19.2573 13.534 19.3274 13.357 19.4337V19.1155C13.534 19.0454 13.7453 18.9391 13.9578 18.8685V19.1861ZM13.9578 3.88601V4.06291C13.7097 4.06291 13.534 4.06292 13.357 3.99227V3.81595C13.534 3.88601 13.7453 3.88601 13.9578 3.88601ZM13.9578 4.80497V5.1582C13.7453 5.01691 13.569 4.87562 13.357 4.73433V4.38111C13.534 4.5224 13.7453 4.62807 13.9578 4.80497ZM13.357 6.74799H13.9578V7.03115H13.357V6.74799ZM13.9578 7.59631V8.05579C13.8159 8.05579 13.7097 7.94953 13.7097 7.84386C13.7097 7.70257 13.8159 7.59631 13.9578 7.59631ZM13.9578 8.26831H13.8516C13.639 8.09141 13.534 7.84386 13.357 7.63193V7.91392C13.4277 8.02076 13.534 8.16147 13.639 8.26831H13.534C13.4627 8.19708 13.3921 8.16147 13.357 8.09141V8.65656H13.639V9.08043C13.569 8.97475 13.4627 8.90411 13.357 8.8685V9.08043C13.4627 9.08043 13.569 9.11604 13.604 9.18669C13.604 9.18669 13.604 9.18669 13.639 9.18669V9.36359C13.604 9.39862 13.534 9.46927 13.4627 9.5043L13.357 9.32798V9.82249C13.4627 9.78688 13.569 9.71682 13.639 9.64617V10.1407L13.9578 10.317V8.26831ZM13.9578 11.2716V11.8718C13.9222 11.9074 13.8866 11.9074 13.8516 11.9424C13.8866 11.9424 13.9222 11.9424 13.9578 11.978V12.7201C13.8516 12.8263 13.7453 12.8614 13.4277 12.8614H13.357V12.5788H13.4983C13.6752 12.5788 13.7453 12.4731 13.7453 12.2962C13.7453 12.1549 13.639 12.0837 13.4983 12.0837H13.357V11.8011H13.4627C13.604 11.8011 13.7097 11.7655 13.7097 11.6242C13.7097 11.4835 13.604 11.4479 13.4627 11.4479H13.357V11.1297H13.534C13.7453 11.1297 13.8516 11.2004 13.9578 11.2716ZM13.357 13.2502H13.9578V13.4972H13.357V13.2502ZM13.9578 14.84V15.2288C13.7453 15.3695 13.534 15.5114 13.357 15.6177V15.2645C13.569 15.1582 13.7453 15.0169 13.9578 14.84ZM13.9578 16.0766V16.2885C13.8866 16.3241 13.8516 16.3597 13.8159 16.3597L13.9578 16.6073V17.2069L13.8516 17.0662L13.357 17.3137V17.0312L13.7453 16.8186L13.569 16.5361C13.4983 16.5711 13.4277 16.6073 13.357 16.6423V16.4298C13.534 16.3241 13.7453 16.2179 13.9578 16.0766ZM13.2158 0.529519C13.2508 0.565133 13.2858 0.565134 13.357 0.600165V0.883327C13.2858 0.883327 13.2508 0.883327 13.2158 0.847712V0.529519ZM13.357 19.4337C13.2858 19.4337 13.2508 19.4337 13.2158 19.4687V19.1511C13.2508 19.1511 13.2858 19.1155 13.357 19.1155V19.4337ZM13.357 3.81595V3.99227C13.2858 3.99227 13.2508 3.95666 13.2158 3.95666V3.78034C13.2508 3.78034 13.2858 3.81595 13.357 3.81595ZM13.357 4.38111V4.73433C13.3214 4.69872 13.2508 4.66369 13.2158 4.66369V4.31046C13.2508 4.34549 13.2858 4.34549 13.357 4.38111ZM13.2158 6.74799H13.357V7.03115H13.2158V6.74799ZM13.357 7.63193V7.91392C13.3214 7.84386 13.2508 7.80883 13.2158 7.77321V7.52567C13.2508 7.56128 13.3214 7.59631 13.357 7.63193ZM13.357 8.09141V8.65656H13.2158V8.26831V7.98515C13.2508 8.02076 13.2858 8.05579 13.357 8.09141ZM13.357 8.8685V9.08043C13.3214 9.08043 13.2508 9.11604 13.2158 9.11604V8.8685C13.2508 8.8685 13.3214 8.8685 13.357 8.8685ZM13.357 9.32798V9.82249C13.3214 9.82249 13.2508 9.82249 13.2158 9.82249V9.57553H13.2508L13.2158 9.53991V9.15108L13.357 9.32798ZM13.2158 11.1297H13.357V11.4479H13.2158V11.1297ZM13.2158 11.8011H13.357V12.0837H13.2158V11.8011ZM13.2158 12.5788H13.357V12.8614H13.2158V12.5788ZM13.2158 13.2502H13.357V13.4972H13.2158V13.2502ZM13.357 15.2645V15.6177C13.2858 15.6527 13.2508 15.6527 13.2158 15.6883V15.3345C13.2508 15.3345 13.3214 15.2995 13.357 15.2645ZM13.357 16.4298V16.6423C13.3214 16.6773 13.2508 16.6773 13.2158 16.713V16.501C13.2508 16.4654 13.3214 16.4654 13.357 16.4298ZM13.357 17.0312V17.3137L13.2858 17.3488C13.357 17.6319 13.3214 17.8783 13.2158 18.0558V17.0662L13.357 17.0312ZM13.0383 0.49449C13.1095 0.49449 13.1807 0.529519 13.2158 0.529519V0.847712C13.1807 0.847712 13.1095 0.812098 13.0383 0.812098V0.49449ZM13.2158 19.4687C13.1807 19.4687 13.1095 19.5043 13.0383 19.5043V19.2217C13.1095 19.1861 13.1807 19.1861 13.2158 19.1511V19.4687ZM13.2158 3.78034V3.95666C13.1445 3.92221 13.1095 3.88601 13.0383 3.85098V3.70969C13.1095 3.74472 13.1807 3.74472 13.2158 3.78034ZM13.2158 4.31046V4.66369C13.1807 4.62807 13.1095 4.59304 13.0383 4.55743V4.2042C13.1095 4.23982 13.1807 4.27485 13.2158 4.31046ZM13.0383 6.74799H13.2158V7.03115H13.0383V6.74799ZM13.2158 7.52567V7.77321C13.1807 7.70257 13.1445 7.66696 13.1095 7.63193C13.0739 7.63193 13.0739 7.59631 13.0383 7.59631V7.38379C13.0739 7.38379 13.0739 7.41999 13.0739 7.41999C13.1445 7.45502 13.1807 7.49064 13.2158 7.52567ZM13.2158 7.98515V8.26831L13.0383 8.12644V7.87889C13.1095 7.91392 13.1807 7.94953 13.2158 7.98515ZM13.0383 8.26831H13.2158V8.65656L13.0383 8.65715V8.26831ZM13.2158 8.8685V9.53991L13.0383 9.29236V8.8685C13.0739 8.8685 13.1095 8.8685 13.1445 8.8685C13.1807 8.8685 13.1807 8.8685 13.2158 8.8685ZM13.2158 9.57553V9.82249C13.1445 9.82249 13.1095 9.82249 13.0383 9.78688V9.57553C13.1095 9.57553 13.1445 9.57553 13.2158 9.57553ZM13.0383 11.1297H13.2158V11.4479H13.0383V11.1297ZM13.0383 11.8011H13.2158V12.0837H13.0383V11.8011ZM13.0383 12.5788H13.2158V12.8614H13.0383V12.5788ZM13.0383 13.2502H13.2158V13.4972H13.0383V13.2502ZM13.2158 15.3345V15.6883C13.1807 15.7239 13.1095 15.759 13.0383 15.794V15.4408C13.1095 15.4052 13.1807 15.3695 13.2158 15.3345ZM13.2158 16.501V16.713C13.1807 16.713 13.1095 16.748 13.0383 16.7836V16.5711C13.1095 16.5361 13.1807 16.501 13.2158 16.501ZM13.2158 17.0662V18.0558C13.1807 18.1264 13.1095 18.1971 13.0383 18.2321V16.8543L13.1445 17.1018L13.2158 17.0662ZM12.7913 0.42326C12.862 0.42326 12.9682 0.458876 13.0383 0.49449V0.812098C12.9682 0.776483 12.862 0.741453 12.7913 0.706423V0.42326ZM13.0383 19.5043C12.9682 19.5399 12.862 19.5749 12.7913 19.6106V19.2924C12.862 19.2573 12.9682 19.2573 13.0383 19.2217V19.5043ZM13.0383 3.70969V3.85098C13.0383 3.85098 13.0383 3.85098 13.0383 3.81595V3.67408C13.0383 3.67408 13.0383 3.67408 13.0383 3.70969ZM13.0383 4.2042V4.55743C12.9682 4.48737 12.862 4.45175 12.7913 4.41614V4.09853C12.862 4.13356 12.9682 4.16917 13.0383 4.2042ZM12.7913 6.74799H13.0383V7.03115H12.7913V6.74799ZM13.0383 7.38379V7.59631C12.9682 7.56128 12.897 7.52567 12.8269 7.52567H12.7913V7.2787C12.862 7.31373 12.9682 7.34935 13.0383 7.38379ZM13.0383 7.87889V8.12644L12.8269 7.98515H12.7913V7.73818C12.862 7.73818 12.9326 7.77321 13.0038 7.84386C13.0038 7.84386 13.0383 7.84386 13.0383 7.87889ZM12.7913 8.26831H13.0383V8.65715H12.7913V8.26831ZM13.0383 8.8685V9.29236L13.0038 9.18669C12.862 9.29236 12.8269 9.39862 12.897 9.5043C12.9326 9.53991 12.9682 9.57553 13.0383 9.57553V9.78688C12.9326 9.78688 12.862 9.71682 12.7913 9.6812V8.97476C12.862 8.90411 12.9326 8.8685 13.0383 8.8685ZM12.7913 11.1297H13.0383V12.8614H12.7913V11.1297ZM12.7913 13.2502H13.0383V13.4972H12.7913V13.2502ZM13.0383 15.4408V15.794C12.9682 15.8296 12.862 15.8652 12.7913 15.9353V15.5815C12.862 15.5465 12.9682 15.5114 13.0383 15.4408ZM13.0383 16.5711V16.7836C13.0383 16.7836 13.0383 16.7836 13.0038 16.7836L13.0383 16.8543V18.2321C12.9682 18.2677 12.862 18.2677 12.7913 18.2677V18.0908C13.0038 18.1264 13.1095 17.8082 12.9682 17.4901C12.897 17.4901 12.8269 17.5257 12.7913 17.5257V17.2425C12.8269 17.2069 12.8269 17.2069 12.862 17.1724L12.7913 16.9955V16.6773C12.862 16.6423 12.9682 16.6073 13.0383 16.5711ZM9.99997 -2.22339e-05C10.9534 -2.22339e-05 11.908 0.141266 12.7913 0.42326V0.706423C11.908 0.458875 10.9534 0.317002 9.99997 0.317002V-2.22339e-05ZM12.7913 19.6106C11.908 19.8575 10.9534 19.9988 9.99997 19.9988V19.7168C10.9534 19.7168 11.908 19.5749 12.7913 19.2924V19.6106ZM12.7913 4.09853V4.41614C11.943 3.99227 10.9896 3.74472 9.99997 3.74472V3.46214C10.9896 3.46214 11.943 3.67408 12.7913 4.09853ZM12.7913 6.74799H11.943V13.2502H11.5197V12.8614H11.2009L11.0602 12.6494V11.9074C11.1665 11.7655 11.2365 11.8362 11.3778 11.5536L11.4485 11.3416C11.5197 11.3066 11.5547 11.1653 11.5547 11.0234H11.2722C11.2722 11.3066 11.0246 11.4123 10.8833 11.4123V10.8827C10.9896 10.8477 11.0602 10.8477 11.2009 10.6708L11.3072 10.4945C11.3778 10.4583 11.4134 10.4233 11.4485 10.3526V10.2113H11.0953L11.0602 10.4583H10.6714V10.1051C10.8477 9.99881 11.0953 9.89314 11.1309 9.64617C11.1665 9.64617 11.3072 9.53991 11.3428 9.53991V9.32798H11.0602L10.9534 9.5043C10.8833 9.64617 10.5651 9.61056 10.6007 9.61056V9.22172C10.7771 9.15107 10.9534 9.0454 11.0246 8.90411L11.2009 8.83347V8.5503H10.8833C10.8833 8.65656 10.8121 8.76224 10.7064 8.83347C10.6364 8.83347 10.6007 8.83347 10.5301 8.83347V8.47966C10.7064 8.37398 10.9189 8.30276 10.9534 8.05579L11.1309 7.98515V7.77321H10.8121C10.8121 7.84386 10.7064 7.94953 10.6714 8.02076H10.4945V7.73818C10.6714 7.63192 10.7771 7.49064 10.8121 7.2787L11.0246 7.24309V6.99554H10.7064C10.6364 7.31373 10.4945 7.31373 10.4238 7.2787V6.99554C10.6007 6.88987 10.6007 6.85425 10.7771 6.67735C10.9189 6.60729 11.0246 6.28909 10.8833 6.32412H10.742C10.6364 6.32412 10.6364 6.50161 10.5651 6.57167C10.5301 6.57167 10.4238 6.60729 10.3532 6.60729V6.28909C10.5301 6.25406 10.742 6.11219 10.7771 5.89967H10.8833C10.8833 5.86523 10.8833 5.79458 10.9189 5.72394C10.8121 5.72394 10.7064 5.72394 10.6364 5.72394C10.6007 5.86523 10.4945 5.93587 10.3888 5.97149C10.2475 5.86523 10.2119 5.86523 10.1763 5.68832C10.1763 5.44078 10.4238 5.22884 10.2475 4.94626L10.2119 4.76994C10.2119 4.48737 10.1056 4.45175 9.99997 4.34549V13.4972H12.7913V13.2502H12.1555V7.03115H12.7913V6.74799ZM12.7913 7.2787V7.52567H12.5794L12.4381 7.2787H12.7913ZM12.7913 7.73818V7.98515H12.6144L12.4381 7.70257C12.5438 7.70257 12.6144 7.70257 12.7207 7.70257C12.7557 7.70257 12.7557 7.70257 12.7913 7.73818ZM12.7913 8.26831V8.65715L12.6144 8.65656L12.4737 8.26831H12.7913ZM12.7913 8.97476V9.6812C12.6856 9.57553 12.6144 9.46927 12.6144 9.32798C12.5794 9.18669 12.65 9.0454 12.7913 8.97476ZM12.7207 11.1297H12.7913V12.8614H12.7207V11.1297ZM12.7913 15.5815V15.9353C11.943 16.3241 10.9896 16.5361 9.99997 16.5361V16.2541C10.9896 16.2541 11.943 16.0059 12.7913 15.5815ZM12.7913 16.6773V16.9955L12.7557 16.9243C11.943 17.2425 11.0953 17.4194 10.1763 17.4194V17.8783C10.4589 17.7376 10.742 17.5963 10.9896 17.6319C11.4841 17.6319 11.5898 17.9495 11.4485 18.3028C11.3072 18.6209 10.8477 18.5859 10.5651 18.5503C10.6007 18.4797 10.6364 18.3734 10.6714 18.2677C10.9896 18.3378 11.3778 18.1971 11.3072 17.9846C11.2009 17.7376 10.7771 17.8783 10.5301 18.0558C10.4238 18.1264 10.3176 18.1615 10.1763 18.2321V18.8329L9.99997 18.6916V17.2425C10.9896 17.2425 11.908 17.0312 12.7913 16.6773ZM12.7913 17.2425C12.1555 17.5257 12.2262 18.0558 12.6144 18.2321C12.65 18.2321 12.7207 18.2677 12.7913 18.2677V18.0908C12.7557 18.0908 12.6856 18.0558 12.65 18.0558C12.4381 17.9139 12.4737 17.667 12.7913 17.5257V17.2425ZM9.99997 2.33183L10.6714 1.30719L11.2365 3.07331C11.4134 3.60343 12.0849 3.78034 12.5438 3.14395L12.4381 3.03828C12.0492 3.53337 11.7316 3.49717 11.5547 2.9326L10.8477 0.635777L9.99997 2.04867V2.33183ZM9.99997 19.9988C8.83346 19.9988 7.66754 19.7869 6.60787 19.398V19.0804C7.66754 19.4687 8.83346 19.7168 9.99997 19.7168V19.9988ZM6.60787 0.600165C7.66754 0.211911 8.83346 -2.22339e-05 9.99997 -2.22339e-05V0.317002C8.83346 0.317002 7.66754 0.529519 6.60787 0.918356V0.600165ZM9.99997 2.04867L9.75243 2.43751L8.97475 0.600165C8.5865 1.69603 8.30392 3.17957 7.24367 3.5684L7.34993 3.63905C8.12702 3.53337 8.65714 2.2606 8.90469 1.30719L9.61055 2.96763L9.99997 2.33183V2.04867ZM9.99997 3.46214V3.74472C8.7634 3.74472 7.59689 4.13356 6.60787 4.76994V4.41614C7.59689 3.81595 8.7634 3.46214 9.99997 3.46214ZM9.99997 4.34549C9.96436 4.31046 9.92933 4.23982 9.92933 4.13356C9.8943 4.06291 9.78804 4.0273 9.75243 4.09853C9.54049 4.27485 9.29353 4.09853 9.36359 4.66369L9.46985 4.94626C9.18727 5.1582 9.32856 5.37013 9.39862 5.65271C9.39862 5.72394 9.39862 5.79458 9.39862 5.86523L9.32856 5.97149C9.2223 5.93587 9.11662 5.86523 9.08101 5.72394C8.97475 5.72394 8.90469 5.72394 8.79843 5.72394C8.79843 5.79458 8.79843 5.86523 8.83346 5.89967H8.93972C8.97475 6.11219 9.11662 6.32412 9.29353 6.32412V6.64232C9.25733 6.64232 9.18727 6.64232 9.15224 6.64232C9.08101 6.53664 9.04598 6.35916 8.93972 6.35916H8.79843C8.65714 6.35916 8.79843 6.60729 8.93972 6.67735C8.97475 6.85425 9.11662 6.9249 9.29353 6.99554V7.2787C9.18727 7.31373 9.01037 7.31373 8.93972 6.99554H8.69276V7.24309L8.86908 7.2787C8.90469 7.49064 9.04598 7.63192 9.2223 7.73818V7.98515L9.08101 8.02076C9.01037 7.94953 8.97475 7.84386 8.97475 7.77321H8.65714V7.98515H8.79843C8.83346 8.23211 8.97475 8.37398 9.18727 8.47966V8.83347C9.11662 8.83347 9.04598 8.83347 9.01037 8.83347C8.90469 8.76224 8.86908 8.69159 8.86908 8.62095H8.55147V8.83347L8.69276 8.8685C8.79843 9.00979 8.93972 9.18669 9.08101 9.22172L9.11662 9.61056C9.11662 9.61056 8.79843 9.64617 8.79843 9.5043V9.32798H8.51585C8.51585 9.39862 8.51585 9.46927 8.51585 9.53991C8.55147 9.53991 8.5865 9.57553 8.62211 9.57553C8.72837 9.78688 8.86908 9.96378 9.04598 10.1051L9.01037 10.4583H8.83346L8.79843 10.2113H8.44521V10.3526C8.48024 10.4233 8.55147 10.4583 8.62211 10.4583L8.65714 10.5645C8.7634 10.7765 8.86908 10.8827 9.01037 10.8827V11.4123C8.86908 11.4123 8.69276 11.3066 8.65714 11.0591H8.40959V11.2716L8.55147 11.3416C8.62211 11.6598 8.7634 11.8011 8.93972 11.9074V12.6494L8.7634 12.8964H8.48024V13.2502H8.05637V6.74799H6.60787V7.03115H7.80941V13.2502H6.60787V13.4972H9.99997V4.34549ZM9.99997 16.2541V16.5361C8.7634 16.5361 7.59689 16.1828 6.60787 15.5815V15.2645C7.59689 15.8652 8.7634 16.2541 9.99997 16.2541ZM9.99997 17.2425C9.36359 17.2425 8.72837 17.1368 8.12702 16.9955L8.0914 16.748H7.84444C7.63251 16.3241 7.34993 16.1122 7.03173 16.0415V16.2885C7.31431 16.2885 7.45618 16.501 7.56186 16.8186C7.24367 16.713 6.92548 16.5711 6.60787 16.3948V16.6073C6.71413 16.6773 6.78419 16.713 6.85483 16.748L6.78419 16.9599L6.60787 16.9243V17.1724C6.96109 17.1724 7.13741 17.3137 7.10296 17.4901C7.06735 17.667 6.85483 17.7026 6.60787 17.667V17.9495C6.96109 17.9139 7.20864 17.7726 7.27928 17.5257C7.34993 17.2781 7.24367 17.1018 7.06735 17.0312L7.10296 16.8543C7.31431 16.9243 7.52683 17.0312 7.73818 17.0662L7.41999 18.1264L7.52683 18.444L7.98573 17.1724C8.62211 17.3488 9.25733 17.4194 9.92933 17.4194L9.96436 18.0202C9.29353 18.2677 8.90469 18.2677 8.86908 18.0558C8.83346 17.8783 9.11662 17.7726 9.50546 17.9139C9.54049 17.8439 9.61055 17.7726 9.68178 17.7376C9.36359 17.5607 9.08101 17.5607 8.83346 17.7026C8.40959 17.8783 8.51585 18.1615 8.79843 18.3378C9.15224 18.5147 9.57552 18.444 9.96436 18.3028V18.6209L9.99997 18.6916V17.2425ZM6.60787 12.8614V12.2606L6.67851 12.5076L6.9967 11.1297H7.49063V12.8614H7.17302V11.4123L6.85483 12.8614H6.60787ZM6.60787 9.46927V9.11604H6.96109V8.65656H6.60787V8.30276H7.41999L7.52683 8.65656H7.27928V10.4583L6.96109 10.2113V9.46927H6.60787ZM6.60787 4.16917C6.74916 3.99227 6.78419 3.74472 6.74916 3.46214H6.60787V4.16917ZM6.60787 19.398C6.04213 19.1861 5.47697 18.9391 4.94684 18.6209V18.2677C5.47697 18.5859 6.04213 18.8685 6.60787 19.0804V19.398ZM4.94684 1.37784C5.47697 1.09468 6.04213 0.812098 6.60787 0.600165V0.918356C6.04213 1.13029 5.47697 1.41287 4.94684 1.73048V1.37784ZM6.60787 3.46214V4.16917C6.43096 4.41614 6.11277 4.5224 5.79458 4.38111L4.94684 3.99227V3.5684L5.90084 4.0273C6.43096 4.31046 6.67851 4.09853 6.60787 3.46214ZM6.60787 4.41614C5.97207 4.80498 5.40633 5.29949 4.94684 5.86523V6.32412C5.40633 5.72394 5.97207 5.1582 6.60787 4.76994V4.41614ZM6.60787 6.74799V7.03115H5.44136V13.2502H6.60787V13.4972H5.19381V6.74799H6.60787ZM6.60787 8.30276H5.72393L5.83019 8.65656H6.0071V9.11604C5.72393 9.22172 5.68832 9.32798 5.86581 9.61056C5.93587 9.75185 6.07774 9.85752 6.25464 9.85752C6.3609 9.75185 6.32587 9.64617 6.32587 9.46927H6.60787V9.11604H6.32587V8.65656H6.60787V8.30276ZM6.60787 12.2606L6.3609 11.1297H5.83019V12.8614H6.184V11.4123L6.50161 12.8614H6.60787V12.2606ZM6.60787 15.2645V15.5815C5.97207 15.1932 5.40633 14.7343 4.94684 14.1336V13.6741C5.40633 14.3099 5.97207 14.84 6.60787 15.2645ZM6.60787 16.3948V16.6073C6.57225 16.6073 6.50161 16.5711 6.43096 16.5361L6.53722 16.3597C6.57225 16.3597 6.60787 16.3948 6.60787 16.3948ZM6.60787 16.9243H6.50161C6.28967 16.5711 6.0071 16.3597 5.68832 16.3597C5.37129 16.3597 5.12433 16.6423 5.47697 17.3488L5.72393 17.2425C5.51258 17.0312 5.40633 16.7836 5.58264 16.6423C5.72393 16.4654 5.93587 16.6073 6.14839 16.9243L6.11277 16.9955L6.14839 17.2069C6.32587 17.1724 6.50161 17.1724 6.60787 17.1724V16.9243ZM6.60787 17.667V17.9495C6.53722 17.9495 6.46658 17.9495 6.3609 17.9139V17.5963C6.43096 17.6319 6.53722 17.667 6.60787 17.667ZM4.94684 14.7694C5.08813 14.7694 5.19381 14.6631 5.19381 14.5574C5.19381 14.4161 5.08813 14.3455 4.94684 14.3455V14.7694ZM4.94684 18.6209C4.91181 18.5859 4.87678 18.5503 4.84117 18.5503V18.1971C4.87678 18.2321 4.91181 18.2677 4.94684 18.2677V18.6209ZM4.84117 1.4479C4.87678 1.4479 4.91181 1.41287 4.94684 1.37784V1.73048C4.91181 1.76609 4.87678 1.76609 4.84117 1.80171V1.4479ZM4.94684 3.5684V3.99227L4.84117 3.92221V3.53337L4.94684 3.5684ZM4.94684 5.86523V6.32412C4.91181 6.39535 4.87678 6.46541 4.84117 6.50161V6.00652C4.87678 5.97149 4.91181 5.89967 4.94684 5.86523ZM4.94684 13.6741V14.1336C4.91181 14.0979 4.87678 14.0273 4.84117 13.9917V13.4972C4.87678 13.5678 4.91181 13.6034 4.94684 13.6741ZM4.94684 14.3455V14.7694C4.91181 14.7694 4.87678 14.7343 4.84117 14.7343V14.3811C4.87678 14.3455 4.91181 14.3455 4.94684 14.3455ZM4.84117 15.2645V15.0525C4.87678 15.0876 4.91181 15.1226 4.94684 15.1582L4.84117 15.2645ZM4.84117 18.5503C4.62924 18.409 4.4173 18.2677 4.20537 18.1264V17.7726C4.4173 17.9139 4.62924 18.0558 4.84117 18.1971V18.5503ZM4.20537 1.87235C4.4173 1.73048 4.62924 1.58977 4.84117 1.4479V1.80171C4.62924 1.94299 4.4173 2.08428 4.20537 2.22499V1.87235ZM4.84117 3.53337V3.92221L4.20537 3.63905V3.2146L4.84117 3.53337ZM4.84117 6.00652V6.50161C4.59362 6.88986 4.3811 7.2787 4.20537 7.66696V6.99554C4.3811 6.64232 4.59362 6.32412 4.84117 6.00652ZM4.84117 13.4972V13.9917C4.59362 13.6741 4.3811 13.3559 4.20537 13.0027V12.3312C4.3811 12.7557 4.59362 13.144 4.84117 13.4972ZM4.84117 14.3811V14.7343C4.77052 14.6993 4.73549 14.6281 4.73549 14.5574C4.73549 14.4512 4.77052 14.4161 4.84117 14.3811ZM4.84117 15.0525C4.59362 14.84 4.3811 14.5925 4.20537 14.3099V14.5574L4.45175 14.8756L4.20537 15.0525V15.4052L4.59362 15.0876C4.66485 15.1582 4.73549 15.2288 4.80556 15.2995L4.84117 15.2645V15.0525ZM4.20537 5.37013V4.98188L4.34607 5.05252L4.20537 4.59304V3.99227L4.62924 5.51142L4.20537 5.37013ZM4.20537 18.1264C3.70969 17.7726 3.25079 17.3488 2.79131 16.9243V16.501C3.21518 16.9599 3.70969 17.3844 4.20537 17.7726V18.1264ZM2.79131 3.07331C3.25079 2.64944 3.70969 2.22499 4.20537 1.87235V2.22499C3.70969 2.61441 3.21518 3.03828 2.79131 3.49717V3.07331ZM4.20537 3.2146L3.74589 3.00325L4.20537 4.59304V3.99227L4.09911 3.60343L4.20537 3.63905V3.2146ZM4.20537 4.98188V5.37013L2.89757 4.91123C3.42769 5.75897 4.02788 6.99554 3.56898 7.63193L3.42769 7.66696C3.78092 6.85425 3.28582 5.89967 2.79131 5.01691V4.48737L4.20537 4.98188ZM4.20537 6.99554C3.74589 7.87889 3.46331 8.90411 3.46331 9.99881C3.46331 11.0941 3.74589 12.1193 4.20537 13.0027V12.3312C3.92221 11.5892 3.74589 10.8121 3.74589 9.99881C3.74589 9.18669 3.92221 8.4096 4.20537 7.66696V6.99554ZM4.20537 14.3099V14.5574L3.95724 14.2748C3.85156 14.7343 3.60401 14.84 3.18015 14.6281C3.18015 14.9813 3.53337 15.1582 3.95724 15.2288L4.20537 15.0525V15.4052L3.56898 15.9353L3.49776 15.6527L3.74589 15.4052C2.86195 15.1582 2.86195 14.6993 3.07447 14.1686C3.35647 14.5574 3.63963 14.5224 3.74589 13.9917C3.56898 13.7447 3.42769 13.4621 3.28582 13.1796L2.79131 13.3559V12.5432C2.89757 12.6494 2.93318 12.8263 3.00324 13.0027L3.18015 12.932C3.03886 12.5788 2.89757 12.225 2.79131 11.8718V10.7765C2.86195 11.4123 3.00324 12.0131 3.25079 12.5788C3.42769 12.3663 3.49775 12.1193 3.35647 11.8718L3.56898 11.7655C3.67524 12.0487 3.63963 12.4019 3.42769 12.8263L3.53337 13.0377L3.46331 13.1089C3.67524 13.5328 3.92221 13.9567 4.20537 14.3099ZM2.79131 16.9243C2.68563 16.7836 2.57938 16.6773 2.43809 16.5361V16.0766C2.57938 16.2179 2.68563 16.3597 2.79131 16.501V16.9243ZM2.43809 3.46214C2.57938 3.35589 2.68563 3.2146 2.79131 3.07331V3.49717C2.68563 3.63905 2.57938 3.78034 2.43809 3.92221V3.46214ZM2.79131 4.48737V5.01691C2.68563 4.80497 2.54435 4.55743 2.43809 4.34549L2.79131 4.48737ZM2.79131 10.7765V11.8718C2.79131 11.8011 2.75628 11.7305 2.75628 11.6242L2.43809 11.6949V11.3773L2.72066 11.3416L2.65002 10.8477L2.43809 10.8827V10.6002L2.57938 10.5645C2.57938 10.3876 2.57938 10.2113 2.57938 9.99881H2.75628C2.75628 10.2464 2.79131 10.5289 2.79131 10.7765ZM2.79131 12.5432V13.3559L2.75628 13.3921C2.68563 12.967 2.57938 12.6845 2.43809 12.5788V12.2606C2.57938 12.2962 2.72066 12.4019 2.79131 12.5432ZM2.43809 13.5678L2.57938 13.3921C2.54435 13.3209 2.50932 13.2852 2.43809 13.2502V13.5678ZM2.43809 8.90411V8.62095H2.79131L2.65002 8.90411H2.43809ZM2.43809 8.26831V7.94953H2.79131L2.68563 8.26831H2.43809ZM2.43809 16.5361C2.15551 16.1828 1.87293 15.794 1.59035 15.4052V14.84C1.8379 15.2645 2.12048 15.6883 2.43809 16.0766V16.5361ZM1.59035 4.59304C1.87293 4.2042 2.15551 3.81595 2.43809 3.46214V3.92221C2.12048 4.31046 1.8379 4.73433 1.59035 5.1582V4.59304ZM2.43809 4.34549V8.26831H1.59035V8.05579L1.661 7.94953H2.43809V4.34549ZM2.43809 8.62095V8.90411H1.59035V8.69159L1.661 8.62095H2.43809ZM2.43809 10.6002V10.8827H2.15551L2.22615 11.4123L2.43809 11.3773V11.6949L1.59035 11.8011V11.5536L1.90796 11.4835L1.8379 10.9534C1.76667 10.9534 1.661 10.9178 1.59035 10.9178V10.6002C1.62538 10.6002 1.661 10.6002 1.661 10.6002C1.76667 10.5645 1.8017 10.4583 1.76667 10.3526C1.73164 10.2464 1.661 10.1757 1.59035 10.1757V9.85752C1.8379 9.82249 2.08486 9.99881 2.15551 10.6002H2.43809ZM2.43809 12.2606V12.5788C2.40306 12.5432 2.36744 12.5432 2.29738 12.5432C1.97919 12.5432 2.01422 12.967 2.19054 13.144C2.29738 13.1796 2.36744 13.1796 2.43809 13.2502V13.5678L2.40306 13.6034L2.08486 13.5328L1.76667 13.7091C1.73164 13.7447 1.661 13.7803 1.59035 13.7803V13.3921L1.62538 13.3559L1.76667 13.4621L1.90796 13.3209L1.59035 13.144V12.8614L1.8379 13.0377C1.76667 12.5788 1.90796 12.2962 2.26118 12.2606C2.33241 12.2606 2.40306 12.2606 2.43809 12.2606ZM1.59035 15.4052C0.600745 13.851 0.000556946 11.978 0.000556946 9.99881C0.000556946 8.02076 0.600745 6.14781 1.59035 4.59304V5.1582C0.777648 6.57167 0.317582 8.23211 0.317582 9.99881C0.317582 11.7655 0.777648 13.4265 1.59035 14.84V15.4052ZM1.59035 8.05579L1.48409 8.26831H1.59035V8.05579ZM1.59035 8.69159L1.44906 8.90411H1.59035V8.69159ZM1.59035 9.85752C1.41345 9.89314 1.23655 10.1051 1.23655 10.3876C1.23655 10.6352 1.3428 10.8121 1.59035 10.9178V10.6002C1.51912 10.6002 1.44906 10.5289 1.44906 10.4233C1.41345 10.317 1.44906 10.1757 1.55474 10.1757C1.55474 10.1407 1.59035 10.1407 1.59035 10.1757V9.85752ZM1.59035 11.5536H1.48409C1.44906 11.3773 1.37783 11.2004 1.27216 11.0234L1.13087 11.0941C1.3428 11.5185 1.1659 11.8011 0.954551 11.5892C0.707003 11.3773 0.883322 10.9534 0.954551 10.6708L0.848293 10.6352C0.671389 11.0234 0.56513 11.3773 0.848293 11.8011C1.06081 12.1193 1.27216 12.0131 1.48409 11.8362L1.59035 11.8011V11.5536ZM1.59035 12.8614L1.3428 12.7201L1.23655 12.8964L1.59035 13.144V12.8614ZM1.59035 13.3921L1.37783 13.5678L1.48409 13.7091C1.51912 13.7447 1.55474 13.7803 1.59035 13.7803V13.3921Z" fill="#0E88D3"/>
</svg>
