<svg width="32" height="32" viewBox="0 0 32 32" fill="none" xmlns="http://www.w3.org/2000/svg">
<path fill-rule="evenodd" clip-rule="evenodd" d="M31.9724 8.45533C31.8981 9.0572 31.7774 9.65244 31.6115 10.2357C31.2711 10.9813 31.2711 10.9813 31.0294 11.3966C30.5972 12.0126 30.0894 12.5719 29.5179 13.0613C28.98 13.4766 28.98 13.4766 28.3843 13.8851C27.6646 14.2881 26.9224 14.6496 26.1613 14.9677C25.8516 15.035 25.5511 15.139 25.266 15.2774C25.266 15.3523 25.266 15.3523 25.2864 15.3762C26.2191 15.4753 27.1126 15.804 27.8873 16.3328C28.2834 16.65 28.6492 17.0033 28.98 17.3881C29.3589 17.9243 29.6657 18.508 29.8924 19.1243C29.9468 19.3796 30.0047 19.6281 30.0592 19.8766C30.0966 20.2817 30.0966 20.6834 30.0966 21.0885C29.9553 22.2368 29.5498 23.3368 28.912 24.3021C28.5068 24.8672 28.5068 24.8672 28.1085 25.3711C27.4277 26.0928 26.5766 26.9064 25.6575 27.3217C24.9766 27.8221 24.0813 28.1353 23.3119 28.4553C22.8251 28.5949 22.3179 28.7617 21.8345 28.9149C21.4213 28.9726 21.012 29.0556 20.609 29.1634C20.2494 29.1843 19.8913 29.2263 19.5366 29.2894C14.6379 29.4936 9.69153 29.4017 4.7928 29.4085C4.74174 29.3064 4.70429 29.16 4.83365 29.1021C7.18259 29.0034 9.54854 28.8911 11.8941 28.8094C12.3647 28.8282 12.8362 28.8077 13.3034 28.7481C14.8643 28.7219 16.4219 28.5979 17.9673 28.377C18.0592 28.3328 18.4745 28.2511 19.0941 28.0843C22.1579 27.097 24.9256 25.16 26.2056 22.1234C26.2456 21.9738 26.3015 21.8288 26.3724 21.6911C26.4405 21.3506 26.5086 21.0102 26.5834 20.6698C26.6005 19.8255 26.6005 19.8255 26.5834 19.4953C26.4759 18.667 26.1686 17.8773 25.6881 17.194C25.4771 16.9557 25.266 16.7209 25.0617 16.486C24.1404 15.6883 22.9958 15.1938 21.7834 15.0698C21.7834 14.9711 21.8141 14.9574 21.9026 14.9064C22.1612 14.8455 22.414 14.7623 22.6583 14.6579C24.7009 13.7728 26.5085 12.5847 27.6558 10.6306C27.7681 10.3685 27.8873 10.103 27.9962 9.83405C28.1944 9.18351 28.3222 8.51357 28.3775 7.83575C28.3502 7.53958 28.3332 7.24 28.3128 6.93702C28.2515 6.74298 28.1971 6.54554 28.1392 6.34809C27.9282 5.82028 27.6107 5.34166 27.2064 4.94213C26.5117 4.37466 25.6967 3.973 24.8234 3.76766C24.8207 3.74733 24.8207 3.72672 24.8234 3.70639C25.3154 3.65877 25.8113 3.66906 26.3009 3.73702C26.6292 3.80007 26.9612 3.84214 27.2949 3.86298L28.0847 4.0298C28.9251 4.23192 29.7243 4.5774 30.4473 5.05107L31.0873 5.62298C31.2609 5.89192 31.4277 6.15065 31.6081 6.41277C31.6898 6.66809 31.7749 6.9166 31.8634 7.16511C31.9145 7.59745 31.9622 8.02638 31.9758 8.46894L31.9724 8.45533ZM25.0039 7.32511C24.8473 8.1932 24.8473 8.1932 24.7247 8.7515C24.4367 9.49908 24.0571 10.208 23.5945 10.8621L23.5264 10.8996C22.2383 12.3339 20.5942 13.4026 18.7605 13.9975C18.386 14.086 18.386 14.086 18.3417 14.1166V14.2017C18.4677 14.3277 18.7094 14.3038 18.8694 14.3072C18.9901 14.3482 19.1164 14.37 19.2439 14.3719C19.9339 14.5751 20.5968 14.8609 21.2183 15.223C21.266 15.2843 21.5588 15.4885 22.0422 15.9277C22.1851 16.1047 22.3281 16.2681 22.4711 16.4383C22.7629 16.884 23.0006 17.3628 23.1792 17.8647C23.2337 18.1268 23.2915 18.3889 23.346 18.6409C23.3728 18.9806 23.3807 19.3215 23.3698 19.6621C23.3085 20.023 23.2473 20.377 23.1928 20.7311C23.0975 20.9421 23.06 21.1089 22.8932 21.5379C22.5357 22.2767 22.0899 22.9694 21.5656 23.6009C20.9031 24.2743 20.1907 24.8968 19.4345 25.463C19.2803 25.5161 19.1389 25.6007 19.0192 25.7115C17.8647 26.3323 16.6584 26.8516 15.4141 27.2638C14.6311 27.4238 13.8481 27.5736 13.0549 27.6792C11.5877 27.7575 11.5877 27.7575 11.1724 27.8017C9.88556 27.8392 4.91536 28.0877 4.82685 28.0706C4.79697 28.0189 4.78124 27.9602 4.78124 27.9004C4.78124 27.8407 4.79697 27.782 4.82685 27.7302C6.15451 27.3455 7.52302 26.8996 8.8677 26.5694C8.98004 26.5183 11.2507 25.8681 11.4754 25.7796C12.4966 25.5685 13.4941 25.1736 14.4983 24.9115C14.723 24.8298 15.9281 24.503 17.0447 24.166C18.0319 23.9311 19.0873 23.6213 20.0371 23.2911C20.0717 23.2352 20.085 23.1687 20.0745 23.1038L19.9996 23.0494C19.9077 23.0494 18.6209 23.3898 12.6124 24.8298C12.589 24.847 12.5639 24.8618 12.5375 24.874C11.4345 25.0851 10.3281 25.4085 9.22855 25.657C9.14344 25.6877 9.06173 25.7183 8.98003 25.7421C4.80982 26.7362 4.80982 26.7362 4.7145 26.7634H4.59876C4.51025 26.6511 4.46258 26.6341 4.47961 26.4775C4.83259 26.2454 5.19734 26.0318 5.57238 25.8375C5.76983 25.7523 7.67621 24.6698 7.87025 24.5847C9.38515 23.6792 10.9613 22.8417 12.483 21.9464C13.7596 21.2655 15.0464 20.5132 16.3264 19.8119L16.4558 19.7098C17.4294 19.2128 18.3792 18.6511 19.3358 18.1166C19.7957 17.9111 20.2347 17.6614 20.6464 17.3711C20.6626 17.3496 20.6729 17.3244 20.6765 17.2977C20.6801 17.2711 20.6767 17.2441 20.6668 17.2191C20.6569 17.1941 20.6408 17.1722 20.6199 17.1553C20.599 17.1383 20.5742 17.1271 20.5477 17.1226C19.6217 17.5992 18.7026 18.0792 17.7834 18.5489C17.6778 18.5781 17.5786 18.6266 17.4907 18.6919C14.8592 20.0536 14.8592 20.0536 14.6413 20.1285C14.3451 20.3055 13.5485 20.7038 13.4805 20.7617C12.34 21.3302 11.1894 21.9328 10.0762 22.5421C10.0416 22.5526 10.0064 22.5605 9.97067 22.566C9.35791 22.9779 8.60897 23.2468 7.97918 23.6417C6.87961 24.1864 5.75621 24.7515 4.67706 25.3438C4.5511 25.3745 3.71366 25.9498 3.80557 25.3847C4.19025 25.0272 4.57833 24.6596 4.96302 24.2919C5.10305 24.1396 5.2569 24.0005 5.42259 23.8766C5.83783 23.3799 6.30839 22.9322 6.82514 22.5421C6.85578 22.4979 6.89323 22.457 6.93067 22.406C7.93493 21.48 8.94599 20.5234 9.9094 19.5498C12.7826 16.7992 15.6717 14.0633 18.5766 11.3421C18.6545 11.2222 18.758 11.1211 18.8796 11.046C20.643 9.34383 20.7554 9.22469 22.8422 7.24001C22.9783 7.13447 22.9783 7.13447 23.0294 7.05958C23.0294 6.71915 22.8285 6.87235 22.6413 7.00852C22.1273 7.52597 21.569 7.98894 21.0413 8.48596C20.8439 8.76511 20.4898 8.97278 20.2515 9.24512C19.7308 9.7714 19.1758 10.2627 18.5902 10.7157C18.1643 11.1458 17.7093 11.5462 17.2285 11.9141C15.5775 13.497 13.7698 14.937 12.1222 16.5336C11.3154 17.1668 10.6175 17.9736 9.80046 18.5932C9.58259 18.8315 9.58259 18.8315 8.12216 20.1898L7.96897 20.2953C6.34173 21.7966 4.67025 23.274 3.01237 24.7413C2.83195 24.7413 2.78429 24.697 2.80131 24.503C4.7894 21.6128 6.78088 18.7157 8.74514 15.8017C9.53833 14.5966 10.3281 13.3609 11.1724 12.1864C11.7681 11.3047 11.8158 11.206 12.0268 10.92C13.5622 8.64256 15.169 6.35831 16.6702 4.05363C16.8507 3.8732 16.803 3.75745 16.5613 3.78128C15.2881 5.56852 13.9639 7.33873 12.7111 9.14639C12.5 9.41192 12.0915 10.0145 7.82599 15.9923C7.73068 16.1557 6.19876 18.246 6.08642 18.3753C4.72471 20.2987 3.33578 22.2357 1.93323 24.1285C1.85834 24.1864 1.78344 24.2477 1.69152 24.1864V24.006C2.68897 21.4017 3.73408 18.7838 4.83706 16.2136C6.43366 12.2136 8.01664 8.1932 9.63706 4.20001C9.63886 4.14288 9.61946 4.08709 9.58259 4.04341C9.55389 4.04148 9.52509 4.04564 9.49811 4.05561C9.47112 4.06559 9.44654 4.08115 9.42599 4.10128C8.19705 6.86894 6.91705 9.6332 5.68131 12.3941C5.63024 12.4621 4.31961 15.3762 3.95536 16.1183C3.79195 16.5098 3.66259 16.7481 3.49578 17.1396C2.43365 19.3762 1.42258 21.6536 0.404712 23.9141C0.345696 23.9442 0.28036 23.96 0.214075 23.96C0.14779 23.96 0.0824537 23.9442 0.0234375 23.9141C0.161906 23.2374 0.334617 22.5681 0.540891 21.9089C0.585146 21.8136 0.728119 21.2281 0.76897 21.1328C0.806417 20.9251 0.850676 20.8264 1.3477 18.9098C1.60983 17.9532 1.86854 16.9966 2.13748 16.04C2.17152 15.8358 4.61919 7.03916 4.63621 6.90299C4.71791 6.62384 4.79961 6.34468 4.88471 6.06553C5.19791 4.83319 5.52471 3.68256 5.78003 2.70554C5.80193 2.65105 5.8415 2.60549 5.89238 2.57617C10.2498 2.57617 14.6141 2.57617 18.9715 2.57617C20.3205 2.6175 21.6496 2.91198 22.8898 3.44426C23.0264 3.55257 23.1763 3.64295 23.3358 3.7132C23.6238 3.91927 23.8958 4.14688 24.1494 4.39405C24.2856 4.5949 24.4251 4.79235 24.5647 4.9898C24.6464 5.19746 24.7281 5.40171 24.8132 5.60597C24.8779 5.90554 24.9392 6.20171 25.0005 6.49447C25.0005 6.76681 25.0005 7.03234 25.0005 7.30128L25.0039 7.32511Z" fill="#F37321"/>
</svg>
