<svg width="32" height="32" viewBox="0 0 32 32" fill="none" xmlns="http://www.w3.org/2000/svg">
<g clip-path="url(#clip0_2833_4750)">
<path fill-rule="evenodd" clip-rule="evenodd" d="M21.8248 3.70527L31.4813 21.5009C32.644 23.4198 31.4367 25.3883 29.2327 25.0412C28.536 24.9321 24.0561 24.3198 18.3911 23.5537L20.0076 21.372L27.6782 22.2125C28.3129 22.2868 28.6079 22.1034 28.2435 21.4166C28.2435 21.4166 21.0216 6.8712 20.9521 6.70509C20.7042 6.2514 20.4389 6.39767 20.2084 6.80178L13.0187 19.8498C12.7534 20.3456 12.86 20.5936 13.6137 20.6778L16.4226 20.9902L14.8161 22.9736L11.1767 22.3984C10.2668 22.2844 9.97177 21.7067 10.4701 20.7696C10.8445 20.0605 19.3159 4.60521 19.3159 4.60521C19.4845 4.30771 19.6258 4.08458 19.8117 3.77716C20.3026 2.88713 21.2174 2.65161 21.8248 3.70527Z" fill="#00AEEF"/>
<path fill-rule="evenodd" clip-rule="evenodd" d="M0.878269 17.3588L13.5519 15.1275L12.4685 17.0935L3.72191 18.5637C3.27565 18.6604 3.3178 18.8612 3.59795 19.0471C3.59795 19.0471 11.2289 24.3229 11.9677 24.8088C12.5652 25.2104 12.8801 25.374 13.3809 24.7344C13.3809 24.7344 19.5789 17.1332 19.9036 16.62C20.3747 15.9853 20.5879 15.7324 19.8292 15.8762L15.5254 16.5952L16.6286 14.6118L22.4002 13.5631C23.7166 13.34 24.2373 14.2573 23.5927 15.2267C23.0398 16.0175 13.8965 28.3267 13.8965 28.3267C13.304 29.192 12.8602 29.1573 12.1611 28.5449L0.489041 18.8761C-0.220009 18.2612 0.00559209 17.5224 0.878269 17.3588Z" fill="#FFD400"/>
</g>
<defs>
<clipPath id="clip0_2833_4750">
<rect width="32" height="32" fill="white"/>
</clipPath>
</defs>
</svg>
