<svg width="32" height="32" viewBox="0 0 32 32" fill="none" xmlns="http://www.w3.org/2000/svg">
<rect x="0.5" y="0.5" width="31" height="31" rx="3.5" fill="#F4F4F4"/>
<rect x="0.5" y="0.5" width="31" height="31" rx="3.5" stroke="#E7E7E7"/>
<g clip-path="url(#clip0_1949_9837)">
<path fill-rule="evenodd" clip-rule="evenodd" d="M19.6406 8.31677L25.6759 19.4391C26.4026 20.6384 25.648 21.8687 24.2705 21.6517C23.8351 21.5836 21.0352 21.2008 17.4946 20.722L18.5048 19.3585L23.299 19.8838C23.6957 19.9303 23.8801 19.8156 23.6523 19.3864C23.6523 19.3864 19.1386 10.2955 19.0952 10.1917C18.9403 9.9081 18.7745 9.99952 18.6304 10.2521L14.1368 18.4071C13.971 18.717 14.0376 18.8719 14.5087 18.9246L16.2643 19.1199L15.2602 20.3595L12.9855 20C12.4169 19.9287 12.2325 19.5677 12.5439 18.982C12.7779 18.5388 18.0725 8.87924 18.0725 8.87924C18.1779 8.6933 18.2662 8.55384 18.3824 8.3617C18.6892 7.80543 19.261 7.65823 19.6406 8.31677Z" fill="#00AEEF"/>
<path fill-rule="evenodd" clip-rule="evenodd" d="M6.54916 16.8505L14.4702 15.4559L13.7931 16.6847L8.32644 17.6035C8.04753 17.664 8.07387 17.7895 8.24896 17.9057C8.24896 17.9057 13.0183 21.203 13.4801 21.5067C13.8535 21.7577 14.0503 21.86 14.3633 21.4602C14.3633 21.4602 18.237 16.7095 18.44 16.3887C18.7344 15.992 18.8677 15.834 18.3935 15.9239L15.7036 16.3732L16.3931 15.1336L20.0004 14.4782C20.8231 14.3387 21.1485 14.912 20.7457 15.5179C20.4001 16.0122 14.6856 23.7054 14.6856 23.7054C14.3152 24.2462 14.0379 24.2245 13.6009 23.8418L6.30589 17.7988C5.86274 17.4145 6.00374 16.9527 6.54916 16.8505Z" fill="#FFD400"/>
</g>
<defs>
<clipPath id="clip0_1949_9837">
<rect width="20" height="20" fill="white" transform="translate(6 6)"/>
</clipPath>
</defs>
</svg>
