<svg width="20" height="20" viewBox="0 0 20 20" fill="none" xmlns="http://www.w3.org/2000/svg">
<path fill-rule="evenodd" clip-rule="evenodd" d="M18.1547 9.78716L13.2835 5.00887L12.1143 5.01829H10.1695V4.44851L12.1143 4.4341L13.3082 4.41802L18.5327 9.73506L18.1547 9.78716ZM16.562 9.81765L13.2835 6.63286H12.1143L10.1739 6.64228L10.1728 6.06917L12.1143 6.05199L13.3093 6.03869L16.9394 9.76222L16.562 9.81765ZM12.1143 16.8501L10.3169 18.636L10.2586 18.2568L12.1143 16.3485L15.0127 13.3566V10.2195H15.5733L15.6014 13.3849L12.1143 16.8501ZM12.1143 14.7018L13.3996 13.3566V10.2195H13.9618L13.9904 13.3849L12.1143 15.2345L10.2877 17.0325L10.236 16.6567L12.1143 14.7018ZM8.06557 11.0016L7.03289 9.91132L8.06557 8.89258L10.1865 6.80745L12.1143 8.84658L13.2268 10.0233L12.1143 11.1218L10.0704 13.1283L8.06557 11.0016ZM8.06557 15.6574L6.86948 15.6662L1.64829 10.3542L2.02296 10.2987L6.89424 15.0748H8.06557L10.0061 15.0709V15.6374L8.06557 15.6574ZM3.60913 10.2727L6.89204 13.4508L8.06557 13.4497L10.0061 13.4458V14.0162L8.06557 14.0367L6.86288 14.0511L3.23555 10.3254L3.60913 10.2727ZM9.93838 3.43255L8.06557 5.38632L6.77815 6.72597V9.86199H6.21422L6.18946 6.7038L8.06557 4.85201L9.88996 3.05066L9.93838 3.43255ZM8.06557 3.23467L9.86411 1.45217L9.91582 1.82851L8.06557 3.73905L5.16723 6.72597V9.86199H4.6022L4.57854 6.7038L8.06557 3.23467ZM13.4139 3.44973V7.47077e-08L9.94938 0.0110835L8.06557 2.00144L3.65864 6.67443H0.348215V10.0604L6.74679 16.7243V20H10.005L12.1143 17.8755L16.4525 13.5013H19.6518V9.78716L13.4139 3.44973Z" fill="#CE0F3E"/>
</svg>
