<svg width="20" height="20" viewBox="0 0 20 20" fill="none" xmlns="http://www.w3.org/2000/svg">
<g clip-path="url(#clip0_2003_7068)">
<path fill-rule="evenodd" clip-rule="evenodd" d="M4.11746 16.3879C4.04931 16.3768 3.90163 16.3428 3.85637 16.297C3.8338 16.286 3.8223 16.2748 3.8108 16.2629C3.75407 16.1382 3.71998 16.0474 3.70879 15.8994C3.70879 15.3885 3.70879 14.8778 3.70879 14.3668C3.71995 14.2867 3.73145 14.2078 3.74286 14.1284C3.76552 14.0713 3.78818 14.026 3.82234 13.9804C3.85641 13.9583 3.89049 13.9353 3.93585 13.9234C3.98142 13.9123 4.02668 13.9013 4.08342 13.9013H5.9798C6.02537 13.9013 6.07063 13.9132 6.12738 13.9234C6.16145 13.9353 6.19561 13.9464 6.24088 13.9685C6.27496 14.1047 6.30912 14.2411 6.34321 14.3886C6.34321 14.5137 6.34321 14.6497 6.35471 14.7863C6.08213 14.7863 5.80955 14.7863 5.53696 14.7863C5.53696 14.6497 5.53696 14.5137 5.53696 14.3772C5.20773 14.3772 4.87839 14.3772 4.54916 14.3772V15.8988H5.53696C5.53696 15.7173 5.53696 15.5356 5.53696 15.354H6.35471C6.35471 15.6377 6.35471 15.9784 6.25238 16.251C6.18415 16.274 6.12738 16.308 6.07063 16.3417C6.00248 16.3528 5.93455 16.3648 5.86629 16.387C5.27598 16.387 4.69674 16.387 4.1175 16.387L4.11746 16.3879ZM7.4334 16.3879C7.34246 16.3649 7.26282 16.3428 7.18339 16.3308C7.18339 16.3189 7.18339 16.3078 7.18339 16.3078C7.13781 16.2738 7.10408 16.2397 7.06999 16.2055C7.04733 16.1485 7.03583 16.0919 7.02442 16.0352C7.02442 15.3199 7.02442 14.6046 7.02442 13.9004H7.84206C7.84206 14.559 7.84206 15.2291 7.85347 15.8989H8.90931C8.90931 15.2291 8.90931 14.559 8.90931 13.9004H9.73846C9.72696 14.5931 9.72696 15.2859 9.72696 15.9785C9.72696 16.0578 9.62496 16.2511 9.57938 16.3078C9.51115 16.3308 9.44319 16.353 9.38655 16.376C8.72766 16.376 8.08049 16.3759 7.43342 16.387L7.4334 16.3879ZM10.4878 16.3879C10.4878 15.5591 10.4878 14.7299 10.4878 13.9011H12.7588C12.8044 13.913 12.8496 13.9232 12.9064 13.9352C12.929 13.9471 12.9519 13.9581 12.9861 13.9692C12.9972 13.9802 13.0087 14.0033 13.0198 14.0263C13.0313 14.0714 13.0539 14.1172 13.0766 14.1625C13.0766 14.1966 13.0881 14.2306 13.0995 14.2648C13.0881 14.4465 13.0881 14.6282 13.0881 14.821C13.0654 14.9002 13.0087 14.9916 12.9405 15.0369C12.8952 15.0479 12.8611 15.059 12.827 15.071C12.8496 15.0829 12.8837 15.0939 12.9178 15.105C12.9519 15.139 12.9971 15.1731 13.0427 15.2073C13.0539 15.2414 13.0654 15.2755 13.088 15.3094C13.0994 15.3665 13.1106 15.4228 13.1221 15.4912C13.1106 15.6728 13.1106 15.8545 13.1106 16.0361C13.0994 16.0591 13.088 16.0932 13.0765 16.1271C13.0313 16.2063 12.963 16.2747 12.8837 16.32C12.7814 16.343 12.6904 16.366 12.5996 16.3881C11.8958 16.3881 11.1918 16.3879 10.4878 16.3879ZM11.3167 15.8994C11.3167 15.6951 11.3167 15.5023 11.3167 15.309H12.1911C12.2251 15.3209 12.2593 15.332 12.2934 15.3431C12.3613 15.4112 12.3501 15.6271 12.3501 15.7065C12.3272 15.7517 12.3045 15.7974 12.2819 15.8542C12.2478 15.8661 12.2137 15.8763 12.1911 15.8993C11.8959 15.8993 11.6007 15.8994 11.3167 15.8994ZM13.3024 15.718C13.2912 14.1962 13.2798 12.6748 13.2798 11.1532C13.2798 11.0732 13.2571 10.9374 13.2116 10.8692C13.2116 10.8011 13.1211 10.7557 13.1211 10.6989C13.0528 10.6538 12.9505 10.5058 12.8596 10.5058C12.8029 10.4488 12.6438 10.4038 12.5645 10.3808C12.4054 10.3698 12.2467 10.3587 12.0876 10.3467C12.0308 10.3467 11.9741 10.3578 11.9173 10.3697C11.815 10.4038 11.6789 10.4268 11.5992 10.5058C11.5083 10.5058 11.3723 10.6875 11.3267 10.7557C11.2925 10.8581 11.27 10.9716 11.2472 11.0851V11.244V12.1411C11.2357 12.3569 11.2357 12.5725 11.2357 12.7997C11.2131 12.9017 11.202 13.004 11.1905 13.1063C11.1223 13.231 11.0541 13.3559 10.9973 13.481C10.9521 13.504 10.9065 13.538 10.8613 13.5718C10.8045 13.5837 10.7477 13.5948 10.7022 13.6059C9.02152 13.6059 7.34098 13.6059 5.66043 13.6059C5.59246 13.5718 5.53543 13.5376 5.47867 13.5149C5.41087 13.5149 5.21759 13.265 5.21759 13.2082C5.17236 13.0721 5.12677 12.9358 5.08151 12.7996C5.05859 11.8684 5.04744 10.9373 5.03594 10.0063C4.88836 10.0063 4.63846 9.89273 4.53645 9.79043C4.46822 9.79043 4.18422 9.48378 4.18422 9.43855C4.0936 9.43855 3.93453 8.93891 3.91195 8.85926C3.88895 8.76837 3.87779 8.68901 3.86638 8.60971C3.86638 7.79204 3.76406 6.92905 3.88895 6.13404C3.88895 6.08889 3.90045 6.04321 3.91195 6.00905C3.95718 5.86143 4.00278 5.7139 4.0936 5.57778C4.0936 5.53264 4.19561 5.38453 4.22979 5.3732C4.22979 5.36212 4.22979 5.35017 4.22979 5.35017C4.29794 5.27095 4.36587 5.19108 4.44552 5.12328C4.50225 5.07728 4.55902 5.03226 4.62727 4.99818C4.78604 4.93004 4.91093 4.86185 5.08151 4.83919H5.37667C5.52424 4.83919 5.80801 4.96412 5.89883 5.05501C5.93299 5.07801 5.96706 5.10017 6.01266 5.12317C6.02382 5.13424 6.03524 5.14615 6.0579 5.15723C6.09197 5.20237 6.12613 5.24805 6.16022 5.29329C6.18287 5.32736 6.21695 5.36145 6.25105 5.39561C6.26221 5.3048 6.27371 5.22513 6.29628 5.14574C6.31894 5.05485 6.35301 4.96403 6.38721 4.88464C6.38721 4.72551 6.60293 4.46448 6.69387 4.3511C6.71644 4.3281 6.7391 4.30509 6.77317 4.28294C6.81875 4.18064 7.02308 4.08975 7.11401 4.03302C7.19332 3.99895 7.28417 3.96485 7.37499 3.94219C7.60232 3.93112 8.01098 3.89704 8.19274 4.07856C8.28357 4.07856 8.44265 4.27144 8.53315 4.32817C8.59023 4.40824 8.64697 4.4873 8.70373 4.5666C8.70373 4.53253 8.70373 4.50952 8.71481 4.48737C8.7263 4.44137 8.73781 4.39657 8.76038 4.36233C8.80578 4.27153 8.85131 4.18071 8.89656 4.10123C8.90806 4.07823 8.91947 4.05607 8.94213 4.03307C9.02144 3.94227 9.10121 3.85141 9.19204 3.77202C9.22586 3.76095 9.23727 3.71494 9.28255 3.71494C9.3167 3.68086 9.36228 3.64677 9.40755 3.62411C9.52137 3.55596 9.63478 3.51068 9.75978 3.48768H10.2025C10.3728 3.54475 10.5318 3.60113 10.6679 3.71494C10.7477 3.71494 10.827 3.85105 10.8838 3.88521C10.8838 3.66935 10.8838 3.45358 10.8838 3.23807C10.8953 3.15885 10.9064 3.07894 10.9179 2.99964C10.952 2.84052 11.0655 2.6815 11.1563 2.55662C11.1678 2.53362 11.179 2.52257 11.1904 2.51149C11.2924 2.44335 11.4515 2.22747 11.5879 2.22747C11.69 2.12542 11.9284 2.09135 12.0648 2.05719C12.1215 2.04527 12.1783 2.04529 12.2351 2.04529C12.4621 2.04529 12.712 2.06827 12.9051 2.18182C12.973 2.21589 13.0412 2.24995 13.121 2.28377C13.2115 2.36299 13.3023 2.45421 13.3931 2.54518C13.3931 2.60226 13.5181 2.76089 13.5296 2.79479C13.5522 2.86294 13.5748 2.93119 13.5978 3.01066C13.5978 3.07881 13.6089 3.14705 13.6204 3.21494V4.52096C13.6657 4.53203 13.7112 4.54394 13.768 4.56608C13.9271 4.63423 14.0858 4.7138 14.2564 4.79344C14.2905 4.80452 14.3242 4.81642 14.3584 4.83857C14.4833 4.94088 14.6424 4.99761 14.7559 5.11116C14.8011 5.11116 14.8808 5.20195 14.9262 5.22461C14.9943 5.29275 15.0737 5.36098 15.1534 5.4293C15.2214 5.49744 15.2896 5.56534 15.3577 5.64464C15.3577 5.70172 15.4939 5.79236 15.5168 5.872C15.5847 5.97405 15.6529 6.07636 15.7323 6.18982C15.8005 6.30337 15.8687 6.4171 15.937 6.5418C15.9707 6.64411 16.0957 6.83718 16.0957 6.93923C16.1072 6.9733 16.1186 7.00739 16.1413 7.04154C16.1865 7.23448 16.2321 7.43904 16.2774 7.6434C16.2889 7.81368 16.3004 7.99543 16.3229 8.17703C16.3004 8.38139 16.2889 8.58574 16.2774 8.79001C16.2433 8.93797 16.2096 9.08548 16.1866 9.23318C16.164 9.30133 16.0505 9.53953 16.0505 9.64184C15.937 9.83503 15.8346 10.0394 15.7323 10.2437V10.2667C15.6188 10.4143 15.5053 10.5618 15.403 10.721C15.2669 10.8458 15.1419 10.9709 15.017 11.107C14.9943 11.1189 14.9718 11.1409 14.9603 11.1639C14.9376 11.1759 14.9262 11.187 14.915 11.2092C14.8695 11.2322 14.8242 11.2542 14.79 11.2883C14.79 11.3224 14.3925 11.5494 14.3585 11.5835C14.3243 11.5946 14.3017 11.6065 14.279 11.6286C14.1997 11.6286 14.1087 11.7195 14.0518 11.7307C13.9498 11.7648 13.8588 11.8099 13.768 11.8556C13.7224 11.8667 13.6887 11.8778 13.6545 11.9008C13.6545 13.1724 13.6545 14.4442 13.6657 15.7161C13.541 15.7161 13.4161 15.7161 13.3022 15.7161L13.3024 15.718ZM11.3167 14.8436C11.3167 14.662 11.3167 14.4914 11.3167 14.3213H12.157C12.1911 14.3323 12.2251 14.3442 12.2705 14.3672C12.2705 14.5148 12.2705 14.6624 12.2819 14.8212C11.9527 14.8212 11.6348 14.8325 11.3167 14.8436ZM5.67193 13.2425C5.64927 13.2195 5.62636 13.2085 5.6152 13.1974C5.6037 13.1744 5.59254 13.1633 5.59254 13.1522C5.53547 13.1522 5.49021 12.8911 5.45614 12.823C5.44464 12.7778 5.43348 12.7438 5.43348 12.7095C5.42198 11.8124 5.42198 10.9154 5.42198 10.0184C5.45614 10.0073 5.50171 9.99538 5.54699 9.99538C5.61522 9.95023 5.74014 9.92716 5.7969 9.8706C5.87637 9.8706 5.9219 9.74582 6.00122 9.74582C6.19416 9.62086 6.37581 9.28011 6.46664 9.07576C6.47814 9.00761 6.5008 8.95073 6.52337 8.89399C6.55745 8.83692 6.58045 8.63289 6.58045 8.55324C6.62568 8.55324 6.63718 8.667 6.69395 8.667V8.68915C6.75068 8.72322 6.93235 8.92768 7.00061 8.92768C7.00061 8.9839 7.32984 9.07533 7.35252 9.0979C7.48859 9.0979 7.63617 9.09783 7.78386 9.10976C7.81794 9.09783 7.85201 9.0979 7.89758 9.0979C8.01109 9.01868 8.21541 8.98436 8.31774 8.88214C8.40857 8.83699 8.52207 8.72342 8.59033 8.6436C8.6129 8.80272 8.64706 8.96173 8.68115 9.13201C8.69231 9.20016 8.71488 9.27967 8.73788 9.35932C8.83989 9.59766 8.94222 9.84744 9.05572 10.0973C9.0898 10.0973 9.2033 10.3809 9.26005 10.4039C9.27155 10.415 9.28262 10.438 9.30562 10.461C9.3282 10.5062 9.36235 10.5518 9.39645 10.6086C9.48727 10.7105 9.57821 10.8129 9.68021 10.9152C9.70279 10.9493 9.93012 11.1763 9.96419 11.1763C9.97535 11.1985 9.99827 11.2215 10.0209 11.2445C10.0662 11.2675 10.1117 11.2896 10.157 11.3236C10.2137 11.3577 10.2708 11.4029 10.3388 11.4486C10.3503 11.4597 10.3617 11.4708 10.3843 11.4938C10.4296 11.5168 10.4752 11.5508 10.5319 11.5846H10.566C10.5771 11.5957 10.5886 11.6077 10.6114 11.6299C10.6455 11.641 10.691 11.6529 10.7363 11.675C10.7819 11.698 10.8271 11.7201 10.8839 11.7551V12.7996C10.8613 12.9016 10.8386 13.0039 10.8157 13.1062C10.7818 13.1514 10.7477 13.197 10.7248 13.2424C9.03306 13.2424 7.35247 13.2425 5.67193 13.2425ZM13.6546 11.5278C13.6432 11.3917 13.6432 11.2552 13.6432 11.1303C13.6317 11.0622 13.6205 10.9942 13.6205 10.926C13.5865 10.8352 13.5523 10.7442 13.5297 10.6534C13.4955 10.6193 13.2344 10.2788 13.1889 10.2788C13.1211 10.2337 13.0528 10.1879 12.9845 10.1538C12.8937 10.1198 12.8029 10.0857 12.7234 10.0515C12.6553 10.0285 12.587 10.0175 12.5303 10.0064C12.451 9.99447 12.3827 9.99455 12.3145 9.99455C12.3715 9.98347 12.4395 9.98342 12.5077 9.98342C12.5077 9.66526 12.5077 9.35891 12.5191 9.05226C12.4283 9.05226 12.3375 9.05226 12.2467 9.05226V9.99455C12.0991 9.99455 11.94 9.99458 11.8035 10.0287C11.7357 10.0517 11.6674 10.0738 11.5992 10.0968C11.5199 10.1419 11.4404 10.1877 11.3608 10.233C11.3496 10.233 11.3381 10.233 11.3381 10.233C11.2814 10.2781 11.2247 10.3237 11.1679 10.3804C11.1112 10.4486 11.0541 10.517 11.0089 10.5963C10.9747 10.6764 10.9406 10.7555 10.918 10.8463C10.9065 11.0165 10.8954 11.1871 10.8839 11.3688C10.7478 11.2896 10.6114 11.2097 10.4752 11.13C10.4296 11.096 10.2253 10.9029 10.1801 10.9029C10.0777 10.8121 9.97541 10.7214 9.88459 10.6419C9.85077 10.5968 9.82786 10.5626 9.80512 10.5284C9.75988 10.5284 9.49846 10.1194 9.46439 10.0853C9.44173 10.0402 9.30562 9.85837 9.30562 9.79022C9.21479 9.6426 9.14654 9.4497 9.07829 9.27925C9.04421 9.14304 9.01048 9.0066 8.98747 8.88172C8.96489 8.79075 8.95339 8.70003 8.94223 8.62073C8.94223 8.34814 8.94223 8.07553 8.94223 7.81445C8.99897 7.55336 9.02154 7.16732 9.16925 6.94006C9.16925 6.82651 9.30564 6.62211 9.3509 6.5313C9.39647 6.46316 9.44172 6.39495 9.48729 6.32698C9.48729 6.24776 9.62348 6.15653 9.62348 6.11121C9.6349 6.08821 9.64605 6.06605 9.66905 6.05413C9.71428 5.99705 9.75988 5.95176 9.80513 5.90652C9.80513 5.84945 9.88461 5.79281 9.91864 5.77015C9.91864 5.75908 9.91864 5.74712 9.93014 5.73604C9.96421 5.70197 9.99828 5.66789 10.0325 5.64506C10.1118 5.56584 10.2026 5.49757 10.2935 5.42976C10.3047 5.41784 10.3161 5.40673 10.3388 5.39566C10.4296 5.35051 10.5319 5.20246 10.6454 5.20246C10.7247 5.13431 10.918 4.99813 11.0314 4.99813C11.0314 5.0552 11.202 5.29329 11.2813 5.29329C11.3155 5.33843 11.4404 5.46356 11.4972 5.46356C11.5539 5.52063 11.6901 5.55436 11.7582 5.59993C11.94 5.657 12.1899 5.67917 12.3827 5.67917C12.5303 5.66809 12.7688 5.63399 12.9052 5.55418C12.996 5.55418 13.0755 5.42956 13.1548 5.42956C13.1889 5.38356 13.223 5.34948 13.2686 5.31575C13.3595 5.21378 13.507 5.04318 13.5411 4.90715C13.5411 4.89522 13.5523 4.88417 13.5638 4.87309C13.6432 4.89609 13.7225 4.93016 13.8022 4.96397C13.9384 5.03212 14.0859 5.10035 14.2335 5.17974C14.2906 5.21381 14.3585 5.24787 14.4267 5.29318C14.4949 5.35025 14.5628 5.40672 14.631 5.46345C14.6992 5.52053 14.7675 5.57725 14.8468 5.64506C14.8921 5.64506 14.9944 5.78164 15.0171 5.82687C15.0627 5.87202 15.1079 5.91767 15.1535 5.96325C15.267 6.13353 15.3805 6.30382 15.5054 6.47427C15.5054 6.51941 15.5963 6.61048 15.5963 6.66721C15.6872 6.81483 15.7665 7.04196 15.8232 7.20074C15.8574 7.41659 15.903 7.63239 15.9482 7.84824C15.9482 7.99586 15.9482 8.14338 15.9597 8.291C15.9597 8.60916 15.8803 8.96105 15.8121 9.26771C15.7324 9.42649 15.6872 9.63078 15.5963 9.76724C15.551 9.84646 15.5054 9.9263 15.4602 10.0058C15.4602 10.0628 15.3011 10.2556 15.2785 10.2782C15.2103 10.3574 15.1535 10.4373 15.0968 10.5281C15.0853 10.5281 15.0738 10.5391 15.0627 10.5511C15.0627 10.5962 14.8468 10.767 14.8128 10.8237C14.8013 10.8237 14.7901 10.8237 14.7901 10.8237C14.7786 10.8348 14.7675 10.8458 14.7675 10.8577C14.631 10.9485 14.5061 11.0506 14.3815 11.1529C14.1998 11.2437 14.018 11.3458 13.8476 11.4481C13.7797 11.4711 13.7114 11.4937 13.6546 11.5278ZM5.12677 9.67698C5.12677 9.66506 5.12677 9.66513 5.12677 9.66513C5.03593 9.64298 4.9565 9.61992 4.87686 9.59692C4.82013 9.56284 4.77485 9.52878 4.72928 9.50604C4.52495 9.347 4.26387 9.00629 4.26387 8.72263C4.25237 8.69963 4.24121 8.67667 4.22979 8.65452C4.22979 7.83686 4.22979 7.03057 4.22979 6.2244C4.22979 6.2014 4.24121 6.19034 4.25237 6.17927C4.26387 6.13327 4.27503 6.08847 4.28653 6.0429C4.29794 5.98582 4.3091 5.94092 4.3206 5.89535C4.35467 5.81613 4.3999 5.74762 4.44549 5.67948C4.44549 5.58867 4.63843 5.42993 4.684 5.38427C4.75215 5.33912 4.83158 5.29339 4.91091 5.24816C4.94507 5.23623 4.99064 5.22513 5.03592 5.21405C5.09265 5.20213 5.14942 5.19107 5.20617 5.19107C5.27432 5.19107 5.35375 5.20298 5.4334 5.21405C5.45606 5.2362 5.64923 5.28221 5.64923 5.31611C5.67189 5.32804 5.81949 5.40692 5.81949 5.44099C5.86472 5.46399 5.89879 5.55444 5.93299 5.55444C5.95557 5.58851 5.97856 5.62261 6.01264 5.66835C6.16022 5.89536 6.21697 6.19051 6.23965 6.46309C6.22815 7.17837 6.22815 7.9051 6.22815 8.63196C6.17142 8.68903 6.13733 8.89303 6.12614 8.98383C6.08057 9.05198 6.04641 9.12006 6.01264 9.1997C5.96706 9.1997 5.86474 9.40404 5.81949 9.4267C5.72855 9.48377 5.63773 9.5401 5.5584 9.60825C5.51283 9.62018 5.46758 9.63133 5.4219 9.65348C5.31989 9.65348 5.2176 9.66506 5.12677 9.67698ZM7.50005 8.75736C7.50005 8.74544 7.50005 8.7454 7.50005 8.7454C7.22747 8.71133 6.97757 8.51839 6.85299 8.29121C6.84149 8.26821 6.82999 8.25715 6.82999 8.24608C6.78476 8.24608 6.68241 7.962 6.68241 7.91677C6.64834 7.88269 6.64834 7.82581 6.64834 7.78024C6.63718 7.73509 6.62568 7.68951 6.61418 7.65535C6.61418 6.89476 6.61418 6.13384 6.61418 5.38432C6.62568 5.33918 6.63718 5.30514 6.64834 5.27098C6.64834 5.21391 6.65975 5.13439 6.69391 5.10066C6.70507 5.04359 6.71648 4.98689 6.73914 4.93008C6.79587 4.82811 6.86404 4.72582 6.93229 4.62343C6.96637 4.57828 7.00052 4.5442 7.0458 4.51004C7.0458 4.45297 7.21605 4.38507 7.25013 4.36233C7.34096 4.32826 7.43178 4.30524 7.52271 4.2831C7.64761 4.29417 7.77262 4.30523 7.9087 4.32822C7.9087 4.34015 8.18128 4.44179 8.18128 4.49886C8.21536 4.53293 8.36293 4.65763 8.36293 4.71436C8.44266 4.71436 8.56726 5.10069 8.59026 5.18C8.59026 5.82721 8.59026 6.48573 8.60142 7.14428C8.61283 7.26933 8.62399 7.39426 8.63549 7.53047C8.62399 7.70092 8.57876 7.90525 8.52199 8.07544C8.47641 8.14359 8.43116 8.22302 8.39709 8.30275C8.34036 8.3709 8.28359 8.43887 8.22683 8.51851C8.18126 8.54151 8.1471 8.57558 8.11301 8.60939C7.9995 8.65454 7.8861 8.69993 7.78378 8.74551C7.68166 8.74551 7.59088 8.74629 7.50005 8.75736ZM8.96487 6.52018C8.96487 6.00917 8.96487 5.50965 8.96487 5.01014C8.99895 4.79437 9.03302 4.54446 9.1692 4.37418C9.1692 4.27188 9.41911 4.0675 9.47586 4.01077C9.64601 3.88589 9.80509 3.82906 10.0209 3.82906C10.2138 3.82906 10.5546 3.99927 10.6339 4.16981C10.7818 4.23795 10.8386 4.52178 10.9065 4.6579C10.8498 4.6809 10.793 4.71496 10.7362 4.74878C10.6227 4.74878 10.4863 4.93039 10.3843 4.93039C10.2368 5.03269 10.1002 5.13477 9.96417 5.24857C9.95267 5.24857 9.94151 5.24857 9.94151 5.24857C9.9186 5.27157 9.89594 5.29368 9.87336 5.32776C9.80513 5.38483 9.73697 5.44115 9.66904 5.50947C9.63488 5.54354 9.6008 5.58871 9.56671 5.63445C9.43053 5.72526 9.31681 5.9411 9.2148 6.06572C9.14657 6.16803 9.0898 6.27032 9.03304 6.37237C9.01047 6.41836 8.98745 6.46353 8.96487 6.52018ZM12.1216 5.32802C12.1216 5.31609 12.1216 5.31611 12.1216 5.31611C12.0649 5.30504 12.0193 5.29313 11.974 5.29313C11.9173 5.27098 11.8717 5.25902 11.8265 5.24795C11.7127 5.1798 11.4971 5.08885 11.4404 4.96397C11.3834 4.94097 11.304 4.74811 11.2925 4.74811C11.2813 4.70296 11.2699 4.65729 11.2588 4.61189C11.2588 4.11212 11.2588 3.62414 11.2588 3.1357C11.2699 3.09055 11.2813 3.0565 11.2925 3.02226C11.2925 2.96518 11.429 2.72705 11.4971 2.72705C11.5083 2.70405 11.5198 2.69299 11.5313 2.68192C11.5765 2.63677 11.6333 2.6027 11.6901 2.56837C11.8035 2.5113 11.8944 2.4549 12.0193 2.44349C12.0308 2.43242 12.0419 2.42051 12.0649 2.42051C12.099 2.42051 12.2919 2.37533 12.3259 2.40855H12.485C12.6211 2.44262 12.8711 2.51095 12.9619 2.63591H12.9845C13.0301 2.70405 13.0868 2.77207 13.1436 2.85146C13.1777 2.85146 13.2571 3.07872 13.2571 3.11288V4.61163C13.223 4.69085 13.2004 4.77045 13.1778 4.86134C13.1322 4.91842 13.0869 4.97502 13.0528 5.043C13.0187 5.066 12.9961 5.08814 12.9731 5.12307C12.8711 5.16821 12.7802 5.21389 12.6894 5.27062C12.6101 5.28169 12.5303 5.29275 12.4622 5.31575C12.3486 5.31575 12.2351 5.31609 12.1216 5.32802Z" fill="#2E3192"/>
<path fill-rule="evenodd" clip-rule="evenodd" d="M11.5586 7.42918L12.3823 6.17099L13.206 7.42918L12.3823 8.68758L11.5586 7.42918Z" fill="#2E3192"/>
<path fill-rule="evenodd" clip-rule="evenodd" d="M13.201 7.71912L14.6479 7.71995L13.9607 8.93966L12.5137 8.93873L13.201 7.71912Z" fill="#2E3192"/>
<path fill-rule="evenodd" clip-rule="evenodd" d="M11.5627 7.71912L10.1157 7.71995L10.803 8.93966L12.25 8.93873L11.5627 7.71912Z" fill="#2E3192"/>
<path fill-rule="evenodd" clip-rule="evenodd" d="M10.0004 9.15527e-05C15.5085 9.15527e-05 20 4.49167 20 10.0014C20 15.5096 15.5085 19.9999 10.0004 19.9999C4.49359 19.9999 0 15.5096 0 10.0014C0 4.49167 4.49359 9.15527e-05 10.0004 9.15527e-05ZM10.0004 0.405208C15.2863 0.405208 19.5956 4.71442 19.5956 10.0014C19.5956 15.2851 15.2863 19.5941 10.0004 19.5941C4.7157 19.5941 0.405367 15.2851 0.405367 10.0014C0.405367 4.71442 4.7157 0.405208 10.0004 0.405208Z" fill="#2E3192"/>
</g>
<defs>
<clipPath id="clip0_2003_7068">
<rect width="20" height="20" fill="white"/>
</clipPath>
</defs>
</svg>
