<svg width="20" height="20" viewBox="0 0 20 20" fill="none" xmlns="http://www.w3.org/2000/svg">
<g clip-path="url(#clip0_397_1145)">
<path d="M20 7.49997H0V12.5H20V7.49997Z" fill="#004E96"/>
<path d="M20 11.9999H0V12.4998H20V11.9999Z" fill="#FAA61A"/>
<path d="M2.40505 8.63714L2.37049 9.00254H1.72478L1.66436 9.50999H2.31268L2.2694 9.87888H1.62079L1.49706 10.8749H1.12497L1.38755 8.63394L2.40505 8.63714Z" fill="white"/>
<path d="M2.59415 8.63801L2.34028 10.8659C2.34028 10.8659 3.43766 10.888 3.43766 10.8627C3.43766 10.838 3.47513 10.5098 3.47513 10.5098H2.74025L2.81432 9.87219H3.55181L3.59741 9.50011H2.86602L2.92586 8.99702H3.66073L3.70343 8.63452L2.59415 8.63801Z" fill="white"/>
<path d="M5.60017 8.63801L5.34573 10.8659C5.34573 10.8659 6.4431 10.888 6.4431 10.8627C6.4431 10.838 6.48057 10.5098 6.48057 10.5098H5.7457L5.82035 9.87219H6.55784L6.60344 9.50011H5.87176L5.9316 8.99702H6.66618L6.70946 8.63452L5.60017 8.63801Z" fill="white"/>
<path d="M4.42262 8.64353L3.92389 8.6412L3.67206 10.8688H4.03601L4.0363 10.867C4.11386 10.8746 4.55188 10.9083 4.82492 10.7491C4.82492 10.7491 5.38726 10.5182 5.38174 9.5948C5.38174 9.59451 5.34892 8.74664 4.42262 8.64353ZM4.51208 10.5098C4.51208 10.5098 4.16817 10.5321 4.07551 10.5205L4.24718 9.00516L4.51935 8.99993C4.51935 8.99993 4.90886 8.99993 5.02098 9.49953C5.02156 9.50243 5.02243 9.50592 5.02272 9.50883C5.13223 10.0177 4.80952 10.4679 4.51208 10.5098Z" fill="white"/>
<path d="M8.06274 10.8749L7.59189 9.91664C7.59189 9.91664 8.00261 9.84112 8.04153 9.26048C8.04153 9.26048 8.04996 8.67984 7.4757 8.64673H6.94009L6.68535 10.8749H7.06092L7.16491 9.95586L7.21429 9.95905L7.21458 9.95876L7.67845 10.8749H8.06274ZM7.27296 9.0011C7.27296 9.0011 7.63546 8.93487 7.68281 9.15679C7.68281 9.15679 7.76588 9.56867 7.38827 9.62327L7.20267 9.62153L7.27296 9.0011Z" fill="white"/>
<path d="M9.61847 10.8749H10.0042L9.35647 8.63162L8.10776 10.8711H8.53155L8.7796 10.3974H9.49822L9.61847 10.8749ZM8.96695 10.0389L9.26439 9.47049L9.40846 10.0421L8.96695 10.0389Z" fill="white"/>
<path d="M14.6191 10.8749H15.0049L14.3571 8.63162L13.1084 10.8711H13.5322L13.7803 10.3974H14.4992L14.6191 10.8749ZM13.9676 10.0389L14.265 9.47049L14.4091 10.0421L13.9676 10.0389Z" fill="white"/>
<path d="M10.342 8.65543L10.0809 10.8749H11.0847L11.1228 10.5228H10.5009L10.6987 8.65195L10.342 8.65543Z" fill="white"/>
<path d="M12.91 9.70866C12.91 9.70866 13.2098 9.45363 13.1319 9.11785C13.1319 9.11785 13.0951 8.68884 12.5876 8.6441H12.0988L11.8469 10.8711H12.1766H12.2283C12.2283 10.8711 12.2896 10.8699 12.4139 10.8711C12.4139 10.8711 12.9063 10.8752 13.0733 10.5957C13.073 10.5955 13.3986 10.1057 12.91 9.70866ZM12.4581 8.96391C12.4581 8.96391 12.6838 8.94764 12.7657 9.08125C12.7657 9.08125 12.9248 9.39321 12.5841 9.53874L12.3854 9.55036L12.4508 9.00021L12.4581 8.96391ZM12.7468 10.4296C12.7468 10.4296 12.6504 10.5713 12.2803 10.5228L12.2696 10.524L12.3462 9.88033C12.4081 9.87539 12.5533 9.86754 12.6027 9.89891C12.6024 9.89891 12.9652 9.98838 12.7468 10.4296Z" fill="white"/>
<path d="M15.4655 8.62494L15.1431 10.8717H15.5001L15.693 9.42198L16.9048 10.8627L17.2112 8.63511H16.8278L16.671 9.97415L15.4655 8.62494Z" fill="white"/>
<path d="M18.875 8.63482H18.4504L17.735 9.41704L17.8247 8.63482L17.4407 8.63075L17.1836 10.8749H17.5676L17.6699 9.98432L17.7303 9.91664L18.3946 10.8665H18.8306L18.0068 9.60701L18.875 8.63482Z" fill="white"/>
</g>
<defs>
<clipPath id="clip0_397_1145">
<rect width="20" height="20" fill="white"/>
</clipPath>
</defs>
</svg>
