<svg width="33" height="32" viewBox="0 0 33 32" fill="none" xmlns="http://www.w3.org/2000/svg">
<g clip-path="url(#clip0_2833_543)">
<path fill-rule="evenodd" clip-rule="evenodd" d="M10.001 6.99389C17.2317 -0.237062 25.974 -2.11238 29.4596 2.83631C32.9452 7.785 29.8939 17.7051 22.6632 24.9389C15.4325 32.1727 6.68744 34.0452 3.20464 29.0965C-0.278159 24.1478 2.77035 14.2362 10.001 6.99389Z" fill="#F99D27"/>
<path fill-rule="evenodd" clip-rule="evenodd" d="M14.7857 3.13779C13.9436 3.77051 13.1456 4.4608 12.3971 5.20377C6.0604 11.5013 3.42927 20.158 6.54828 24.4806C9.76599 28.8089 17.5635 27.2353 23.9989 20.8409C27.4592 17.446 29.7998 13.462 30.7671 9.77398C31.0491 7.06771 30.6684 4.6517 29.4501 2.83614C26.6724 -0.999875 20.7248 -0.703922 14.7857 3.12071" fill="#B02A30"/>
<path fill-rule="evenodd" clip-rule="evenodd" d="M18.3703 28.5077C14.9862 31.0688 11.4865 32.3437 8.07422 31.8116C9.50682 31.8856 10.663 30.2834 11.6106 28.1292C12.4608 26.1388 13.1309 24.0748 13.6129 21.9626C14.2869 18.9319 14.3376 16.7634 13.9964 16.2996C13.4324 15.5284 12.0985 15.7305 10.6123 16.5842C9.90163 16.9826 8.95408 16.7179 10.0737 15.3491C11.1932 13.9803 15.7138 10.6423 17.3325 10.1244C19.1092 9.60649 21.1396 10.3122 20.4544 12.2786C19.9665 13.7015 13.7341 30.2066 18.3731 28.4992L18.3703 28.5077ZM23.469 2.90484C24.3151 3.75855 23.799 5.61396 22.3636 7.0795C20.9281 8.54504 19.0302 9.04589 18.2152 8.21778C17.3438 7.36407 17.8599 5.49159 19.3066 4.01467C20.7533 2.53774 22.6512 2.08812 23.4662 2.91338L23.469 2.90484Z" fill="white"/>
</g>
<defs>
<clipPath id="clip0_2833_543">
<rect width="32" height="32" fill="white" transform="translate(0.333008)"/>
</clipPath>
</defs>
</svg>
