<svg width="20" height="20" viewBox="0 0 20 20" fill="none" xmlns="http://www.w3.org/2000/svg">
<path d="M19.9997 9.99893C19.9997 15.5228 15.5241 20 9.99919 20C4.4775 20 0.000261307 15.5228 0.000261307 9.99893C0.000261307 4.47939 4.4775 8.25181e-07 9.99919 8.25181e-07C15.5241 8.25181e-07 19.9997 4.47939 19.9997 9.99893Z" fill="white"/>
<path d="M9.92653 17.4835C10.8673 17.4852 11.8127 17.23 12.607 16.7214C13.0879 16.4426 13.5167 16.0691 13.8683 15.6389C14.1019 15.3882 14.2701 15.0919 14.4501 14.8024C14.7486 14.2229 14.9697 13.5974 15.0303 12.9447C15.1172 12.2166 15.0474 11.4706 14.8369 10.7694C14.6826 10.2366 14.4381 9.73192 14.1298 9.27117C13.7054 8.64491 13.1577 8.09129 12.5027 7.71076C12.3553 7.61862 12.2286 7.52583 12.0796 7.43499C11.8602 7.2832 11.5054 7.09284 11.2451 7.29566C10.9805 7.55609 10.9929 7.96629 10.9699 8.31608C10.9683 10.7919 10.9568 13.2675 10.9619 15.7435C10.9465 15.9513 11.0109 16.2033 10.7977 16.3249C10.5772 16.4588 10.3297 16.546 10.0719 16.5866C9.86053 16.6471 9.66102 16.5555 9.45492 16.5166C9.2789 16.4556 9.08702 16.3792 8.95853 16.2566C8.77203 16.0922 8.88406 15.8021 8.85354 15.5717C8.85031 13.0392 8.86003 10.5062 8.84867 7.97414C8.81174 7.70228 8.78192 7.36972 8.52795 7.20737C8.41045 7.14753 8.27958 7.15568 8.15916 7.20628C7.87111 7.29056 7.62636 7.53423 7.38224 7.67895C6.95754 7.92885 6.56594 8.23836 6.23587 8.60795C5.94422 8.90243 5.71296 9.24831 5.49953 9.60372C5.19481 10.1583 4.9626 10.755 4.85737 11.3806C4.75072 11.9586 4.73996 12.5525 4.83082 13.1344C4.96787 14.0202 5.35089 14.8651 5.90756 15.5654C6.45835 16.2669 7.21551 16.7817 8.03156 17.1304C8.63637 17.3538 9.2788 17.4917 9.92653 17.4835Z" fill="#F58220"/>
<path d="M9.9459 5.88453C10.0153 5.88184 10.0871 5.89212 10.1539 5.87484C10.1964 5.87214 10.2343 5.84054 10.2791 5.84845C10.3079 5.8253 10.3402 5.80133 10.377 5.79998C10.4108 5.77914 10.4634 5.78668 10.4805 5.74129C10.5176 5.72832 10.5479 5.70708 10.5815 5.68829C10.6137 5.67262 10.6374 5.63884 10.6679 5.6179C10.7152 5.59776 10.7304 5.54402 10.7758 5.52109C10.7989 5.49229 10.8193 5.46153 10.8488 5.4371C10.8778 5.39435 10.9075 5.35313 10.9247 5.30359C10.9543 5.28071 10.9594 5.24008 10.9796 5.20915C10.9952 5.17469 11.0157 5.14433 11.0234 5.10758C11.0387 5.07565 11.053 5.043 11.0485 5.0064C11.0653 4.96209 11.0534 4.91075 11.0846 4.87072C11.0824 4.76843 11.0889 4.66381 11.0814 4.56298C11.0481 4.52072 11.0646 4.46534 11.0486 4.41728C11.0437 4.38228 11.0367 4.34481 11.0152 4.31626C10.9897 4.21712 10.9246 4.13548 10.8787 4.04608C10.8562 4.01609 10.8444 3.98488 10.8115 3.96459C10.7802 3.92066 10.7332 3.89113 10.7083 3.84238C10.6631 3.83969 10.6404 3.79323 10.6056 3.77097C10.5813 3.7454 10.5431 3.73448 10.5164 3.71353C10.484 3.70034 10.468 3.66632 10.4274 3.66766C10.3703 3.64349 10.315 3.6077 10.2517 3.59632C10.2171 3.57974 10.1882 3.55648 10.147 3.56671C10.1018 3.56564 10.0576 3.55584 10.0121 3.55584C9.93423 3.54652 9.85512 3.55691 9.77772 3.56014C9.73045 3.57769 9.67364 3.55004 9.63251 3.58794C9.58276 3.61217 9.52678 3.61474 9.47915 3.64292C9.4483 3.66671 9.40514 3.6648 9.38119 3.69678C9.33947 3.70447 9.31068 3.7393 9.27098 3.75326C9.23776 3.78061 9.20219 3.81219 9.1722 3.83949C9.12962 3.8341 9.12252 3.88848 9.09261 3.9105C9.0609 3.93306 9.05353 3.97091 9.0237 3.99341C8.96736 4.05671 8.91869 4.1294 8.88599 4.20815C8.8806 4.24578 8.84691 4.26731 8.8454 4.30644C8.82807 4.34305 8.812 4.37416 8.8042 4.41261C8.79494 4.45202 8.80636 4.49764 8.77761 4.53288C8.78192 4.62606 8.7592 4.71945 8.77761 4.81186C8.776 4.86129 8.77383 4.91094 8.79914 4.9555C8.79348 5.01674 8.81986 5.07178 8.84544 5.12503C8.84167 5.16799 8.87927 5.18334 8.88503 5.22088C8.89876 5.25297 8.90752 5.28741 8.92992 5.31555C8.9493 5.38007 9.00479 5.41982 9.04454 5.47039C9.07049 5.49354 9.07777 5.53425 9.11305 5.55044C9.13793 5.57763 9.15677 5.6099 9.19435 5.62313C9.21599 5.65796 9.26205 5.66596 9.28702 5.69966C9.32664 5.73568 9.38823 5.72965 9.41971 5.77665C9.44754 5.79625 9.49063 5.79227 9.51632 5.80961C9.54447 5.82474 9.58134 5.83399 9.61128 5.84815C9.65441 5.85138 9.689 5.88186 9.73274 5.87454C9.80006 5.89543 9.87569 5.87915 9.9459 5.88453Z" fill="#F58220"/>
<path d="M12.4591 3.80849C12.588 3.52496 12.9289 3.30831 13.2187 3.52474C13.7924 3.89046 14.2273 4.44501 14.7242 4.90912C15.3722 5.53822 15.962 6.24178 16.3669 7.05472C16.788 7.88709 17.036 8.80329 17.0666 9.73719C17.1648 10.6803 17.0063 11.6473 16.7252 12.5486C16.1472 14.2439 14.9531 15.7461 13.37 16.6038C11.18 17.8408 8.34319 17.7585 6.20645 16.4472C4.17255 15.2334 2.85305 12.9444 2.74926 10.5857C2.6947 9.50189 2.86612 8.40561 3.30165 7.40705C3.72223 6.4088 4.42315 5.55308 5.20536 4.8112C5.6486 4.36544 6.05828 3.87372 6.58419 3.52905C6.80747 3.35756 7.16643 3.38969 7.28573 3.66042C7.54975 4.07863 7.73195 4.59746 7.71695 5.10599C7.6516 5.94352 6.91815 6.45706 6.33277 6.95482C5.63896 7.52629 5.15485 8.30447 4.75369 9.1019C4.39115 9.87943 4.20054 10.7311 4.22822 11.6029C4.23306 13.4706 5.15412 15.3223 6.66548 16.4283C7.65658 17.1223 8.8569 17.5233 10.074 17.4835C11.738 17.4623 13.3316 16.5992 14.3337 15.2869C15.23 14.1305 15.6866 12.6415 15.5914 11.1793C15.5516 10.2876 15.2734 9.42249 14.8592 8.64858C14.4737 7.95261 13.9504 7.32536 13.334 6.82529C12.874 6.39729 12.3117 5.99389 12.1635 5.35202C12.0523 4.82361 12.2335 4.28333 12.4591 3.80849Z" fill="#F58220"/>
</svg>
