<svg width="20" height="20" viewBox="0 0 20 20" fill="none" xmlns="http://www.w3.org/2000/svg">
<path d="M5.37959 14.9403C6.84084 13.4753 8.27522 12.0366 9.74022 10.5672C9.80522 10.7466 9.77334 10.8972 9.77897 11.0422C9.78522 11.1972 9.78022 11.3522 9.78022 11.4734C8.29397 12.9597 6.83522 14.4184 5.38834 15.8653C3.97022 14.4422 2.54397 13.0109 1.07397 11.5359C1.07397 11.3034 1.07397 10.9953 1.07397 10.6409C2.51897 12.0834 3.93334 13.4959 5.37959 14.9403Z" fill="#234A8F"/>
<path d="M14.6333 18.7578C13.1796 17.3003 11.7233 15.8409 10.2215 14.3353C10.2215 14.1059 10.2215 13.7978 10.2215 13.4378C11.7027 14.9172 13.1515 16.3641 14.6227 17.8341C16.0558 16.4022 17.469 14.9909 18.9133 13.5491C18.9133 13.8997 18.9133 14.1991 18.9133 14.4778C17.4802 15.9109 16.0583 17.3328 14.6333 18.7578Z" fill="#234A8F"/>
<path d="M14.6171 14.9347C16.0408 13.5122 17.4483 12.1072 18.889 10.6678C18.9515 11.0109 18.9171 11.3053 18.9183 11.5541C17.4621 13.0116 16.0333 14.4422 14.6158 15.8616C13.1677 14.4122 11.7096 12.9528 10.2196 11.4609C10.2196 11.2147 10.2196 10.9153 10.2196 10.5553C10.6296 10.9378 10.9827 11.3084 11.3452 11.6678C11.7065 12.0259 12.0652 12.3872 12.4246 12.7466C12.7915 13.1134 13.159 13.4809 13.5265 13.8478C13.8846 14.2066 14.244 14.5634 14.6171 14.9347Z" fill="#234A8F"/>
<path d="M14.6246 16.3897C16.0602 14.9559 17.4671 13.5503 18.9102 12.1097C18.9102 12.4634 18.9102 12.7597 18.9102 13.0553C17.4865 14.4778 16.0633 15.8991 14.6152 17.3453C14.1177 16.8897 13.644 16.3866 13.1533 15.9016C12.6665 15.4197 12.1852 14.9322 11.6996 14.4491C11.2071 13.9584 10.7133 13.4703 10.2252 12.9866C10.2252 12.6591 10.2252 12.3528 10.2252 11.9966C11.7033 13.4722 13.1483 14.9153 14.6246 16.3897Z" fill="#234A8F"/>
<path d="M9.78022 11.9809C9.78022 12.3166 9.77834 12.5747 9.78084 12.8322C9.78272 12.9753 9.68522 13.0553 9.59772 13.1428C9.05397 13.6859 8.51084 14.2291 7.96772 14.7722C7.17459 15.5647 6.38209 16.3578 5.58834 17.1503C5.52334 17.2153 5.45334 17.2759 5.39584 17.3284C3.95772 15.8897 2.52834 14.4591 1.07334 13.0028C1.07334 12.7553 1.07334 12.4659 1.07334 12.1203C1.83397 12.8353 2.52334 13.5597 3.23709 14.2584C3.94772 14.9541 4.64272 15.6647 5.36522 16.3897C6.83147 14.9259 8.27584 13.4834 9.78022 11.9809Z" fill="#234A8F"/>
<path d="M9.78022 13.5047C9.78022 13.7216 9.77022 13.9391 9.78334 14.1547C9.79397 14.3366 9.72647 14.4641 9.59897 14.5903C8.82397 15.3559 8.05647 16.1284 7.28584 16.8991C6.72834 17.4566 6.17022 18.0134 5.61209 18.5703C5.53959 18.6428 5.46334 18.7122 5.36397 18.8072C3.93397 17.3803 2.51272 15.9622 1.07959 14.5322C1.07959 14.2309 1.07959 13.9222 1.07959 13.5628C1.82397 14.2809 2.52084 14.9966 3.22959 15.7003C3.93522 16.4009 4.63709 17.1059 5.36647 17.8341C6.11709 17.1059 6.83959 16.3847 7.55647 15.6572C8.27647 14.9266 8.99959 14.1997 9.72084 13.4709C9.74084 13.4822 9.76084 13.4934 9.78022 13.5047Z" fill="#234A8F"/>
<path d="M6.14834 5.88594C5.99272 5.72906 5.86897 5.60468 5.74959 5.48468C5.74772 5.46593 5.74522 5.45531 5.74647 5.44531C5.74772 5.43531 5.75084 5.42469 5.75647 5.41719C5.78147 5.38406 5.80459 5.34969 5.83397 5.32031C7.20897 3.93906 8.58459 2.55781 9.94459 1.19281C11.3808 2.63344 12.7971 4.05406 14.2221 5.48281C14.1146 5.57719 13.9765 5.69906 13.8102 5.84469C12.5671 4.60344 11.2933 3.33281 9.99772 2.03906C9.33834 2.66969 8.71272 3.31469 8.07647 3.94781C7.43709 4.58281 6.80459 5.22531 6.14834 5.88594Z" fill="#234A8F"/>
<path d="M9.59772 10.1241C9.49022 10.2284 9.36459 10.3509 9.22334 10.4878C8.97397 10.3328 8.79772 10.0866 8.58272 9.88469C8.36397 9.67844 8.15584 9.46094 7.94272 9.24844C7.72959 9.03594 7.51709 8.82344 7.30397 8.61094C7.09147 8.39844 6.87897 8.18531 6.66584 7.97281C6.45272 7.76031 6.23959 7.54844 6.02647 7.33594C5.81397 7.12406 5.60147 6.91219 5.36897 6.67969C5.07772 6.91781 4.84022 7.19031 4.58334 7.44094C4.32334 7.69469 4.06834 7.95281 3.81147 8.20906C3.56209 8.45844 3.31334 8.70844 3.06334 8.95781C2.80647 9.21469 2.54959 9.47094 2.29272 9.72719C2.03709 9.98219 1.78147 10.2366 1.53772 10.4791C1.38334 10.3409 1.24647 10.2184 1.08272 10.0728C2.50897 8.64031 3.92147 7.22969 5.32147 5.83781C6.75459 7.27406 8.16584 8.68906 9.59772 10.1241Z" fill="#234A8F"/>
<path d="M14.6165 5.85657C16.0252 7.26594 17.4308 8.67282 18.8633 10.1066C18.7533 10.2197 18.6202 10.3572 18.474 10.5078C17.1896 9.22469 15.9215 7.95844 14.6277 6.66657C13.3402 7.95157 12.0727 9.21719 10.789 10.4991C10.6446 10.3641 10.5096 10.2384 10.3765 10.1141C10.5127 9.89594 14.384 6.01782 14.6165 5.85657Z" fill="#234A8F"/>
<path d="M9.98459 3.48656C8.94084 4.52781 7.91459 5.55218 6.86772 6.59718C6.67959 6.40906 6.61772 6.35406 6.46834 6.20468C6.64834 6.02468 9.70584 2.86531 10.0121 2.64156C10.6183 3.20906 11.1958 3.81468 11.7902 4.40281C12.379 4.98531 12.9621 5.57343 13.5496 6.16093C13.4071 6.30156 13.2827 6.42468 13.1415 6.56406C13.0315 6.55906 12.9715 6.45093 12.8952 6.37593C12.0346 5.51906 11.1777 4.65968 10.3183 3.80218C10.2171 3.69968 10.1102 3.60468 9.98459 3.48656Z" fill="#234A8F"/>
<path d="M8.91772 10.7984C8.75459 10.9416 8.61584 11.0634 8.45459 11.2047C7.44834 10.2003 6.41647 9.16968 5.35897 8.11468C4.31084 9.14093 3.29772 10.1753 2.24397 11.2172C2.09334 11.0753 1.95522 10.9447 1.82772 10.8234C3.01772 9.63593 4.18959 8.46593 5.38772 7.27031C6.55209 8.43406 7.72834 9.60968 8.91772 10.7984Z" fill="#234A8F"/>
<path d="M11.5096 11.2234C11.3502 11.0753 11.2227 10.9566 11.0977 10.8397C11.2227 10.6353 14.3208 7.51594 14.6515 7.26282C15.8202 8.43032 16.9915 9.60094 18.1777 10.7859C18.0515 10.9484 17.919 11.0834 17.7327 11.2097C17.2158 10.6934 16.704 10.1822 16.1915 9.67094C15.679 9.15907 15.1658 8.64782 14.6283 8.11219C13.5883 9.15032 12.5627 10.1734 11.5096 11.2234Z" fill="#234A8F"/>
<path d="M9.99834 4.06218C10.954 5.01718 11.8833 5.94468 12.8265 6.8878C12.7483 6.9728 12.6821 7.04843 12.6108 7.11968C12.5458 7.18468 12.4752 7.24468 12.3921 7.3203C11.5952 6.52718 10.8052 5.74155 9.99647 4.93718C9.19459 5.73718 8.41084 6.51843 7.61709 7.30968C7.42772 7.2178 7.33209 7.0428 7.16084 6.8953C8.10209 5.9553 9.03084 5.0278 9.99834 4.06218Z" fill="#234A8F"/>
<path d="M8.16397 11.5103C8.02959 11.6597 7.90709 11.7972 7.76334 11.9572C6.96459 11.1603 6.18209 10.3791 5.38272 9.58093C5.14959 9.74781 4.97334 9.96281 4.77584 10.1528C4.57397 10.3466 4.37834 10.5472 4.18084 10.7447C3.98334 10.9428 3.78647 11.1416 3.58834 11.3391C3.39084 11.5359 3.19272 11.7322 2.96959 11.9534C2.82147 11.8078 2.68522 11.6741 2.55522 11.5466C3.49772 10.6003 4.42459 9.66968 5.35397 8.73656C5.54772 8.85531 7.70772 10.9822 8.16397 11.5103Z" fill="#234A8F"/>
<path d="M17.4246 11.5409C17.2983 11.6666 17.1752 11.7897 17.0302 11.9347C16.6158 11.5616 16.2377 11.1541 15.8427 10.7641C15.4452 10.3722 15.0496 9.97906 14.6271 9.56093C13.8277 10.3572 13.0377 11.1441 12.2277 11.9509C12.0821 11.8097 11.9508 11.6828 11.824 11.5603C11.9546 11.3484 14.3552 8.93281 14.6171 8.73718C15.5477 9.66656 16.4765 10.5941 17.4246 11.5409Z" fill="#234A8F"/>
</svg>
