<svg width="20" height="20" viewBox="0 0 20 20" fill="none" xmlns="http://www.w3.org/2000/svg">
<path fill-rule="evenodd" clip-rule="evenodd" d="M10.8299 10.8661C10.8473 10.8836 10.8473 10.9011 10.8648 10.9011C15.7461 3.81539 24.389 10.4812 17.3382 17.007L18.6679 18.2493L18.2129 18.704L12.107 18.2143L11.967 14.925C10.7948 18.5467 3.88407 20.0688 2.18699 12.8081L0.367432 13.1754L3.1842 8.39917L3.58665 7.94432L6.68332 9.7814C2.92177 6.89457 5.75605 -0.226093 13.7516 2.64316L13.979 1.66344L14.3814 1.26099L17.5307 6.57967L17.0757 7.06957L11.1972 9.27395L11.8795 7.41951C9.37772 6.49221 8.27549 9.32652 10.8299 10.9536C10.8299 10.9186 10.8299 10.9011 10.8299 10.8661ZM7.68061 10.3763L9.37769 11.391L8.87024 11.8459L7.36568 11.7934C7.50562 14.0328 10.9523 14.1028 10.8298 10.9536C9.57014 10.9885 8.52039 10.7611 7.68061 10.3763ZM10.8823 10.9186C11.3897 11.5135 11.7396 12.0908 11.932 12.6681L12.3344 12.2308L13.699 13.5604C15.5537 11.8459 13.4542 9.22149 10.8823 10.9186Z" fill="white"/>
<path fill-rule="evenodd" clip-rule="evenodd" d="M10.5149 11.4086C15.6411 17.8643 4.12902 23.0256 1.85456 13.3505L0 13.6479L3.18416 8.39923L8.87023 11.8808L6.91073 12.2833C7.41815 14.7152 10.4099 14.3652 10.5149 11.4086C10.4974 11.4259 10.4799 11.4259 10.4624 11.4434C1.45214 11.6184 3.35915 -0.453487 13.4191 3.13309L13.9265 1.75098L17.0232 7.0696L10.8298 9.76394L11.5646 7.90938C9.01029 6.98212 7.90802 9.79894 10.4624 11.4434C15.0112 4.00787 24.1264 11.0061 17.0232 17.5494L18.1255 18.7042L11.792 18.7391L11.932 12.7207L13.3316 14.1028C15.2387 12.3357 13.0867 9.7114 10.5149 11.4086Z" fill="#F4B035"/>
</svg>
