<svg width="20" height="20" viewBox="0 0 20 20" fill="none" xmlns="http://www.w3.org/2000/svg">
<g clip-path="url(#clip0_2003_7094)">
<path d="M0 5.13014V10.2534L0.260274 10.3014C1.13699 10.4452 2.63014 10.1233 3.10274 9.69178C3.20548 9.59589 3.28767 9.49315 3.28767 9.4726C3.28767 9.44521 3.20548 9.19178 3.10959 8.91096C2.54795 7.28767 3.57534 5.89041 5.5137 5.65068C6.23288 5.56164 7.18493 5.84931 7.77397 6.33562L8.06164 6.56849L8.10274 5.66438C8.15068 4.56849 8.36986 3.65068 8.74658 2.93151C9.20548 2.06164 10.226 1.12329 10.6644 1.17808C10.9384 1.20548 10.8973 1.41781 10.4795 2.09589C10.0479 2.81507 9.69178 3.52055 9.59589 3.86986C9.55479 4.02055 9.52055 4.4863 9.52055 4.90411C9.52055 5.89726 9.72603 6.72603 10.2397 7.79452C10.4452 8.22603 10.6164 8.58904 10.6164 8.60274C10.6164 8.60959 10.5342 8.63014 10.4315 8.64384C10.2877 8.65753 10.2055 8.73973 10.0753 9.00685C9.91781 9.30822 9.85616 9.36301 9.56849 9.45205C8.86301 9.67808 8.63014 10.2123 8.86301 11.0753C8.99315 11.5616 9.18493 11.8562 9.76027 12.4658C10.4863 13.226 10.5137 13.2808 10.3836 13.6507C10.2123 14.1644 10.2877 14.3288 11.3973 15.7808C12.226 16.8699 12.6575 17.6712 12.7192 18.226C12.7671 18.7192 12.6096 19.274 12.2945 19.6849L12.0548 20H16.0274H20V10V-5.96046e-07H10H0V5.13014ZM15.0548 2.07534C15.2397 2.27397 15.6986 3.26712 15.863 3.83562C15.9589 4.17123 15.9932 4.5 15.9863 5.17123C15.9863 5.96575 15.9658 6.12329 15.7945 6.60959C15.5137 7.41781 15.0616 8.25342 14.5616 8.87671L14.1164 9.43151L14.2808 9.95206C14.5616 10.8219 14.5616 10.9726 14.3493 11.4178C14.2397 11.637 13.9247 12.0479 13.637 12.363C13.3493 12.6644 13.0753 12.9589 13.0274 13.0205C12.9795 13.0822 12.863 13.5753 12.774 14.1164C12.6849 14.6575 12.5548 15.2329 12.4932 15.3904C12.3973 15.6438 12.3493 15.6849 12.1849 15.6849C12.0205 15.6849 11.9452 15.6233 11.7808 15.3562C11.6712 15.1781 11.5753 14.9795 11.5753 14.911C11.5753 14.6712 11.7123 14.5205 11.9178 14.5205C12.0753 14.5205 12.1301 14.4863 12.1507 14.3699C12.4384 12.8425 12.6438 12.1986 12.9315 11.8973C13.3904 11.411 13.4658 10.9247 13.1918 10.2534C12.9658 9.71233 12.6781 9.35616 12.0068 8.80137L11.4315 8.32877L11.7603 8.23973C13.1986 7.83562 14.2055 6.86986 14.5616 5.54795C14.726 4.93151 14.726 3.71918 14.5616 2.89041C14.4589 2.39726 14.4521 2.21233 14.5068 2.08219C14.6096 1.86986 14.8562 1.86301 15.0548 2.07534ZM10.7671 10.7671C11.0685 10.8562 11.3014 11.1027 11.3014 11.3356C11.3014 11.5137 10.8904 12.3356 10.8219 12.2945C10.7945 12.2808 10.7671 12.089 10.7603 11.8767C10.7466 11.411 10.6918 11.3288 10.3767 11.274C10.1438 11.226 10.1096 11.1781 10.1301 10.9589C10.1644 10.6575 10.2877 10.6233 10.7671 10.7671Z" fill="#98272B"/>
<path d="M7.57528 11.3631C7.54788 11.4042 7.54788 11.5823 7.57528 11.7672C7.60268 11.9727 7.57528 12.3014 7.50679 12.6439C7.06843 14.8151 7.13007 15.1918 8.15062 16.5617C8.69172 17.2946 8.8287 17.6918 8.70542 18.185C8.56843 18.7329 8.60953 19.1028 8.86295 19.5549L9.08898 19.9658L9.47254 19.9864C9.69172 20.0001 9.86295 19.9864 9.86295 19.9658C9.86295 19.9453 9.80816 19.8151 9.73966 19.6713C9.46569 19.1165 9.41775 18.8151 9.45884 17.6987C9.47939 16.9932 9.33555 16.6781 8.68487 16.0069C7.8287 15.1234 7.63692 14.4658 7.8287 13.0138C7.90405 12.4658 7.91775 12.1097 7.8698 11.8562C7.80816 11.4727 7.65747 11.2261 7.57528 11.3631Z" fill="#98272B"/>
<path d="M3.59589 12.089C3.04795 12.3014 2.00685 12.4726 1.0137 12.5137L0 12.5548V16.2808V20H1.36986C2.12329 20 2.73973 19.9795 2.73973 19.9589C2.73973 19.9315 2.65068 19.726 2.53425 19.4932C2.42466 19.2671 2.31507 18.911 2.28767 18.7055C2.23973 18.3356 2.23973 18.3356 2.40411 18.3836C3.58904 18.7534 4.28767 18.6712 4.56164 18.137C4.61644 18.0274 4.71233 17.6712 4.76712 17.3425C4.95205 16.274 5.15068 15.7671 5.55479 15.3356C5.94521 14.9247 6.07534 14.0685 5.85616 13.4178C5.71233 13 5.29452 12.4726 4.92466 12.2397C4.53425 12 3.99315 11.9384 3.59589 12.089Z" fill="#98272B"/>
<path d="M9.06862 13.5959C9.01382 13.8288 9.19875 14.911 9.34944 15.2329C9.41793 15.3699 9.75355 15.7877 10.1029 16.1644C10.8426 16.9521 11.096 17.4178 11.1508 18.0548C11.1919 18.6302 11.1234 18.9315 10.8905 19.2055C10.644 19.4863 10.6371 19.5206 10.8494 19.5206C11.3837 19.5206 11.8631 18.5274 11.7125 17.7466C11.5686 16.9726 11.4111 16.7466 10.5207 16.0137C9.97273 15.5617 9.63711 15.2329 9.53437 15.048C9.37684 14.7534 9.2467 14.137 9.2467 13.6781C9.2467 13.3904 9.13711 13.3356 9.06862 13.5959Z" fill="#98272B"/>
<path d="M6.55463 15.7192C6.49299 15.774 6.3834 16.0274 6.30121 16.274C6.06148 16.9863 6.12313 17.5548 6.53409 18.3973C6.73272 18.8082 6.87655 19.2329 6.93135 19.5274L7.00669 20H7.3697H7.73956V19.7603C7.73956 19.4795 7.64367 19.274 7.20532 18.5959C6.73956 17.8904 6.58203 17.4521 6.57518 16.8973C6.57518 16.637 6.62313 16.3288 6.67792 16.1849C6.84915 15.774 6.77381 15.4932 6.55463 15.7192Z" fill="#98272B"/>
</g>
<defs>
<clipPath id="clip0_2003_7094">
<rect width="20" height="20" fill="white"/>
</clipPath>
</defs>
</svg>
