<svg width="20" height="20" viewBox="0 0 20 20" fill="none" xmlns="http://www.w3.org/2000/svg">
<g clip-path="url(#clip0_2003_7125)">
<rect width="20" height="20" fill="#853A93"/>
<path fill-rule="evenodd" clip-rule="evenodd" d="M16.1823 13.3491L14.8521 11.1863L13.5476 13.3491H16.1823ZM16.1798 6.64153H13.5314L14.8512 8.76093L16.1798 6.64153ZM9.97924 3.27513L8.66707 5.4263H11.3022L9.97924 3.27513ZM3.80705 6.64153L5.11661 8.77405L6.41952 6.64153H3.80705ZM3.8056 13.3672L6.42176 13.3511L5.117 11.2074L3.8056 13.3672ZM1.56818 5.4263H7.18901L9.83296 1.10647L10 0.833352L10.1672 1.10647L12.8111 5.4263H18.4318L18.2644 5.69811L15.621 9.98997L18.2651 14.3126L18.4313 14.5844H12.811L10.1672 18.8942L10 19.1667L9.83296 18.8942L7.18911 14.5844H1.56872L1.73486 14.3126L4.37881 9.98997L1.73558 5.69811L1.56818 5.4263ZM7.92458 6.68208L5.7948 9.99102L7.92458 13.3288H12.0753L14.2052 9.99102L12.0753 6.68208H7.92458ZM9.99797 16.7175L11.3024 14.5844H8.66977L9.99797 16.7175ZM9.84738 8.58225C10.2623 8.58225 10.6397 8.74178 10.9132 8.99914V8.99841C11.1862 9.25501 11.3558 9.6097 11.3558 10.0003C11.3558 10.3903 11.1862 10.7447 10.9132 11.0016V11.0023C10.6403 11.2589 10.2628 11.4183 9.84738 11.4183C9.43197 11.4183 9.05466 11.2589 8.78173 11.0023H8.78245C8.50872 10.745 8.33897 10.3903 8.33897 10.0003C8.33897 9.61064 8.50833 9.25617 8.78162 8.99907C8.78184 8.99885 8.78234 8.99834 8.78234 8.99834C9.05578 8.74138 9.43299 8.58225 9.84738 8.58225Z" fill="white"/>
</g>
<defs>
<clipPath id="clip0_2003_7125">
<rect width="20" height="20" fill="white"/>
</clipPath>
</defs>
</svg>
