<svg width="20" height="20" viewBox="0 0 20 20" fill="none" xmlns="http://www.w3.org/2000/svg">
<g clip-path="url(#clip0_2002_7056)">
<path fill-rule="evenodd" clip-rule="evenodd" d="M4.51606 11.0622V8.94843C4.51773 8.81358 4.50283 8.67903 4.47169 8.54781C4.44919 8.45875 4.40512 8.39218 4.36044 8.34781C4.33856 8.32593 4.29387 8.30344 4.24919 8.28125C4.22731 8.28125 4.16012 8.25937 4.09294 8.23687H4.02637C4.00387 8.215 3.98169 8.215 3.9595 8.1925C3.93731 8.17 3.93762 8.14781 3.93762 8.12593C3.93762 8.08125 3.9595 8.05906 3.982 8.03687C4.0045 8.01468 4.04856 7.9925 4.09325 7.9925H4.182C4.182 8.01437 4.182 8.01437 4.20387 8.01437C4.42637 8.03625 4.64887 8.03625 4.84919 8.03625C5.072 8.03625 5.29419 8.03625 5.53887 7.99187H5.65044C5.69419 7.99187 5.73919 7.99187 5.76137 8.01375C5.78356 8.03562 5.80606 8.08031 5.80606 8.1025C5.80606 8.14687 5.76137 8.19156 5.67262 8.23594H5.65075C5.62825 8.25781 5.58387 8.25781 5.56169 8.28031C5.53919 8.28031 5.51731 8.30219 5.51731 8.32469C5.47262 8.34656 5.42825 8.41375 5.40606 8.45812C5.40606 8.52468 5.38419 8.63625 5.38419 8.79187V9.79312C5.38419 9.815 5.38419 9.8375 5.40606 9.85968C5.40606 9.88156 5.42794 9.90406 5.45044 9.90406L5.47231 9.88218C5.49481 9.86031 5.517 9.86031 5.53887 9.83781L6.58481 8.88093L6.8295 8.61406C6.87118 8.55554 6.89436 8.48588 6.89606 8.41406C6.89606 8.325 6.85169 8.28062 6.71794 8.25781V8.23594H6.67356C6.58481 8.21406 6.54012 8.16937 6.54012 8.12469C6.54012 8.08 6.56262 8.05781 6.56262 8.03562C6.5845 8.01375 6.62919 8.01375 6.67387 8.01375H6.852C7.03012 8.03562 7.18575 8.03562 7.34137 8.03562L7.83106 8.01375H7.92012C7.98669 8.01375 8.03137 8.01375 8.05356 8.03562C8.07544 8.03562 8.07544 8.08 8.07544 8.10218C8.07544 8.14656 8.07544 8.19125 8.05356 8.19125C8.05356 8.21312 8.00887 8.23562 7.94231 8.25781H7.92044C7.87575 8.27968 7.83137 8.30218 7.80919 8.30218C7.60919 8.39125 7.36419 8.56937 7.07481 8.83343L7.05294 8.85594L7.03106 8.87781L6.49981 9.34531L6.41075 9.43437C6.41075 9.45625 6.38887 9.45625 6.38887 9.47875C6.38887 9.50125 6.41075 9.50062 6.41075 9.52312C6.41075 9.54562 6.43325 9.5675 6.45544 9.61218L7.74606 11.4809C7.79044 11.57 7.85731 11.6372 7.90231 11.6809C7.94904 11.725 8.00162 11.7624 8.05856 11.7922C8.08044 11.7922 8.10294 11.8147 8.14731 11.8147C8.19169 11.8147 8.21419 11.8366 8.21419 11.8591C8.23606 11.8591 8.23606 11.9034 8.23606 11.9481C8.23606 11.9928 8.23606 12.0369 8.19137 12.0369C8.1695 12.0587 8.12481 12.0812 8.05794 12.0812H7.99106C7.96919 12.0812 7.94669 12.0812 7.9245 12.0594H7.65731C7.54606 12.0594 7.41294 12.0594 7.28231 12.0812H7.21575C7.14919 12.0812 7.1045 12.0594 7.03762 11.9925C6.97075 11.9256 6.90419 11.8362 6.79294 11.6809L5.81387 10.1903C5.792 10.1684 5.792 10.1459 5.76919 10.1234H5.72544C5.70294 10.1016 5.70294 10.1234 5.68106 10.1234C5.68106 10.1234 5.65919 10.1234 5.65919 10.1459L5.48106 10.3016C5.43669 10.3462 5.4145 10.3684 5.4145 10.3906C5.39262 10.4125 5.39262 10.4572 5.39262 10.5019V11.2362C5.39262 11.3919 5.4145 11.5031 5.437 11.57C5.48137 11.6366 5.52606 11.6812 5.59325 11.7481C5.65761 11.777 5.72472 11.7993 5.79356 11.8147H5.81544C5.882 11.8366 5.94887 11.8591 5.97169 11.8812C5.9945 11.9034 6.01606 11.9256 6.01606 11.9703C6.01606 12.015 5.99419 12.0369 5.97169 12.0591C5.94919 12.0812 5.927 12.1037 5.88262 12.1037H5.79106C5.74669 12.1037 5.7245 12.1037 5.702 12.0812C5.56856 12.0812 5.45731 12.0594 5.34575 12.0594C5.257 12.0375 5.14575 12.0375 5.03419 12.0375C4.92262 12.0375 4.81544 12.0375 4.70075 12.0594C4.612 12.0594 4.50075 12.0812 4.38919 12.0812C4.34481 12.0812 4.32262 12.1037 4.27794 12.1037H4.18887C4.15548 12.0981 4.12455 12.0825 4.10012 12.0591C4.07825 12.0372 4.07825 12.0147 4.07825 11.9925C4.07825 11.9256 4.122 11.8812 4.21169 11.8144H4.23419C4.27856 11.7919 4.30075 11.77 4.34544 11.7478L4.41231 11.6809C4.45606 11.6366 4.47887 11.5697 4.50106 11.5028C4.52294 11.4141 4.52294 11.2803 4.52294 11.0578L4.51606 11.0622ZM10.3904 11.9997L8.98856 8.75062V8.70375C8.8995 8.52562 8.78856 8.3925 8.69919 8.32875C8.67731 8.32875 8.65481 8.30687 8.63262 8.28437C8.61075 8.28437 8.58794 8.2625 8.56575 8.2625C8.52137 8.24062 8.477 8.21812 8.4545 8.21812C8.43262 8.19625 8.43262 8.17375 8.43262 8.12937C8.43262 8.10687 8.43262 8.0625 8.477 8.04031C8.49887 8.01844 8.54356 8.01844 8.61044 8.01844H8.74387L9.16669 8.06281C9.25575 8.06281 9.34481 8.06281 9.43387 8.04093H9.76762C9.7895 8.04093 9.83419 8.01906 9.92387 8.01906H10.0801C10.1245 8.01906 10.1689 8.01906 10.1914 8.04093C10.2139 8.06281 10.2132 8.08531 10.2132 8.13C10.2132 8.15187 10.2132 8.17437 10.1914 8.19656C10.1914 8.21844 10.1467 8.24093 10.1023 8.26312H10.0804V8.285H10.0586C9.94731 8.32937 9.88044 8.41843 9.88044 8.50781C9.88044 8.55156 9.88044 8.59656 9.90231 8.64125L9.96887 8.84125L10.8145 10.8662C10.8364 10.8881 10.8364 10.9109 10.8589 10.9109C10.8589 10.9328 10.8807 10.9328 10.9032 10.9328C10.9257 10.9328 10.9251 10.9328 10.9479 10.9109C10.9698 10.9109 10.9698 10.8884 10.9923 10.8662L11.7486 9.0225C11.7929 8.95593 11.8154 8.88906 11.8373 8.8225C11.8373 8.75593 11.8598 8.68906 11.8598 8.64437C11.8598 8.55531 11.8373 8.46625 11.7707 8.42187C11.7264 8.355 11.6595 8.31062 11.5482 8.28843C11.5264 8.28843 11.5039 8.26656 11.4814 8.26656H11.4595C11.3257 8.24468 11.2814 8.17781 11.2814 8.11031C11.2814 8.08843 11.2814 8.06593 11.3039 8.04375C11.3343 8.01585 11.3739 8.00006 11.4151 7.99937C11.4151 7.99937 11.437 8.02125 11.4598 8.02125H11.5486C11.7267 8.04312 11.9048 8.04312 12.0604 8.04312H12.2829C12.3495 8.04312 12.4164 8.04312 12.4829 8.02125H12.5723C12.6167 8.02125 12.6389 8.02125 12.6611 8.04312C12.6829 8.04312 12.6829 8.0875 12.6829 8.10969C12.6829 8.17656 12.6386 8.22094 12.5495 8.28781H12.5276C12.5057 8.30969 12.4611 8.33218 12.4611 8.35437C12.3723 8.39906 12.2829 8.55437 12.1717 8.79937C12.1717 8.82125 12.1717 8.84375 12.1498 8.84375V8.88812C12.1498 8.88812 12.1279 8.91 12.1279 8.9325L10.9023 11.6412V11.6856C10.8804 11.7075 10.8804 11.73 10.8579 11.7525C10.7914 11.9306 10.7245 12.0637 10.6798 12.1087C10.6351 12.1537 10.5907 12.1753 10.5464 12.1753C10.5245 12.1753 10.502 12.1753 10.4798 12.1306C10.4579 12.1087 10.4354 12.0641 10.3911 11.9972L10.3904 11.9997ZM14.3286 10.3309V11.3287C14.3286 11.5287 14.3504 11.6625 14.4398 11.7037C14.5064 11.7706 14.6398 11.7925 14.8626 11.7925C15.152 11.7925 15.3751 11.7259 15.5301 11.5737C15.6864 11.4403 15.7526 11.2175 15.7526 10.9284C15.7526 10.6394 15.6639 10.4166 15.4857 10.2609C15.3076 10.1053 15.0407 10.0384 14.7067 10.0384C14.5286 10.0384 14.4176 10.0384 14.3732 10.0828C14.3507 10.1047 14.3286 10.1941 14.3286 10.3278V10.3309ZM14.3286 8.81781V9.39593C14.3286 9.52937 14.3504 9.64094 14.4176 9.68531C14.5064 9.75219 14.6176 9.77437 14.7926 9.77437C15.0373 9.77437 15.1926 9.72969 15.3239 9.61812C15.4351 9.52906 15.4801 9.35093 15.4801 9.15062C15.4801 8.88343 15.4132 8.66093 15.2801 8.50562C15.1467 8.3275 14.9686 8.26062 14.7489 8.26062C14.5926 8.26062 14.4817 8.2825 14.4151 8.34937C14.3486 8.41625 14.3261 8.57219 14.3261 8.81687L14.3286 8.81781ZM13.4611 11.0653V8.95156C13.4625 8.8167 13.4475 8.68216 13.4164 8.55093C13.398 8.47535 13.3596 8.40614 13.3051 8.35062C13.2382 8.30625 13.1489 8.28406 13.0382 8.26187V8.24H12.9492C12.9267 8.21812 12.9045 8.21812 12.9045 8.19562C12.8826 8.17375 12.8826 8.15094 12.8826 8.12906C12.8826 8.08437 12.8826 8.06219 12.9045 8.04C12.9264 8.01781 12.9714 7.99562 12.9936 7.99562C13.0157 7.99562 13.0154 7.99562 13.0382 8.0175H13.0601C13.1936 8.0175 13.3273 8.03937 13.4351 8.03937H14.0582C14.1473 8.03937 14.2364 8.0175 14.3473 8.0175H14.4807C14.6807 7.99562 14.837 7.99562 14.9479 7.99562C15.4154 7.99562 15.7492 8.08437 15.9939 8.24031C16.2386 8.41844 16.3689 8.66312 16.3689 8.95281C16.3689 9.19781 16.3023 9.37562 16.1689 9.53094C16.0354 9.66437 15.8126 9.77593 15.5457 9.8425C15.9207 9.86437 16.2132 9.95375 16.3914 10.1094C16.5914 10.2656 16.6804 10.4844 16.6804 10.7991C16.6804 11.2441 16.5242 11.5553 16.2132 11.7781C15.9017 11.9781 15.4345 12.0894 14.7892 12.0894C14.6557 12.0894 14.4776 12.0894 14.2579 12.0675H13.5904C13.4792 12.0675 13.3904 12.0894 13.2789 12.0894C13.257 12.1119 13.2345 12.1119 13.2123 12.1119H13.1232C13.0789 12.1119 13.0567 12.0894 13.0345 12.0672C13.0123 12.045 12.9898 12.0228 12.9898 12.0006C12.9898 11.9562 13.0117 11.9337 13.0345 11.9116C13.0679 11.8776 13.1052 11.8478 13.1457 11.8228H13.1676C13.2567 11.7784 13.3239 11.7337 13.3457 11.6894C13.3901 11.645 13.4123 11.5781 13.4345 11.4894C13.4345 11.4228 13.457 11.2894 13.457 11.0666L13.4611 11.0653ZM4.37044 2.59031C7.99731 -0.235315 13.0486 -0.0128152 16.3861 2.8575C13.3376 0.521248 8.932 0.432497 5.74981 2.92406C1.96731 5.86156 1.25544 11.3125 4.17012 15.0506C7.08481 18.7887 12.5361 19.4537 16.3223 16.4975C17.7911 15.3631 18.792 13.8275 19.3036 12.1587C18.8001 14.2467 17.5977 16.0996 15.8961 17.41C11.7795 20.6141 5.83887 19.9022 2.657 15.83C-0.524876 11.7362 0.250749 5.795 4.37012 2.59093L4.37044 2.59031ZM6.77669 3.60687C10.1361 0.981248 15.0317 1.58187 17.6351 4.96406C20.2601 8.32343 19.6373 13.1966 16.2776 15.8003C16.1889 15.8891 16.0776 15.9566 15.9882 16.0228C19.0814 13.3528 19.5932 8.68 17.0564 5.40906C14.5195 2.13812 9.847 1.47062 6.48762 3.82906C6.59887 3.7625 6.68762 3.67344 6.777 3.61031L6.77669 3.60687Z" fill="#418D52"/>
</g>
<defs>
<clipPath id="clip0_2002_7056">
<rect width="20" height="20" fill="white"/>
</clipPath>
</defs>
</svg>
