<svg width="20" height="20" viewBox="0 0 20 20" fill="none" xmlns="http://www.w3.org/2000/svg">
<g clip-path="url(#clip0_320_257)">
<path d="M9.968 18.5947C7.26518 18.706 4.90321 17.837 2.84547 16.106C-0.798197 13.0398 -1.02496 7.76657 2.27786 4.47643C4.31871 2.44263 6.79476 1.47361 9.66518 1.40037C11.5807 1.35108 13.3962 1.69474 15.1032 2.56094C16.9286 3.48911 18.3877 4.81727 19.275 6.68206C20.668 9.60882 20.1638 12.9243 17.9525 15.3032C15.9581 17.4483 13.4765 18.5609 10.5314 18.5933C10.3441 18.5961 10.1567 18.5933 9.968 18.5947ZM11.13 11.3342C11.1215 11.175 11.1131 11.0159 11.1032 10.8567C11.5877 10.0764 12.1342 9.34263 12.868 8.77784C13.7821 8.07502 14.775 7.89051 15.8243 8.45812C16.106 8.61023 16.3412 8.85249 16.5708 9.03277C16.8722 9.03277 17.1469 9.03277 17.4201 9.03277C17.3877 8.33418 17.1314 7.66235 16.6624 7.00882C15.6469 5.59615 13.8765 5.09756 12.2863 5.80742C11.8849 5.98629 11.5272 6.26516 11.1483 6.49897C11.1483 5.47925 11.1483 4.45953 11.1483 3.34826C10.268 3.64122 9.50603 3.89474 8.70603 4.16094C8.70603 5.05671 8.70603 5.89474 8.70603 6.73277C8.52575 6.58488 8.34969 6.43136 8.16518 6.28911C6.41025 4.94404 4.26096 5.28488 3.18913 7.07784C2.14547 8.82291 2.26659 11.4356 3.48068 13.0623C4.27082 14.1215 5.33279 14.5891 6.65532 14.5032C7.43983 14.4525 8.06941 14.0595 8.70603 13.6638C8.72293 14.6849 8.73983 15.706 8.75814 16.8159C9.60321 16.53 10.3652 16.2722 11.1426 16.0088C11.1426 14.8581 11.1426 13.7807 11.1426 12.7018C11.4074 12.9976 11.6553 13.3088 11.9384 13.5849C12.9469 14.5652 14.306 14.8159 15.4905 14.2567C16.6765 13.6976 17.5666 12.1947 17.4666 10.8694C17.3342 10.8694 17.1962 10.8652 17.0596 10.8708C16.899 10.8764 16.7398 10.8919 16.6103 10.9004C15.6257 12.1004 14.2117 12.5145 12.7398 12.0187C12.1891 11.8342 11.6666 11.5652 11.13 11.3342Z" fill="#044C87"/>
<path d="M8.70603 13.6652C8.07082 14.0609 7.44124 14.4539 6.65533 14.5046C5.33279 14.5891 4.27082 14.1229 3.48068 13.0638C2.268 11.437 2.14547 8.82432 3.18913 7.07925C4.26237 5.2863 6.41025 4.94404 8.16518 6.29052C8.34969 6.43278 8.52575 6.58489 8.70603 6.73418C8.70603 7.33982 8.70603 7.94686 8.70462 8.55249C8.10885 8.34827 7.52716 8.07785 6.91448 7.95672C5.97645 7.7708 5.04406 7.85954 4.20885 8.39897C3.56096 8.81728 3.26941 9.42855 3.32434 10.1919C3.37927 10.9511 3.83138 11.4271 4.49758 11.7229C5.48209 12.1595 6.4173 11.968 7.18209 11.2933C7.78631 10.7595 8.25392 10.0694 8.78068 9.44827C9.60603 8.49475 10.2229 7.37503 11.1455 6.50038C11.5229 6.26658 11.8807 5.98911 12.2835 5.80883C13.8736 5.09897 15.6441 5.59756 16.6596 7.01024C17.13 7.66376 17.3849 8.33559 17.4173 9.03418C17.1441 9.03418 16.8708 9.03418 16.568 9.03418C16.337 8.8539 16.1032 8.61306 15.8215 8.45954C14.7722 7.89193 13.7779 8.07503 12.8652 8.77925C12.1314 9.34404 11.5863 10.0778 11.1004 10.8581C10.3272 11.9567 9.69758 12.7102 8.70603 13.6652Z" fill="#F9F9FA"/>
<path d="M11.13 11.3342C11.6652 11.5652 12.1891 11.8342 12.7398 12.0201C14.2117 12.5159 15.6257 12.1018 16.6103 10.9018C16.7398 10.8933 16.899 10.8778 17.0596 10.8722C17.1962 10.8666 17.3342 10.8708 17.4666 10.8708C17.5666 12.1962 16.6765 13.699 15.4905 14.2581C14.306 14.8173 12.9469 14.5666 11.9384 13.5863C11.6553 13.3102 11.4074 12.999 11.1427 12.7032C11.1384 12.2469 11.1342 11.7905 11.13 11.3342Z" fill="#F8F9FA"/>
<path d="M11.1046 10.8567C11.1173 11.3243 11.13 11.7919 11.1427 12.2609V16.0102C10.3652 16.2736 9.60321 16.5314 8.75814 16.8173C8.73983 15.7074 8.72293 14.6863 8.70603 13.6652C9.90885 12.5074 10.1652 12.2102 11.1046 10.8567Z" fill="#EE3732"/>
<path d="M11.1497 6.49897C10.2272 7.37362 8.70744 9.53982 8.70744 9.53982C8.70744 9.53982 8.70744 8.94122 8.70744 8.55108C8.70744 7.94545 8.70744 7.33841 8.70884 6.73277C8.70884 5.89475 8.70884 5.05813 8.70884 4.16094C9.50884 3.89475 10.2694 3.64122 11.1511 3.34827C11.1497 4.45953 11.1497 5.47925 11.1497 6.49897Z" fill="#ED3632"/>
<path d="M8.70603 8.55108C8.70603 8.93417 8.70603 9.19051 8.70603 9.53981C8.17786 10.1609 7.78913 10.7581 7.1849 11.2919C6.42012 11.9666 5.4849 12.1581 4.5004 11.7215C3.8342 11.4257 3.3835 10.9497 3.32716 10.1905C3.27082 9.42713 3.56237 8.81586 4.21166 8.39755C5.04688 7.85812 5.97786 7.76939 6.9173 7.9553C7.52857 8.07643 8.11026 8.34685 8.70603 8.55108Z" fill="#054D88"/>
</g>
<defs>
<clipPath id="clip0_320_257">
<rect width="20" height="20" fill="white"/>
</clipPath>
</defs>
</svg>
