<svg width="20" height="20" viewBox="0 0 20 20" fill="none" xmlns="http://www.w3.org/2000/svg">
<path d="M16.9914 0H3.00864V20H16.9914V0Z" fill="#FBED21"/>
<path fill-rule="evenodd" clip-rule="evenodd" d="M6.88916 17.502C6.83417 17.4549 6.70063 17.3606 6.70848 17.2035C6.70848 17.1249 6.76347 17.0542 6.81061 17.0071C6.86559 16.96 6.94415 16.9521 7.0227 16.9521C7.12482 16.9521 7.21123 16.9993 7.28193 17.0935C7.36049 17.1878 7.43119 17.3135 7.45475 17.5099H7.65899L7.72969 17.6748H7.48617V18.9474L7.28193 18.8453V17.667H7.03056V18.9317L6.81846 18.8453V18.3897C6.80275 18.4054 6.77918 18.4132 6.77133 18.4132C6.75562 18.4211 6.74776 18.4289 6.72419 18.4289C6.67706 18.4447 6.63778 18.4447 6.60636 18.4447C6.54352 18.4447 6.41783 18.4054 6.33142 18.3347C6.2293 18.2561 6.18217 18.1697 6.18217 18.0912V17.667H5.97793L5.89937 17.502H6.88916ZM8.13818 18.7117L7.96536 18.8846L7.79254 18.7039L7.96536 18.5311L8.13818 18.7117ZM6.81846 17.667H6.38641V18.1069C6.38641 18.2483 6.43354 18.3111 6.52781 18.3111C6.56709 18.3111 6.61422 18.3033 6.66921 18.2797C6.69277 18.2718 6.71634 18.2561 6.74776 18.2483C6.77133 18.2326 6.80275 18.2168 6.81846 18.2011V17.667ZM7.00699 17.5099H7.3762C7.36049 17.3685 7.3055 17.282 7.24266 17.2113C7.17981 17.1406 7.10911 17.1171 7.03841 17.1171C6.94415 17.1249 6.86559 17.1799 6.88916 17.3449C6.90487 17.4156 6.95986 17.4784 7.00699 17.5099ZM9.93708 17.667C10.1099 17.9026 10.0313 17.9733 9.92922 18.0597C9.91351 18.0912 9.86638 18.0833 9.86638 18.099C9.83496 18.0519 9.79568 18.0283 9.74069 18.044C9.64643 18.0597 9.57573 18.1697 9.59144 18.2247C9.60715 18.264 9.64643 18.3347 9.72498 18.4368C9.79568 18.5232 9.99207 18.7275 10.2199 18.9867L10.2749 18.861L10.0706 18.641C9.99207 18.5546 9.94493 18.5075 9.93708 18.4996C9.91351 18.4761 9.88995 18.4447 9.85852 18.4054V18.3975C9.85852 18.3897 9.86638 18.3897 9.87423 18.3818C9.88209 18.374 9.90566 18.3661 9.93708 18.3425C9.96064 18.3268 9.97636 18.3111 9.99992 18.2875L10.0549 18.2247C10.0942 18.2718 10.1492 18.3111 10.1963 18.3347C10.2513 18.3582 10.3063 18.374 10.3613 18.374C10.377 18.374 10.377 18.374 10.4084 18.3582C10.4398 18.3504 10.4634 18.3425 10.487 18.3347C10.5105 18.3268 10.5262 18.319 10.5341 18.319V18.8453L10.754 18.9395V17.667H10.919L10.8405 17.502H8.24815L8.32671 17.667H8.49953V18.3425C8.49953 18.4211 8.5231 18.4918 8.58594 18.5232L9.36363 18.971C9.41076 19.0024 9.43433 19.026 9.43433 19.0495C9.43433 19.0652 9.42647 19.0731 9.41862 19.0967C9.41076 19.1124 9.39505 19.1281 9.3872 19.1438L9.52074 19.2695C9.57573 19.1831 9.60715 19.1281 9.60715 19.0967C9.60715 19.0652 9.59144 19.0417 9.57573 19.0181C9.56002 18.9945 9.52074 18.9631 9.46575 18.9317L8.76661 18.4761C8.75876 18.4682 8.7509 18.4604 8.74305 18.4368C8.73519 18.4132 8.73519 18.3975 8.73519 18.374V17.667H9.11225V18.2718C9.11225 18.3033 9.08869 18.3268 9.0337 18.3268L8.88445 18.319L9.02584 18.4525L9.12011 18.4761C9.12797 18.4761 9.13582 18.4761 9.15153 18.4839C9.15939 18.4839 9.16724 18.4839 9.18295 18.4839H9.21438C9.27722 18.4839 9.33221 18.4447 9.33221 18.374V17.667H9.93708ZM10.0706 17.667C10.1492 17.8241 10.1727 17.9969 10.0942 18.1461L10.1806 18.1933C10.2277 18.2168 10.2827 18.2247 10.3299 18.2247C10.3456 18.2247 10.3613 18.2247 10.3848 18.2247C10.4005 18.2247 10.3927 18.209 10.4241 18.1933C10.4791 18.1697 10.5184 18.154 10.5498 18.1226V17.667H10.0706ZM12.5372 17.5099C12.4901 17.4627 12.4508 17.3606 12.4351 17.2978C12.4194 17.2271 12.443 17.0857 12.5215 17.0307C12.5765 16.9835 12.6551 16.9521 12.7336 16.9521C12.8357 16.9521 12.9222 16.9993 12.9929 17.0935C13.0636 17.1878 13.1185 17.3056 13.1421 17.502H13.3463L13.4328 17.667H13.2049V18.9395L12.9771 18.8453V17.667H12.6943V18.9395L12.4901 18.8453V18.4918C12.443 18.5468 12.4037 18.5625 12.3644 18.5861C12.2937 18.6253 12.1837 18.6489 12.0895 18.6489C12.0266 18.6489 11.9638 18.641 11.9167 18.6253C11.8617 18.6018 11.7988 18.5703 11.7517 18.5232C11.6653 18.4368 11.6181 18.3111 11.6181 18.209C11.6181 18.1383 11.6574 18.0362 11.7203 17.9733C11.7988 17.8869 11.9638 17.8319 12.0895 17.8398C12.168 17.8476 12.2701 17.8634 12.3408 17.9105C12.4037 17.9498 12.4351 17.9655 12.4901 18.044V17.667H11.5553L11.4767 17.502L12.5372 17.5099ZM12.2859 18.3897C12.3251 18.374 12.333 18.3582 12.3566 18.3268C12.3801 18.2954 12.3958 18.2561 12.3958 18.2247C12.3958 18.1461 12.3723 18.0912 12.3251 18.044C12.2859 18.0126 12.2387 17.989 12.1916 17.989H12.113C12.0973 17.989 12.0816 17.989 12.0423 18.0047L12.2859 18.3897ZM11.9402 18.0754C11.9167 18.0912 11.9009 18.1069 11.8695 18.154C11.8381 18.2011 11.8224 18.2404 11.8224 18.2797C11.8224 18.3425 11.8381 18.4132 11.8852 18.4447C11.9245 18.4682 11.9795 18.4918 12.0423 18.4918C12.0738 18.4918 12.1052 18.4918 12.113 18.4839L12.1916 18.4447L11.9402 18.0754ZM12.6394 17.5099H13.0793C13.0636 17.3685 13.0243 17.2899 12.9614 17.2192C12.8986 17.1485 12.8279 17.1014 12.7572 17.1092C12.5844 17.1328 12.5372 17.3685 12.6394 17.5099ZM11.3903 18.7117L11.2254 18.8846L11.0526 18.7039L11.2175 18.5311L11.3903 18.7117Z" fill="#B31F31"/>
<path fill-rule="evenodd" clip-rule="evenodd" d="M11.0448 13.3465H10.9662L10.8955 13.3622L10.8248 13.3779C10.7856 13.3936 10.7541 13.4015 10.7227 13.4172C10.6913 13.4329 10.6599 13.4486 10.6284 13.4722C10.597 13.4957 10.5735 13.5115 10.542 13.5429C10.5185 13.5664 10.4949 13.5979 10.4713 13.6214C10.4478 13.6529 10.4321 13.6764 10.4085 13.7078C10.3928 13.7393 10.3771 13.7707 10.3614 13.8021C10.3457 13.8414 10.3378 13.8728 10.3221 13.9042L10.3064 13.9749L10.2985 14.0535V14.132L10.3064 14.2106L10.3221 14.2813C10.3299 14.3206 10.3457 14.352 10.3614 14.3834C10.3771 14.4148 10.3928 14.4463 10.4085 14.4777C10.4321 14.5091 10.4478 14.5405 10.4713 14.5641C10.4949 14.5877 10.5185 14.6191 10.542 14.6426C10.5735 14.6662 10.597 14.6898 10.6284 14.7133C10.6599 14.7369 10.6913 14.7526 10.7227 14.7683C10.7541 14.784 10.7934 14.7919 10.8248 14.8076L10.8955 14.8233L10.9662 14.839H11.0448H11.1233L11.194 14.8233C11.2333 14.8155 11.2647 14.8076 11.304 14.7919C11.3433 14.7762 11.3747 14.7605 11.4061 14.7448C11.4376 14.7291 11.469 14.7055 11.5004 14.6898C11.5318 14.6662 11.5554 14.6426 11.5868 14.6191C11.6104 14.5877 11.6339 14.5641 11.6575 14.5327C11.6811 14.5012 11.6968 14.4698 11.7125 14.4384C11.7282 14.407 11.7439 14.3677 11.7596 14.3363C11.7753 14.297 11.7832 14.2656 11.7911 14.2263L11.8068 14.1477V14.0692V13.9906L11.7911 13.9199C11.7832 13.8807 11.7753 13.8492 11.7596 13.81C11.7439 13.7785 11.7282 13.7393 11.7125 13.7078C11.6968 13.6764 11.6732 13.645 11.6575 13.6136C11.6339 13.5822 11.6104 13.5586 11.5868 13.535C11.5554 13.5115 11.5318 13.4879 11.5004 13.4643C11.469 13.4408 11.4376 13.425 11.4061 13.4015C11.3747 13.3858 11.3354 13.3701 11.304 13.3543C11.2726 13.3386 11.2333 13.3308 11.194 13.3229L11.1233 13.3072L11.0448 13.3465ZM6.16655 8.13046L6.18226 7.92622L6.19797 7.79268L6.22153 7.65914L6.2451 7.52559L6.27652 7.39991L6.3158 7.27422L6.35508 7.14853L6.40221 7.02285L6.44934 6.89716L6.50433 6.77933L6.55932 6.66149L6.62216 6.55152L6.69286 6.44154L6.76356 6.33156L6.84212 6.22159L6.92067 6.11947L6.99922 6.01735L7.08563 5.92308L7.17205 5.82882L7.26631 5.73455L7.36058 5.64814L7.4627 5.56173L7.56482 5.48317L7.67479 5.40462L7.78477 5.33392L7.89475 5.26322L8.00472 5.20038L8.12256 5.13753L8.24039 5.08255L8.36607 5.02756L8.49176 4.98043L8.66458 4.91758V4.16346H8.71172L8.82169 4.1556L8.93167 4.13989L9.04164 4.12418L9.14376 4.10061L9.24589 4.06919L9.34801 4.03777L9.44227 3.99849L9.53654 3.95922L9.65437 3.91994L9.74864 3.8728L9.83505 3.81782L9.92146 3.76283L10.0079 3.69999L10.0943 3.63714L10.1728 3.56644L10.2514 3.49574L10.3299 3.42504L10.4006 3.35434L10.4713 3.27579L10.542 3.19724L10.6127 3.11868L10.6756 3.03227L10.8013 2.86731L10.9112 2.69449L11.0134 2.52167L11.0998 2.34885L11.1391 2.26244L11.2962 2.05034L11.4454 1.85395L11.524 1.75969L11.6025 1.67328L11.6732 1.58687L11.7518 1.50831L11.8303 1.43761L11.9089 1.36691L11.9874 1.30407L12.066 1.24123L12.1446 1.18624L12.2231 1.13125L12.3017 1.08412L12.3881 1.04484L12.4745 1.00556L12.5609 0.966285L12.6473 0.934863L12.7416 0.903441L12.8358 0.872019L12.938 0.848453L13.0401 0.824887L13.15 0.809176L13.26 0.793465L13.3779 0.777754L13.5035 0.762043L13.7549 0.746332C13.8728 0.738477 13.9906 0.738477 14.1084 0.730621V2.50596L14.0299 2.49024L13.9513 2.48239L13.8728 2.47453H13.7942H13.7235L13.6528 2.48239L13.5821 2.50596L13.5114 2.52167L13.4407 2.53738L13.3779 2.56094L13.3072 2.58451L13.2443 2.60808L13.1815 2.6395L13.1265 2.67092L13.0715 2.70234L13.0087 2.74162L12.9537 2.7809L12.8515 2.86731L12.7573 2.96157L12.663 3.05584L12.5845 3.15796L12.5059 3.26793L12.4352 3.37791L12.3802 3.49574C12.2702 3.69213 12.1681 3.88852 12.0581 4.0849C12.0189 4.14775 11.9796 4.21059 11.9325 4.28129C11.901 4.32842 11.8618 4.37555 11.8303 4.41483C11.7911 4.46196 11.7518 4.5091 11.7125 4.54838L11.6339 4.63478C11.5868 4.67406 11.5397 4.71334 11.4925 4.75262L11.3904 4.82332L11.2805 4.89401L11.2176 4.92544L11.0369 5.0197L11.2726 5.12968L11.3826 5.18467L11.4925 5.24751L11.6025 5.31035L11.7125 5.38891L11.8146 5.45961L11.9167 5.53816L12.011 5.61672L12.1053 5.70313L12.1995 5.78954L12.2859 5.87595L12.3724 5.97021L12.4588 6.06448L12.5373 6.15874L12.6159 6.26086L12.6866 6.36299L12.7573 6.47296L12.8201 6.58294L12.883 6.69292L12.938 6.81075L12.9929 6.92858L13.0401 7.04641L13.0872 7.16424L13.1265 7.28993L13.1658 7.41562L13.1972 7.54131L13.2286 7.66699L13.2522 7.79268L13.2679 7.92622L13.2836 8.05977L13.2914 8.19331V8.32685V8.46825L13.2836 8.60179L13.2679 8.73534L13.2522 8.86888L13.2286 9.00242L13.1972 9.13596L13.1658 9.26165L13.1265 9.38734L13.0872 9.51303L13.0401 9.63871L12.9929 9.75654L12.938 9.87438L12.883 9.99221L12.8201 10.1022L12.7494 10.2122L12.6787 10.3221L12.608 10.4243L12.5295 10.5264L12.4509 10.6285L12.3645 10.7228L12.2781 10.817L12.1838 10.9113L12.0896 10.9977L11.9953 11.0841L11.8932 11.1627L11.7911 11.2412L11.6811 11.3119L11.5711 11.3826L11.4611 11.4455L11.3433 11.5083L11.2255 11.5633L10.8405 11.7283L11.249 11.7518L11.3669 11.7597L11.4847 11.7754L11.5947 11.799L11.7046 11.8304L11.8146 11.8618L11.9246 11.9011L12.0267 11.9482L12.1288 11.9954L12.2231 12.0503L12.3174 12.1053L12.4116 12.1682L12.498 12.2389L12.5845 12.3096L12.663 12.3803L12.7416 12.4588L12.8201 12.5374L12.8908 12.6238L12.9615 12.7102L13.0244 12.8045L13.0872 12.8987L13.1422 12.993L13.1893 13.0951L13.2365 13.1972L13.2757 13.2994L13.315 13.4093L13.3464 13.5193L13.37 13.6293L13.3936 13.7393L13.4093 13.8571L13.4171 13.9749V14.0928V14.2106L13.4093 14.3284L13.3936 14.4463L13.37 14.5641L13.3464 14.6741L13.315 14.784L13.2757 14.894L13.2365 15.004L13.1893 15.1061L13.1343 15.2082L13.0794 15.3104L13.0165 15.4046L12.9537 15.4989L12.883 15.5853L12.8123 15.6717L12.7337 15.7581L12.6473 15.8367L12.5609 15.9152L12.4745 15.9859L12.3802 16.0566L12.2859 16.1195L12.1917 16.1745L12.0896 16.2294L11.9874 16.2766L11.8775 16.3159L11.7675 16.3551L11.6575 16.3866L11.5475 16.4101L11.4297 16.4337L11.3119 16.4494L11.194 16.4573H11.0762H10.9584L10.8405 16.4494L10.7227 16.4337L10.6127 16.4101L10.5028 16.3866L10.3928 16.3551L10.2828 16.3159L10.1807 16.2766L10.0786 16.2294L9.97644 16.1823L9.88218 16.1273L9.78791 16.0723L9.69365 16.0095L9.60724 15.9388L9.52083 15.8681L9.43442 15.7895L9.35586 15.711L9.28516 15.6246L9.21446 15.5382L9.14376 15.4518L9.08092 15.3575L9.02593 15.2632L8.97095 15.169L8.92381 15.0668L8.87668 14.9647L8.8374 14.8626L8.80598 14.7526L8.77456 14.6426L8.75099 14.5327L8.73528 14.4227L8.71957 14.3049L8.71172 14.1556V8.13046H10.3142V10.1022L10.4713 10.0393L10.597 9.9765L10.7149 9.9058L10.8327 9.82724L10.9427 9.74083L11.0448 9.64657L11.1391 9.54445L11.2255 9.43447L11.304 9.3245L11.3747 9.20666L11.4376 9.08097L11.4925 8.94743L11.5161 8.88459L11.5554 8.75105L11.5711 8.68035L11.5868 8.60965L11.5947 8.53895L11.6025 8.46825V8.39755V8.32685V8.23259L11.5947 8.13832L11.579 8.04405L11.5632 7.94979L11.5397 7.86338L11.5161 7.77697L11.4847 7.69056L11.4533 7.60415L11.414 7.52559L11.3747 7.44704L11.3276 7.36849L11.2805 7.28993L11.2255 7.21923L11.1705 7.14853L11.1155 7.07783L11.0526 7.01499L10.9898 6.95215L10.9191 6.89716L10.8484 6.84217L10.7777 6.78718L10.6991 6.74005L10.6206 6.69292L10.542 6.65364L10.4635 6.61436L10.3771 6.58294L10.2907 6.55152L10.2043 6.52795L10.1178 6.50438L10.0236 6.48867L9.92931 6.47296L9.83505 6.46511H9.74078H9.65437L9.56796 6.47296L9.48155 6.48082L9.39514 6.49653L9.30873 6.51224L9.23018 6.53581L9.15162 6.55937L9.07307 6.58294L8.99451 6.61436L8.92381 6.64578L8.85311 6.68506L8.78241 6.72434L8.71172 6.77147L8.64102 6.8186L8.57817 6.86574L8.51533 6.92072L8.45249 6.97571L8.3975 7.0307L8.34251 7.09354L8.28752 7.15639L8.24039 7.21923L8.17754 7.29779L8.13041 7.36849L8.09113 7.43918L8.05186 7.50988L8.02043 7.58058L7.98901 7.65914L7.95759 7.73769L7.93402 7.81625L7.91046 7.8948L7.89475 7.98121L7.87904 8.06762V16.4808H6.16655V8.13046Z" fill="#B31F31"/>
</svg>
