<svg width="20" height="20" viewBox="0 0 20 20" fill="none" xmlns="http://www.w3.org/2000/svg">
<path fill-rule="evenodd" clip-rule="evenodd" d="M17.2681 0.258469H2.73323C1.3749 0.258469 0.25814 1.38661 0.25814 2.76509V17.2362C0.25814 18.614 1.3749 19.7425 2.73323 19.7425H17.2681C18.6345 19.7425 19.7438 18.614 19.7438 17.2362V2.76542C19.7438 1.38694 18.6345 0.258469 17.2681 0.258469Z" fill="#9E173B"/>
<path d="M2.73323 0.516605C1.51015 0.516605 0.516605 1.52511 0.516605 2.76541V17.2362C0.516605 18.4762 1.51015 19.4844 2.73323 19.4844H17.2681C18.4905 19.4844 19.4876 18.4762 19.4876 17.2359V2.76541C19.4876 1.52511 18.4902 0.516605 17.2681 0.516605H2.73323ZM17.2681 20H2.73323C1.22568 20 0 18.7597 0 17.2359V2.76541C0 1.24096 1.22568 0 2.73323 0H17.2681C18.7746 0 20.0023 1.24096 20.0023 2.76541V17.2362C20.0023 18.7597 18.7746 20 17.2681 20Z" fill="white"/>
<path fill-rule="evenodd" clip-rule="evenodd" d="M13.6548 2.80313H17.2027V17.2011H13.6548V13.1242C10.5294 14.2669 7.607 14.3677 4.92222 11.7372C3.81 10.5798 3.18286 9.00304 3.44523 6.25583C3.49009 5.83513 3.2934 3.8838 2.79955 2.79922H5.95088C7.42722 5.14329 5.49247 8.13499 7.75428 10.0447C10.837 12.0402 13.5247 9.65392 13.6548 7.49939V2.80313ZM10.1198 4.28889C11.8 4.28889 13.1573 5.64819 13.1573 7.29587C13.1573 8.95882 11.8 10.3048 10.1198 10.3048C8.43994 10.3048 7.06796 8.95882 7.06796 7.29587C7.06796 5.64819 8.43994 4.28889 10.1198 4.28889Z" fill="#FAB90C"/>
</svg>
