<svg width="33" height="32" viewBox="0 0 33 32" fill="none" xmlns="http://www.w3.org/2000/svg">
<g clip-path="url(#clip0_2833_1532)">
<path d="M15.0216 20.373C15.0216 24.2174 15.0216 28.0308 15.0216 31.9374C11.2527 31.5286 8.05712 30.0041 5.40379 27.373C2.74157 24.7374 1.17712 21.5241 0.786013 17.8041C-0.191764 8.54634 6.61712 0.888558 15.1993 0.128558C24.9105 -0.733664 32.6349 6.96856 32.6393 15.9863C32.6438 25.2397 25.1682 31.4574 18.3282 31.8886C18.3282 28.0574 18.3282 24.2219 18.3282 20.3508C19.546 19.7997 20.4882 18.9419 20.9727 17.6397C21.3327 16.6708 21.3682 15.7019 21.0616 14.7108C20.4571 12.7419 18.5949 11.3908 16.546 11.4397C14.506 11.493 12.6927 12.9419 12.1949 14.9286C11.6482 17.1419 12.6216 19.0352 15.0216 20.373Z" fill="#01B5EE"/>
</g>
<defs>
<clipPath id="clip0_2833_1532">
<rect width="32" height="32" fill="white" transform="translate(0.666016)"/>
</clipPath>
</defs>
</svg>
