<svg width="20" height="20" viewBox="0 0 20 20" fill="none" xmlns="http://www.w3.org/2000/svg">
<path d="M6.77837 0.375558C7.06719 0.0482927 7.53793 0.0121904 7.9463 0C8.26232 0.0225054 8.58208 0.0384467 8.88965 0.118622C8.98905 0.161757 9.13627 0.200204 9.14096 0.331954C9.03969 0.541066 8.79213 0.594516 8.60927 0.707981C7.93458 1.10745 7.24348 1.4952 6.64803 2.01001C6.65693 1.77699 6.62224 1.54537 6.63443 1.31234C6.64099 0.999613 6.54957 0.633432 6.77837 0.375558Z" fill="#AA0000"/>
<path d="M9.72654 0.708832C10.2986 0.389069 10.9995 0.591617 11.512 0.932948C11.6484 1.01828 11.768 1.21051 11.6461 1.35727C11.4773 1.55372 11.2269 1.6625 10.9817 1.72908C9.41662 2.1759 7.94205 2.92936 6.65503 3.92428C6.65268 3.67344 6.65175 3.4226 6.6555 3.17176C7.54024 2.19278 8.62472 1.42338 9.72654 0.708832Z" fill="#AA0000"/>
<path d="M12.2982 1.57448C12.6189 1.45726 12.9772 1.5923 13.2317 1.79625C13.416 1.94113 13.6218 2.05787 13.7953 2.21682C13.9191 2.33216 14.0171 2.52861 13.9088 2.68662C13.7353 2.93652 13.4179 3.00638 13.1445 3.09312C10.8546 3.84658 8.59095 4.78899 6.63955 6.22746C6.62314 5.98037 6.62267 5.73234 6.5936 5.48619C7.65182 4.27746 8.99652 3.36319 10.3843 2.57456C11.0103 2.21869 11.6559 1.89893 12.2982 1.57448Z" fill="#AA0000"/>
<path d="M14.2374 3.14882C14.5183 3.03441 14.8816 3.02457 15.1184 3.2379C15.313 3.43482 15.5193 3.62049 15.7162 3.8146C15.8414 3.95901 15.9807 4.15921 15.8967 4.35707C15.7955 4.59713 15.5315 4.7059 15.306 4.79686C13.3794 5.38669 11.4571 6.02059 9.64258 6.90487C8.58342 7.41968 7.56412 8.0231 6.6353 8.74796C6.63671 8.52384 6.62499 8.3002 6.62124 8.07608C7.59553 6.86783 8.87505 5.94886 10.1977 5.15695C11.4922 4.38849 12.8562 3.74427 14.2374 3.14882Z" fill="#AA0000"/>
<path d="M15.713 5.14242C15.9301 5.04396 16.1636 4.92393 16.4093 4.98207C16.7103 5.05052 16.9166 5.30934 17.0511 5.57143C17.2162 5.88979 17.4862 6.18658 17.4741 6.56682C17.4741 6.85002 17.2537 7.07366 17.0207 7.20401C16.5363 7.47126 15.9793 7.54768 15.4406 7.6302C12.2922 8.17127 9.24975 9.40344 6.66492 11.2887C6.66726 11.0313 6.63538 10.7749 6.63444 10.5179C7.66078 9.42125 8.88451 8.5276 10.1636 7.74929C11.9171 6.69107 13.7944 5.85228 15.713 5.14242Z" fill="#AA0000"/>
<path d="M13.3292 8.72119C13.3597 8.97438 13.3433 9.23038 13.3658 9.4845C12.2644 10.6665 10.9333 11.6108 9.54693 12.4294C7.88856 13.3976 6.12846 14.183 4.32803 14.8473C4.13298 14.9261 3.94216 15.0457 3.7232 15.0325C3.37343 15.0414 3.10805 14.7475 2.9627 14.4582C2.78735 14.1248 2.50181 13.8093 2.52713 13.4089C2.54167 13.1238 2.77422 12.9133 3.00912 12.7862C3.47658 12.5401 4.00686 12.4608 4.52261 12.3811C7.68179 11.8462 10.7364 10.6126 13.3292 8.72119Z" fill="#AA0000"/>
<path d="M10.3664 13.0981C11.4171 12.5842 12.4331 11.9888 13.3535 11.2639C13.3502 11.4885 13.384 11.7168 13.3732 11.9381C12.6118 12.8866 11.6487 13.6509 10.6421 14.3237C9.15204 15.306 7.53962 16.0848 5.90705 16.7974C5.61776 16.9451 5.24877 17.0056 4.95713 16.8307C4.78741 16.6863 4.63503 16.5222 4.46999 16.3722C4.3373 16.2521 4.20461 16.1241 4.12256 15.9628C4.04567 15.8067 4.08036 15.6079 4.20883 15.4898C4.42967 15.2807 4.72974 15.192 5.01527 15.1105C6.8368 14.5492 8.64942 13.9331 10.3664 13.0981Z" fill="#AA0000"/>
<path d="M7.00155 16.8673C9.23708 16.1176 11.4492 15.192 13.3551 13.7812C13.3602 14.0292 13.4109 14.2773 13.3949 14.5248C12.7414 15.2891 11.9523 15.9277 11.1261 16.4959C10.1106 17.1898 9.02703 17.7769 7.9238 18.3165C7.77517 18.4075 7.6106 18.4909 7.43102 18.482C7.198 18.4591 6.96826 18.3751 6.78634 18.2256C6.57629 18.0558 6.3292 17.9288 6.14869 17.7248C6.02163 17.5959 6.01459 17.3657 6.15291 17.2424C6.3803 17.0164 6.71179 16.9718 7.00155 16.8673Z" fill="#AA0000"/>
<path d="M8.97975 18.2879C10.564 17.8434 12.0531 17.0792 13.3561 16.0768C13.3519 16.3262 13.3575 16.5761 13.3519 16.8255C12.5994 17.6723 11.6818 18.3517 10.7488 18.9851C10.4951 19.1417 10.2635 19.3541 9.96389 19.4169C9.60099 19.513 9.21465 19.4371 8.87894 19.2838C8.68343 19.1961 8.46869 19.1051 8.3421 18.9237C8.25817 18.8088 8.32053 18.656 8.42133 18.5758C8.58215 18.4389 8.77767 18.3446 8.97975 18.2879Z" fill="#AA0000"/>
<path d="M12.2762 18.7685C12.6489 18.5293 13.0254 18.2898 13.356 17.9934C13.3489 18.4149 13.3663 18.8365 13.3733 19.2575C13.3569 19.5613 13.1075 19.7957 12.8341 19.8914C12.4398 20.0297 12.0127 20.01 11.6029 19.9725C11.3755 19.9364 11.1284 19.9355 10.931 19.8023C10.8626 19.7681 10.8743 19.6879 10.8719 19.6251C10.9381 19.5622 11.0037 19.4966 11.0867 19.4563C11.4969 19.2514 11.8856 19.0076 12.2762 18.7685Z" fill="#AA0000"/>
</svg>
