<svg width="20" height="20" viewBox="0 0 20 20" fill="none" xmlns="http://www.w3.org/2000/svg">
<path d="M16.6473 19.9934L20 16.6727V3.41575L16.6275 0H3.37585L0 3.43868V16.7021L3.32946 20H16.6473" fill="white"/>
<path d="M16.6275 16.6334H13.3411V12.9753L16.1438 10.0802L10.4158 3.92992V5.48223L14.06 9.70034L10.4356 13.3781V19.9934H16.6407L19.9934 16.6727V3.41575L16.6275 0H3.37585L0 3.43868V16.7021L3.32946 20H9.58423V13.3846L5.96322 9.70034L9.60742 5.48223V3.92992L3.87941 10.0802L6.68213 12.9753V16.6334H3.39241V3.36991H16.6043L16.6275 16.6334ZM7.45403 9.47765C7.45469 8.97631 7.60572 8.48643 7.88802 8.06994C8.17032 7.65346 8.57121 7.32908 9.04 7.13782C9.5088 6.94657 10.0244 6.89704 10.5217 6.99548C11.019 7.09392 11.4756 7.33591 11.8337 7.69087C12.1919 8.04582 12.4355 8.4978 12.5338 8.98963C12.6321 9.48145 12.5806 9.99105 12.3859 10.454C12.1913 10.9169 11.8621 11.3124 11.44 11.5904C11.018 11.8683 10.5221 12.0164 10.0149 12.0157C9.67805 12.0157 9.3445 11.95 9.03337 11.8224C8.72224 11.6948 8.43964 11.5077 8.20175 11.2719C7.96386 11.0362 7.77537 10.7563 7.64706 10.4484C7.51876 10.1405 7.45316 9.81064 7.45403 9.47765Z" fill="#0044AA"/>
</svg>
