<svg width="32" height="32" viewBox="0 0 32 32" fill="none" xmlns="http://www.w3.org/2000/svg">
<rect x="0.5" y="0.5" width="31" height="31" rx="3.5" fill="#F4F4F4"/>
<rect x="0.5" y="0.5" width="31" height="31" rx="3.5" stroke="#E7E7E7"/>
<path d="M19.327 7.99805H20.1644C20.2359 8.01081 20.3083 8.01893 20.3809 8.02236C21.3438 8.10551 22.2731 8.41803 23.0915 8.93395C23.6878 9.31247 24.189 9.82411 24.5558 10.429C24.6542 10.5913 24.7442 10.7586 24.8253 10.9303C25.0698 11.4619 25.2233 12.031 25.2796 12.6138C25.2963 12.7064 25.2887 12.8021 25.3054 12.8963C25.322 12.9905 25.3054 13.1242 25.3054 13.2397C25.3112 13.3715 25.3071 13.5036 25.2932 13.6347C25.2751 13.9726 25.2326 14.3088 25.166 14.6405C25.1312 14.838 25.0707 15.031 25.0313 15.2285L23.8365 20.0189C23.7714 20.3152 23.6926 20.6084 23.6215 20.9017C23.5841 21.0948 23.5145 21.2803 23.4155 21.4501C23.3333 21.5786 23.231 21.693 23.1127 21.7889C22.8307 22.0051 22.4848 22.1206 22.1299 22.1171C21.9802 22.1081 21.8322 22.0806 21.6892 22.0351C21.5368 21.9844 21.3983 21.8985 21.2849 21.7844C21.1309 21.6414 21.0395 21.4432 21.0305 21.2329C21.0229 21.1032 21.0399 20.9733 21.0805 20.85C21.2703 20.0914 21.4591 19.3342 21.6468 18.5786C21.7286 18.2596 21.7983 17.9359 21.8816 17.6169C22.1572 16.5139 22.4323 15.4113 22.7069 14.3093C22.7726 14.039 22.8151 13.7635 22.834 13.4858C22.8404 13.272 22.8353 13.058 22.8189 12.8447C22.7922 12.578 22.7274 12.3165 22.6266 12.0683C22.533 11.8297 22.3982 11.6096 22.2283 11.418C22.1718 11.3547 22.1105 11.2958 22.0451 11.2418C22.0186 11.2136 21.9897 11.1877 21.9588 11.1643C21.7836 11.0246 21.5906 10.9092 21.3849 10.8209C21.2031 10.7341 21.0128 10.6664 20.817 10.6189C20.5479 10.5398 20.2703 10.4929 19.9902 10.4791C19.865 10.4654 19.739 10.4608 19.6132 10.4654C19.5132 10.4654 19.4163 10.4867 19.3103 10.4837C18.8466 10.5266 18.3908 10.6319 17.955 10.7966C17.6693 10.9016 17.3923 11.0291 17.1267 11.178C16.8024 11.3641 16.498 11.583 16.2181 11.8313C16.1242 11.9285 16.0273 12.0227 15.9334 12.12C15.7409 12.3306 15.583 12.5706 15.4655 12.831C15.3474 13.2169 15.2475 13.6089 15.14 13.9963C15.0082 14.5008 14.8719 15.0021 14.7462 15.5065C14.5948 16.0778 14.457 16.6521 14.292 17.2203C14.2193 17.4584 14.1461 17.6969 14.0724 17.9359C14.046 18.0683 14.0049 18.1972 13.9497 18.3203C13.8475 18.5334 13.6961 18.7188 13.508 18.8612C13.32 19.0037 13.1007 19.099 12.8685 19.1392C12.5511 19.2074 12.2197 19.1532 11.9403 18.9873C11.8558 18.9324 11.7806 18.8641 11.7177 18.7852C11.5988 18.641 11.5241 18.4653 11.5026 18.2793C11.4822 18.1934 11.4822 18.1039 11.5026 18.018C11.8782 16.7843 12.1765 15.5278 12.5036 14.282C12.6868 13.5785 12.8685 12.8736 13.073 12.1762C13.1221 12.0069 13.1891 11.8435 13.2728 11.6885C13.5004 11.2276 13.792 10.8015 14.139 10.4229L14.5388 10.0218C14.7475 9.8352 14.9659 9.65972 15.193 9.4961C15.308 9.40038 15.4413 9.3305 15.564 9.24389C16.0554 8.93464 16.5789 8.67992 17.1252 8.48423C17.26 8.43865 17.3917 8.38244 17.5295 8.34749C17.8188 8.25828 18.1131 8.18624 18.4108 8.13175C18.641 8.08313 18.8757 8.06186 19.1089 8.02995C19.1785 8.0303 19.248 8.02369 19.3164 8.0102L19.327 7.99805Z" fill="#00579C"/>
<path d="M9.56464 10.3968C9.64641 10.3968 9.72667 10.3755 9.80844 10.377C10.0238 10.3875 10.2356 10.4364 10.4338 10.5214C10.5731 10.586 10.6935 10.6854 10.7836 10.81C10.8362 10.8877 10.8712 10.9759 10.8864 11.0685C10.9016 11.1611 10.8965 11.2559 10.8715 11.3464C10.767 11.7551 10.6716 12.1683 10.561 12.5755C10.4379 13.0708 10.3147 13.5656 10.1916 14.0599C10.0992 14.4351 9.99621 14.8089 9.90687 15.1857C9.79885 15.6141 9.69184 16.0431 9.58584 16.4726C9.49499 16.8098 9.41321 17.1517 9.32841 17.492C9.22371 17.8571 9.16371 18.2336 9.14973 18.6133C9.13237 18.7138 9.13237 18.8166 9.14973 18.9171C9.15584 19.3153 9.244 19.708 9.40867 20.0703C9.48383 20.2195 9.57254 20.3614 9.67367 20.4942C9.75094 20.5907 9.83603 20.6807 9.92807 20.7631C10.0318 20.8529 10.1422 20.9346 10.2582 21.0077C10.3852 21.0863 10.5172 21.1563 10.6534 21.2174C10.9569 21.3394 11.272 21.43 11.5938 21.4878C11.8939 21.5375 12.1986 21.5538 12.5024 21.5365C13.2645 21.4868 14.0076 21.276 14.6829 20.9181C15.0799 20.7125 15.4493 20.4572 15.7823 20.1584C15.9755 19.9782 16.1486 19.7775 16.2987 19.5598C16.3963 19.4292 16.472 19.2834 16.5228 19.1283C16.9226 17.7458 17.2602 16.3465 17.6297 14.9548C17.7054 14.6798 17.7978 14.4108 17.8781 14.1374C17.9501 13.8817 18.0767 13.6447 18.2491 13.443C18.3477 13.3221 18.4666 13.2193 18.6004 13.1392C18.8843 12.9636 19.2183 12.8877 19.5498 12.9234C19.7086 12.9386 19.8629 12.9845 20.0041 13.0586C20.1807 13.1391 20.3264 13.2751 20.419 13.4461C20.4981 13.6123 20.5158 13.8013 20.469 13.9793C20.2207 14.8119 19.9996 15.6506 19.7846 16.4938C19.4908 17.6272 19.2076 18.7622 18.876 19.8865C18.8466 19.988 18.8081 20.0867 18.7609 20.1812C18.6798 20.3672 18.5851 20.547 18.4777 20.7191C18.2938 21.0235 18.0797 21.3086 17.8387 21.5699C17.7403 21.6945 17.6176 21.7978 17.5101 21.9133C16.9551 22.43 16.3263 22.8607 15.6445 23.191C15.4522 23.2776 15.2614 23.3703 15.063 23.4447C14.8919 23.5192 14.7102 23.5708 14.5345 23.6347C14.262 23.7228 13.9848 23.7866 13.7062 23.8534C13.5987 23.8747 13.4927 23.8884 13.3867 23.9112C13.2232 23.94 13.0596 23.9522 12.8961 23.978C12.8118 23.9794 12.7278 23.9871 12.6447 24.0008H11.8043C11.7733 23.9913 11.7412 23.9862 11.7089 23.9856C11.5892 23.9856 11.4711 23.9537 11.3515 23.9476C10.988 23.9006 10.6292 23.8218 10.2794 23.7121C9.88842 23.5926 9.51125 23.4317 9.15427 23.232C8.89622 23.0819 8.65062 22.9112 8.41984 22.7215C8.34461 22.6608 8.27282 22.5959 8.20481 22.5271C8.10033 22.4177 7.98524 22.3204 7.89136 22.2019C7.26907 21.4797 6.87018 20.5911 6.74353 19.6449C6.71778 19.493 6.71324 19.341 6.6875 19.1891V18.3292C6.69862 18.2715 6.70521 18.2131 6.70719 18.1544C6.74572 17.731 6.82019 17.3117 6.92979 16.901C7.10696 16.1991 7.27504 15.4926 7.45979 14.7922L7.88227 13.0981C8.01401 12.6028 8.13061 12.103 8.25781 11.6046C8.28261 11.4794 8.31911 11.3568 8.36684 11.2385C8.42396 11.1024 8.50443 10.9775 8.60459 10.8693C8.65759 10.8192 8.70756 10.7645 8.75601 10.7174C8.9891 10.5345 9.26993 10.4232 9.56464 10.3968Z" fill="#DA251C"/>
</svg>
