<svg width="20" height="20" viewBox="0 0 20 20" fill="none" xmlns="http://www.w3.org/2000/svg">
<path d="M14.2714 7.89548C11.1868 10.9167 8.53852 13.4807 8.38145 13.6003C8.02369 13.8653 7.49578 14.1217 7.07257 14.237C6.53593 14.3823 6.06037 14.3866 4.59879 14.2584C3.87018 14.1986 3.24628 14.1516 3.20265 14.1601C3.1023 14.1772 5.90331 16.8309 6.28724 17.083C6.63628 17.3138 7.15547 17.5018 7.61794 17.5702C8.57778 17.7112 9.66415 17.3437 10.3579 16.6386C10.6022 16.395 20.0261 2.52822 19.9999 2.45985C19.9869 2.42566 19.9563 2.40002 19.9258 2.40002C19.8996 2.40002 17.356 4.87426 14.2714 7.89548Z" fill="#CB2448"/>
<path d="M2.47191 10.8763C2.12384 10.9544 0.165957 11.5881 0.0397821 11.6619C-0.0689892 11.7313 0.0484838 11.8268 0.353043 11.9223C1.04918 12.1306 1.62349 12.5125 2.50236 13.3588L2.89394 13.732L4.50376 13.8709C6.30066 14.0228 6.55301 14.0315 6.76185 13.9447C7.06641 13.8188 7.26655 13.3805 7.17953 13.0463C7.10556 12.7729 7.06206 12.7251 6.54866 12.3172C5.60452 11.5707 4.97365 11.1845 4.30797 10.9631C3.76411 10.7809 3.05927 10.7505 2.47191 10.8763Z" fill="#CB2448"/>
</svg>
